<svg version="1.1" id="Layer_1" xmlns="http://www.w3.org/2000/svg" xmlns:xlink="http://www.w3.org/1999/xlink" x="0px" y="0px"
	 width="100%" viewBox="0 0 866 650" enable-background="new 0 0 866 650" xml:space="preserve">
<path fill="#FFFFFE" opacity="1.000000" stroke="none" 
	d="
M553.000000,651.000000 
	C368.666656,651.000000 184.833328,651.000000 1.000000,651.000000 
	C1.000000,434.333344 1.000000,217.666672 1.000000,1.000000 
	C289.666656,1.000000 578.333313,1.000000 867.000000,1.000000 
	C867.000000,217.666672 867.000000,434.333344 867.000000,651.000000 
	C762.500000,651.000000 658.000000,651.000000 553.000000,651.000000 
M207.096939,380.315338 
	C209.337204,403.999756 211.651001,427.677490 213.800385,451.370178 
	C216.972534,486.336670 220.058411,521.311157 223.075867,556.291260 
	C223.324265,559.170776 224.107056,560.507629 227.174423,561.359619 
	C260.671875,570.664795 294.103546,580.206604 327.559723,589.660583 
	C361.022430,599.116455 394.476440,608.604126 427.986694,617.888611 
	C431.033051,618.732544 434.684631,619.004395 437.678864,618.178223 
	C473.590363,608.268982 509.432861,598.109375 545.289001,587.999634 
	C577.153931,579.015198 609.000427,569.964478 640.897278,561.094971 
	C643.797058,560.288635 644.887695,559.174194 645.109436,556.116882 
	C645.976074,544.168884 647.155334,532.243042 648.255615,520.312439 
	C651.112915,489.328400 654.044983,458.351196 656.841492,427.361694 
	C659.039856,403.001617 661.016541,378.621521 663.207153,354.260742 
	C666.068359,322.443634 669.074646,290.639587 671.958496,258.824463 
	C673.805908,238.442764 675.507812,218.047897 677.342346,197.664993 
	C679.549744,173.138824 681.823486,148.618622 684.078003,124.096695 
	C686.286682,100.072289 688.537292,76.051697 690.701965,52.023331 
	C691.260742,45.820251 691.566223,39.594349 692.003113,33.157848 
	C519.618530,33.157848 348.056091,33.157848 176.041016,33.157848 
	C176.041016,34.802021 175.943451,36.096855 176.055618,37.373257 
	C177.774490,56.934700 179.490982,76.496437 181.268692,96.052589 
	C183.166168,116.926277 185.127396,137.794159 187.060852,158.664566 
	C188.611130,175.398636 190.169403,192.131989 191.709656,208.866989 
	C193.463455,227.921829 195.217743,246.976669 196.941101,266.034271 
	C198.528885,283.592865 200.075577,301.155182 201.641098,318.715790 
	C203.444092,338.939972 205.247864,359.164124 207.096939,380.315338 
z"/>
<path fill="#D4B831" opacity="1.000000" stroke="none" 
	d="
M207.074127,379.851807 
	C205.247864,359.164124 203.444092,338.939972 201.641098,318.715790 
	C200.075577,301.155182 198.528885,283.592865 196.941101,266.034271 
	C195.217743,246.976669 193.463455,227.921829 191.709656,208.866989 
	C190.169403,192.131989 188.611130,175.398636 187.060852,158.664566 
	C185.127396,137.794159 183.166168,116.926277 181.268692,96.052589 
	C179.490982,76.496437 177.774490,56.934700 176.055618,37.373257 
	C175.943451,36.096855 176.041016,34.802021 176.041016,33.157848 
	C348.056091,33.157848 519.618530,33.157848 692.003113,33.157848 
	C691.566223,39.594349 691.260742,45.820251 690.701965,52.023331 
	C688.537292,76.051697 686.286682,100.072289 684.078003,124.096695 
	C681.823486,148.618622 679.549744,173.138824 677.342346,197.664993 
	C675.507812,218.047897 673.805908,238.442764 671.958496,258.824463 
	C669.074646,290.639587 666.068359,322.443634 663.207153,354.260742 
	C661.016541,378.621521 659.039856,403.001617 656.841492,427.361694 
	C654.044983,458.351196 651.112915,489.328400 648.255615,520.312439 
	C647.155334,532.243042 645.976074,544.168884 645.109436,556.116882 
	C644.887695,559.174194 643.797058,560.288635 640.897278,561.094971 
	C609.000427,569.964478 577.153931,579.015198 545.289001,587.999634 
	C509.432861,598.109375 473.590363,608.268982 437.678864,618.178223 
	C434.684631,619.004395 431.033051,618.732544 427.986694,617.888611 
	C394.476440,608.604126 361.022430,599.116455 327.559723,589.660583 
	C294.103546,580.206604 260.671875,570.664795 227.174423,561.359619 
	C224.107056,560.507629 223.324265,559.170776 223.075867,556.291260 
	C220.058411,521.311157 216.972534,486.336670 213.800385,451.370178 
	C211.651001,427.677490 209.337204,403.999756 207.074127,379.851807 
M471.843689,568.031006 
	C480.237549,565.691956 488.631409,563.352844 497.000000,561.013367 
	C497.000000,561.013367 497.026154,561.028503 497.841461,561.022705 
	C498.818054,560.873901 499.821014,560.821228 500.767242,560.561707 
	C511.117188,557.723022 521.476929,554.917053 531.797241,551.973572 
	C545.554871,548.049561 559.280029,544.011719 573.756592,540.010376 
	C575.171692,539.662292 576.586853,539.314209 578.595825,538.953003 
	C579.074097,538.651123 579.552307,538.349243 580.863342,538.033569 
	C588.017029,536.060364 595.224670,534.254822 602.281555,531.981140 
	C603.806396,531.489807 605.679565,529.424805 605.871399,527.894043 
	C606.899902,519.686646 607.418213,511.416351 608.167175,503.172729 
	C609.424438,489.334137 610.767090,475.503143 611.987976,461.661377 
	C612.802856,452.422363 613.383484,443.162476 614.219788,433.925598 
	C615.756165,416.955780 617.467529,400.001709 618.980347,383.029877 
	C619.833313,373.461273 620.312317,363.859131 621.178406,354.291931 
	C622.699585,337.488556 624.451172,320.706085 625.987000,303.903992 
	C627.132507,291.372040 628.000610,278.814697 629.153564,266.283478 
	C630.684326,249.646774 632.459717,233.032455 633.963806,216.393478 
	C635.126282,203.533157 635.932129,190.640717 637.078613,177.778793 
	C638.620972,160.474854 640.428467,143.194443 641.951721,125.888939 
	C643.127808,112.528603 643.929565,99.135193 645.119141,85.776207 
	C645.720642,79.021095 645.942444,79.033157 639.055847,79.032852 
	C573.247681,79.029907 507.439575,79.028778 441.631439,79.030159 
	C434.024872,79.030319 434.022888,79.038918 434.022858,86.719147 
	C434.022461,240.660172 434.020813,394.601196 434.027069,548.542236 
	C434.027435,557.371277 434.093231,566.200256 434.153595,575.765930 
	C435.751282,576.343140 437.518005,577.678528 438.917450,577.366516 
	C445.010162,576.008179 451.017059,574.242310 457.013916,572.483826 
	C461.717712,571.104492 466.360992,569.518677 470.993195,568.017212 
	C470.993195,568.017212 471.024628,568.043457 471.843689,568.031006 
M414.847870,391.500000 
	C414.839050,311.361877 414.791626,231.223709 414.925415,151.085815 
	C414.932800,146.668045 413.413696,145.822464 409.468872,145.873886 
	C395.476440,146.056290 381.480042,145.927216 367.485199,145.945770 
	C366.210144,145.947449 364.935364,146.161133 362.715759,146.361755 
	C362.715759,236.233627 362.715759,325.863037 362.715759,416.249908 
	C328.970856,407.087219 296.326080,398.223236 263.516937,389.314636 
	C263.286255,390.346375 263.022949,390.976379 263.022339,391.606659 
	C263.003845,410.265808 262.928314,428.926117 263.174042,447.582092 
	C263.193512,449.060394 265.207031,451.348297 266.741455,451.827881 
	C273.869751,454.055908 281.169556,455.728882 288.383209,457.691345 
	C326.409943,468.036652 364.424408,478.427185 402.458435,488.745361 
	C406.326355,489.794678 410.296722,490.466217 414.847595,491.448639 
	C414.847595,457.750244 414.847595,425.125122 414.847870,391.500000 
z"/>
<path fill="#FCD63D" opacity="1.000000" stroke="none" 
	d="
M434.128571,575.029297 
	C434.093231,566.200256 434.027435,557.371277 434.027069,548.542236 
	C434.020813,394.601196 434.022461,240.660172 434.022858,86.719147 
	C434.022888,79.038918 434.024872,79.030319 441.631439,79.030159 
	C507.439575,79.028778 573.247681,79.029907 639.055847,79.032852 
	C645.942444,79.033157 645.720642,79.021095 645.119141,85.776207 
	C643.929565,99.135193 643.127808,112.528603 641.951721,125.888939 
	C640.428467,143.194443 638.620972,160.474854 637.078613,177.778793 
	C635.932129,190.640717 635.126282,203.533157 633.963806,216.393478 
	C632.459717,233.032455 630.684326,249.646774 629.153564,266.283478 
	C628.000610,278.814697 627.132507,291.372040 625.987000,303.903992 
	C624.451172,320.706085 622.699585,337.488556 621.178406,354.291931 
	C620.312317,363.859131 619.833313,373.461273 618.980347,383.029877 
	C617.467529,400.001709 615.756165,416.955780 614.219788,433.925598 
	C613.383484,443.162476 612.802856,452.422363 611.987976,461.661377 
	C610.767090,475.503143 609.424438,489.334137 608.167175,503.172729 
	C607.418213,511.416351 606.899902,519.686646 605.871399,527.894043 
	C605.679565,529.424805 603.806396,531.489807 602.281555,531.981140 
	C595.224670,534.254822 588.017029,536.060364 580.277588,537.804810 
	C579.128601,538.039429 578.565308,538.502808 578.001953,538.966125 
	C576.586853,539.314209 575.171692,539.662292 573.133606,539.732056 
	C563.193115,541.623230 553.867371,543.758240 544.562073,545.979004 
	C540.739990,546.891296 536.958252,547.974731 533.164612,549.004028 
	C526.735962,550.748413 520.320190,552.541260 513.884155,554.257812 
	C508.511047,555.690857 503.116608,557.043701 497.190430,558.571655 
	C497.176208,558.784424 497.101166,559.906433 497.026154,561.028503 
	C497.026154,561.028503 497.000000,561.013367 496.569244,561.005737 
	C488.905640,562.334900 481.648346,563.558533 474.462524,565.112610 
	C473.165924,565.393005 472.163086,567.031799 471.024628,568.043457 
	C471.024628,568.043457 470.993195,568.017212 470.589264,568.009155 
	C464.952179,568.893982 459.697998,569.680237 454.491089,570.706543 
	C447.684021,572.048157 440.914337,573.579529 434.128571,575.029297 
M491.028717,482.529938 
	C497.776184,480.738220 504.511536,478.899445 511.273224,477.163177 
	C537.970032,470.308075 564.689880,463.541016 591.338806,456.504822 
	C592.864990,456.101868 594.769165,453.688385 594.924744,452.060272 
	C596.791565,432.531464 598.378052,412.975647 600.002441,393.423950 
	C601.214111,378.839325 602.357788,364.248993 603.561401,349.663696 
	C605.267883,328.985077 607.001587,308.308716 608.778809,286.968781 
	C605.967529,287.152588 603.536743,287.211151 601.130737,287.486359 
	C591.400330,288.599365 581.685913,289.855621 571.950195,290.918152 
	C551.961060,293.099792 531.954529,295.123749 511.971893,297.362183 
	C506.361389,297.990631 506.033356,297.922760 506.034973,292.189728 
	C506.042267,266.365967 506.047058,240.542191 506.058594,214.718430 
	C506.061646,207.910934 506.071320,207.927826 513.021423,207.880554 
	C545.497192,207.659653 577.972900,207.352310 610.448975,207.292313 
	C614.788147,207.284317 615.952637,206.048798 616.184021,201.669601 
	C617.070007,184.903976 618.399536,168.158524 619.808411,151.426178 
	C620.143494,147.446609 619.584656,145.804764 614.978455,145.846832 
	C563.843140,146.313889 512.705688,146.558456 461.569000,146.877975 
	C454.835480,146.920044 454.809784,146.958588 454.878815,153.662140 
	C455.192596,184.135132 455.537292,214.607788 455.842407,245.080856 
	C456.229218,283.716797 456.600006,322.352905 456.951721,360.989136 
	C457.039886,370.673187 456.994232,370.673462 466.654388,369.112427 
	C466.818420,369.085968 466.987640,369.090942 467.151337,369.063019 
	C488.437378,365.429352 509.721130,361.782440 531.009827,358.164337 
	C539.436401,356.732208 547.873840,355.363770 555.739624,354.060242 
	C555.739624,370.145020 555.821228,385.573151 555.588379,400.996521 
	C555.569214,402.261414 553.618164,404.228668 552.212769,404.626801 
	C539.582275,408.205078 526.876221,411.517303 514.185913,414.883698 
	C496.043396,419.696411 477.911469,424.550964 459.736572,429.238434 
	C456.040527,430.191681 454.788727,431.991333 454.861938,435.869995 
	C455.182098,452.832275 455.162781,469.800873 455.276825,486.767120 
	C455.297211,489.798187 456.233856,491.532562 459.832611,490.575256 
	C469.944458,487.885468 480.101593,485.365967 491.028717,482.529938 
z"/>
<path fill="#EDEDEA" opacity="1.000000" stroke="none" 
	d="
M414.847717,392.000000 
	C414.847595,425.125122 414.847595,457.750244 414.847595,491.448639 
	C410.296722,490.466217 406.326355,489.794678 402.458435,488.745361 
	C364.424408,478.427185 326.409943,468.036652 288.383209,457.691345 
	C281.169556,455.728882 273.869751,454.055908 266.741455,451.827881 
	C265.207031,451.348297 263.193512,449.060394 263.174042,447.582092 
	C262.928314,428.926117 263.003845,410.265808 263.022339,391.606659 
	C263.022949,390.976379 263.286255,390.346375 263.516937,389.314636 
	C296.326080,398.223236 328.970856,407.087219 362.715759,416.249908 
	C362.715759,325.863037 362.715759,236.233627 362.715759,146.361755 
	C364.935364,146.161133 366.210144,145.947449 367.485199,145.945770 
	C381.480042,145.927216 395.476440,146.056290 409.468872,145.873886 
	C413.413696,145.822464 414.932800,146.668045 414.925415,151.085815 
	C414.791626,231.223709 414.839050,311.361877 414.847717,392.000000 
z"/>
<path fill="#F9D84A" opacity="1.000000" stroke="none" 
	d="
M497.433807,561.025635 
	C497.101166,559.906433 497.176208,558.784424 497.190430,558.571655 
	C503.116608,557.043701 508.511047,555.690857 513.884155,554.257812 
	C520.320190,552.541260 526.735962,550.748413 533.164612,549.004028 
	C536.958252,547.974731 540.739990,546.891296 544.562073,545.979004 
	C553.867371,543.758240 563.193115,541.623230 572.764893,539.738220 
	C559.280029,544.011719 545.554871,548.049561 531.797241,551.973572 
	C521.476929,554.917053 511.117188,557.723022 500.767242,560.561707 
	C499.821014,560.821228 498.818054,560.873901 497.433807,561.025635 
z"/>
<path fill="#F9DA53" opacity="1.000000" stroke="none" 
	d="
M434.141083,575.397644 
	C440.914337,573.579529 447.684021,572.048157 454.491089,570.706543 
	C459.697998,569.680237 464.952179,568.893982 470.608215,568.012817 
	C466.360992,569.518677 461.717712,571.104492 457.013916,572.483826 
	C451.017059,574.242310 445.010162,576.008179 438.917450,577.366516 
	C437.518005,577.678528 435.751282,576.343140 434.141083,575.397644 
z"/>
<path fill="#F9DA53" opacity="1.000000" stroke="none" 
	d="
M471.434143,568.037231 
	C472.163086,567.031799 473.165924,565.393005 474.462524,565.112610 
	C481.648346,563.558533 488.905640,562.334900 496.581848,561.005981 
	C488.631409,563.352844 480.237549,565.691956 471.434143,568.037231 
z"/>
<path fill="#F9D84A" opacity="1.000000" stroke="none" 
	d="
M578.298889,538.959595 
	C578.565308,538.502808 579.128601,538.039429 579.861206,537.811707 
	C579.552307,538.349243 579.074097,538.651123 578.298889,538.959595 
z"/>
<path fill="#FEFEFC" opacity="1.000000" stroke="none" 
	d="
M490.634766,482.654633 
	C480.101593,485.365967 469.944458,487.885468 459.832611,490.575256 
	C456.233856,491.532562 455.297211,489.798187 455.276825,486.767120 
	C455.162781,469.800873 455.182098,452.832275 454.861938,435.869995 
	C454.788727,431.991333 456.040527,430.191681 459.736572,429.238434 
	C477.911469,424.550964 496.043396,419.696411 514.185913,414.883698 
	C526.876221,411.517303 539.582275,408.205078 552.212769,404.626801 
	C553.618164,404.228668 555.569214,402.261414 555.588379,400.996521 
	C555.821228,385.573151 555.739624,370.145020 555.739624,354.060242 
	C547.873840,355.363770 539.436401,356.732208 531.009827,358.164337 
	C509.721130,361.782440 488.437378,365.429352 467.151337,369.063019 
	C466.987640,369.090942 466.818420,369.085968 466.654388,369.112427 
	C456.994232,370.673462 457.039886,370.673187 456.951721,360.989136 
	C456.600006,322.352905 456.229218,283.716797 455.842407,245.080856 
	C455.537292,214.607788 455.192596,184.135132 454.878815,153.662140 
	C454.809784,146.958588 454.835480,146.920044 461.569000,146.877975 
	C512.705688,146.558456 563.843140,146.313889 614.978455,145.846832 
	C619.584656,145.804764 620.143494,147.446609 619.808411,151.426178 
	C618.399536,168.158524 617.070007,184.903976 616.184021,201.669601 
	C615.952637,206.048798 614.788147,207.284317 610.448975,207.292313 
	C577.972900,207.352310 545.497192,207.659653 513.021423,207.880554 
	C506.071320,207.927826 506.061646,207.910934 506.058594,214.718430 
	C506.047058,240.542191 506.042267,266.365967 506.034973,292.189728 
	C506.033356,297.922760 506.361389,297.990631 511.971893,297.362183 
	C531.954529,295.123749 551.961060,293.099792 571.950195,290.918152 
	C581.685913,289.855621 591.400330,288.599365 601.130737,287.486359 
	C603.536743,287.211151 605.967529,287.152588 608.778809,286.968781 
	C607.001587,308.308716 605.267883,328.985077 603.561401,349.663696 
	C602.357788,364.248993 601.214111,378.839325 600.002441,393.423950 
	C598.378052,412.975647 596.791565,432.531464 594.924744,452.060272 
	C594.769165,453.688385 592.864990,456.101868 591.338806,456.504822 
	C564.689880,463.541016 537.970032,470.308075 511.273224,477.163177 
	C504.511536,478.899445 497.776184,480.738220 490.634766,482.654633 
z"/>
</svg>