<svg version="1.1" id="Layer_1" xmlns="http://www.w3.org/2000/svg" xmlns:xlink="http://www.w3.org/1999/xlink" x="0px" y="0px"
	 width="100%" viewBox="0 0 2203 2049" enable-background="new 0 0 2203 2049" xml:space="preserve">
<path fill="#185C37" opacity="1.000000" stroke="none" 
	d="
M2134.561523,2051.519287 
	C1618.624878,2052.000000 1103.249756,2052.000000 586.937317,2052.000000 
	C577.735107,2047.804321 568.083801,2048.175781 559.923279,2042.894897 
	C528.239929,2022.391357 511.210449,1994.443970 511.514984,1955.919312 
	C512.027283,1891.111084 511.609802,1826.296021 511.718079,1761.483887 
	C511.727936,1755.598877 510.637238,1749.443970 514.792847,1743.303101 
	C522.083313,1738.213989 529.623291,1739.673584 536.827087,1739.670044 
	C716.359009,1739.582153 895.890991,1739.605103 1075.422974,1739.606079 
	C1083.745972,1739.606079 1092.005615,1739.434326 1100.278320,1737.937256 
	C1128.349487,1732.857544 1150.415405,1719.182739 1164.973511,1694.176147 
	C1167.292969,1690.191895 1168.879517,1685.634399 1173.578125,1682.167480 
	C1204.550171,1665.240967 1224.211792,1641.608154 1227.964600,1606.196533 
	C1229.304077,1593.558228 1229.590088,1580.985840 1229.591553,1568.352905 
	C1229.610840,1394.864014 1229.581177,1221.375122 1229.672363,1047.886230 
	C1229.676270,1040.668823 1228.283813,1033.173218 1232.774170,1025.603027 
	C1236.731567,1022.209656 1240.667358,1021.729797 1244.708740,1021.710999 
	C1288.597534,1021.507080 1332.486328,1021.432007 1376.374878,1021.761292 
	C1378.691406,1021.778687 1381.039917,1021.871094 1384.146484,1023.263733 
	C1385.634521,1024.030518 1386.195068,1024.401733 1387.382812,1025.559448 
	C1391.576416,1032.883301 1390.375000,1040.027954 1390.378784,1046.932861 
	C1390.462036,1201.170654 1390.435059,1355.408447 1390.441284,1509.646240 
	C1390.442261,1533.549805 1390.451538,1533.558350 1414.778320,1533.558838 
	C1670.953003,1533.563110 1927.127563,1533.539429 2183.302246,1533.656372 
	C2190.426270,1533.659668 2198.031006,1531.737061 2205.275635,1537.322021 
	C2206.000000,1686.041748 2206.000000,1834.083618 2206.000000,1983.062744 
	C2202.230225,1993.840332 2199.770752,2004.159058 2193.438965,2012.993896 
	C2178.885498,2033.300049 2160.455078,2047.386841 2134.561523,2051.519287 
z"/>
<path fill="#107C41" opacity="1.000000" stroke="none" 
	d="
M2206.000000,1537.062744 
	C1936.712769,1538.012817 1667.425659,1538.025879 1398.138428,1538.030762 
	C1395.807861,1538.030884 1393.473511,1537.982788 1391.147461,1537.847046 
	C1387.950562,1537.660400 1386.370605,1535.779907 1386.200317,1532.689697 
	C1386.072021,1530.362915 1386.042480,1528.028076 1386.042603,1525.696899 
	C1386.044678,1359.725342 1386.054443,1193.753662 1386.083008,1026.838379 
	C1388.328491,1022.229553 1392.017456,1021.977234 1395.725220,1021.770081 
	C1400.052246,1021.528320 1404.383911,1021.562134 1408.714478,1021.562012 
	C1666.902222,1021.555298 1925.089844,1021.537659 2183.277588,1021.652710 
	C2190.404297,1021.655884 2198.007080,1019.745728 2205.267578,1025.315308 
	C2206.000000,1196.041748 2206.000000,1366.083618 2206.000000,1537.062744 
z"/>
<path fill="#21A366" opacity="1.000000" stroke="none" 
	d="
M2206.000000,1025.062744 
	C2100.789551,1026.021484 1995.578979,1026.054810 1890.368408,1026.061646 
	C1727.558105,1026.072266 1564.747925,1026.065430 1401.937622,1026.060547 
	C1397.276855,1026.060425 1392.615967,1026.000000 1387.028809,1025.931152 
	C1386.102539,1025.894531 1386.088379,1025.956543 1386.094971,1025.934692 
	C1383.001709,1023.435730 1381.887451,1020.129639 1381.763672,1016.256104 
	C1381.604126,1011.261780 1381.565674,1006.269104 1381.565552,1001.274963 
	C1381.559814,846.769897 1381.549194,692.264832 1381.598755,537.759766 
	C1381.601074,530.800537 1380.880371,523.767639 1383.193481,515.972656 
	C1383.967163,514.470581 1384.332153,513.899109 1385.476440,512.677246 
	C1393.117676,508.318451 1400.601074,509.626923 1407.831055,509.623169 
	C1574.380127,509.536285 1740.929077,509.557953 1907.478149,509.559174 
	C2000.412476,509.559845 2093.346924,509.510315 2186.281006,509.650421 
	C2192.429199,509.659668 2199.048340,508.059113 2205.268555,513.316223 
	C2206.000000,684.041809 2206.000000,854.083557 2206.000000,1025.062744 
z"/>
<path fill="#33C481" opacity="1.000000" stroke="none" 
	d="
M2206.000000,513.062683 
	C1936.051758,514.006470 1666.103394,514.013428 1396.155151,514.012146 
	C1393.490356,514.012146 1390.825562,513.902954 1387.247070,513.769897 
	C1382.873901,511.966797 1382.128418,508.790894 1381.871582,505.348022 
	C1381.648315,502.356354 1381.582275,499.359467 1381.581543,496.361542 
	C1381.541626,337.482239 1381.531738,178.602936 1381.645508,19.723694 
	C1381.649536,14.216721 1380.373779,8.276540 1385.315186,2.732799 
	C1635.375122,2.000000 1884.750366,2.000000 2135.062744,2.000000 
	C2152.963623,5.270820 2167.511719,12.822415 2180.032715,24.962351 
	C2192.744629,37.287312 2202.733887,50.795769 2205.519043,69.437035 
	C2206.000000,73.428719 2206.000000,76.857430 2206.000000,81.143074 
	C2205.728516,82.333336 2205.457031,82.666664 2205.592773,83.500000 
	C2206.000000,226.708450 2206.000000,369.416901 2206.000000,513.062683 
z"/>
<path fill="#21A366" opacity="1.000000" stroke="none" 
	d="
M1385.062744,2.000000 
	C1386.021851,167.297485 1386.042847,332.594971 1386.069458,497.892456 
	C1386.070190,502.557648 1386.129639,507.222839 1386.247559,512.791504 
	C1386.333496,513.695007 1386.108154,513.903015 1385.997437,514.009155 
	C1383.093750,517.548279 1379.255127,518.261780 1375.132324,518.283203 
	C1331.217407,518.510925 1287.302490,518.589966 1243.387817,518.225952 
	C1240.726685,518.203857 1238.055786,517.993164 1234.793945,516.141724 
	C1229.592651,511.030457 1228.326050,505.249573 1227.793701,499.188629 
	C1223.574463,451.150940 1186.082886,416.475342 1137.687622,416.445587 
	C940.393799,416.324371 743.099792,416.429230 545.805969,416.310486 
	C536.238525,416.304718 526.469116,417.988434 516.293396,413.908386 
	C511.515076,409.874878 511.742432,405.058350 511.736267,400.429962 
	C511.596527,295.532043 510.717468,190.622726 512.184326,85.742348 
	C512.701294,48.774822 535.958679,24.195955 567.023315,6.783175 
	C571.689331,4.167744 577.518250,5.157265 583.240479,2.539187 
	C586.777771,2.000000 589.555603,2.000000 593.166687,2.000000 
	C594.333313,2.271524 594.666687,2.543047 595.500000,2.407285 
	C858.708435,2.000000 1121.416870,2.000000 1385.062744,2.000000 
z"/>
<path fill="#000000" opacity="1.000000" stroke="none" 
	d="
M516.713501,1743.283081 
	C515.965576,1779.314087 515.860168,1814.611938 515.823486,1849.909912 
	C515.785767,1886.208984 516.181824,1922.512939 515.709778,1958.805908 
	C515.255676,1993.716431 537.581360,2030.764160 576.533081,2045.729370 
	C579.846741,2047.002319 583.828491,2047.030029 586.010620,2051.269531 
	C391.485474,2052.000000 196.970947,2052.000000 2.000000,2052.000000 
	C2.000000,1873.958496 2.000000,1695.916504 2.000000,1516.937256 
	C9.643770,1513.476562 9.876595,1520.169067 11.500775,1524.188721 
	C18.066992,1540.439331 26.022457,1555.616577 41.184341,1566.880249 
	C60.762039,1580.306274 81.441002,1586.035522 104.636345,1585.864868 
	C166.792435,1585.407593 228.959427,1585.103638 292.064819,1586.159424 
	C363.132507,1584.690674 433.263458,1585.905273 503.389923,1585.668701 
	C507.341309,1585.655396 511.410950,1585.433105 515.905396,1588.061523 
	C519.800537,1592.078003 520.260803,1596.293823 520.289001,1600.614502 
	C520.374573,1613.734619 520.817566,1626.858398 519.927612,1640.966064 
	C520.972656,1672.085327 520.323547,1702.216309 520.272522,1732.344360 
	C520.266418,1735.955444 520.340820,1739.714844 516.713501,1743.283081 
z"/>
<path fill="#000000" opacity="1.000000" stroke="none" 
	d="
M583.062683,2.000000 
	C584.892151,6.858242 580.475220,5.984891 578.284546,6.782230 
	C556.791809,14.604904 540.230957,28.313408 528.419800,47.820694 
	C520.323669,61.192394 515.764832,75.731316 515.753723,91.353188 
	C515.677917,197.612625 515.771179,303.872223 515.960571,411.057861 
	C518.257568,414.124176 520.013672,416.463409 520.043396,419.684753 
	C520.167480,433.154663 521.630005,446.656586 518.799927,460.986938 
	C516.526672,466.529114 512.595703,467.852203 508.016998,468.119263 
	C502.361938,468.449036 496.701691,468.377777 491.042847,468.378113 
	C358.873047,468.386261 226.697845,469.028107 94.537209,467.928894 
	C61.512039,467.654205 23.639856,493.562378 13.383944,525.226501 
	C11.662478,530.541321 11.407033,537.572693 2.827600,538.436523 
	C2.000000,359.473206 2.000000,180.946426 2.000000,2.000000 
	C195.374924,2.000000 388.750153,2.000000 583.062683,2.000000 
z"/>
<path fill="#158349" opacity="1.000000" stroke="none" 
	d="
M2.562017,966.482544 
	C2.000000,913.291565 2.000000,860.583069 2.000000,806.937317 
	C8.083035,799.387512 16.794312,797.184143 24.238388,792.875610 
	C140.074432,725.831055 256.076874,659.074158 371.955109,592.102966 
	C441.418182,551.957092 511.066254,512.127197 580.188721,471.397400 
	C589.605347,465.848663 600.580994,465.493652 610.722778,460.091888 
	C633.562012,459.128998 655.564270,459.944977 677.554199,459.526337 
	C702.844055,459.044861 728.258728,457.910217 753.407593,458.362427 
	C836.689697,459.859833 919.974304,458.714142 1004.077698,460.332214 
	C1010.732849,466.566071 1010.565735,469.128845 1002.928101,473.990662 
	C991.696655,481.140167 980.037292,487.600525 968.503845,494.250549 
	C827.221924,575.711609 685.940247,657.172852 544.823730,738.920410 
	C528.699463,748.261169 512.421875,757.338440 496.331512,766.739563 
	C493.148590,768.599304 489.969910,770.372498 485.532593,770.912842 
	C484.332581,770.894653 483.856750,770.868164 482.684570,770.749756 
	C481.548370,770.524231 481.108521,770.390564 480.072083,769.931152 
	C478.782959,769.065613 478.152893,768.462097 477.255127,767.273499 
	C476.672424,766.451111 476.440216,766.129333 475.911530,765.307556 
	C475.272247,764.144592 474.943481,763.474670 474.362152,762.335022 
	C473.915344,761.568787 473.737244,761.264343 473.289032,760.507690 
	C472.830719,759.758484 472.642548,759.461548 472.155182,758.723755 
	C471.649689,757.987488 471.443451,757.692200 470.922455,756.945312 
	C470.396179,756.185608 470.184631,755.877380 469.653748,755.092285 
	C469.122162,754.286194 468.909882,753.957092 468.385132,753.119507 
	C467.656799,751.904602 467.256226,751.189575 466.540741,749.910400 
	C461.317963,741.593628 460.101318,731.528748 450.856689,725.834839 
	C444.710815,723.875671 439.214050,722.941589 433.478668,722.956909 
	C401.246185,723.043213 369.013336,723.010376 336.780609,722.985229 
	C332.101898,722.981567 327.471954,723.114197 322.553802,725.533875 
	C318.594971,730.034180 322.821594,732.549133 324.145630,735.480713 
	C329.647125,747.661621 339.267975,757.777710 342.077393,772.025146 
	C340.695892,777.800598 336.534363,780.007751 332.474640,782.344666 
	C228.121277,842.412231 123.928078,902.757507 19.565557,962.808960 
	C14.606799,965.662292 9.825136,970.467163 2.562017,966.482544 
z"/>
<path fill="#127F44" opacity="1.000000" stroke="none" 
	d="
M2.552442,1406.466309 
	C2.000000,1316.624878 2.000000,1227.249756 2.000000,1136.937256 
	C20.214005,1124.401611 39.285004,1114.274414 57.962051,1103.473022 
	C168.519547,1039.535278 279.128601,975.686646 389.816376,911.974915 
	C398.310028,907.085999 406.029114,900.014709 417.453125,899.937500 
	C422.891663,901.914429 425.206177,905.994934 427.598572,910.021790 
	C447.665100,943.797791 467.609558,977.652527 488.074738,1011.181763 
	C494.804932,1022.208252 494.208069,1030.607666 487.197418,1041.198120 
	C455.042053,1089.772583 423.630737,1138.838989 392.214630,1187.898315 
	C388.879364,1193.106689 386.348969,1199.360962 378.557068,1201.005371 
	C372.611755,1197.978516 368.297607,1200.527588 363.887787,1203.084106 
	C274.000916,1255.198853 183.957428,1307.042603 93.990402,1359.018555 
	C68.326790,1373.844971 42.573738,1388.518066 17.005449,1403.510742 
	C12.781924,1405.987305 8.582228,1409.245117 2.552442,1406.466309 
z"/>
<path fill="#16864C" opacity="1.000000" stroke="none" 
	d="
M607.928833,462.969299 
	C605.753906,466.207703 602.761841,467.001038 599.878296,467.544373 
	C593.159790,468.810211 587.452820,472.187134 581.690613,475.514313 
	C553.183228,491.974670 524.667725,508.421112 496.185181,524.924377 
	C473.743713,537.927307 451.376343,551.058105 428.920746,564.036377 
	C404.449951,578.179199 379.894592,592.175659 355.414673,606.302734 
	C332.662323,619.432922 309.971344,632.669434 287.233978,645.825684 
	C263.346039,659.647522 239.436768,673.432434 215.533890,687.228455 
	C192.206131,700.692566 168.880630,714.160645 145.543030,727.607666 
	C120.766220,741.883972 95.963486,756.115417 71.197037,770.409668 
	C56.222084,779.052612 41.378246,787.926575 26.309187,796.401062 
	C19.131021,800.437927 12.311639,805.572083 2.782319,805.992493 
	C2.000000,717.291565 2.000000,628.583069 2.000000,538.937317 
	C6.158046,538.222351 5.473479,534.765015 6.144975,532.436951 
	C12.453891,510.564514 24.380703,492.610962 43.239353,479.596863 
	C58.677479,468.943268 75.502571,463.166351 94.627747,463.199554 
	C230.224594,463.434906 365.821991,463.357666 501.419220,463.342010 
	C505.725830,463.341492 510.082947,463.919861 515.066528,462.375336 
	C518.867249,458.368896 523.037415,457.727966 527.490112,457.689880 
	C550.414062,457.493927 573.338074,457.455078 596.261047,457.728363 
	C600.552246,457.779480 605.051575,457.657410 607.928833,462.969299 
z"/>
<path fill="#148248" opacity="1.000000" stroke="none" 
	d="
M418.181030,901.417908 
	C409.037689,903.927795 402.217651,909.612427 394.767059,913.840637 
	C362.695679,932.041016 330.975372,950.858765 299.040039,969.300659 
	C266.526825,988.076355 233.869049,1006.601562 201.353943,1025.374023 
	C174.020508,1041.154785 146.858078,1057.231934 119.515755,1072.997192 
	C90.443985,1089.759766 61.240124,1106.293091 32.117481,1122.967651 
	C26.927967,1125.939087 21.730583,1128.927612 16.763901,1132.247803 
	C12.705194,1134.961060 8.441280,1136.307495 2.805750,1135.998657 
	C2.000000,1079.958252 2.000000,1023.916443 2.000000,966.937317 
	C5.833744,966.098267 9.020769,964.450500 12.254302,962.578552 
	C45.653580,943.243347 79.122887,924.029175 112.526741,904.701843 
	C139.595184,889.040161 166.573883,873.223511 193.641556,857.560486 
	C221.574402,841.396851 249.547272,825.302124 277.539520,809.241455 
	C297.163330,797.982361 316.856445,786.844055 336.487671,775.597778 
	C337.604309,774.958069 338.440094,773.828186 339.764374,772.325073 
	C345.662872,771.203918 347.469696,775.750854 349.606812,779.240479 
	C371.822845,815.516907 393.116608,852.346680 415.103149,888.762451 
	C417.288544,892.382080 419.915894,896.101868 418.181030,901.417908 
z"/>
<path fill="#107940" opacity="1.000000" stroke="none" 
	d="
M2.000000,1406.937256 
	C9.502515,1404.743408 15.156973,1399.750977 21.450186,1396.150635 
	C65.555656,1370.918213 109.606026,1345.588623 153.580688,1320.128906 
	C188.931915,1299.661743 224.109329,1278.894531 259.442719,1258.396484 
	C294.490173,1238.064209 329.632874,1217.896118 364.747314,1197.679565 
	C366.762115,1196.519409 368.852234,1195.463623 370.986420,1194.542725 
	C376.323975,1192.239624 376.342255,1192.281982 378.311768,1200.019165 
	C378.964844,1201.317871 379.322510,1201.973267 379.540833,1203.296143 
	C379.516479,1204.241333 379.459839,1204.616455 379.233887,1205.530518 
	C378.916321,1206.411255 378.768066,1206.753296 378.365234,1207.586426 
	C377.928558,1208.393921 377.746429,1208.710327 377.280334,1209.489380 
	C376.803528,1210.255737 376.610596,1210.559204 376.127075,1211.314941 
	C375.643616,1212.070068 375.450806,1212.372925 374.685669,1213.599854 
	C373.923279,1214.839111 373.733215,1215.154297 373.256592,1215.951660 
	C372.778259,1216.762085 372.586487,1217.090210 372.106873,1217.923706 
	C371.626740,1218.776367 371.434418,1219.123779 370.651917,1220.560059 
	C369.852661,1222.027100 369.643555,1222.405151 369.101746,1223.355835 
	C347.004303,1257.909058 324.630707,1291.498291 303.197327,1326.298462 
	C303.078979,1327.544434 303.350800,1328.166626 304.374084,1329.005249 
	C309.696747,1331.136230 314.684204,1330.997437 319.671143,1331.012817 
	C357.184814,1331.128540 394.699432,1330.726318 433.007202,1331.363281 
	C440.073578,1334.882202 437.664551,1339.184204 434.702393,1343.053101 
	C431.197205,1347.631348 426.034119,1350.239014 421.135956,1353.077393 
	C302.516815,1421.817749 183.628708,1490.092773 64.924217,1558.685547 
	C56.949413,1563.293579 49.837299,1571.484741 38.141541,1568.525269 
	C22.246187,1557.745605 14.072676,1542.383301 7.724664,1525.669800 
	C6.476470,1522.383301 7.112620,1518.199341 2.748299,1515.964355 
	C2.000000,1479.958252 2.000000,1443.916382 2.000000,1406.937256 
z"/>
<path fill="#000000" opacity="1.000000" stroke="none" 
	d="
M2134.937256,2052.000000 
	C2134.786377,2047.124756 2139.312500,2047.456055 2142.434082,2046.451538 
	C2162.432373,2040.016357 2178.037598,2027.837646 2190.094238,2010.863037 
	C2194.723877,2004.344971 2197.766602,1996.979736 2201.079834,1989.763428 
	C2202.016113,1987.724121 2202.070312,1985.123901 2205.289307,1984.019165 
	C2206.000000,2006.524048 2206.000000,2029.048218 2206.000000,2052.000000 
	C2182.626465,2052.000000 2159.250488,2052.000000 2134.937256,2052.000000 
z"/>
<path fill="#000000" opacity="1.000000" stroke="none" 
	d="
M2206.000000,69.062683 
	C2201.420654,70.803383 2202.461182,66.613472 2201.678955,64.622810 
	C2196.684082,51.909676 2190.215088,40.290668 2180.512695,30.403809 
	C2169.431396,19.111891 2156.530762,11.045591 2141.675781,5.894553 
	C2139.510254,5.143652 2137.399902,4.233047 2135.632080,2.698156 
	C2159.184326,2.000000 2182.368652,2.000000 2206.000000,2.000000 
	C2206.000000,24.039774 2206.000000,46.082569 2206.000000,69.062683 
z"/>
<path fill="#000000" opacity="1.000000" stroke="none" 
	d="
M595.500000,2.000000 
	C595.454346,2.407119 594.879395,2.595342 594.137573,2.282335 
	C594.000000,2.000000 595.000000,2.000000 595.500000,2.000000 
z"/>
<path fill="#185C37" opacity="1.000000" stroke="none" 
	d="
M2206.000000,83.500000 
	C2205.159180,83.549446 2204.821045,82.894943 2205.586426,81.980309 
	C2206.000000,82.000000 2206.000000,83.000000 2206.000000,83.500000 
z"/>
<path fill="#107C41" opacity="1.000000" stroke="none" 
	d="
M1232.596069,515.304504 
	C1284.006104,513.947449 1334.022095,513.999878 1384.962402,514.083801 
	C1385.957153,519.113037 1386.088501,524.110718 1386.088867,529.108459 
	C1386.100830,694.090942 1386.100220,859.073425 1386.101562,1024.984375 
	C1336.010254,1025.965454 1285.918701,1026.018188 1234.076904,1025.500244 
	C1229.054199,1020.943848 1229.653320,1016.112671 1229.649780,1011.531860 
	C1229.525879,850.510254 1229.528809,689.488647 1229.639648,528.466980 
	C1229.642456,524.512512 1229.321167,520.448547 1232.596069,515.304504 
z"/>
<path fill="#124629" opacity="1.000000" stroke="none" 
	d="
M516.974426,1744.006836 
	C516.010193,1710.639038 515.979492,1677.261963 515.983337,1642.948853 
	C518.784058,1638.578735 522.574219,1637.796753 526.723938,1637.703979 
	C532.050781,1637.585083 537.376770,1637.565552 542.703430,1637.565430 
	C698.185669,1637.561401 853.667969,1637.567383 1009.150208,1637.554810 
	C1023.778564,1637.553589 1038.432373,1638.134766 1053.882080,1635.981201 
	C1100.455811,1644.146729 1148.961304,1629.622192 1170.378784,1581.908936 
	C1172.753418,1576.618896 1173.951294,1568.832642 1183.787109,1572.630615 
	C1184.719116,1573.864502 1185.258179,1574.437256 1185.293457,1575.048096 
	C1187.042603,1605.300049 1187.336182,1635.564941 1185.087280,1665.792236 
	C1184.621948,1672.046875 1182.575806,1678.253906 1176.681030,1683.332275 
	C1170.303589,1692.933594 1166.086304,1702.677490 1158.935547,1710.845581 
	C1144.543701,1727.284912 1126.557861,1737.002563 1105.618286,1741.859131 
	C1095.817749,1744.132202 1085.829346,1744.023193 1075.828613,1744.020752 
	C889.855103,1743.976562 703.881531,1743.993530 516.974426,1744.006836 
z"/>
<path fill="#165331" opacity="1.000000" stroke="none" 
	d="
M1176.721191,1683.887939 
	C1180.896362,1668.291504 1182.611084,1652.261719 1182.142578,1635.773804 
	C1181.556152,1615.136597 1181.977295,1594.470825 1181.942139,1572.876221 
	C1178.899536,1569.380371 1177.845581,1566.034912 1177.748901,1562.181763 
	C1177.648682,1558.187134 1177.564453,1554.193481 1177.564209,1550.198242 
	C1177.555542,1382.718872 1177.539551,1215.239502 1177.619751,1047.760132 
	C1177.623047,1040.852417 1176.466431,1033.730835 1180.325928,1026.273438 
	C1183.399048,1023.046997 1186.446533,1022.012207 1189.836548,1021.879456 
	C1201.661499,1021.416321 1213.487427,1021.394592 1225.312134,1021.881897 
	C1227.994629,1021.992493 1230.523560,1022.583923 1233.238647,1025.311890 
	C1233.985352,1026.013062 1233.972168,1026.061035 1233.959351,1026.089844 
	C1233.962769,1214.335571 1234.061035,1402.552734 1233.877197,1590.769409 
	C1233.857056,1611.268555 1229.931885,1631.246704 1218.473145,1648.822266 
	C1208.291748,1664.438843 1194.942017,1676.622437 1176.721191,1683.887939 
z"/>
<path fill="#1E925C" opacity="1.000000" stroke="none" 
	d="
M608.937622,463.978180 
	C604.534119,461.138336 600.390747,462.063599 596.485413,462.054138 
	C570.224854,461.990326 543.964172,462.026550 516.748840,462.035614 
	C515.800964,445.974396 515.807739,429.907867 515.962891,412.912659 
	C723.567200,411.988953 931.024170,412.344452 1138.478271,411.717010 
	C1182.423218,411.584137 1222.813843,445.792480 1230.739502,485.562653 
	C1232.482300,494.308014 1232.934937,503.310455 1233.985962,513.044800 
	C1233.990234,513.895020 1234.004395,514.120178 1234.001099,514.232910 
	C1231.786621,516.418579 1229.385864,518.061707 1226.177612,518.083679 
	C1209.380859,518.198547 1192.567627,519.430176 1174.908325,517.170715 
	C1173.428711,516.933350 1172.845093,516.849487 1171.421387,516.551636 
	C1162.160889,508.778473 1156.571777,498.751160 1148.136841,491.123444 
	C1132.230835,476.739502 1114.126587,467.768127 1092.415161,468.365967 
	C1080.032715,468.706970 1068.063477,465.471619 1054.945068,465.795990 
	C1043.157837,465.760040 1032.424805,468.663513 1021.470764,468.267212 
	C1017.239807,468.114105 1012.735474,468.828644 1008.667236,464.611755 
	C945.412048,463.977966 882.817932,464.568176 820.246338,463.640808 
	C799.022888,463.326294 777.682556,460.794434 756.521729,462.286224 
	C707.637451,465.732422 658.745605,462.893707 608.937622,463.978180 
z"/>
<path fill="#0E7139" opacity="1.000000" stroke="none" 
	d="
M516.520752,1590.890137 
	C511.140839,1590.214233 506.479706,1590.005005 501.818481,1590.001587 
	C432.499481,1589.950439 363.180511,1589.926880 292.930054,1589.785645 
	C288.471039,1581.385742 295.496185,1579.125977 300.246216,1576.356323 
	C321.248962,1564.110352 342.286987,1551.921509 363.362946,1539.799927 
	C456.600372,1486.175903 549.613220,1432.162598 642.841675,1378.523682 
	C667.070435,1364.583618 690.738708,1349.634155 715.809326,1337.190918 
	C718.632324,1335.789673 719.638123,1332.517090 723.481323,1331.446777 
	C754.172913,1330.671021 784.077820,1331.153320 813.981018,1331.012817 
	C818.968750,1330.989380 823.962097,1331.163452 829.348267,1329.214355 
	C830.508667,1328.473145 831.020142,1327.959473 831.333618,1326.765137 
	C830.281189,1322.515259 827.762878,1319.615967 825.574707,1315.803101 
	C825.001770,1314.893677 824.783752,1314.526001 824.263794,1313.604004 
	C823.773865,1312.681274 823.585999,1312.312744 823.129333,1311.395996 
	C822.512817,1310.132202 822.163879,1309.416870 821.505249,1308.203369 
	C820.584106,1306.717285 820.025085,1305.695557 818.928345,1304.316895 
	C818.280090,1303.555298 818.019714,1303.246826 816.979248,1301.977539 
	C815.945801,1300.680542 815.692383,1300.344360 815.075867,1299.485107 
	C812.927368,1296.048950 811.470276,1292.947632 809.248047,1289.549316 
	C808.648010,1288.667236 808.413513,1288.311523 807.505798,1286.878052 
	C806.401123,1285.079590 805.979980,1284.353149 805.223511,1283.092896 
	C803.219971,1279.650513 801.603088,1276.712036 799.469055,1273.327271 
	C798.904480,1272.404175 798.688782,1272.025513 798.175781,1271.052490 
	C797.703735,1270.042847 797.529053,1269.627563 797.147461,1268.561768 
	C796.531372,1266.565063 796.296448,1265.186646 796.190247,1263.055420 
	C796.307190,1261.842285 796.410706,1261.360718 796.818481,1260.202393 
	C800.692139,1253.134277 806.591919,1249.404785 812.683289,1245.888794 
	C872.348816,1211.448242 931.961426,1176.916260 991.623047,1142.468872 
	C1031.971191,1119.172729 1072.374146,1095.971436 1112.721313,1072.673584 
	C1118.868652,1069.123901 1125.253418,1063.903320 1132.868652,1071.816406 
	C1134.093384,1074.453003 1134.186523,1076.471436 1134.193970,1078.455933 
	C1134.399780,1133.405640 1134.920410,1188.356201 1133.762451,1244.145752 
	C1132.476196,1248.478760 1129.600586,1250.011353 1126.641479,1251.704468 
	C1036.194092,1303.455078 946.087402,1355.796997 855.815979,1407.853027 
	C768.429443,1458.245483 681.086365,1508.713745 593.725281,1559.150635 
	C578.160095,1568.136963 562.803955,1577.498779 546.935913,1585.939209 
	C543.773499,1587.621216 542.639404,1591.005249 538.875732,1592.903320 
	C531.033142,1594.218506 523.860229,1595.972290 516.520752,1590.890137 
z"/>
<path fill="#0F753C" opacity="1.000000" stroke="none" 
	d="
M721.615967,1333.456543 
	C721.631836,1337.994629 718.671753,1339.486694 715.715393,1341.186401 
	C680.826599,1361.244751 645.945251,1381.316284 611.121033,1401.486450 
	C583.780823,1417.321777 556.583557,1433.404419 529.211731,1449.184570 
	C500.108734,1465.963013 470.821320,1482.421509 441.713837,1499.192139 
	C414.338074,1514.965210 387.124481,1531.019409 359.777924,1546.843506 
	C340.201691,1558.171387 320.537933,1569.348633 300.878021,1580.531372 
	C297.393188,1582.513428 293.641846,1584.088379 292.144409,1589.017334 
	C280.347504,1589.778687 268.696533,1589.964478 257.045410,1589.972656 
	C202.431229,1590.011353 147.816635,1590.124146 93.203041,1589.945435 
	C72.477753,1589.877686 54.224083,1582.543945 37.880360,1568.784180 
	C50.924366,1563.935669 62.094486,1555.316650 74.201164,1548.482666 
	C99.360161,1534.281128 124.338875,1519.759399 149.355896,1505.307373 
	C171.786469,1492.349609 194.147568,1479.271606 216.578766,1466.314941 
	C241.309341,1452.030273 266.100739,1437.850830 290.836151,1423.574463 
	C318.161377,1407.803467 345.447540,1391.965088 372.761932,1376.175293 
	C388.287415,1367.200562 403.891296,1358.359619 419.345764,1349.264526 
	C425.553162,1345.611450 432.655731,1342.855591 435.872742,1334.760254 
	C436.298035,1333.692139 436.592834,1333.298340 437.523743,1332.533936 
	C460.739319,1322.167480 481.365448,1308.614624 502.713379,1296.407715 
	C541.746277,1274.088135 580.659790,1251.554688 619.524048,1228.939087 
	C630.809875,1222.371948 631.738525,1222.637329 641.099976,1231.423462 
	C642.334229,1232.581787 644.079895,1232.844238 646.379639,1233.522583 
	C653.604248,1238.441650 656.164124,1245.838501 659.727112,1252.460083 
	C672.724426,1276.615356 685.226929,1301.036133 699.106995,1325.483154 
	C699.921936,1326.304077 700.268250,1326.611450 701.842163,1327.600342 
	C708.520203,1332.210449 715.647095,1329.427612 721.615967,1333.456543 
z"/>
<path fill="#0B2A19" opacity="1.000000" stroke="none" 
	d="
M515.840881,1591.237305 
	C523.252258,1590.181396 530.702454,1590.035278 539.073608,1589.830078 
	C544.022034,1586.204590 548.938049,1585.631836 554.014282,1585.632080 
	C629.553955,1585.634521 705.093933,1585.284302 781.573975,1585.900146 
	C790.492126,1587.794800 798.396667,1585.500122 806.364990,1585.522827 
	C881.344177,1585.737061 956.324219,1585.704712 1031.303955,1585.628418 
	C1071.429199,1585.587646 1100.706909,1567.691162 1118.837524,1531.803833 
	C1120.343872,1528.822144 1121.563721,1525.695068 1125.383057,1523.467773 
	C1132.220703,1522.557739 1133.432495,1526.885620 1133.907959,1531.299927 
	C1138.563354,1574.520020 1121.178223,1611.764648 1085.144409,1632.560913 
	C1077.145874,1637.177124 1068.717041,1639.441650 1058.829224,1640.028564 
	C1015.163513,1644.066650 972.228516,1641.751221 929.348938,1641.859863 
	C792.196289,1642.207520 655.042236,1641.993286 516.953247,1642.004395 
	C515.971802,1625.390869 515.925781,1608.769043 515.840881,1591.237305 
z"/>
<path fill="#FEFEFE" opacity="1.000000" stroke="none" 
	d="
M696.961853,1330.495361 
	C681.921326,1302.167236 666.962097,1274.381958 651.996582,1246.600098 
	C650.264404,1243.384644 648.497559,1240.187866 646.253418,1236.485962 
	C635.477844,1226.677368 630.272766,1214.066650 623.555664,1201.654053 
	C622.937073,1200.276733 622.623962,1199.489990 622.081909,1198.155396 
	C621.665405,1197.265747 621.500366,1196.914917 621.089233,1196.049561 
	C620.679871,1195.198364 620.516418,1194.861450 620.108032,1194.025879 
	C619.699951,1193.197144 619.536743,1192.867310 619.130981,1192.045288 
	C618.566589,1190.897217 618.243958,1190.241577 617.625122,1189.109619 
	C617.129272,1188.309570 616.928833,1187.986328 616.425293,1187.171265 
	C615.710144,1186.005615 615.303589,1185.328247 614.556335,1184.131348 
	C612.055603,1179.923096 609.960327,1176.198486 607.682373,1171.853027 
	C607.014343,1170.560913 606.671265,1169.812744 606.084290,1168.518555 
	C605.646973,1167.627441 605.476868,1167.271484 605.060059,1166.384644 
	C604.491577,1165.150879 604.169556,1164.448120 603.552124,1163.239746 
	C603.057434,1162.392700 602.858093,1162.051147 602.359985,1161.190674 
	C601.658325,1159.960693 601.262817,1159.245361 600.539246,1157.979004 
	C595.958923,1149.617920 591.362793,1141.992554 587.357178,1133.283936 
	C580.850647,1122.204834 575.428894,1111.284180 569.059753,1099.672485 
	C557.179932,1121.341675 546.355103,1142.483521 533.674500,1163.351074 
	C522.791992,1186.074707 510.044464,1207.011963 498.274811,1229.256958 
	C497.534698,1230.658081 497.082428,1231.434082 496.307251,1232.785400 
	C495.798248,1233.760132 495.592926,1234.148315 495.076294,1235.114746 
	C494.345154,1236.462036 493.917999,1237.226929 493.190857,1238.585938 
	C490.695953,1243.064087 488.515381,1246.956421 485.939392,1251.371582 
	C485.219727,1252.683472 484.776215,1253.403442 484.004639,1254.637329 
	C483.492523,1255.508057 483.284760,1255.850098 482.762177,1256.692871 
	C482.238800,1257.524292 482.030182,1257.855225 481.225159,1259.192261 
	C480.249146,1260.891357 479.877045,1261.588379 479.274048,1262.859863 
	C478.162537,1265.350220 477.132599,1267.189697 475.848572,1269.598389 
	C475.139465,1270.837646 474.706787,1271.516968 473.964294,1272.685547 
	C473.482025,1273.517944 473.289307,1273.847778 472.811951,1274.668091 
	C472.153961,1275.813843 471.786835,1276.472656 471.202209,1277.672729 
	C470.826447,1278.577759 470.674652,1278.945190 470.289795,1279.872925 
	C469.727173,1281.210571 469.387268,1281.983276 468.783813,1283.381836 
	C461.779419,1297.265259 454.045258,1309.978394 447.048492,1323.097900 
	C445.192108,1326.578735 443.269897,1330.135986 438.581482,1332.041504 
	C436.748230,1332.533203 435.670441,1332.781860 433.687653,1332.980103 
	C389.744141,1332.998047 346.690033,1333.005371 302.690155,1332.967773 
	C299.634369,1332.744751 298.305206,1331.588501 297.688171,1328.665405 
	C304.763458,1316.525635 311.712891,1305.270020 318.854767,1294.138062 
	C334.414185,1269.885986 350.071747,1245.697021 365.876648,1220.828247 
	C366.454987,1219.682495 366.850800,1219.194458 367.460876,1218.288330 
	C367.670319,1217.866211 367.889496,1217.803101 367.852722,1217.695068 
	C368.175323,1217.435181 368.534698,1217.283325 368.890076,1216.546143 
	C369.162109,1215.697510 369.438141,1215.434326 369.865845,1214.619385 
	C370.329315,1213.734375 370.641113,1213.400879 371.262146,1212.456299 
	C371.571381,1211.845215 371.879181,1211.754028 371.832977,1211.600342 
	C372.154083,1211.344971 372.521393,1211.243408 372.763062,1210.584229 
	C372.959442,1209.748535 373.281403,1209.470459 373.842773,1208.601074 
	C374.380005,1207.685059 374.677795,1207.360352 375.278625,1206.448242 
	C375.581635,1205.860962 375.827118,1205.731689 375.817444,1205.593262 
	C376.187073,1205.326172 376.566406,1205.197632 376.873260,1204.472900 
	C377.260162,1203.235718 377.719513,1202.594971 378.291595,1201.365723 
	C380.931458,1198.963501 382.089417,1196.110840 383.692932,1193.629272 
	C418.176636,1140.267822 452.548645,1086.833984 487.169891,1033.562012 
	C490.608185,1028.271606 491.476624,1024.479492 487.864899,1018.542847 
	C464.530975,980.187866 441.714691,941.518005 418.221252,902.473755 
	C406.340790,880.593323 393.237610,860.202576 380.991669,839.310669 
	C367.890503,816.959839 354.518097,794.768066 340.693115,772.115234 
	C331.883026,755.032776 321.186310,739.758179 312.280212,722.748413 
	C314.316376,720.500977 316.716125,721.020813 318.987854,721.022644 
	C364.055847,721.058594 409.123993,720.870544 455.120056,721.436401 
	C461.715149,730.329346 465.548553,739.859131 470.898041,749.426514 
	C471.271118,750.371460 471.161133,750.730469 471.572418,751.302856 
	C472.234528,751.981934 472.375397,752.447632 472.980164,753.476562 
	C473.320831,754.396484 473.197601,754.753052 473.600159,755.318970 
	C474.125916,755.528381 474.062500,755.812683 474.183319,755.893921 
	C474.868591,756.901733 474.975586,757.972290 475.704651,759.266602 
	C476.155945,759.544128 476.085663,759.815674 476.204163,759.890747 
	C476.863861,760.899475 476.975433,761.965881 477.710205,763.247803 
	C478.166290,763.514954 478.101471,763.796509 478.221924,763.876282 
	C478.860687,764.898804 478.975433,765.963684 479.718994,767.234741 
	C480.180939,767.491455 480.113708,767.765320 480.232727,767.840942 
	C480.723389,768.530273 481.197388,769.052917 482.212189,769.787598 
	C482.952026,770.297119 483.238586,770.516724 483.883850,771.143982 
	C484.654327,772.143250 485.037018,772.753113 485.663025,773.843567 
	C486.115173,774.613770 486.289490,774.924805 486.712463,775.706299 
	C487.123840,776.490173 487.286560,776.803528 487.692932,777.585083 
	C488.093231,778.366943 488.249908,778.680542 488.622650,779.468750 
	C488.978271,780.257324 489.117798,780.571289 489.490662,781.341736 
	C489.874298,782.102722 490.024628,782.407288 490.389099,783.169312 
	C490.860321,784.239075 491.133270,784.844116 491.668701,785.870972 
	C491.915314,786.299927 492.410400,787.156250 492.660217,787.583191 
	C492.910004,788.010132 493.433014,788.853333 493.711609,789.268982 
	C494.179779,789.962952 494.369354,790.241333 494.841919,790.943970 
	C495.310455,791.656311 495.496002,791.944458 495.953674,792.673096 
	C496.402161,793.412598 496.578430,793.711670 497.010376,794.467163 
	C497.431396,795.232056 497.596710,795.540527 498.005554,796.317505 
	C498.410400,797.101562 498.571686,797.416992 498.973785,798.207764 
	C499.539307,799.323792 499.867798,799.962646 500.508728,801.071045 
	C501.028778,801.865051 501.240509,802.187256 501.775146,803.002075 
	C502.544952,804.180115 502.982819,804.871094 503.761047,806.122070 
	C516.725159,828.861267 527.383179,852.037659 538.957764,875.494507 
	C539.404358,876.497681 539.569397,876.898682 539.953491,877.893677 
	C540.303833,878.876831 540.435059,879.266113 540.747681,880.228638 
	C541.157043,881.542297 541.389648,882.281250 541.863037,883.529785 
	C542.257568,884.378174 542.416626,884.715454 542.815369,885.555054 
	C543.218384,886.389587 543.381714,886.721741 543.796265,887.549316 
	C544.213806,888.375488 544.380188,888.706299 544.792236,889.534668 
	C545.203613,890.363220 545.369263,890.694153 545.788391,891.520386 
	C546.209045,892.347046 546.376160,892.678467 546.789307,893.509155 
	C547.200928,894.340698 547.366516,894.672913 547.785889,895.501953 
	C548.206909,896.331177 548.374207,896.663635 548.787598,897.496826 
	C549.199219,898.330444 549.364868,898.663452 549.784485,899.494263 
	C550.205933,900.325073 550.373291,900.658081 550.786804,901.492310 
	C551.198547,902.326904 551.364197,902.660278 551.783936,903.491699 
	C552.205383,904.322998 552.372742,904.656128 552.786133,905.490479 
	C553.197632,906.324951 553.363159,906.658203 553.782227,907.488892 
	C554.202515,908.318909 554.369324,908.651428 554.780518,909.483704 
	C555.188904,910.315125 555.352844,910.646790 555.767456,911.472778 
	C556.181702,912.296936 556.345337,912.626770 556.745605,913.451660 
	C557.140198,914.274109 557.298279,914.601440 557.699829,915.413940 
	C558.101135,916.222961 558.258911,916.546814 558.635376,917.359070 
	C558.996521,918.169922 559.138977,918.492310 559.518066,919.284668 
	C559.908447,920.067749 560.062256,920.380981 560.434814,921.165894 
	C560.907410,922.275330 561.188599,922.900818 561.749573,923.964722 
	C562.165649,924.720276 562.329956,925.024841 562.735107,925.789673 
	C563.298523,926.869507 563.625488,927.486755 564.255920,928.556702 
	C564.758240,929.322266 564.960815,929.633179 565.468506,930.419800 
	C566.188599,931.552979 566.595764,932.215210 567.335938,933.395752 
	C568.977417,936.103210 570.023132,938.429077 571.484741,941.271301 
	C572.150391,942.639893 572.494995,943.441101 573.083374,944.862671 
	C573.817200,946.606079 574.136047,947.788025 575.364380,948.753052 
	C576.472961,947.608276 576.712402,946.665466 577.006958,945.113281 
	C582.259033,931.424561 588.839050,919.038269 595.945557,906.177490 
	C596.534729,905.260620 596.780029,904.907593 597.796448,903.584656 
	C599.075562,902.017456 599.584229,901.420898 600.402832,900.356201 
	C600.907349,899.573120 601.102417,899.258545 601.573486,898.466675 
	C602.021118,897.665405 602.192627,897.341553 602.603088,896.519409 
	C602.991516,895.680603 603.141052,895.340027 603.505615,894.480286 
	C604.006836,893.254578 604.299438,892.550781 604.798218,891.290833 
	C605.933960,888.497314 607.104553,886.383362 608.617798,883.771606 
	C609.140991,882.926025 609.360596,882.598389 610.278931,881.354553 
	C611.442566,879.862061 611.899231,879.279236 612.615845,878.211182 
	C613.050354,877.401978 613.217285,877.072144 613.619873,876.235840 
	C614.314270,874.677795 614.783875,873.630676 615.309998,871.943542 
	C616.721008,868.144836 618.413269,865.170471 620.433472,861.642334 
	C620.967163,860.716797 621.188721,860.353027 622.093506,858.924683 
	C623.448608,856.803528 624.149475,855.763916 624.907227,854.012085 
	C627.250549,848.964722 629.447266,844.571594 632.288574,839.770996 
	C632.839539,838.826721 633.067505,838.457703 633.995239,837.025696 
	C635.372375,834.930725 636.089172,833.922668 636.859009,832.224243 
	C638.550903,828.620422 640.144043,825.668152 642.119751,822.222412 
	C642.844421,821.007385 643.288696,820.343018 644.064697,819.208740 
	C644.584534,818.411926 644.795654,818.100403 645.328003,817.338257 
	C645.863281,816.596680 646.077393,816.305542 646.922363,815.166870 
	C647.964172,813.771912 648.362061,813.215088 648.959839,812.179199 
	C649.304260,811.384705 649.436646,811.060547 649.760376,810.239563 
	C650.217529,809.036011 650.488037,808.330994 650.966064,807.034058 
	C651.994324,804.364014 653.072571,802.415710 654.506836,799.927979 
	C655.062866,799.029175 655.294067,798.685547 656.249268,797.406250 
	C657.450317,795.895447 657.923767,795.317383 658.674194,794.274902 
	C659.132751,793.502380 659.310730,793.191345 659.744507,792.408081 
	C660.160950,791.615051 660.321411,791.294250 660.705627,790.478149 
	C661.070984,789.644165 661.212585,789.305359 661.560425,788.449829 
	C662.044434,787.229431 662.328674,786.528259 662.818420,785.273438 
	C663.943115,782.483765 665.111206,780.374756 666.621094,777.768311 
	C667.143677,776.923889 667.363037,776.596619 668.280334,775.354370 
	C669.442200,773.863953 669.898987,773.282776 670.614746,772.217529 
	C671.048706,771.411621 671.215393,771.083374 671.617371,770.251587 
	C672.309570,768.705811 672.779053,767.668701 673.302490,765.999146 
	C674.698608,762.271912 676.321228,759.334717 678.390625,755.931763 
	C678.941956,755.068298 679.171936,754.734741 680.124268,753.474731 
	C681.320801,751.968689 681.787964,751.383362 682.516479,750.314209 
	C682.949829,749.508057 683.113892,749.179443 683.506348,748.346619 
	C684.031677,747.151855 684.330139,746.462036 684.831055,745.220947 
	C685.965454,742.445312 687.130005,740.340576 688.635864,737.734070 
	C689.160522,736.880981 689.381226,736.548828 690.305664,735.274719 
	C691.480652,733.725708 691.937317,733.107910 692.647461,731.953003 
	C693.083618,731.055176 693.253174,730.684692 693.671997,729.738037 
	C694.443726,727.921204 695.027466,726.707947 695.923218,724.797241 
	C697.826538,721.721252 699.841736,719.940491 703.596497,719.205017 
	C746.048950,718.939331 787.612549,718.901611 830.018066,719.229980 
	C839.292358,722.816284 835.371399,728.516785 832.857788,733.230713 
	C826.608643,744.949890 819.129333,755.958252 812.159607,767.260254 
	C792.471985,799.185242 772.957520,831.215576 753.428772,863.237488 
	C749.626831,869.471619 745.407593,875.426819 740.839050,881.987549 
	C725.162903,910.632690 707.391296,937.178955 690.987671,964.554749 
	C681.242737,980.817810 671.627441,997.191711 661.162781,1012.977478 
	C655.682495,1021.244446 656.265869,1027.492065 661.293579,1035.484375 
	C675.810364,1058.561035 690.649597,1081.451416 704.525146,1105.764893 
	C730.787231,1146.718506 755.443787,1187.831421 780.891296,1228.451782 
	C785.310852,1235.506470 789.905457,1242.456543 793.993591,1249.714355 
	C795.944031,1253.177246 798.285461,1256.541016 797.512329,1261.580688 
	C797.391968,1262.295654 797.544434,1263.244629 797.858032,1263.608887 
	C798.902222,1264.840332 798.964172,1265.953247 799.769043,1267.191895 
	C800.263672,1267.408813 800.182251,1267.718506 800.332764,1267.773193 
	C800.669556,1268.239014 800.855896,1268.650391 801.513062,1269.548584 
	C804.095032,1273.694458 806.206238,1277.353271 808.845581,1281.502808 
	C809.279419,1282.368774 809.185181,1282.744019 809.648560,1283.280029 
	C810.206177,1283.440918 810.116699,1283.741577 810.264771,1283.793091 
	C810.624207,1284.252686 810.835510,1284.660645 811.493958,1285.593140 
	C814.048645,1289.766968 816.156250,1293.416382 818.793274,1297.549927 
	C819.254150,1298.407104 819.185669,1298.779907 819.654236,1299.340088 
	C820.191284,1299.527466 820.102722,1299.776489 820.228760,1299.816162 
	C820.556458,1300.469604 820.889343,1301.001587 821.646301,1301.824219 
	C822.416321,1303.192505 822.893372,1304.187744 823.760620,1305.587891 
	C824.908325,1306.844116 824.963867,1307.958862 825.760986,1309.206177 
	C826.250427,1309.433472 826.165344,1309.735107 826.313904,1309.784912 
	C826.655945,1310.244141 826.849426,1310.653320 827.505554,1311.559692 
	C830.508606,1316.407837 833.048950,1320.759033 835.770264,1325.784424 
	C837.758911,1329.356445 836.263062,1331.142578 832.931519,1332.793457 
	C787.965027,1332.975708 743.941956,1333.125610 699.035278,1332.479736 
	C698.151428,1332.076416 698.191589,1331.628784 698.161499,1331.406128 
	C697.768127,1331.135498 697.404724,1331.087402 696.961853,1330.495361 
z"/>
<path fill="#138046" opacity="1.000000" stroke="none" 
	d="
M737.476074,882.123169 
	C738.558960,877.758240 741.058472,874.985474 742.938293,871.908264 
	C773.176086,822.408752 803.466187,772.941223 833.744995,722.770020 
	C831.707581,720.472595 829.301880,721.019714 827.034973,721.021790 
	C785.934509,721.059387 744.833801,720.859192 702.843628,721.458557 
	C700.752380,723.549683 699.550964,725.286621 698.002563,727.561523 
	C697.244690,728.891296 696.972290,729.728149 696.315125,731.020996 
	C695.792236,731.431946 695.826111,731.749207 695.696045,731.841675 
	C695.247620,732.772095 694.994995,733.629272 694.270874,734.896729 
	C693.722900,735.284790 693.731140,735.641052 693.588989,735.748474 
	C693.285156,736.255981 693.123535,736.656006 692.529114,737.537231 
	C690.536621,741.085022 688.976868,744.151550 686.865845,747.723267 
	C686.501709,748.542603 686.688965,748.856812 686.337524,749.274902 
	C685.798828,749.378845 685.925903,749.720581 685.793274,749.845703 
	C685.269104,750.793457 684.987488,751.651428 684.304993,752.980591 
	C683.777771,753.411255 683.813110,753.721863 683.684204,753.810181 
	C683.356628,754.285583 683.158020,754.672668 682.569458,755.583130 
	C680.283936,759.711060 678.388306,763.315674 676.075012,767.461792 
	C675.251343,768.822876 674.976685,769.684326 674.292725,771.004028 
	C673.752014,771.420410 673.889648,771.732666 673.761658,771.845520 
	C673.260437,772.784973 672.991943,773.644348 672.293823,774.953979 
	C671.759705,775.371582 671.786438,775.696472 671.653259,775.790405 
	C671.333191,776.276123 671.146362,776.667786 670.555176,777.569458 
	C668.621277,781.096436 667.091858,784.113342 665.028442,787.634277 
	C664.619263,788.484436 664.744263,788.830627 664.345581,789.352051 
	C663.822021,789.527283 663.935181,789.796143 663.799561,789.849854 
	C663.273682,790.744202 662.994995,791.620361 662.285278,792.962585 
	C661.742737,793.393127 661.874390,793.714355 661.744751,793.829773 
	C661.259766,794.777344 660.991577,795.636169 660.284790,796.934448 
	C659.744812,797.342896 659.764954,797.676575 659.629028,797.773865 
	C659.315613,798.266785 659.138000,798.662415 658.545288,799.558838 
	C656.593079,803.092102 655.056152,806.124573 652.978027,809.659424 
	C652.581787,810.499695 652.726624,810.837585 652.342041,811.329773 
	C651.812744,811.484131 651.933472,811.780457 651.784729,811.839294 
	C651.268494,812.738831 650.997559,813.609558 650.277222,814.926086 
	C649.731262,815.341858 649.856628,815.677429 649.724487,815.798401 
	C649.380737,816.300537 649.169128,816.681641 648.588867,817.602844 
	C648.135925,818.470032 648.051697,818.797058 647.688110,819.546631 
	C647.248413,820.347900 647.088135,820.726624 646.517151,821.565796 
	C644.198486,825.659607 642.290405,829.293030 640.011719,833.507690 
	C639.243469,834.888062 638.969360,835.726501 638.310730,837.018066 
	C637.784180,837.426025 637.823303,837.729980 637.696411,837.815918 
	C637.365601,838.288696 637.161621,838.675537 636.573486,839.594238 
	C633.578003,845.049255 630.966614,849.972412 627.979675,855.490112 
	C627.227539,856.887451 626.976868,857.728760 626.303101,858.998230 
	C625.772217,859.393494 625.802917,859.708435 625.672485,859.797974 
	C625.347778,860.278198 625.153564,860.668884 624.561279,861.579102 
	C622.268921,865.702637 620.374634,869.306702 618.067200,873.455383 
	C617.252563,874.819397 616.978516,875.679382 616.289429,876.992065 
	C615.747253,877.404297 615.880005,877.723450 615.750671,877.838135 
	C615.255249,878.781799 614.995300,879.643494 614.289917,880.946716 
	C613.753113,881.360107 613.777344,881.688965 613.643433,881.785156 
	C613.327209,882.272522 613.144958,882.663635 612.555054,883.557495 
	C610.610474,887.089844 609.073547,890.119507 606.997253,893.652283 
	C606.595337,894.495667 606.732788,894.835999 606.343872,895.337402 
	C605.817383,895.498474 605.936401,895.786377 605.791626,895.843933 
	C605.270508,896.741516 604.996582,897.613647 604.281006,898.939575 
	C603.737000,899.361206 603.859497,899.703369 603.726074,899.826660 
	C603.251587,900.779419 602.995056,901.634155 602.284241,902.914795 
	C601.745605,903.315308 601.757080,903.664368 601.616760,903.768250 
	C601.305054,904.266541 601.133728,904.660950 600.543091,905.545532 
	C593.447449,919.618469 586.771118,933.201294 579.751343,947.439697 
	C579.170837,948.925659 578.983948,949.767395 578.328735,951.015503 
	C577.817139,951.412109 577.850952,951.748169 577.696533,951.816406 
	C577.335510,952.290955 577.128967,952.697205 576.583923,953.697388 
	C576.245361,954.291321 576.360474,954.342712 576.340820,954.402588 
	C575.838318,954.758301 575.355530,955.054077 574.094604,955.009521 
	C572.220581,952.258911 571.124695,949.848694 569.902710,946.783813 
	C569.544189,945.794434 569.311768,945.459778 568.846252,944.560059 
	C567.191162,940.997192 565.769226,937.999268 564.233765,934.300293 
	C563.783325,933.464905 563.446411,933.330627 563.341248,932.704041 
	C563.230591,931.813599 562.888184,931.415405 562.370605,930.249268 
	C561.403259,928.918396 560.965271,928.153015 560.638367,926.531494 
	C560.394653,925.878235 560.109741,925.749329 560.175903,925.607666 
	C559.430481,924.925903 558.960632,924.181763 558.666016,922.536499 
	C558.442871,921.873169 558.132935,921.716675 558.196899,921.555298 
	C557.434143,920.887756 556.976807,920.152039 556.686035,918.525513 
	C556.482971,917.864319 556.162231,917.684082 556.220459,917.509644 
	C555.443604,916.854614 554.979675,916.134888 554.691162,914.518555 
	C554.495178,913.861267 554.169189,913.686951 554.223877,913.510376 
	C553.432068,912.860535 552.986328,912.128723 552.678833,910.520569 
	C552.472656,909.866455 552.153259,909.702820 552.211548,909.533081 
	C551.439880,908.867371 550.977722,908.138245 550.667480,906.521118 
	C550.451111,905.866333 550.139221,905.721863 550.200806,905.561401 
	C549.441956,904.885559 548.965210,904.156799 548.660034,902.525024 
	C548.435791,901.867920 548.128479,901.731506 548.192871,901.576233 
	C547.429138,900.902649 546.971069,900.156982 546.647827,898.527954 
	C546.412537,897.871826 546.119202,897.745728 546.183594,897.599609 
	C545.424622,896.920349 544.969116,896.165283 544.634705,894.532227 
	C544.387817,893.876221 544.114868,893.759033 544.176025,893.623718 
	C542.958679,893.064392 543.054688,891.865601 542.565063,890.382446 
	C542.361755,889.882507 542.109131,889.773804 542.167114,889.649048 
	C540.965210,889.070862 541.052856,887.873047 540.554504,886.383057 
	C540.343445,885.883789 540.108948,885.784180 540.163147,885.668884 
	C538.970947,885.078552 539.051697,883.880432 538.541199,882.386719 
	C538.319824,881.889709 538.062256,881.778564 538.120850,881.651123 
	C537.834045,881.416199 537.488647,881.308655 537.391357,880.718628 
	C525.159119,855.972473 512.678772,831.708862 500.028137,806.761230 
	C499.596130,805.754456 499.334351,805.431763 498.831665,804.534302 
	C498.413208,803.670898 498.235718,803.382324 497.949493,802.597168 
	C497.585388,801.771179 497.329987,801.441589 496.819702,800.541016 
	C496.390381,799.681824 496.215881,799.393799 495.934540,798.612183 
	C495.577087,797.783752 495.326538,797.448975 494.810852,796.545715 
	C494.371582,795.690735 494.197449,795.404114 493.915466,794.626282 
	C493.552612,793.778320 493.297668,793.421631 492.761292,792.470581 
	C492.479858,791.876160 492.219147,791.677124 492.237274,791.514160 
	C491.432861,790.865479 490.976959,790.147156 490.676819,788.549744 
	C490.465515,787.903503 490.208954,787.710388 490.228912,787.551086 
	C489.430939,786.890564 488.977600,786.162476 488.667908,784.559448 
	C488.446564,783.911621 488.194366,783.726135 488.216614,783.571167 
	C487.423706,782.903381 486.973145,782.167419 486.653259,780.562134 
	C486.419037,779.916077 486.173950,779.743164 486.199738,779.595398 
	C485.410980,778.922302 484.981720,778.166443 484.644043,776.564270 
	C484.401245,775.918091 484.161560,775.755371 484.190002,775.613281 
	C483.414185,774.933533 482.970398,774.182800 482.637207,772.573547 
	C482.386841,771.928284 482.147705,771.763672 482.176880,771.621460 
	C481.373566,770.897705 481.015350,770.090210 481.544617,768.556396 
	C485.846252,768.088013 489.033081,766.447327 492.260620,764.573425 
	C529.051575,743.211975 565.902649,721.954041 602.705933,700.613770 
	C634.908264,681.941284 667.031616,663.132385 699.261780,644.508240 
	C727.177429,628.377197 755.233948,612.489929 783.156616,596.371033 
	C824.894165,572.277222 866.544067,548.031677 908.278748,523.932922 
	C939.940918,505.650391 971.675720,487.493713 1003.383789,469.290710 
	C1005.126099,468.290527 1006.896790,467.354889 1007.818909,464.642914 
	C1023.528381,465.326874 1038.838867,461.112640 1055.289551,462.204895 
	C1069.893311,466.733398 1084.102417,469.426941 1096.036011,478.674957 
	C1108.642944,488.444580 1117.950073,500.443939 1125.213745,515.320435 
	C1130.367065,524.970825 1133.831421,534.535461 1133.982910,544.508972 
	C1134.558960,582.395569 1135.002197,620.294128 1133.538452,658.991699 
	C1131.527710,664.259949 1127.171143,665.826355 1123.562012,667.909668 
	C1041.787720,715.113831 960.013733,762.318298 878.257629,809.553772 
	C837.380920,833.170593 796.520386,856.816772 755.590027,880.339050 
	C750.228149,883.420410 744.363770,890.128967 737.476074,882.123169 
z"/>
<path fill="#33C481" opacity="1.000000" stroke="none" 
	d="
M455.385620,721.269897 
	C413.727173,721.849121 371.406036,721.924438 329.084900,722.003479 
	C324.086151,722.012817 319.087463,722.043030 313.175964,722.059326 
	C314.207214,719.572937 317.009216,720.049194 319.594360,720.047852 
	C363.008484,720.025085 406.422577,720.032654 449.836670,720.077820 
	C451.465637,720.079468 453.094177,720.527283 455.385620,721.269897 
z"/>
<path fill="#33C481" opacity="1.000000" stroke="none" 
	d="
M478.185547,762.978516 
	C477.540192,762.683411 476.914062,761.851868 476.305298,760.493042 
	C476.950012,760.791199 477.577423,761.616638 478.185547,762.978516 
z"/>
<path fill="#33C481" opacity="1.000000" stroke="none" 
	d="
M481.606018,767.975586 
	C482.121429,768.793091 482.220734,769.560974 482.263062,770.904053 
	C481.579620,770.644348 480.953125,769.809387 480.339172,768.445435 
	C480.351746,767.916504 481.189880,767.925903 481.606018,767.975586 
z"/>
<path fill="#33C481" opacity="1.000000" stroke="none" 
	d="
M476.175812,759.004883 
	C475.527466,758.707764 474.899017,757.871399 474.287354,756.505127 
	C474.934662,756.805359 475.565186,757.635437 476.175812,759.004883 
z"/>
<path fill="#33C481" opacity="1.000000" stroke="none" 
	d="
M480.199524,766.956543 
	C479.557739,766.663086 478.934570,765.834717 478.326904,764.481201 
	C478.967651,764.777954 479.592896,765.599792 480.199524,766.956543 
z"/>
<path fill="#33C481" opacity="1.000000" stroke="none" 
	d="
M474.187836,755.220276 
	C473.644135,755.432983 473.362335,755.143188 473.362305,754.349426 
	C473.915985,754.142944 474.184540,754.433716 474.187836,755.220276 
z"/>
<path fill="#33C481" opacity="1.000000" stroke="none" 
	d="
M472.154907,751.202087 
	C471.607452,751.421204 471.319641,751.130066 471.305664,750.327637 
	C471.863770,750.109558 472.142090,750.401367 472.154907,751.202087 
z"/>
<path fill="#147C42" opacity="1.000000" stroke="none" 
	d="
M299.478394,1331.364502 
	C344.740540,1331.708496 389.410217,1331.790894 434.998901,1331.707764 
	C436.323212,1331.386353 436.728485,1331.230347 437.731567,1331.332764 
	C438.427002,1332.014160 438.524658,1332.437012 438.311371,1333.432129 
	C438.000397,1334.004150 437.001404,1334.034668 436.502319,1334.060303 
	C392.499023,1334.060669 348.994476,1334.099121 305.491150,1333.890259 
	C301.972595,1333.873291 297.412079,1336.178833 295.096252,1330.621338 
	C296.625580,1329.822510 297.725739,1330.560669 299.478394,1331.364502 
z"/>
<path fill="#EAE8DF" opacity="1.000000" stroke="none" 
	d="
M299.786865,1331.130859 
	C298.632324,1332.114990 297.227570,1332.176514 295.572906,1330.642822 
	C295.732483,1329.400146 296.216614,1328.810059 297.213745,1327.972656 
	C298.318787,1328.695312 298.910797,1329.665405 299.786865,1331.130859 
z"/>
<path fill="#21A366" opacity="1.000000" stroke="none" 
	d="
M368.565979,1216.118408 
	C368.992859,1216.479980 368.855438,1216.923584 368.144897,1217.439331 
	C367.736298,1217.077026 367.879639,1216.639893 368.565979,1216.118408 
z"/>
<path fill="#21A366" opacity="1.000000" stroke="none" 
	d="
M367.237274,1218.117920 
	C367.441620,1218.483032 367.212891,1219.099976 366.524109,1219.945557 
	C366.310760,1219.572754 366.557495,1218.971191 367.237274,1218.117920 
z"/>
<path fill="#21A366" opacity="1.000000" stroke="none" 
	d="
M371.144165,1212.077881 
	C371.691376,1212.567139 371.470032,1213.161987 370.462433,1213.848755 
	C369.966797,1213.369019 370.199921,1212.783203 371.144165,1212.077881 
z"/>
<path fill="#33C481" opacity="1.000000" stroke="none" 
	d="
M376.457703,1203.994141 
	C376.946533,1204.380981 376.830658,1204.815552 376.130432,1205.317627 
	C375.621460,1204.941406 375.723755,1204.493774 376.457703,1203.994141 
z"/>
<path fill="#33C481" opacity="1.000000" stroke="none" 
	d="
M375.143616,1206.062500 
	C375.721802,1206.566895 375.513306,1207.147583 374.519165,1207.806396 
	C373.963074,1207.311035 374.170898,1206.729248 375.143616,1206.062500 
z"/>
<path fill="#21A366" opacity="1.000000" stroke="none" 
	d="
M372.359497,1210.161377 
	C372.832153,1210.481812 372.749786,1210.879639 372.088593,1211.333252 
	C371.668945,1211.007690 371.767212,1210.624268 372.359497,1210.161377 
z"/>
<path fill="#0E6F3A" opacity="1.000000" stroke="none" 
	d="
M1171.317749,514.929443 
	C1191.982910,514.145935 1212.056152,514.148682 1233.063477,514.248596 
	C1233.995605,684.275696 1233.993286,854.205750 1233.988159,1025.074463 
	C1217.286011,1026.010376 1200.586792,1026.007690 1182.138428,1025.434570 
	C1176.209717,1019.231079 1177.666260,1012.660522 1177.658203,1006.478821 
	C1177.531372,909.516113 1177.578857,812.553223 1177.574585,715.590332 
	C1177.572510,666.275879 1177.424438,616.960693 1177.668701,567.647461 
	C1177.738892,553.502869 1176.362915,539.744690 1171.632935,526.375244 
	C1170.415649,522.934570 1169.052612,519.434937 1171.317749,514.929443 
z"/>
<path fill="#0E351F" opacity="1.000000" stroke="none" 
	d="
M1058.671143,1640.524658 
	C1066.830444,1634.846680 1077.111328,1632.899292 1085.798950,1627.199097 
	C1113.448242,1609.057251 1128.897705,1583.935913 1129.865723,1550.651855 
	C1130.112793,1542.154053 1131.448364,1533.464844 1128.106445,1524.404785 
	C1124.336426,1521.193604 1123.727661,1517.645630 1124.084717,1513.894165 
	C1127.325073,1479.850098 1124.804565,1445.725098 1125.536255,1411.646118 
	C1125.692505,1404.366333 1125.679077,1397.086670 1126.151001,1388.845581 
	C1125.079346,1344.804077 1125.630981,1301.737305 1125.757935,1258.671753 
	C1125.767578,1255.361938 1125.938965,1251.987061 1129.304932,1248.727173 
	C1130.012573,1189.288208 1130.042114,1130.579102 1130.026367,1070.933228 
	C1128.103760,1068.083252 1126.155396,1066.120117 1126.108887,1063.254150 
	C1125.910767,1051.044189 1123.872192,1038.750610 1128.255005,1025.890503 
	C1132.408813,1022.217529 1136.625854,1021.431335 1140.909668,1021.747620 
	C1154.091675,1022.721130 1167.656860,1018.536743 1181.190918,1025.337402 
	C1181.922852,1026.047729 1181.966064,1026.019775 1181.990356,1026.009277 
	C1181.989258,1207.357300 1181.963867,1388.715820 1181.929688,1571.004639 
	C1178.035645,1572.810181 1177.188110,1576.094727 1175.916504,1579.207397 
	C1161.872437,1613.583740 1137.143066,1634.526001 1099.926025,1640.285767 
	C1086.354004,1642.386230 1072.907227,1642.651855 1058.671143,1640.524658 
z"/>
<path fill="#094825" opacity="1.000000" stroke="none" 
	d="
M1181.944336,1025.105957 
	C1165.345703,1026.053833 1148.768433,1026.059937 1131.276978,1026.089600 
	C1126.065918,1023.906860 1125.783936,1019.806335 1125.781006,1015.793457 
	C1125.743774,965.887817 1124.793457,915.978882 1126.236816,865.082397 
	C1124.775391,831.205017 1125.798706,798.306885 1125.603027,765.417175 
	C1125.429077,736.176575 1125.457031,706.933472 1125.656372,677.692566 
	C1125.689575,672.829346 1124.736084,667.596741 1129.292969,662.729736 
	C1129.998901,625.091858 1129.969971,588.186829 1130.101562,551.282410 
	C1130.128174,543.838379 1128.417114,536.803101 1126.295654,529.796204 
	C1124.852661,525.030457 1123.337158,520.286621 1121.786133,514.750732 
	C1122.447998,512.834534 1123.306885,511.436066 1124.539062,511.267548 
	C1139.295654,509.249146 1154.078491,507.185211 1169.456055,513.175842 
	C1170.295654,513.749756 1171.112305,513.907837 1171.510986,514.025513 
	C1173.946777,519.769714 1176.215820,525.325134 1177.965576,531.039551 
	C1180.501831,539.322937 1182.037842,547.769897 1182.033813,556.536316 
	C1181.962891,712.412231 1181.973145,868.288147 1181.944336,1025.105957 
z"/>
<path fill="#135F3B" opacity="1.000000" stroke="none" 
	d="
M1170.107788,513.080200 
	C1154.748413,513.830322 1139.201294,513.910889 1122.686035,513.980042 
	C1118.396851,511.985626 1116.825684,508.509277 1115.011963,505.433716 
	C1103.383057,485.713440 1085.216064,474.797302 1064.477783,467.145477 
	C1061.794312,466.155365 1058.320557,466.712097 1056.413696,462.910767 
	C1071.405884,464.397644 1086.731079,463.188568 1101.944580,464.178711 
	C1114.073853,464.968140 1125.250366,469.813324 1135.498047,476.036499 
	C1150.182983,484.954437 1162.390381,496.556274 1170.107788,513.080200 
z"/>
<path fill="#0F773E" opacity="1.000000" stroke="none" 
	d="
M1129.416748,863.513916 
	C1130.039429,917.405090 1130.102783,970.814087 1130.264404,1025.168213 
	C1130.260620,1040.116699 1130.158447,1054.120361 1130.018677,1069.060303 
	C1120.700439,1070.280640 1114.221069,1076.714966 1106.820068,1080.894287 
	C1076.472168,1098.031982 1046.325806,1115.527100 1016.139160,1132.949341 
	C994.000488,1145.726685 971.922424,1158.609131 949.803223,1171.420288 
	C925.675171,1185.395020 901.542297,1199.361450 877.390015,1213.294312 
	C854.961548,1226.232788 832.436829,1239.006714 810.120239,1252.134888 
	C805.896545,1254.619507 802.449707,1258.424561 798.018188,1261.958008 
	C796.368713,1261.019653 795.197266,1259.835449 794.343567,1258.454712 
	C763.630310,1208.777100 732.946655,1159.081055 702.144287,1108.707153 
	C703.428040,1102.172485 708.278748,1099.640381 712.876465,1096.992798 
	C813.477478,1039.062378 913.911560,980.842773 1014.503723,922.896973 
	C1046.495239,904.468384 1078.407715,885.900879 1110.466919,867.590698 
	C1116.014404,864.422302 1121.487061,859.480225 1129.416748,863.513916 
z"/>
<path fill="#0D6D36" opacity="1.000000" stroke="none" 
	d="
M1129.214600,1248.005249 
	C1130.001953,1294.040161 1130.020752,1340.082886 1130.011353,1387.062500 
	C1127.387939,1391.509399 1124.288818,1394.304321 1120.422607,1396.542603 
	C1014.641113,1457.779907 908.615906,1518.595703 802.957397,1580.045532 
	C797.204285,1583.391479 791.258850,1586.307251 784.562500,1589.330200 
	C734.839478,1589.859741 685.682800,1589.954956 636.526062,1589.991089 
	C604.972229,1590.014282 573.418335,1589.950684 540.929504,1589.848511 
	C540.511353,1586.132080 542.845215,1583.894775 545.840454,1582.149536 
	C566.229553,1570.268921 586.582397,1558.325562 607.010681,1546.512573 
	C631.753113,1532.205078 656.566711,1518.020386 681.334167,1503.755981 
	C709.270569,1487.666748 737.202576,1471.569946 765.112793,1455.435425 
	C792.447327,1439.633789 819.731995,1423.745972 847.075867,1407.960571 
	C871.541443,1393.836914 896.077820,1379.835938 920.546204,1365.717285 
	C943.287720,1352.594604 965.960205,1339.352173 988.700684,1326.227783 
	C1013.455261,1311.940796 1038.251221,1297.725586 1063.032837,1283.485596 
	C1081.764771,1272.721924 1100.531372,1262.018311 1119.207031,1251.158081 
	C1122.141235,1249.451538 1124.918213,1247.758911 1129.214600,1248.005249 
z"/>
<path fill="#147C42" opacity="1.000000" stroke="none" 
	d="
M698.793457,1332.554199 
	C742.783264,1332.004639 787.415100,1331.932983 832.969360,1331.731689 
	C835.248169,1330.996216 836.641296,1330.609497 838.851685,1331.086304 
	C836.652954,1335.329590 832.317810,1333.929932 828.525146,1333.942017 
	C793.641724,1334.053345 758.757812,1334.026001 722.937012,1334.066895 
	C714.492371,1333.445679 706.876221,1335.101196 698.793457,1332.554199 
z"/>
<path fill="#EAE8DF" opacity="1.000000" stroke="none" 
	d="
M839.222412,1330.893677 
	C838.136841,1331.515869 836.716492,1331.747681 834.593994,1331.790771 
	C834.484253,1330.245605 835.076599,1328.888916 835.810059,1326.995361 
	C837.608459,1327.314209 838.042908,1329.057617 839.222412,1330.893677 
z"/>
<path fill="#21A366" opacity="1.000000" stroke="none" 
	d="
M800.249023,1266.866455 
	C799.576233,1266.618164 798.888733,1265.827515 798.186523,1264.504883 
	C798.859314,1264.756592 799.546875,1265.540283 800.249023,1266.866455 
z"/>
<path fill="#21A366" opacity="1.000000" stroke="none" 
	d="
M826.234619,1308.890869 
	C825.560730,1308.641602 824.871033,1307.849854 824.166138,1306.525391 
	C824.840210,1306.778076 825.529541,1307.563232 826.234619,1308.890869 
z"/>
<path fill="#21A366" opacity="1.000000" stroke="none" 
	d="
M801.936768,1269.554199 
	C801.302307,1269.858643 800.819519,1269.448120 800.509399,1268.315796 
	C801.157837,1268.010254 801.626648,1268.425293 801.936768,1269.554199 
z"/>
<path fill="#21A366" opacity="1.000000" stroke="none" 
	d="
M810.235901,1283.124512 
	C809.711426,1283.387695 809.402405,1283.119995 809.326355,1282.315674 
	C809.854431,1282.064087 810.151733,1282.335693 810.235901,1283.124512 
z"/>
<path fill="#21A366" opacity="1.000000" stroke="none" 
	d="
M811.894897,1285.623779 
	C811.449463,1285.693604 810.957886,1285.269531 810.439575,1284.344971 
	C811.100159,1284.040039 811.578796,1284.468506 811.894897,1285.623779 
z"/>
<path fill="#1E925C" opacity="1.000000" stroke="none" 
	d="
M820.191772,1299.210449 
	C819.690552,1299.461426 819.376038,1299.184082 819.285156,1298.364746 
	C819.776550,1298.154663 820.066406,1298.441040 820.191772,1299.210449 
z"/>
<path fill="#1E925C" opacity="1.000000" stroke="none" 
	d="
M821.863464,1301.699829 
	C821.433594,1301.759644 820.927979,1301.322144 820.388550,1300.370117 
	C820.832397,1300.304565 821.310059,1300.753540 821.863464,1301.699829 
z"/>
<path fill="#21A366" opacity="1.000000" stroke="none" 
	d="
M827.921448,1311.572754 
	C827.286316,1311.874512 826.803833,1311.460205 826.491577,1310.324341 
	C827.139282,1310.020752 827.609985,1310.438721 827.921448,1311.572754 
z"/>
<path fill="#107940" opacity="1.000000" stroke="none" 
	d="
M438.494873,1334.386475 
	C437.988922,1333.643921 437.977448,1333.283813 437.943115,1332.383789 
	C437.669891,1331.523071 437.419525,1331.202515 437.583191,1330.433594 
	C447.191406,1313.636108 456.385590,1297.286865 466.015076,1280.361572 
	C466.670044,1279.471436 466.889648,1279.157227 467.402954,1278.348877 
	C467.785614,1277.445557 467.874664,1277.036377 468.316589,1276.107788 
	C468.669525,1275.588257 469.104218,1274.855835 469.369812,1274.522949 
	C469.770630,1273.717896 469.905884,1273.245728 470.458252,1272.166260 
	C470.875366,1271.558838 471.125977,1270.828491 471.428802,1270.588867 
	C473.347107,1267.103027 474.962616,1263.856812 477.331848,1259.677002 
	C478.085632,1258.743286 478.029327,1258.221436 478.238220,1258.062500 
	C478.655121,1257.568115 478.863068,1257.232422 479.395599,1256.401489 
	C479.802002,1255.513306 479.883850,1255.120483 480.319214,1254.240234 
	C480.821930,1253.445557 480.971100,1253.138184 481.461975,1252.449097 
	C483.689728,1246.579102 487.011932,1241.836548 490.157623,1236.188599 
	C490.577148,1235.592651 491.102600,1234.856567 491.348022,1234.476807 
	C491.723572,1233.645630 491.853699,1233.194214 492.378540,1232.158936 
	C492.773315,1231.575195 493.116669,1230.839966 493.403900,1230.553467 
	C505.812958,1207.878784 517.934753,1185.490723 530.548828,1162.562500 
	C544.125854,1149.444092 560.460022,1141.908691 575.972290,1133.103760 
	C579.998596,1130.818359 584.032166,1128.123413 589.519043,1131.466309 
	C595.538940,1139.708740 599.398560,1148.361084 604.047363,1157.353760 
	C604.414551,1158.317383 604.647949,1158.574463 605.097412,1159.305664 
	C605.546936,1160.104248 605.780396,1160.428955 606.129700,1161.342285 
	C606.459290,1162.233154 606.673157,1162.535400 607.167480,1163.317139 
	C607.666870,1164.098877 607.885925,1164.401123 608.209106,1165.253662 
	C608.505249,1166.149048 608.697266,1166.494019 609.231201,1167.322754 
	C612.363342,1172.836182 615.153503,1177.865723 618.106567,1183.600830 
	C618.269531,1184.306152 618.877930,1184.831421 619.016113,1185.208740 
	C619.424194,1185.988281 619.694092,1186.390381 620.153992,1187.493530 
	C620.344055,1188.194580 620.892212,1188.849487 621.096069,1189.224609 
	C621.535767,1189.953003 621.771484,1190.306030 622.137207,1191.282471 
	C622.487732,1192.235718 622.708313,1192.565552 623.226318,1193.410645 
	C623.523804,1193.926025 623.930298,1194.243164 623.897644,1194.499023 
	C624.587158,1195.198608 625.012146,1195.831909 625.339111,1197.239746 
	C632.258057,1210.066162 638.932312,1222.336426 645.683350,1235.298096 
	C642.161743,1236.102661 638.615173,1235.031250 637.382812,1231.699585 
	C634.988403,1225.225952 631.358948,1227.032227 627.282898,1229.360718 
	C617.179565,1235.132324 607.050415,1240.859009 596.970520,1246.671143 
	C562.990967,1266.264160 529.023682,1285.878418 495.061462,1305.501465 
	C481.245117,1313.484497 467.474091,1321.546021 453.639008,1329.496338 
	C449.089294,1332.110962 444.520081,1334.814819 438.494873,1334.386475 
z"/>
<path fill="#EAE8DF" opacity="1.000000" stroke="none" 
	d="
M696.894043,1330.310669 
	C697.350769,1329.965698 697.710571,1330.170532 698.046692,1330.874756 
	C697.584412,1331.343140 697.175842,1331.171875 696.894043,1330.310669 
z"/>
<path fill="#0C6933" opacity="1.000000" stroke="none" 
	d="
M784.931458,1589.859863 
	C785.032715,1583.910156 790.367554,1582.320801 794.483093,1579.915405 
	C832.107178,1557.926636 869.805664,1536.064087 907.574341,1514.324341 
	C949.381104,1490.260620 991.330322,1466.444336 1033.129028,1442.366699 
	C1060.512451,1426.592896 1087.710449,1410.497681 1115.064819,1394.673096 
	C1119.366089,1392.184814 1124.056763,1390.369995 1129.275391,1388.121582 
	C1129.998657,1425.792480 1129.918945,1463.585938 1130.115112,1501.378052 
	C1130.151733,1508.430420 1127.530884,1515.057739 1127.638672,1522.907715 
	C1125.628296,1526.137573 1124.854614,1529.061035 1123.634521,1531.789673 
	C1110.391968,1561.406982 1088.003662,1580.166382 1056.450562,1587.791260 
	C1049.333862,1589.510986 1042.063232,1590.066650 1034.676880,1590.055176 
	C951.740295,1589.925537 868.803467,1589.948364 784.931458,1589.859863 
z"/>
<path fill="#117C42" opacity="1.000000" stroke="none" 
	d="
M1130.003662,863.059448 
	C1123.966553,863.923828 1119.134644,867.193787 1114.301758,869.986816 
	C1069.679199,895.774902 1025.197876,921.807373 980.570007,947.586182 
	C943.426147,969.042114 906.093750,990.171631 868.931824,1011.596436 
	C836.957520,1030.030518 805.137939,1048.732666 773.188538,1067.210083 
	C753.614319,1078.530518 733.909302,1089.624878 714.299866,1100.884766 
	C710.577148,1103.022339 707.026611,1105.459717 702.713135,1107.892578 
	C692.539124,1095.212402 684.988403,1081.163940 676.448792,1067.744629 
	C668.780212,1055.694214 661.701660,1043.259766 653.785461,1031.379395 
	C650.360657,1026.239868 650.333496,1022.515930 653.618042,1017.222168 
	C681.466187,972.340149 708.998352,927.262085 737.195190,881.839722 
	C741.081909,885.063721 744.018188,882.029236 746.647034,880.574646 
	C757.416748,874.615723 768.020935,868.358032 778.692566,862.221741 
	C803.495972,847.959351 828.322693,833.737427 853.103271,819.435486 
	C875.579712,806.463379 897.989136,793.375000 920.462097,780.396667 
	C945.238464,766.088196 970.067688,751.871277 994.847717,737.569092 
	C1017.324219,724.596436 1039.772827,711.575378 1062.220093,698.552124 
	C1081.212158,687.533386 1100.170532,676.456604 1119.180786,665.469360 
	C1122.052246,663.809631 1125.017334,662.201782 1129.226440,662.031616 
	C1129.991333,728.705383 1130.011353,795.414062 1130.003662,863.059448 
z"/>
<path fill="#147C42" opacity="1.000000" stroke="none" 
	d="
M590.028259,1131.223389 
	C580.622437,1132.600708 573.902405,1139.250366 566.135376,1143.438354 
	C556.244873,1148.771606 546.164551,1153.944214 537.205566,1160.918945 
	C536.040283,1161.826172 534.045898,1161.668457 531.738281,1162.013184 
	C537.934570,1149.139648 544.712646,1136.193359 551.757324,1123.394043 
	C557.671570,1112.648682 563.843140,1102.046753 569.088074,1090.233643 
	C575.153992,1104.316040 583.162903,1117.086914 590.028259,1131.223389 
z"/>
<path fill="#33C481" opacity="1.000000" stroke="none" 
	d="
M702.889404,721.914185 
	C704.140747,719.818604 706.867065,720.098572 709.489746,720.098022 
	C748.908813,720.089722 788.327820,720.094238 827.746826,720.148010 
	C829.364990,720.150208 830.982544,720.665100 833.172913,721.507446 
	C790.438599,722.054321 747.131775,722.034912 702.889404,721.914185 
z"/>
<path fill="#21A366" opacity="1.000000" stroke="none" 
	d="
M556.475220,918.382996 
	C557.066040,918.691345 557.649048,919.518433 558.246460,920.869751 
	C557.663025,920.563232 557.065247,919.732422 556.475220,918.382996 
z"/>
<path fill="#21A366" opacity="1.000000" stroke="none" 
	d="
M542.354614,890.416504 
	C542.975342,890.724854 543.588928,891.567200 544.219849,892.948975 
	C543.607300,892.642456 542.977356,891.796509 542.354614,890.416504 
z"/>
<path fill="#21A366" opacity="1.000000" stroke="none" 
	d="
M554.495483,914.372681 
	C555.078735,914.673767 555.662354,915.486206 556.262329,916.816895 
	C555.684387,916.518127 555.090088,915.701111 554.495483,914.372681 
z"/>
<path fill="#21A366" opacity="1.000000" stroke="none" 
	d="
M552.469482,910.380005 
	C553.060974,910.676392 553.649292,911.486389 554.258057,912.815063 
	C553.674438,912.520325 553.070435,911.706909 552.469482,910.380005 
z"/>
<path fill="#21A366" opacity="1.000000" stroke="none" 
	d="
M550.449585,906.383850 
	C551.044250,906.683289 551.637451,907.500305 552.250244,908.840332 
	C551.662598,908.542725 551.055359,907.722046 550.449585,906.383850 
z"/>
<path fill="#21A366" opacity="1.000000" stroke="none" 
	d="
M548.432373,902.390259 
	C549.032349,902.693604 549.628906,903.519226 550.243896,904.872925 
	C549.651184,904.571472 549.040039,903.742004 548.432373,902.390259 
z"/>
<path fill="#33C481" opacity="1.000000" stroke="none" 
	d="
M602.139893,902.997437 
	C602.062256,902.366943 602.378967,901.418640 603.144165,900.210205 
	C603.239868,900.859863 602.887085,901.769653 602.139893,902.997437 
z"/>
<path fill="#21A366" opacity="1.000000" stroke="none" 
	d="
M546.407959,898.397339 
	C547.015015,898.700989 547.617432,899.530151 548.238586,900.890137 
	C547.639282,900.588196 547.021301,899.755493 546.407959,898.397339 
z"/>
<path fill="#21A366" opacity="1.000000" stroke="none" 
	d="
M604.134277,899.025879 
	C604.083252,898.402283 604.429565,897.443359 605.211365,896.192993 
	C605.275146,896.831238 604.903320,897.760925 604.134277,899.025879 
z"/>
<path fill="#21A366" opacity="1.000000" stroke="none" 
	d="
M544.381836,894.406006 
	C544.995789,894.711792 545.603821,895.547302 546.229919,896.918213 
	C545.623962,896.614319 544.999939,895.775024 544.381836,894.406006 
z"/>
<path fill="#21A366" opacity="1.000000" stroke="none" 
	d="
M558.434570,922.400024 
	C559.034485,922.715332 559.626099,923.557495 560.229858,924.932861 
	C559.636780,924.619629 559.031494,923.773315 558.434570,922.400024 
z"/>
<path fill="#21A366" opacity="1.000000" stroke="none" 
	d="
M560.380981,926.407349 
	C560.991089,926.722168 561.587585,927.566101 562.189697,928.945679 
	C561.585999,928.632996 560.976624,927.784729 560.380981,926.407349 
z"/>
<path fill="#33C481" opacity="1.000000" stroke="none" 
	d="
M578.178101,951.087646 
	C578.057312,950.473999 578.297485,949.535828 578.972778,948.346497 
	C579.118286,948.984619 578.828674,949.873901 578.178101,951.087646 
z"/>
<path fill="#33C481" opacity="1.000000" stroke="none" 
	d="
M573.370728,955.196167 
	C573.819641,954.663635 574.322815,954.658142 575.573486,954.557556 
	C576.038391,956.451111 575.655273,958.208923 573.370728,955.196167 
z"/>
<path fill="#33C481" opacity="1.000000" stroke="none" 
	d="
M684.180969,753.085632 
	C684.104187,752.446899 684.430603,751.482605 685.208801,750.244507 
	C685.301819,750.900574 684.942993,751.830261 684.180969,753.085632 
z"/>
<path fill="#1E925C" opacity="1.000000" stroke="none" 
	d="
M625.606323,1197.330566 
	C625.017151,1197.091919 624.450439,1196.387817 623.874390,1195.219238 
	C624.452881,1195.458252 625.040833,1196.161865 625.606323,1197.330566 
z"/>
<path fill="#33C481" opacity="1.000000" stroke="none" 
	d="
M694.116272,734.968872 
	C694.037048,734.337891 694.351196,733.390991 695.115723,732.189087 
	C695.213928,732.840393 694.861816,733.746643 694.116272,734.968872 
z"/>
<path fill="#33C481" opacity="1.000000" stroke="none" 
	d="
M696.190369,731.118225 
	C696.113770,730.490479 696.435303,729.548950 697.206177,728.353516 
	C697.299927,729.001221 696.944214,729.902893 696.190369,731.118225 
z"/>
<path fill="#21A366" opacity="1.000000" stroke="none" 
	d="
M540.335938,886.422058 
	C540.960388,886.734558 541.577393,887.585266 542.209717,888.980225 
	C541.592834,888.669678 540.960693,887.815002 540.335938,886.422058 
z"/>
<path fill="#33C481" opacity="1.000000" stroke="none" 
	d="
M660.143921,797.022339 
	C660.066650,796.386047 660.388489,795.429138 661.162720,794.208740 
	C661.257690,794.864075 660.900330,795.782959 660.143921,797.022339 
z"/>
<path fill="#21A366" opacity="1.000000" stroke="none" 
	d="
M662.143677,793.055176 
	C662.090393,792.425842 662.438049,791.458557 663.224854,790.197388 
	C663.290833,790.841431 662.917725,791.779358 662.143677,793.055176 
z"/>
<path fill="#33C481" opacity="1.000000" stroke="none" 
	d="
M490.453583,788.416016 
	C491.080597,788.703735 491.695679,789.503967 492.283081,790.827698 
	C491.650818,790.543640 491.046234,789.736084 490.453583,788.416016 
z"/>
<path fill="#33C481" opacity="1.000000" stroke="none" 
	d="
M488.433716,784.428467 
	C489.065491,784.719543 489.684387,785.527527 490.276093,786.863647 
	C489.639526,786.576294 489.030182,785.760742 488.433716,784.428467 
z"/>
<path fill="#33C481" opacity="1.000000" stroke="none" 
	d="
M486.404175,780.437012 
	C487.042419,780.728760 487.665771,781.541382 488.264008,782.885132 
	C487.622345,782.596741 487.005829,781.777344 486.404175,780.437012 
z"/>
<path fill="#21A366" opacity="1.000000" stroke="none" 
	d="
M650.126465,815.007935 
	C650.076599,814.386841 650.421875,813.431885 651.201538,812.187500 
	C651.264526,812.823425 650.893066,813.748657 650.126465,815.007935 
z"/>
<path fill="#33C481" opacity="1.000000" stroke="none" 
	d="
M638.180420,837.110413 
	C638.103577,836.482971 638.423035,835.539917 639.191772,834.342957 
	C639.286255,834.990967 638.931396,835.892883 638.180420,837.110413 
z"/>
<path fill="#33C481" opacity="1.000000" stroke="none" 
	d="
M484.385498,776.442810 
	C485.026520,776.738342 485.651794,777.558594 486.251282,778.913208 
	C485.606934,778.620911 484.988373,777.794250 484.385498,776.442810 
z"/>
<path fill="#33C481" opacity="1.000000" stroke="none" 
	d="
M626.164673,859.081299 
	C626.084351,858.455994 626.396545,857.518555 627.156494,856.332886 
	C627.255127,856.979553 626.906128,857.874390 626.164673,859.081299 
z"/>
<path fill="#33C481" opacity="1.000000" stroke="none" 
	d="
M482.368774,772.455200 
	C483.014374,772.751648 483.641876,773.575012 484.243896,774.934814 
	C483.595856,774.641541 482.973297,773.811768 482.368774,772.455200 
z"/>
<path fill="#33C481" opacity="1.000000" stroke="none" 
	d="
M672.161255,775.049927 
	C672.083191,774.412231 672.406677,773.452820 673.181885,772.225891 
	C673.276733,772.881653 672.919739,773.804993 672.161255,775.049927 
z"/>
<path fill="#21A366" opacity="1.000000" stroke="none" 
	d="
M616.142883,877.075928 
	C616.092285,876.457581 616.437256,875.510925 617.218140,874.282104 
	C617.282227,874.915955 616.910339,875.831787 616.142883,877.075928 
z"/>
<path fill="#33C481" opacity="1.000000" stroke="none" 
	d="
M614.150879,881.036804 
	C614.074707,880.401550 614.396301,879.442932 615.169678,878.218567 
	C615.263794,878.872986 614.906250,879.793274 614.150879,881.036804 
z"/>
<path fill="#21A366" opacity="1.000000" stroke="none" 
	d="
M674.149170,771.091675 
	C674.095703,770.469910 674.439331,769.519409 675.220215,768.286133 
	C675.286987,768.923218 674.916626,769.843079 674.149170,771.091675 
z"/>
<path fill="#21A366" opacity="1.000000" stroke="none" 
	d="
M538.314453,882.431396 
	C538.942078,882.745850 539.564392,883.601990 540.202026,885.005859 
	C539.581238,884.693420 538.945129,883.833252 538.314453,882.431396 
z"/>
<path fill="#21A366" opacity="1.000000" stroke="none" 
	d="
M664.103271,789.404053 
	C663.710327,789.135376 663.779297,788.778320 664.261597,788.297241 
	C664.747559,788.546997 664.710938,788.927856 664.103271,789.404053 
z"/>
<path fill="#1E925C" opacity="1.000000" stroke="none" 
	d="
M477.858948,1258.762695 
	C478.085632,1258.743286 478.047424,1259.399902 477.889435,1259.469604 
	C477.731445,1259.539307 477.632233,1258.782104 477.858948,1258.762695 
z"/>
<path fill="#1E925C" opacity="1.000000" stroke="none" 
	d="
M479.308289,1256.081543 
	C479.753571,1256.502075 479.559418,1257.011230 478.792450,1257.668701 
	C478.251373,1257.260254 478.401123,1256.711304 479.308289,1256.081543 
z"/>
<path fill="#1E925C" opacity="1.000000" stroke="none" 
	d="
M481.436951,1252.202881 
	C481.860077,1252.593750 481.696930,1253.039917 480.993530,1253.579346 
	C480.468323,1253.186646 480.600769,1252.715210 481.436951,1252.202881 
z"/>
<path fill="#21A366" opacity="1.000000" stroke="none" 
	d="
M491.238464,1234.183838 
	C491.721924,1234.592163 491.591644,1235.005615 490.889893,1235.464844 
	C490.336243,1235.072266 490.438354,1234.631592 491.238464,1234.183838 
z"/>
<path fill="#21A366" opacity="1.000000" stroke="none" 
	d="
M493.367920,1230.333374 
	C493.831360,1230.717285 493.721588,1231.094604 493.067535,1231.487061 
	C492.528442,1231.105591 492.618927,1230.713867 493.367920,1230.333374 
z"/>
<path fill="#33C481" opacity="1.000000" stroke="none" 
	d="
M492.468170,792.359680 
	C493.149506,792.079468 493.594208,792.513184 493.810760,793.656250 
	C493.133331,793.938477 492.682953,793.507874 492.468170,792.359680 
z"/>
<path fill="#21A366" opacity="1.000000" stroke="none" 
	d="
M471.425385,1270.404053 
	C471.878418,1270.773804 471.780487,1271.130859 471.156616,1271.489624 
	C470.626129,1271.118774 470.707397,1270.752075 471.425385,1270.404053 
z"/>
<path fill="#21A366" opacity="1.000000" stroke="none" 
	d="
M469.297058,1274.265869 
	C469.770416,1274.661987 469.650574,1275.056030 468.972717,1275.480469 
	C468.430389,1275.094482 468.526794,1274.678955 469.297058,1274.265869 
z"/>
<path fill="#1E925C" opacity="1.000000" stroke="none" 
	d="
M467.291443,1278.018311 
	C467.742798,1278.439209 467.555847,1278.935791 466.793091,1279.564941 
	C466.251129,1279.157227 466.396423,1278.622559 467.291443,1278.018311 
z"/>
<path fill="#33C481" opacity="1.000000" stroke="none" 
	d="
M670.570679,777.854980 
	C670.002136,777.397461 670.179199,776.814209 671.100952,776.107178 
	C671.693298,776.572510 671.516846,777.154480 670.570679,777.854980 
z"/>
<path fill="#EAE8DF" opacity="1.000000" stroke="none" 
	d="
M437.569824,1330.122803 
	C437.997253,1329.985229 438.064423,1330.918701 437.992340,1331.381226 
	C437.577728,1331.853760 437.235199,1331.863892 436.405273,1331.708252 
	C436.183746,1330.979004 436.591888,1330.551636 437.569824,1330.122803 
z"/>
<path fill="#33C481" opacity="1.000000" stroke="none" 
	d="
M612.563965,883.836792 
	C612.000854,883.382812 612.177185,882.803833 613.092896,882.102295 
	C613.680725,882.565002 613.504395,883.142334 612.563965,883.836792 
z"/>
<path fill="#21A366" opacity="1.000000" stroke="none" 
	d="
M606.092651,895.381714 
	C605.702026,895.120239 605.765198,894.774658 606.232422,894.308594 
	C606.717773,894.548767 606.687805,894.918640 606.092651,895.381714 
z"/>
<path fill="#21A366" opacity="1.000000" stroke="none" 
	d="
M537.530640,880.502258 
	C537.992981,880.378052 538.197205,880.637512 538.215820,881.269043 
	C537.727417,881.471985 537.474854,881.220215 537.530640,880.502258 
z"/>
<path fill="#33C481" opacity="1.000000" stroke="none" 
	d="
M624.585327,861.872070 
	C624.014099,861.411987 624.193115,860.825562 625.121094,860.113403 
	C625.711853,860.579468 625.533691,861.165466 624.585327,861.872070 
z"/>
<path fill="#33C481" opacity="1.000000" stroke="none" 
	d="
M600.533875,905.810059 
	C599.975708,905.362183 600.149353,904.785583 601.060547,904.088989 
	C601.640808,904.549377 601.463318,905.120178 600.533875,905.810059 
z"/>
<path fill="#33C481" opacity="1.000000" stroke="none" 
	d="
M636.617310,839.902222 
	C636.044922,839.438538 636.226013,838.851379 637.151123,838.133240 
	C637.746460,838.597900 637.571716,839.190002 636.617310,839.902222 
z"/>
<path fill="#33C481" opacity="1.000000" stroke="none" 
	d="
M646.504944,821.817139 
	C645.951599,821.376770 646.113098,820.818970 646.999878,820.161072 
	C647.581909,820.620972 647.413452,821.167236 646.504944,821.817139 
z"/>
<path fill="#33C481" opacity="1.000000" stroke="none" 
	d="
M648.650146,817.922180 
	C648.076538,817.457642 648.257507,816.872742 649.177734,816.153870 
	C649.772522,816.614319 649.601746,817.208374 648.650146,817.922180 
z"/>
<path fill="#21A366" opacity="1.000000" stroke="none" 
	d="
M563.466614,932.491638 
	C563.930481,932.384827 564.136230,932.668091 564.155212,933.330444 
	C563.663757,933.509766 563.410461,933.233826 563.466614,932.491638 
z"/>
<path fill="#33C481" opacity="1.000000" stroke="none" 
	d="
M568.575073,944.445801 
	C569.265259,944.165100 569.675171,944.576355 569.809814,945.678894 
	C569.148010,945.934753 568.734802,945.523865 568.575073,944.445801 
z"/>
<path fill="#21A366" opacity="1.000000" stroke="none" 
	d="
M652.085571,811.370605 
	C651.692017,811.112061 651.751160,810.771057 652.213501,810.311523 
	C652.702148,810.547852 652.675964,810.912903 652.085571,811.370605 
z"/>
<path fill="#21A366" opacity="1.000000" stroke="none" 
	d="
M576.678101,954.034302 
	C576.159729,953.609558 576.340088,953.007446 577.164185,952.184875 
	C577.398315,952.515503 577.254578,953.146362 576.678101,954.034302 
z"/>
<path fill="#33C481" opacity="1.000000" stroke="none" 
	d="
M498.575317,804.416077 
	C499.254852,804.109741 499.685028,804.510742 499.869568,805.619873 
	C499.222992,805.893555 498.790314,805.492004 498.575317,804.416077 
z"/>
<path fill="#33C481" opacity="1.000000" stroke="none" 
	d="
M496.548492,800.429810 
	C497.230255,800.124146 497.662720,800.527832 497.851501,801.640869 
	C497.198883,801.919189 496.762665,801.515503 496.548492,800.429810 
z"/>
<path fill="#33C481" opacity="1.000000" stroke="none" 
	d="
M682.605530,755.884888 
	C682.031616,755.421387 682.210999,754.836731 683.136475,754.125549 
	C683.731934,754.591187 683.557312,755.179382 682.605530,755.884888 
z"/>
<path fill="#33C481" opacity="1.000000" stroke="none" 
	d="
M658.545288,799.832214 
	C657.979980,799.379578 658.154907,798.797119 659.073975,798.091675 
	C659.662170,798.555664 659.484619,799.133545 658.545288,799.832214 
z"/>
<path fill="#33C481" opacity="1.000000" stroke="none" 
	d="
M494.530060,796.439331 
	C495.213562,796.133240 495.648468,796.538818 495.839050,797.656250 
	C495.181915,797.937073 494.744171,797.531372 494.530060,796.439331 
z"/>
<path fill="#21A366" opacity="1.000000" stroke="none" 
	d="
M686.055664,749.293823 
	C685.798828,749.378845 685.909851,748.476868 686.112183,748.352661 
	C686.619141,748.555847 686.618469,748.882568 686.055664,749.293823 
z"/>
<path fill="#1E925C" opacity="1.000000" stroke="none" 
	d="
M605.339966,1159.386230 
	C604.802795,1159.620972 604.450439,1159.292603 604.218750,1158.427246 
	C604.763977,1158.132812 605.158997,1158.443848 605.339966,1159.386230 
z"/>
<path fill="#1E925C" opacity="1.000000" stroke="none" 
	d="
M607.473145,1163.374023 
	C606.920654,1163.596313 606.550354,1163.235229 606.291138,1162.322144 
	C606.873230,1162.013428 607.290894,1162.353638 607.473145,1163.374023 
z"/>
<path fill="#1E925C" opacity="1.000000" stroke="none" 
	d="
M609.594604,1167.358521 
	C609.032471,1167.567261 608.646667,1167.175659 608.364502,1166.217773 
	C608.978210,1165.901245 609.412537,1166.270142 609.594604,1167.358521 
z"/>
<path fill="#21A366" opacity="1.000000" stroke="none" 
	d="
M619.215576,1185.271606 
	C618.685059,1185.578247 618.377441,1185.351440 618.250488,1184.606079 
	C618.770142,1184.268921 619.105896,1184.485840 619.215576,1185.271606 
z"/>
<path fill="#21A366" opacity="1.000000" stroke="none" 
	d="
M621.355591,1189.259277 
	C620.811951,1189.552246 620.485596,1189.297729 620.332520,1188.515625 
	C620.883118,1188.166504 621.238831,1188.407837 621.355591,1189.259277 
z"/>
<path fill="#33C481" opacity="1.000000" stroke="none" 
	d="
M692.506348,737.792969 
	C691.950439,737.346191 692.123352,736.769409 693.030884,736.072021 
	C693.613647,736.533081 693.436829,737.103638 692.506348,737.792969 
z"/>
<path fill="#1E925C" opacity="1.000000" stroke="none" 
	d="
M623.543335,1193.477417 
	C622.988037,1193.676514 622.606384,1193.279053 622.323120,1192.319824 
	C622.928589,1192.015503 623.360474,1192.389771 623.543335,1193.477417 
z"/>
</svg>