<svg version="1.1" id="Layer_1" xmlns="http://www.w3.org/2000/svg" xmlns:xlink="http://www.w3.org/1999/xlink" x="0px" y="0px"
	 width="100%" viewBox="0 0 1280 662" enable-background="new 0 0 1280 662" xml:space="preserve">
<path fill="#000000" opacity="1.000000" stroke="none" 
	d="
M330.000000,663.000000 
	C220.358749,663.000000 110.717506,663.000000 1.038131,663.000000 
	C1.038131,442.409912 1.038131,221.819809 1.038131,1.000000 
	C273.693481,1.000000 546.387024,1.000000 819.617981,1.388721 
	C819.655823,2.152349 819.202759,2.756195 818.649841,2.868540 
	C806.307495,5.376348 798.432739,15.268497 797.891541,27.557730 
	C797.288086,41.261787 804.619080,51.292557 811.987549,61.512833 
	C819.686096,72.190704 828.530579,82.297707 834.537476,93.867424 
	C840.458618,105.271973 843.346985,118.234291 847.756409,130.444397 
	C854.544006,149.239746 861.326172,168.051163 875.966125,182.648529 
	C877.072937,183.752151 877.958252,186.072449 877.600159,187.486099 
	C875.589966,195.421539 873.393860,203.327087 870.835388,211.102737 
	C865.982483,225.851578 863.931274,241.189835 864.358521,256.431366 
	C864.742371,270.121124 867.145630,283.977020 870.487610,297.300690 
	C874.084351,311.639618 881.083557,324.597443 892.334229,334.942413 
	C903.308960,345.033630 920.622314,342.210846 924.963928,328.820038 
	C926.469604,324.176331 927.131409,319.241821 927.974487,314.404541 
	C929.231506,307.191986 930.307495,299.947845 931.460510,292.717163 
	C933.452026,294.189606 934.381104,295.823975 935.178833,297.520111 
	C942.594849,313.288940 950.679199,328.565735 963.923523,340.478394 
	C976.486450,351.778168 988.759399,363.400513 1001.336121,374.684479 
	C1003.877563,376.964539 1007.208740,378.364410 1010.175781,380.170044 
	C1010.489746,379.754517 1010.803772,379.338959 1011.117737,378.923431 
	C1009.945801,377.660156 1008.931335,376.188110 1007.576904,375.166870 
	C997.388428,367.484955 989.476379,357.685425 982.677856,347.121216 
	C972.784424,331.748047 962.853516,316.316620 954.300598,300.187775 
	C946.618835,285.701843 940.795715,270.232025 934.088928,255.224731 
	C933.380432,253.639435 932.242065,252.246231 930.888123,250.108627 
	C925.789185,257.029785 920.905518,262.679077 917.135315,268.993256 
	C910.547546,280.026184 909.587646,292.699585 907.995911,305.118103 
	C907.278076,310.718689 906.519897,316.314117 905.749878,322.140076 
	C897.064514,320.298615 893.950195,313.903534 891.103821,307.669067 
	C885.681274,295.791595 881.165344,283.491882 880.981323,270.262970 
	C880.793274,256.741486 880.236145,243.051895 882.027222,229.729874 
	C883.517822,218.642258 888.016846,207.929108 891.482605,197.146271 
	C894.388733,188.104568 896.111450,179.307236 888.270264,171.820526 
	C874.104492,158.295135 867.105591,140.887466 862.072021,122.646790 
	C855.043640,97.177460 843.915649,74.098244 826.676636,53.840214 
	C821.363037,47.596016 817.200195,39.910233 814.282898,32.212761 
	C811.043762,23.666353 819.131226,18.453360 825.737122,20.201309 
	C843.745178,24.966272 860.471191,32.528534 875.050903,44.427807 
	C878.067383,46.889656 881.302612,50.058762 884.840271,50.709316 
	C892.915710,52.194359 901.259460,52.152695 909.457825,53.060387 
	C914.826782,53.654812 920.426941,54.037346 925.404114,55.901634 
	C935.699036,59.757828 945.848999,64.133522 955.696228,69.025063 
	C976.842834,79.529495 995.449402,93.847145 1012.317017,110.141876 
	C1023.464844,120.911087 1033.426636,132.978210 1043.315918,144.962234 
	C1055.739746,160.017792 1065.614380,176.794449 1073.708130,194.536331 
	C1087.391479,224.530960 1100.808105,254.647278 1114.324219,284.718170 
	C1120.495728,298.448700 1130.323730,306.778137 1145.491699,310.664124 
	C1161.643433,314.802124 1177.472290,320.684601 1191.270508,330.971008 
	C1202.336792,339.220642 1214.135010,346.484009 1225.527954,354.302307 
	C1228.459106,356.313812 1231.086670,358.767639 1233.853760,361.018280 
	C1233.434692,361.578430 1233.015747,362.138580 1232.596802,362.698730 
	C1231.343384,362.798737 1230.091431,362.920990 1228.836426,362.995239 
	C1217.444092,363.669586 1205.865479,363.298828 1194.710815,365.296600 
	C1183.644043,367.278656 1172.946289,371.471832 1162.217651,375.084320 
	C1159.554321,375.981049 1157.138062,377.822723 1158.884766,381.955688 
	C1164.074463,394.235809 1171.324707,404.934021 1182.264404,412.640472 
	C1191.801636,419.358948 1201.186279,426.770111 1211.701660,431.523102 
	C1232.043823,440.717926 1250.769897,452.015350 1267.404175,466.853210 
	C1268.471680,467.805298 1269.857178,468.400787 1271.094727,469.162170 
	C1271.566528,468.731415 1272.038330,468.300659 1272.510254,467.869904 
	C1269.677124,463.418488 1267.067139,458.801849 1263.934082,454.572693 
	C1261.773438,451.656250 1258.545654,449.530060 1256.388428,446.611816 
	C1247.746216,434.920624 1237.284912,425.117432 1225.440918,416.851166 
	C1216.401611,410.542480 1206.725464,405.140198 1197.753906,398.743774 
	C1193.481079,395.697540 1190.189209,391.275604 1185.805908,386.818848 
	C1189.465088,386.064056 1191.526123,385.641235 1193.585938,385.213593 
	C1203.553955,383.144257 1213.520630,381.069702 1223.489502,379.004608 
	C1233.297363,376.972931 1243.132324,375.062012 1252.902588,372.863617 
	C1256.346436,372.088776 1257.007568,369.956421 1254.632690,367.032440 
	C1251.001831,362.562134 1248.153931,357.206848 1243.832275,353.591553 
	C1228.049194,340.387573 1212.066528,327.385956 1195.635254,315.003326 
	C1180.508057,303.603516 1162.646973,297.271454 1145.387329,289.900543 
	C1143.280762,289.000916 1141.060791,287.322113 1139.920410,285.396271 
	C1136.154785,279.036865 1132.635010,272.506866 1129.427124,265.846710 
	C1120.255737,246.805450 1110.866943,227.851608 1102.352539,208.515991 
	C1093.996948,189.540878 1087.292480,169.782547 1074.515747,153.066467 
	C1064.222778,139.599792 1054.433228,125.665085 1043.206787,113.015030 
	C1027.685547,95.525475 1009.729614,80.539108 990.175415,67.637634 
	C978.770325,60.112839 967.558716,52.015152 955.336304,46.076393 
	C938.319885,37.808266 919.900085,33.958168 900.781555,33.859924 
	C897.361633,33.842354 893.217834,32.909702 890.654907,30.849037 
	C873.551392,17.097517 854.983337,6.614392 833.082092,2.795606 
	C832.630737,2.716907 832.356750,1.621235 832.000000,0.999998 
	C981.633728,1.000000 1131.267456,1.000000 1280.950684,1.000000 
	C1280.950684,221.585190 1280.950684,442.170410 1280.950684,663.000000 
	C1015.973206,663.000000 750.946289,663.000000 485.386963,662.613647 
	C485.518280,661.825684 486.141571,661.323486 486.851929,661.037598 
	C495.045715,657.740173 503.653259,655.214233 511.364258,651.032715 
	C523.591064,644.402405 529.957886,633.523315 529.976135,619.424683 
	C530.038452,571.269165 530.000000,523.113525 530.000000,474.957886 
	C530.000000,472.841339 530.000000,470.724762 530.000000,468.441650 
	C515.372253,468.441650 501.353546,468.441650 486.772369,468.441650 
	C486.772369,504.781708 486.772369,540.683289 486.772369,576.505981 
	C485.740631,576.738159 485.264832,576.938599 484.788849,576.939026 
	C453.463135,576.966248 422.131775,577.320251 390.814850,576.801514 
	C380.041504,576.623047 371.434326,570.536316 371.786133,557.080750 
	C372.500061,529.772278 371.999237,502.432190 371.999146,475.105133 
	C371.999146,473.189117 371.999176,471.273102 371.999176,469.385742 
	C357.237366,469.385742 343.333588,469.385742 328.707550,469.385742 
	C329.160919,475.221771 329.961334,480.621216 329.922546,486.014618 
	C329.832977,498.457458 329.200104,510.895599 329.041870,523.338928 
	C328.874512,536.500427 328.978455,549.665833 329.027374,562.829285 
	C329.034027,564.623657 329.250427,566.451599 329.637756,568.204773 
	C332.645447,581.818054 342.480133,589.386475 354.168457,594.840149 
	C369.880402,602.171204 386.765137,603.961731 403.887482,603.989441 
	C429.548157,604.031006 455.209015,604.000488 480.869781,604.000549 
	C482.788391,604.000610 484.707001,604.000549 486.997620,604.000549 
	C486.997620,608.977112 487.077057,613.124939 486.979187,617.268616 
	C486.828888,623.630310 484.109039,628.796265 478.027100,630.824707 
	C472.011444,632.830872 465.611511,634.765930 459.363708,634.819519 
	C418.542755,635.169495 377.717346,634.999695 336.893372,634.999756 
	C334.782562,634.999756 332.671722,634.999756 330.000000,634.999756 
	C330.000000,644.758789 330.000000,653.879395 330.000000,663.000000 
M231.512695,486.983734 
	C238.044022,472.356842 244.575363,457.729950 251.106705,443.103058 
	C251.482361,443.195160 251.858017,443.287231 252.233673,443.379303 
	C252.233673,497.099701 252.233673,550.820129 252.233673,604.658997 
	C266.661774,604.658997 280.562561,604.658997 294.678741,604.658997 
	C294.803802,603.378723 294.980286,602.414001 294.980530,601.449219 
	C294.994843,545.463623 295.226471,489.476288 294.805023,433.493866 
	C294.718048,421.942993 289.651978,415.190491 278.154968,410.876343 
	C267.748657,406.971466 257.090729,405.383484 246.069489,406.018097 
	C233.478409,406.743134 222.411682,411.435364 216.081970,422.480774 
	C209.062912,434.729095 203.494888,447.837463 197.698746,460.752533 
	C183.398788,492.615875 169.339630,524.587341 155.157394,556.503601 
	C152.995300,561.369263 150.692932,566.172607 148.125824,571.716553 
	C147.112823,569.937866 146.546722,569.133545 146.167358,568.249084 
	C141.302353,556.906616 136.486053,545.543274 131.613983,534.203857 
	C123.745941,515.891541 115.906006,497.566772 107.941895,479.296204 
	C99.973862,461.016510 92.382652,442.544769 83.615952,424.652222 
	C78.892403,415.011627 70.082169,409.091583 59.260006,407.011993 
	C46.113552,404.485748 33.330910,406.157928 20.782288,410.587219 
	C8.702160,414.851074 3.007825,422.644653 3.005054,435.478058 
	C2.993287,489.964050 2.999415,544.450073 2.999008,598.936035 
	C2.998994,600.848022 2.999006,602.760010 2.999006,604.596313 
	C17.788279,604.596313 31.690348,604.596313 46.182854,604.596313 
	C46.182854,550.583435 46.182854,496.971222 46.182854,443.359009 
	C50.557289,451.027222 54.252213,458.731659 57.739357,466.529022 
	C68.430672,490.434967 79.050865,514.372742 89.681671,538.305725 
	C96.237282,553.064331 102.800163,567.819885 109.288414,582.608093 
	C114.594719,594.702393 122.264496,604.375671 136.133331,606.444458 
	C142.876678,607.450317 149.858582,607.020142 156.730301,606.965393 
	C167.941177,606.876099 177.300644,602.332581 182.892014,592.706543 
	C188.831940,582.480408 193.667099,571.581055 198.551285,560.779663 
	C209.546799,536.463135 220.274506,512.025574 231.512695,486.983734 
M898.545166,604.999634 
	C901.813721,604.680054 905.097839,603.995483 908.346802,604.134399 
	C912.314453,604.303955 917.258789,603.855225 920.014587,605.972595 
	C928.212646,612.271545 935.245178,620.075439 943.356079,626.505554 
	C946.853149,629.277893 949.066650,634.178711 954.855713,634.079956 
	C969.183044,633.835449 983.517334,634.009277 997.848755,633.977417 
	C998.872192,633.975159 999.895020,633.667236 1001.635254,633.385193 
	C987.715759,620.762268 974.388062,608.676025 960.803162,596.356445 
	C962.017273,595.688171 962.695251,595.253662 963.421143,594.924500 
	C978.802429,587.951355 985.020874,575.476807 985.008179,559.183838 
	C984.981201,524.521606 985.116089,489.858826 984.941833,455.197479 
	C984.873840,441.675964 978.979736,430.757202 967.899780,423.062897 
	C955.039612,414.132324 940.156372,410.545654 924.893921,410.184113 
	C897.412842,409.533203 869.901978,409.758392 842.410767,410.138214 
	C833.460938,410.261841 824.422119,411.441071 815.626282,413.167755 
	C806.363525,414.986084 797.530823,418.592834 790.018860,424.537506 
	C778.852905,433.373840 774.856323,445.366608 774.944641,459.296844 
	C775.128540,488.291931 774.939026,517.289307 775.045654,546.285156 
	C775.070557,553.048767 775.278442,559.856812 776.084412,566.562378 
	C777.467346,578.068481 783.551331,586.908997 793.276123,593.009094 
	C808.086731,602.299438 824.575684,605.947998 841.838440,605.929260 
	C860.422729,605.909119 879.006531,605.333191 898.545166,604.999634 
M609.500000,605.000000 
	C628.662720,605.000000 647.826233,605.105042 666.987793,604.955688 
	C676.584717,604.880920 686.206604,604.700073 695.766418,603.933289 
	C711.953674,602.635010 726.590210,597.063721 738.740051,586.043091 
	C744.723633,580.615601 748.944397,573.982544 748.985352,565.482422 
	C749.043152,553.485046 749.027771,541.487122 748.966064,529.489807 
	C748.957825,527.891785 748.628296,526.261292 748.221497,524.704956 
	C745.549133,514.480713 737.863159,508.779327 729.232056,504.068329 
	C714.838989,496.212372 699.084290,493.505737 682.997314,493.108826 
	C664.179199,492.644501 645.334106,493.307373 626.513611,492.893829 
	C613.613037,492.610352 604.833130,485.813171 604.990173,471.621002 
	C605.051025,466.122772 604.973450,460.623169 605.006592,455.124451 
	C605.051941,447.600922 608.505859,442.783356 615.806885,440.736542 
	C619.226746,439.777863 622.851624,439.082520 626.385925,439.072144 
	C666.044373,438.955475 705.703308,438.995636 745.362061,438.993591 
	C747.130432,438.993500 748.898865,438.993591 750.634888,438.993591 
	C750.634888,428.986023 750.634888,419.598846 750.634888,410.000000 
	C748.450928,410.000000 746.630981,410.000000 744.811035,410.000000 
	C704.152466,410.000000 663.493530,410.087982 622.835510,409.939484 
	C612.386780,409.901337 602.364441,411.445312 592.520752,414.954773 
	C573.044922,421.898224 561.195496,434.476013 561.961243,457.438599 
	C562.211060,464.928772 561.853088,472.437927 562.036560,479.931946 
	C562.289795,490.273956 567.087402,498.195007 575.429504,504.164276 
	C591.482178,515.650940 609.828369,519.489075 629.049744,519.928955 
	C644.371948,520.279663 659.711975,519.817566 675.037231,520.093872 
	C680.730530,520.196411 686.551819,520.794678 692.051819,522.197754 
	C699.902344,524.200378 707.157715,529.734253 706.104248,540.474365 
	C705.521423,546.415955 706.393494,552.498779 705.834045,558.444946 
	C705.552185,561.440125 704.058350,564.663391 702.214233,567.105164 
	C696.769897,574.313782 688.463745,575.825012 680.279907,575.882935 
	C642.789246,576.148315 605.295715,575.999573 567.803162,575.999451 
	C566.018311,575.999451 564.233459,575.999390 562.301025,575.999390 
	C562.301025,585.880920 562.301025,595.267456 562.301025,605.000000 
	C577.899658,605.000000 593.199829,605.000000 609.500000,605.000000 
M1189.444092,575.999451 
	C1155.448853,575.999451 1121.453369,576.042664 1087.458374,575.954102 
	C1082.197144,575.940430 1076.845215,575.819824 1071.699463,574.864441 
	C1064.528931,573.533081 1057.436157,571.225342 1054.865723,563.259644 
	C1053.683960,559.597412 1053.086670,555.586060 1053.076538,551.730774 
	C1052.957397,506.403992 1053.000000,461.076813 1053.000000,415.749725 
	C1053.000000,413.969910 1053.000000,412.190125 1053.000000,410.318176 
	C1038.412476,410.318176 1024.359009,410.318176 1009.997498,410.318176 
	C1009.997498,423.607056 1009.913269,436.580841 1010.013489,449.553223 
	C1010.302368,486.964691 1010.433411,524.379822 1011.114502,561.784668 
	C1011.385681,576.682922 1020.201416,586.826904 1032.620361,593.819397 
	C1047.042480,601.939941 1063.160767,604.531616 1079.277466,604.799805 
	C1116.928589,605.426575 1154.597046,605.000000 1192.258545,604.999939 
	C1194.037476,604.999939 1195.816406,604.999939 1197.999512,604.999939 
	C1197.999512,599.841370 1197.999634,595.211975 1197.999634,590.582642 
	C1197.999634,585.817993 1197.999512,581.053284 1197.999512,575.999451 
	C1195.042358,575.999451 1192.733032,575.999451 1189.444092,575.999451 
M1221.896973,557.447693 
	C1219.932007,563.510742 1216.455688,569.549805 1216.359009,575.642517 
	C1216.216675,584.612671 1219.473755,592.825195 1226.707642,599.509033 
	C1235.129150,607.290100 1251.432129,609.043518 1260.629883,604.723450 
	C1273.614258,598.624817 1279.397461,588.339661 1279.070435,574.033691 
	C1278.681641,557.018005 1265.798462,545.189697 1249.753784,544.099609 
	C1238.467773,543.332764 1229.073975,547.761597 1221.896973,557.447693 
M901.517456,96.095963 
	C904.570618,102.021118 907.623779,107.946274 910.692810,113.902107 
	C917.765991,109.033592 920.959412,100.701859 917.789246,94.671822 
	C911.912720,83.494179 905.904419,79.209755 891.515808,84.085472 
	C894.819092,88.070465 897.923950,91.816109 901.517456,96.095963 
z"/>
<path fill="#00618A" opacity="1.000000" stroke="none" 
	d="
M831.539368,0.999998 
	C832.356750,1.621235 832.630737,2.716907 833.082092,2.795606 
	C854.983337,6.614392 873.551392,17.097517 890.654907,30.849037 
	C893.217834,32.909702 897.361633,33.842354 900.781555,33.859924 
	C919.900085,33.958168 938.319885,37.808266 955.336304,46.076393 
	C967.558716,52.015152 978.770325,60.112839 990.175415,67.637634 
	C1009.729614,80.539108 1027.685547,95.525475 1043.206787,113.015030 
	C1054.433228,125.665085 1064.222778,139.599792 1074.515747,153.066467 
	C1087.292480,169.782547 1093.996948,189.540878 1102.352539,208.515991 
	C1110.866943,227.851608 1120.255737,246.805450 1129.427124,265.846710 
	C1132.635010,272.506866 1136.154785,279.036865 1139.920410,285.396271 
	C1141.060791,287.322113 1143.280762,289.000916 1145.387329,289.900543 
	C1162.646973,297.271454 1180.508057,303.603516 1195.635254,315.003326 
	C1212.066528,327.385956 1228.049194,340.387573 1243.832275,353.591553 
	C1248.153931,357.206848 1251.001831,362.562134 1254.632690,367.032440 
	C1257.007568,369.956421 1256.346436,372.088776 1252.902588,372.863617 
	C1243.132324,375.062012 1233.297363,376.972931 1223.489502,379.004608 
	C1213.520630,381.069702 1203.553955,383.144257 1193.585938,385.213593 
	C1191.526123,385.641235 1189.465088,386.064056 1185.805908,386.818848 
	C1190.189209,391.275604 1193.481079,395.697540 1197.753906,398.743774 
	C1206.725464,405.140198 1216.401611,410.542480 1225.440918,416.851166 
	C1237.284912,425.117432 1247.746216,434.920624 1256.388428,446.611816 
	C1258.545654,449.530060 1261.773438,451.656250 1263.934082,454.572693 
	C1267.067139,458.801849 1269.677124,463.418488 1272.510254,467.869904 
	C1272.038330,468.300659 1271.566528,468.731415 1271.094727,469.162170 
	C1269.857178,468.400787 1268.471680,467.805298 1267.404175,466.853210 
	C1250.769897,452.015350 1232.043823,440.717926 1211.701660,431.523102 
	C1201.186279,426.770111 1191.801636,419.358948 1182.264404,412.640472 
	C1171.324707,404.934021 1164.074463,394.235809 1158.884766,381.955688 
	C1157.138062,377.822723 1159.554321,375.981049 1162.217651,375.084320 
	C1172.946289,371.471832 1183.644043,367.278656 1194.710815,365.296600 
	C1205.865479,363.298828 1217.444092,363.669586 1228.836426,362.995239 
	C1230.091431,362.920990 1231.343384,362.798737 1232.596802,362.698730 
	C1233.015747,362.138580 1233.434692,361.578430 1233.853760,361.018280 
	C1231.086670,358.767639 1228.459106,356.313812 1225.527954,354.302307 
	C1214.135010,346.484009 1202.336792,339.220642 1191.270508,330.971008 
	C1177.472290,320.684601 1161.643433,314.802124 1145.491699,310.664124 
	C1130.323730,306.778137 1120.495728,298.448700 1114.324219,284.718170 
	C1100.808105,254.647278 1087.391479,224.530960 1073.708130,194.536331 
	C1065.614380,176.794449 1055.739746,160.017792 1043.315918,144.962234 
	C1033.426636,132.978210 1023.464844,120.911087 1012.317017,110.141876 
	C995.449402,93.847145 976.842834,79.529495 955.696228,69.025063 
	C945.848999,64.133522 935.699036,59.757828 925.404114,55.901634 
	C920.426941,54.037346 914.826782,53.654812 909.457825,53.060387 
	C901.259460,52.152695 892.915710,52.194359 884.840271,50.709316 
	C881.302612,50.058762 878.067383,46.889656 875.050903,44.427807 
	C860.471191,32.528534 843.745178,24.966272 825.737122,20.201309 
	C819.131226,18.453360 811.043762,23.666353 814.282898,32.212761 
	C817.200195,39.910233 821.363037,47.596016 826.676636,53.840214 
	C843.915649,74.098244 855.043640,97.177460 862.072021,122.646790 
	C867.105591,140.887466 874.104492,158.295135 888.270264,171.820526 
	C896.111450,179.307236 894.388733,188.104568 891.482605,197.146271 
	C888.016846,207.929108 883.517822,218.642258 882.027222,229.729874 
	C880.236145,243.051895 880.793274,256.741486 880.981323,270.262970 
	C881.165344,283.491882 885.681274,295.791595 891.103821,307.669067 
	C893.950195,313.903534 897.064514,320.298615 905.749878,322.140076 
	C906.519897,316.314117 907.278076,310.718689 907.995911,305.118103 
	C909.587646,292.699585 910.547546,280.026184 917.135315,268.993256 
	C920.905518,262.679077 925.789185,257.029785 930.888123,250.108627 
	C932.242065,252.246231 933.380432,253.639435 934.088928,255.224731 
	C940.795715,270.232025 946.618835,285.701843 954.300598,300.187775 
	C962.853516,316.316620 972.784424,331.748047 982.677856,347.121216 
	C989.476379,357.685425 997.388428,367.484955 1007.576904,375.166870 
	C1008.931335,376.188110 1009.945801,377.660156 1011.117737,378.923431 
	C1010.803772,379.338959 1010.489746,379.754517 1010.175781,380.170044 
	C1007.208740,378.364410 1003.877563,376.964539 1001.336121,374.684479 
	C988.759399,363.400513 976.486450,351.778168 963.923523,340.478394 
	C950.679199,328.565735 942.594849,313.288940 935.178833,297.520111 
	C934.381104,295.823975 933.452026,294.189606 931.460510,292.717163 
	C930.307495,299.947845 929.231506,307.191986 927.974487,314.404541 
	C927.131409,319.241821 926.469604,324.176331 924.963928,328.820038 
	C920.622314,342.210846 903.308960,345.033630 892.334229,334.942413 
	C881.083557,324.597443 874.084351,311.639618 870.487610,297.300690 
	C867.145630,283.977020 864.742371,270.121124 864.358521,256.431366 
	C863.931274,241.189835 865.982483,225.851578 870.835388,211.102737 
	C873.393860,203.327087 875.589966,195.421539 877.600159,187.486099 
	C877.958252,186.072449 877.072937,183.752151 875.966125,182.648529 
	C861.326172,168.051163 854.544006,149.239746 847.756409,130.444397 
	C843.346985,118.234291 840.458618,105.271973 834.537476,93.867424 
	C828.530579,82.297707 819.686096,72.190704 811.987549,61.512833 
	C804.619080,51.292557 797.288086,41.261787 797.891541,27.557730 
	C798.432739,15.268497 806.307495,5.376348 818.649841,2.868540 
	C819.202759,2.756195 819.655823,2.152349 820.077698,1.388721 
	C823.692932,1.000000 827.385803,1.000000 831.539368,0.999998 
z"/>
<path fill="#00618A" opacity="1.000000" stroke="none" 
	d="
M330.468658,663.000000 
	C330.000000,653.879395 330.000000,644.758789 330.000000,634.999756 
	C332.671722,634.999756 334.782562,634.999756 336.893372,634.999756 
	C377.717346,634.999695 418.542755,635.169495 459.363708,634.819519 
	C465.611511,634.765930 472.011444,632.830872 478.027100,630.824707 
	C484.109039,628.796265 486.828888,623.630310 486.979187,617.268616 
	C487.077057,613.124939 486.997620,608.977112 486.997620,604.000549 
	C484.707001,604.000549 482.788391,604.000610 480.869781,604.000549 
	C455.209015,604.000488 429.548157,604.031006 403.887482,603.989441 
	C386.765137,603.961731 369.880402,602.171204 354.168457,594.840149 
	C342.480133,589.386475 332.645447,581.818054 329.637756,568.204773 
	C329.250427,566.451599 329.034027,564.623657 329.027374,562.829285 
	C328.978455,549.665833 328.874512,536.500427 329.041870,523.338928 
	C329.200104,510.895599 329.832977,498.457458 329.922546,486.014618 
	C329.961334,480.621216 329.160919,475.221771 328.707550,469.385742 
	C343.333588,469.385742 357.237366,469.385742 371.999176,469.385742 
	C371.999176,471.273102 371.999146,473.189117 371.999146,475.105133 
	C371.999237,502.432190 372.500061,529.772278 371.786133,557.080750 
	C371.434326,570.536316 380.041504,576.623047 390.814850,576.801514 
	C422.131775,577.320251 453.463135,576.966248 484.788849,576.939026 
	C485.264832,576.938599 485.740631,576.738159 486.772369,576.505981 
	C486.772369,540.683289 486.772369,504.781708 486.772369,468.441650 
	C501.353546,468.441650 515.372253,468.441650 530.000000,468.441650 
	C530.000000,470.724762 530.000000,472.841339 530.000000,474.957886 
	C530.000000,523.113525 530.038452,571.269165 529.976135,619.424683 
	C529.957886,633.523315 523.591064,644.402405 511.364258,651.032715 
	C503.653259,655.214233 495.045715,657.740173 486.851929,661.037598 
	C486.141571,661.323486 485.518280,661.825684 484.927277,662.613647 
	C433.645782,663.000000 382.291534,663.000000 330.468658,663.000000 
z"/>
<path fill="#00618A" opacity="1.000000" stroke="none" 
	d="
M231.311951,487.310486 
	C220.274506,512.025574 209.546799,536.463135 198.551285,560.779663 
	C193.667099,571.581055 188.831940,582.480408 182.892014,592.706543 
	C177.300644,602.332581 167.941177,606.876099 156.730301,606.965393 
	C149.858582,607.020142 142.876678,607.450317 136.133331,606.444458 
	C122.264496,604.375671 114.594719,594.702393 109.288414,582.608093 
	C102.800163,567.819885 96.237282,553.064331 89.681671,538.305725 
	C79.050865,514.372742 68.430672,490.434967 57.739357,466.529022 
	C54.252213,458.731659 50.557289,451.027222 46.182854,443.359009 
	C46.182854,496.971222 46.182854,550.583435 46.182854,604.596313 
	C31.690348,604.596313 17.788279,604.596313 2.999006,604.596313 
	C2.999006,602.760010 2.998994,600.848022 2.999008,598.936035 
	C2.999415,544.450073 2.993287,489.964050 3.005054,435.478058 
	C3.007825,422.644653 8.702160,414.851074 20.782288,410.587219 
	C33.330910,406.157928 46.113552,404.485748 59.260006,407.011993 
	C70.082169,409.091583 78.892403,415.011627 83.615952,424.652222 
	C92.382652,442.544769 99.973862,461.016510 107.941895,479.296204 
	C115.906006,497.566772 123.745941,515.891541 131.613983,534.203857 
	C136.486053,545.543274 141.302353,556.906616 146.167358,568.249084 
	C146.546722,569.133545 147.112823,569.937866 148.125824,571.716553 
	C150.692932,566.172607 152.995300,561.369263 155.157394,556.503601 
	C169.339630,524.587341 183.398788,492.615875 197.698746,460.752533 
	C203.494888,447.837463 209.062912,434.729095 216.081970,422.480774 
	C222.411682,411.435364 233.478409,406.743134 246.069489,406.018097 
	C257.090729,405.383484 267.748657,406.971466 278.154968,410.876343 
	C289.651978,415.190491 294.718048,421.942993 294.805023,433.493866 
	C295.226471,489.476288 294.994843,545.463623 294.980530,601.449219 
	C294.980286,602.414001 294.803802,603.378723 294.678741,604.658997 
	C280.562561,604.658997 266.661774,604.658997 252.233673,604.658997 
	C252.233673,550.820129 252.233673,497.099701 252.233673,443.379303 
	C251.858017,443.287231 251.482361,443.195160 251.106705,443.103058 
	C244.575363,457.729950 238.044022,472.356842 231.311951,487.310486 
z"/>
<path fill="#E48E00" opacity="1.000000" stroke="none" 
	d="
M898.067871,604.999634 
	C879.006531,605.333191 860.422729,605.909119 841.838440,605.929260 
	C824.575684,605.947998 808.086731,602.299438 793.276123,593.009094 
	C783.551331,586.908997 777.467346,578.068481 776.084412,566.562378 
	C775.278442,559.856812 775.070557,553.048767 775.045654,546.285156 
	C774.939026,517.289307 775.128540,488.291931 774.944641,459.296844 
	C774.856323,445.366608 778.852905,433.373840 790.018860,424.537506 
	C797.530823,418.592834 806.363525,414.986084 815.626282,413.167755 
	C824.422119,411.441071 833.460938,410.261841 842.410767,410.138214 
	C869.901978,409.758392 897.412842,409.533203 924.893921,410.184113 
	C940.156372,410.545654 955.039612,414.132324 967.899780,423.062897 
	C978.979736,430.757202 984.873840,441.675964 984.941833,455.197479 
	C985.116089,489.858826 984.981201,524.521606 985.008179,559.183838 
	C985.020874,575.476807 978.802429,587.951355 963.421143,594.924500 
	C962.695251,595.253662 962.017273,595.688171 960.803162,596.356445 
	C974.388062,608.676025 987.715759,620.762268 1001.635254,633.385193 
	C999.895020,633.667236 998.872192,633.975159 997.848755,633.977417 
	C983.517334,634.009277 969.183044,633.835449 954.855713,634.079956 
	C949.066650,634.178711 946.853149,629.277893 943.356079,626.505554 
	C935.245178,620.075439 928.212646,612.271545 920.014587,605.972595 
	C917.258789,603.855225 912.314453,604.303955 908.346802,604.134399 
	C905.097839,603.995483 901.813721,604.680054 898.067871,604.999634 
M925.221375,440.009399 
	C919.130859,439.673126 913.042175,439.094666 906.949402,439.046936 
	C889.957581,438.913757 872.963623,438.931000 855.971558,439.046631 
	C851.385437,439.077820 846.707397,439.194458 842.236572,440.092957 
	C827.437744,443.067017 821.277893,449.196594 821.110901,462.867950 
	C820.750732,492.351135 820.823608,521.843384 821.099487,551.328430 
	C821.191284,561.136108 824.804443,569.651917 834.906921,573.262939 
	C840.046021,575.099792 845.556091,576.567261 850.966431,576.836670 
	C861.934631,577.382812 872.949036,577.011047 883.944336,576.983704 
	C885.137939,576.980713 886.330994,576.754211 888.129333,576.569153 
	C876.479614,565.987976 865.394226,555.919312 853.374207,545.001831 
	C870.648865,545.001831 886.446594,544.950806 902.242798,545.088745 
	C903.662292,545.101135 905.333374,546.044861 906.443481,547.047668 
	C915.005676,554.782349 923.402283,562.701294 932.025208,570.366333 
	C932.961060,571.198181 935.535645,571.498474 936.453186,570.824402 
	C942.065918,566.700806 944.980286,560.972595 944.987122,553.952209 
	C945.017090,522.965271 945.100891,491.977539 944.861328,460.992462 
	C944.834045,457.460571 943.256592,453.783112 941.770569,450.453156 
	C938.799622,443.795807 932.092773,442.358704 925.221375,440.009399 
z"/>
<path fill="#E48E00" opacity="1.000000" stroke="none" 
	d="
M609.000000,605.000000 
	C593.199829,605.000000 577.899658,605.000000 562.301025,605.000000 
	C562.301025,595.267456 562.301025,585.880920 562.301025,575.999390 
	C564.233459,575.999390 566.018311,575.999451 567.803162,575.999451 
	C605.295715,575.999573 642.789246,576.148315 680.279907,575.882935 
	C688.463745,575.825012 696.769897,574.313782 702.214233,567.105164 
	C704.058350,564.663391 705.552185,561.440125 705.834045,558.444946 
	C706.393494,552.498779 705.521423,546.415955 706.104248,540.474365 
	C707.157715,529.734253 699.902344,524.200378 692.051819,522.197754 
	C686.551819,520.794678 680.730530,520.196411 675.037231,520.093872 
	C659.711975,519.817566 644.371948,520.279663 629.049744,519.928955 
	C609.828369,519.489075 591.482178,515.650940 575.429504,504.164276 
	C567.087402,498.195007 562.289795,490.273956 562.036560,479.931946 
	C561.853088,472.437927 562.211060,464.928772 561.961243,457.438599 
	C561.195496,434.476013 573.044922,421.898224 592.520752,414.954773 
	C602.364441,411.445312 612.386780,409.901337 622.835510,409.939484 
	C663.493530,410.087982 704.152466,410.000000 744.811035,410.000000 
	C746.630981,410.000000 748.450928,410.000000 750.634888,410.000000 
	C750.634888,419.598846 750.634888,428.986023 750.634888,438.993591 
	C748.898865,438.993591 747.130432,438.993500 745.362061,438.993591 
	C705.703308,438.995636 666.044373,438.955475 626.385925,439.072144 
	C622.851624,439.082520 619.226746,439.777863 615.806885,440.736542 
	C608.505859,442.783356 605.051941,447.600922 605.006592,455.124451 
	C604.973450,460.623169 605.051025,466.122772 604.990173,471.621002 
	C604.833130,485.813171 613.613037,492.610352 626.513611,492.893829 
	C645.334106,493.307373 664.179199,492.644501 682.997314,493.108826 
	C699.084290,493.505737 714.838989,496.212372 729.232056,504.068329 
	C737.863159,508.779327 745.549133,514.480713 748.221497,524.704956 
	C748.628296,526.261292 748.957825,527.891785 748.966064,529.489807 
	C749.027771,541.487122 749.043152,553.485046 748.985352,565.482422 
	C748.944397,573.982544 744.723633,580.615601 738.740051,586.043091 
	C726.590210,597.063721 711.953674,602.635010 695.766418,603.933289 
	C686.206604,604.700073 676.584717,604.880920 666.987793,604.955688 
	C647.826233,605.105042 628.662720,605.000000 609.000000,605.000000 
z"/>
<path fill="#E48E00" opacity="1.000000" stroke="none" 
	d="
M1189.933838,575.999451 
	C1192.733032,575.999451 1195.042358,575.999451 1197.999512,575.999451 
	C1197.999512,581.053284 1197.999634,585.817993 1197.999634,590.582642 
	C1197.999634,595.211975 1197.999512,599.841370 1197.999512,604.999939 
	C1195.816406,604.999939 1194.037476,604.999939 1192.258545,604.999939 
	C1154.597046,605.000000 1116.928589,605.426575 1079.277466,604.799805 
	C1063.160767,604.531616 1047.042480,601.939941 1032.620361,593.819397 
	C1020.201416,586.826904 1011.385681,576.682922 1011.114502,561.784668 
	C1010.433411,524.379822 1010.302368,486.964691 1010.013489,449.553223 
	C1009.913269,436.580841 1009.997498,423.607056 1009.997498,410.318176 
	C1024.359009,410.318176 1038.412476,410.318176 1053.000000,410.318176 
	C1053.000000,412.190125 1053.000000,413.969910 1053.000000,415.749725 
	C1053.000000,461.076813 1052.957397,506.403992 1053.076538,551.730774 
	C1053.086670,555.586060 1053.683960,559.597412 1054.865723,563.259644 
	C1057.436157,571.225342 1064.528931,573.533081 1071.699463,574.864441 
	C1076.845215,575.819824 1082.197144,575.940430 1087.458374,575.954102 
	C1121.453369,576.042664 1155.448853,575.999451 1189.933838,575.999451 
z"/>
<path fill="#E48F00" opacity="1.000000" stroke="none" 
	d="
M1221.926025,557.074402 
	C1229.073975,547.761597 1238.467773,543.332764 1249.753784,544.099609 
	C1265.798462,545.189697 1278.681641,557.018005 1279.070435,574.033691 
	C1279.397461,588.339661 1273.614258,598.624817 1260.629883,604.723450 
	C1251.432129,609.043518 1235.129150,607.290100 1226.707642,599.509033 
	C1219.473755,592.825195 1216.216675,584.612671 1216.359009,575.642517 
	C1216.455688,569.549805 1219.932007,563.510742 1221.926025,557.074402 
M1233.776367,556.704956 
	C1232.944946,557.206299 1231.910278,557.534058 1231.312256,558.234680 
	C1219.609619,571.945496 1222.988281,590.197388 1238.688599,597.888855 
	C1246.315308,601.625122 1257.210205,599.816101 1261.983154,593.972900 
	C1259.720459,593.972900 1257.569458,593.972900 1256.366211,593.972900 
	C1250.692993,589.351868 1251.268555,580.110901 1241.957275,578.526917 
	C1241.957275,584.079041 1241.957275,588.839050 1241.957275,593.706116 
	C1239.448853,593.706116 1237.400391,593.706116 1235.323608,593.706116 
	C1235.187866,592.956299 1235.027100,592.482422 1235.027466,592.008667 
	C1235.033936,580.365540 1235.057617,568.722412 1235.999634,557.016235 
	C1239.324463,557.013428 1242.660034,556.843079 1245.971436,557.052917 
	C1249.560913,557.280396 1253.313477,557.310120 1256.656372,558.433533 
	C1260.567871,559.748047 1263.045898,562.785461 1263.035278,567.407654 
	C1263.021973,573.254883 1260.992432,576.055359 1254.149292,578.715576 
	C1257.401489,583.559875 1260.618042,588.351074 1263.878052,593.206909 
	C1272.927979,584.606262 1273.589966,568.992920 1265.609985,560.044189 
	C1257.139771,550.545715 1245.023682,548.989685 1233.776367,556.704956 
M1245.388428,562.999878 
	C1241.562622,563.600830 1240.936035,565.943542 1242.891235,573.379883 
	C1246.181030,572.913574 1249.632324,572.766602 1252.838013,571.802979 
	C1254.134888,571.413025 1255.538086,569.305237 1255.684448,567.856995 
	C1255.789795,566.814880 1254.107300,565.083435 1252.841309,564.527588 
	C1250.818359,563.639526 1248.479004,563.472412 1245.388428,562.999878 
z"/>
<path fill="#00618A" opacity="1.000000" stroke="none" 
	d="
M901.273193,95.828857 
	C897.923950,91.816109 894.819092,88.070465 891.515808,84.085472 
	C905.904419,79.209755 911.912720,83.494179 917.789246,94.671822 
	C920.959412,100.701859 917.765991,109.033592 910.692810,113.902107 
	C907.623779,107.946274 904.570618,102.021118 901.273193,95.828857 
z"/>
<path fill="#000000" opacity="1.000000" stroke="none" 
	d="
M925.649170,440.036041 
	C932.092773,442.358704 938.799622,443.795807 941.770569,450.453156 
	C943.256592,453.783112 944.834045,457.460571 944.861328,460.992462 
	C945.100891,491.977539 945.017090,522.965271 944.987122,553.952209 
	C944.980286,560.972595 942.065918,566.700806 936.453186,570.824402 
	C935.535645,571.498474 932.961060,571.198181 932.025208,570.366333 
	C923.402283,562.701294 915.005676,554.782349 906.443481,547.047668 
	C905.333374,546.044861 903.662292,545.101135 902.242798,545.088745 
	C886.446594,544.950806 870.648865,545.001831 853.374207,545.001831 
	C865.394226,555.919312 876.479614,565.987976 888.129333,576.569153 
	C886.330994,576.754211 885.137939,576.980713 883.944336,576.983704 
	C872.949036,577.011047 861.934631,577.382812 850.966431,576.836670 
	C845.556091,576.567261 840.046021,575.099792 834.906921,573.262939 
	C824.804443,569.651917 821.191284,561.136108 821.099487,551.328430 
	C820.823608,521.843384 820.750732,492.351135 821.110901,462.867950 
	C821.277893,449.196594 827.437744,443.067017 842.236572,440.092957 
	C846.707397,439.194458 851.385437,439.077820 855.971558,439.046631 
	C872.963623,438.931000 889.957581,438.913757 906.949402,439.046936 
	C913.042175,439.094666 919.130859,439.673126 925.649170,440.036041 
z"/>
<path fill="#000000" opacity="1.000000" stroke="none" 
	d="
M1235.078369,557.079285 
	C1235.057617,568.722412 1235.033936,580.365540 1235.027466,592.008667 
	C1235.027100,592.482422 1235.187866,592.956299 1235.323608,593.706116 
	C1237.400391,593.706116 1239.448853,593.706116 1241.957275,593.706116 
	C1241.957275,588.839050 1241.957275,584.079041 1241.957275,578.526917 
	C1251.268555,580.110901 1250.692993,589.351868 1256.366211,593.972900 
	C1257.569458,593.972900 1259.720459,593.972900 1261.983154,593.972900 
	C1257.210205,599.816101 1246.315308,601.625122 1238.688599,597.888855 
	C1222.988281,590.197388 1219.609619,571.945496 1231.312256,558.234680 
	C1231.910278,557.534058 1232.944946,557.206299 1234.241211,556.694885 
	C1234.830200,556.816345 1234.954224,556.947815 1235.078369,557.079285 
z"/>
<path fill="#000000" opacity="1.000000" stroke="none" 
	d="
M1234.521240,556.486389 
	C1245.023682,548.989685 1257.139771,550.545715 1265.609985,560.044189 
	C1273.589966,568.992920 1272.927979,584.606262 1263.878052,593.206909 
	C1260.618042,588.351074 1257.401489,583.559875 1254.149292,578.715576 
	C1260.992432,576.055359 1263.021973,573.254883 1263.035278,567.407654 
	C1263.045898,562.785461 1260.567871,559.748047 1256.656372,558.433533 
	C1253.313477,557.310120 1249.560913,557.280396 1245.971436,557.052917 
	C1242.660034,556.843079 1239.324463,557.013428 1235.539062,557.047729 
	C1234.954224,556.947815 1234.830200,556.816345 1234.521240,556.486389 
z"/>
<path fill="#000000" opacity="1.000000" stroke="none" 
	d="
M1245.830933,563.000183 
	C1248.479004,563.472412 1250.818359,563.639526 1252.841309,564.527588 
	C1254.107300,565.083435 1255.789795,566.814880 1255.684448,567.856995 
	C1255.538086,569.305237 1254.134888,571.413025 1252.838013,571.802979 
	C1249.632324,572.766602 1246.181030,572.913574 1242.891235,573.379883 
	C1240.936035,565.943542 1241.562622,563.600830 1245.830933,563.000183 
z"/>
</svg>