<svg version="1.1" id="Layer_1" xmlns="http://www.w3.org/2000/svg" xmlns:xlink="http://www.w3.org/1999/xlink" x="0px" y="0px"
	 width="100%" viewBox="0 0 800 454" enable-background="new 0 0 800 454" xml:space="preserve">
<path fill="#FFFEFF" opacity="1.000000" stroke="none" 
	d="
M534.000000,455.000000 
	C357.500000,455.000000 181.499985,454.986115 5.500057,455.093781 
	C1.750697,455.096069 0.903190,454.249390 0.905983,450.499939 
	C1.016475,302.166656 1.016475,153.833313 0.905983,5.500070 
	C0.903190,1.750611 1.750842,0.905244 5.500036,0.906703 
	C269.166656,1.009302 532.833313,1.009302 796.499939,0.906703 
	C800.249146,0.905244 801.096863,1.750611 801.094055,5.500070 
	C800.983582,153.833313 800.983582,302.166656 801.094055,450.499939 
	C801.096863,454.249390 800.249817,455.100403 796.499878,455.095123 
	C709.166748,454.972168 621.833313,455.000000 534.000000,455.000000 
z"/>
<path fill="#0A0A0A" opacity="1.000000" stroke="none" 
	d="
M143.517670,245.466339 
	C150.219177,242.384674 156.995346,242.096268 163.848083,242.034393 
	C165.819351,242.016602 168.703751,243.369095 169.628403,240.787399 
	C170.648697,237.938599 169.868286,234.815765 167.893509,232.361450 
	C164.111694,227.661316 154.956970,228.492676 152.733093,234.103348 
	C151.479050,237.267258 149.769104,237.457993 147.154861,237.371902 
	C143.997360,237.267914 140.830750,237.287140 137.672958,237.395248 
	C135.328430,237.475540 134.829376,236.547852 135.355560,234.367767 
	C137.123886,227.041122 141.318878,221.568817 148.421249,219.186737 
	C159.037277,215.626144 169.739288,215.254684 179.577209,221.699020 
	C184.625412,225.005844 186.989716,230.218216 187.062576,236.168320 
	C187.227676,249.647522 187.052979,263.130859 187.214355,276.610168 
	C187.248169,279.434296 186.073166,280.065796 183.682846,279.990326 
	C181.188721,279.911560 178.684387,279.844116 176.195724,279.978821 
	C172.493790,280.179260 169.044861,280.250214 170.143906,274.677887 
	C155.325424,283.729614 141.223724,282.936432 135.459106,272.622345 
	C131.213226,265.025635 131.331665,251.336395 143.517670,245.466339 
z"/>
<path fill="#0B0B0B" opacity="1.000000" stroke="none" 
	d="
M326.012543,259.991150 
	C324.449951,251.629028 324.400665,243.733322 326.958252,235.947922 
	C331.415039,222.381073 343.580505,215.325928 359.363556,217.166504 
	C372.748230,218.727402 381.386902,228.137665 382.494385,242.363388 
	C383.347839,253.326492 383.347839,253.325653 372.354767,253.325211 
	C363.696991,253.324860 355.037170,253.434174 346.382446,253.272415 
	C343.154907,253.212097 342.297668,254.255463 342.979279,257.373108 
	C344.125793,262.617065 346.367340,266.944977 352.025970,268.084259 
	C356.898376,269.065216 363.078979,268.551422 365.933716,262.222748 
	C366.690002,260.546112 367.991760,260.297729 369.607147,260.349030 
	C372.102203,260.428314 374.601318,260.372864 377.098541,260.393707 
	C383.023956,260.443115 383.377045,260.995880 380.940155,266.589783 
	C379.238159,270.496674 376.564880,273.557343 373.048340,276.008881 
	C355.843719,288.003052 332.366608,280.220642 326.012543,259.991150 
z"/>
<path fill="#0A0A0A" opacity="1.000000" stroke="none" 
	d="
M616.876099,226.870880 
	C628.735046,212.415863 653.579895,214.839874 662.152588,226.825821 
	C667.576721,234.409515 667.862488,242.902206 667.585144,251.582581 
	C667.500549,254.229965 665.117920,253.271713 663.674438,253.283737 
	C653.016052,253.372482 642.353577,253.504883 631.699463,253.282059 
	C628.035095,253.205444 627.437561,254.451538 628.166870,257.653870 
	C629.351868,262.857147 631.482056,267.004089 637.301208,268.195374 
	C643.198486,269.402618 647.298035,267.863434 650.849304,262.437592 
	C651.814758,260.962646 652.730408,260.367981 654.427856,260.460388 
	C656.417114,260.568634 658.420166,260.398376 660.417297,260.392914 
	C668.476929,260.370941 668.970520,261.126282 665.075745,268.176605 
	C663.964233,270.188690 662.645691,272.256866 660.936829,273.740540 
	C650.817505,282.526672 639.156738,283.101593 627.182800,278.878174 
	C616.251404,275.022491 611.353943,266.045197 610.183655,255.116364 
	C609.119629,245.180054 610.193054,235.474457 616.876099,226.870880 
z"/>
<path fill="#090909" opacity="1.000000" stroke="none" 
	d="
M502.007202,240.000092 
	C502.018433,233.506989 502.162689,227.509766 501.978668,221.522614 
	C501.899384,218.942520 502.563599,217.932999 505.252960,218.077438 
	C508.737457,218.264587 512.254089,218.289276 515.731934,218.037735 
	C518.964478,217.803940 519.616211,219.245285 519.588623,222.129242 
	C519.478516,233.615479 519.527222,245.103745 519.584534,256.590912 
	C519.623108,264.323181 521.988892,267.312012 528.040405,267.523041 
	C534.576172,267.750916 538.845886,263.740814 538.966187,256.644348 
	C539.158020,245.326569 539.192566,233.999405 538.933838,222.684433 
	C538.846680,218.869980 539.961365,217.666733 543.688354,218.075058 
	C546.648376,218.399368 549.696777,218.357208 552.663757,218.058563 
	C555.933472,217.729477 556.521545,219.128098 556.503174,222.047150 
	C556.389954,240.026184 556.383240,258.006622 556.497009,275.985626 
	C556.515625,278.925507 555.861694,280.322876 552.654053,279.993042 
	C550.348938,279.756012 547.979980,279.785278 545.671204,280.014771 
	C541.274719,280.451691 537.638123,280.200531 538.898438,274.217194 
	C536.666382,273.893097 536.083923,275.622284 535.012085,276.478577 
	C528.058716,282.033478 520.271484,282.683685 512.448547,279.381134 
	C505.073608,276.267670 502.318329,269.624237 502.103760,261.975189 
	C501.903107,254.821548 502.026459,247.658798 502.007202,240.000092 
z"/>
<path fill="#0A0A0A" opacity="1.000000" stroke="none" 
	d="
M393.056274,252.000000 
	C393.047516,241.678619 393.141083,231.855438 392.967590,222.036957 
	C392.915649,219.099365 393.572266,217.669373 396.777679,218.033875 
	C398.750580,218.258240 400.768158,218.095245 402.765656,218.097137 
	C409.760040,218.103745 409.760040,218.102249 411.255829,224.773300 
	C414.088165,222.636459 416.378174,220.057114 419.604309,218.672470 
	C433.527893,212.696518 446.763306,220.158691 447.481781,235.218185 
	C448.147461,249.170349 447.663910,263.175934 447.777771,277.157288 
	C447.795593,279.343903 447.056671,280.246735 444.895386,279.928986 
	C444.733368,279.905121 444.563141,279.934814 444.396851,279.942596 
	C430.240295,280.603119 430.250305,280.603149 430.236450,266.381683 
	C430.228027,257.726257 430.281067,249.069061 430.120392,240.416107 
	C430.010223,234.485001 427.852844,231.784042 423.224792,231.114136 
	C417.278778,230.253464 412.747284,232.784912 411.161713,238.134171 
	C410.606750,240.006363 410.507690,242.063431 410.494354,244.038071 
	C410.422363,254.691391 410.340088,265.346863 410.497406,275.998108 
	C410.541290,278.968842 409.833191,279.997375 406.670410,280.057556 
	C393.054169,280.316620 393.056244,280.425476 393.056244,266.982605 
	C393.056244,262.155060 393.056244,257.327545 393.056274,252.000000 
z"/>
<path fill="#0B0B0B" opacity="1.000000" stroke="none" 
	d="
M262.333527,237.332123 
	C269.207397,217.489334 293.236603,210.058899 308.948944,222.609192 
	C313.432922,226.190796 315.916870,230.988998 317.052704,236.564163 
	C317.576263,239.134155 317.465607,240.837112 314.011230,240.255203 
	C312.068298,239.927933 310.001770,240.030182 308.027374,240.256592 
	C303.725616,240.749878 300.545654,240.209579 298.990631,235.167496 
	C297.872955,231.543564 294.201965,230.262985 290.431152,230.402405 
	C286.317810,230.554474 282.787231,232.299515 281.109039,236.072968 
	C277.272675,244.698944 277.364075,253.601181 280.938568,262.264343 
	C282.607758,266.309814 286.359436,267.983337 290.705353,267.954956 
	C295.264130,267.925201 299.264954,266.037720 300.503021,261.692688 
	C301.786926,257.186737 304.353302,256.553650 308.148254,257.005310 
	C308.969879,257.103088 309.813110,257.023682 310.646332,257.018982 
	C318.752441,256.973175 319.146698,257.577423 316.064972,265.329987 
	C311.786865,276.092285 302.355072,281.535919 288.679138,281.135956 
	C276.289368,280.773621 266.440399,273.963104 262.967224,263.300140 
	C260.215881,254.853302 260.154724,246.311203 262.333527,237.332123 
z"/>
<path fill="#0A0A0A" opacity="1.000000" stroke="none" 
	d="
M244.555344,222.456909 
	C249.551773,226.358673 251.835846,231.414719 253.074783,237.090622 
	C253.587372,239.438828 252.992645,240.513855 250.348526,240.238235 
	C248.210556,240.015381 246.012329,240.040192 243.870621,240.253769 
	C239.623688,240.677307 236.767578,240.104355 234.782288,235.233261 
	C232.026794,228.472397 221.227814,228.491425 217.626846,235.203659 
	C212.778702,244.240707 213.097153,253.829605 217.332321,263.057373 
	C219.189957,267.104828 223.252411,268.196899 227.508026,267.939484 
	C231.890076,267.674408 235.385574,265.428925 236.563370,261.331329 
	C237.703888,257.363464 239.800049,256.451263 243.395660,256.989410 
	C244.697784,257.184326 246.053818,257.029907 247.385086,257.017700 
	C254.396103,256.953369 254.709503,257.383118 252.355698,264.198700 
	C249.114777,273.582977 242.343552,279.120087 232.769241,280.635071 
	C221.591843,282.403748 211.039734,280.798248 203.340408,271.348480 
	C194.309235,260.264038 194.364182,238.503738 203.203568,227.328400 
	C212.452713,215.635025 231.454834,213.271667 244.555344,222.456909 
z"/>
<path fill="#0C0C0C" opacity="1.000000" stroke="none" 
	d="
M479.879089,249.979462 
	C479.879883,253.637894 479.790741,256.804077 479.901337,259.963257 
	C480.094849,265.491241 481.776825,267.205444 487.375641,266.584778 
	C491.003815,266.182556 492.237579,266.732727 492.119324,270.764282 
	C491.826172,280.760284 491.952423,280.869873 481.894958,280.813080 
	C468.581970,280.737885 462.364685,274.523163 462.315918,261.176392 
	C462.284271,252.519821 462.221283,243.861313 462.374329,235.207260 
	C462.424896,232.350403 461.882416,230.650574 458.602051,231.202927 
	C455.687653,231.693665 454.756012,230.396393 455.104614,227.584122 
	C455.328094,225.781204 455.322174,223.904755 455.096863,222.101532 
	C454.724060,219.117813 455.677429,217.614990 458.848114,218.080215 
	C461.910797,218.529602 462.848633,216.843277 462.279327,214.280426 
	C460.841248,207.806763 464.209137,205.038712 469.855591,203.490646 
	C473.016815,202.623978 476.003479,201.120621 479.879120,199.582520 
	C479.879120,204.737305 480.029388,209.444366 479.823975,214.135864 
	C479.696350,217.050568 480.362457,218.360321 483.628052,218.188583 
	C486.164459,218.055206 490.073547,216.793533 491.045227,219.067413 
	C492.312744,222.033508 491.662506,225.886154 491.559753,229.349091 
	C491.480469,232.022461 489.235382,231.115005 487.746124,231.146515 
	C479.879608,231.313126 479.879059,231.288559 479.879059,238.996109 
	C479.879059,242.492096 479.879089,245.988083 479.879089,249.979462 
z"/>
<path fill="#090909" opacity="1.000000" stroke="none" 
	d="
M593.912964,219.811340 
	C604.458740,215.225250 604.805054,215.448929 604.779114,226.477921 
	C604.775574,227.975082 604.653870,229.484894 604.804993,230.966599 
	C605.063416,233.500473 604.109619,234.257599 601.512329,234.565186 
	C588.899231,236.058960 586.111328,239.324402 586.102234,251.864426 
	C586.096313,260.015656 585.993591,268.169220 586.165100,276.316833 
	C586.223999,279.119446 585.453369,280.205841 582.550354,280.025696 
	C579.070923,279.809753 575.558777,279.840454 572.076599,280.040131 
	C569.338318,280.197174 568.770142,278.993073 568.780212,276.533936 
	C568.855225,258.235748 568.882263,239.936691 568.761658,221.638977 
	C568.742249,218.693161 569.829590,217.784637 572.528076,218.052734 
	C573.681763,218.167358 574.854980,218.088379 576.019348,218.090042 
	C585.249634,218.103226 585.249634,218.102661 586.587524,226.203079 
	C588.822083,224.192352 591.191406,222.060318 593.912964,219.811340 
z"/>
<path fill="#AD36D3" opacity="1.000000" stroke="none" 
	d="
M456.232056,175.956390 
	C459.497070,172.749695 463.918030,172.614746 467.567566,170.696045 
	C468.804657,170.045639 470.964600,170.070068 470.891205,168.273544 
	C470.823212,166.609360 468.802917,166.297409 467.471527,165.760345 
	C461.465637,163.337616 455.521881,160.677063 449.345764,158.789139 
	C445.165894,157.511414 443.536224,155.387207 444.229858,151.219711 
	C444.337799,150.571259 444.249115,149.889511 444.246094,149.223190 
	C444.201080,139.379364 444.176361,139.438843 453.109833,143.116364 
	C464.797119,147.927475 476.583893,152.500473 488.223969,157.421646 
	C499.512970,162.194366 497.812103,158.935501 497.407196,172.831482 
	C497.029541,173.082031 496.813751,172.950623 496.388794,172.504547 
	C496.057983,165.016617 491.675201,162.149109 485.386475,159.870895 
	C474.947754,156.089294 464.323578,152.648026 454.448639,147.390549 
	C452.726654,146.473770 450.510895,144.742783 448.703583,147.237885 
	C447.181793,149.338806 448.521881,153.952362 451.133057,154.958130 
	C456.557587,157.047501 461.323242,160.657455 467.174652,161.752014 
	C469.485535,162.184280 471.609711,163.212173 473.401703,164.786301 
	C476.676331,167.662811 476.479980,170.660461 472.602020,172.737167 
	C468.032898,175.183975 463.060394,176.615356 457.607727,177.548828 
	C456.763855,177.214325 456.431702,176.840469 456.232056,175.956390 
z"/>
<path fill="#B038CF" opacity="1.000000" stroke="none" 
	d="
M455.847900,175.481812 
	C456.430084,175.879242 456.632996,176.189774 456.912537,176.670486 
	C455.813507,178.858383 453.793488,179.605469 451.751617,180.316498 
	C449.779999,181.003067 448.094299,182.103165 447.643951,184.247498 
	C447.209045,186.318558 446.443726,188.822479 448.212006,190.357086 
	C449.738983,191.682220 451.712799,190.204102 453.270416,189.407761 
	C459.040375,186.457901 464.797607,183.570312 472.181610,184.423798 
	C464.706970,189.039352 456.011841,191.880142 447.634399,195.468109 
	C445.367371,196.439041 444.169861,195.545746 444.207611,192.998352 
	C444.259338,189.505493 444.295044,186.008636 444.183563,182.518433 
	C444.105438,180.072189 445.495758,178.846802 447.484039,178.107300 
	C450.117584,177.127853 452.804626,176.292282 455.847900,175.481812 
z"/>
<path fill="#B038CF" opacity="1.000000" stroke="none" 
	d="
M497.129791,173.108658 
	C497.506622,175.135803 496.161682,175.818893 494.739166,176.381424 
	C487.687134,179.170105 480.626099,181.936035 473.184967,184.748703 
	C472.801697,184.787415 472.740601,184.727631 472.710999,184.696777 
	C471.747833,182.646729 472.862518,181.475098 474.508179,180.775375 
	C481.601868,177.759216 488.699860,174.745422 496.430542,172.623657 
	C496.785919,172.791382 497.014282,173.003860 497.129791,173.108658 
z"/>
<path fill="#EEEEEE" opacity="1.000000" stroke="none" 
	d="
M164.420898,267.701965 
	C159.984314,269.416809 155.879684,269.919434 152.331863,266.849213 
	C149.983948,264.817352 149.661224,261.968536 150.692719,259.042969 
	C152.430252,254.114883 156.856415,253.693939 160.938309,253.641174 
	C163.907516,253.602798 168.006668,251.222733 169.825241,255.188492 
	C171.736145,259.355530 169.232651,264.449738 164.420898,267.701965 
z"/>
<path fill="#EDEDED" opacity="1.000000" stroke="none" 
	d="
M343.747955,241.652863 
	C343.409363,234.566605 347.503052,229.495163 353.450409,228.957199 
	C359.606354,228.400345 364.295013,232.123444 365.442047,238.267227 
	C365.916443,240.808289 365.359924,242.018524 362.543152,241.961075 
	C356.408386,241.835922 350.270233,241.877655 343.747955,241.652863 
z"/>
<path fill="#ECECEC" opacity="1.000000" stroke="none" 
	d="
M646.017334,230.758942 
	C647.200256,231.962830 648.250549,232.838837 648.895142,233.950211 
	C652.438171,240.058365 651.376526,241.937454 644.504211,241.937927 
	C640.036011,241.938248 635.563477,241.822266 631.101257,241.986343 
	C628.175293,242.093933 627.805237,240.990829 628.482910,238.412308 
	C630.716736,229.913269 637.217285,226.875656 646.017334,230.758942 
z"/>
<path fill="#BA0AF4" opacity="1.000000" stroke="none" 
	d="
M496.824402,172.437866 
	C490.081146,176.549255 482.615845,178.494553 475.655029,181.645065 
	C474.481537,182.176193 473.033783,182.286743 472.788635,184.330048 
	C465.809509,185.118347 459.624878,187.622665 453.513367,190.635468 
	C451.386505,191.683929 448.434448,194.729660 446.289856,191.470856 
	C443.895233,187.832199 446.628265,180.164215 450.409821,179.336746 
	C452.598389,178.857864 454.113892,177.260101 456.613831,176.916016 
	C461.828552,175.213684 466.727783,173.742432 471.489655,171.913544 
	C475.782562,170.264771 476.002319,167.951279 472.207367,165.311234 
	C470.743164,164.292664 468.990845,163.395645 467.259064,163.106415 
	C460.757233,162.020493 455.597290,157.810150 449.514008,155.755493 
	C447.128296,154.949707 445.769928,146.356171 447.492188,144.679367 
	C448.566650,143.633286 449.674530,144.345871 450.712494,144.760803 
	C458.016388,147.680603 465.298096,150.656036 472.607727,153.561279 
	C477.292358,155.423218 481.907318,157.573257 486.741302,158.920471 
	C494.087555,160.967804 496.212708,163.369064 496.824402,172.437866 
z"/>
</svg>