<svg version="1.1" id="Layer_1" xmlns="http://www.w3.org/2000/svg" xmlns:xlink="http://www.w3.org/1999/xlink" x="0px" y="0px"
	 width="100%" viewBox="0 0 195 195" enable-background="new 0 0 195 195" xml:space="preserve">
<path fill="#EEF6F3" opacity="1.000000" stroke="none" 
	d="
M1.241254,106.216881 
	C1.000000,72.237625 1.053325,38.475029 0.913185,4.713237 
	C0.899936,1.521407 1.724375,0.913320 4.771669,0.924447 
	C37.868324,1.045297 70.965584,1.000000 104.531342,1.000000 
	C105.435684,1.484166 105.979919,1.520409 106.783508,1.189874 
	C108.388893,1.000000 109.777779,1.000000 111.583336,1.000000 
	C115.407173,2.091593 118.908600,1.449468 122.357872,1.472739 
	C135.817307,1.563548 149.277725,1.509924 163.211121,1.509533 
	C170.849884,1.469675 178.015778,1.592096 185.590439,1.223042 
	C186.750000,1.000000 187.500000,1.000000 188.625000,1.000000 
	C189.636017,1.827397 189.740448,2.726461 189.066467,4.059122 
	C186.502853,5.911607 183.938721,5.420916 181.487411,5.425189 
	C157.719101,5.466632 133.950684,5.437356 110.182312,5.456468 
	C103.854218,5.461555 103.464935,5.852568 103.457275,12.283285 
	C103.435516,30.566635 103.474281,48.850098 103.425339,67.133331 
	C103.416840,70.309525 103.721069,73.158363 107.563171,74.666595 
	C108.198601,74.965530 108.443794,75.091385 109.045677,75.404922 
	C109.868973,75.816582 110.321602,76.065819 111.070602,76.528763 
	C111.580246,76.843994 111.778183,76.973251 112.256775,77.308998 
	C113.064720,77.940552 113.544640,78.417923 114.285698,79.093231 
	C114.855049,79.596977 115.179916,79.884369 115.760513,80.374313 
	C117.651756,81.785652 118.603310,83.532059 119.848923,85.467010 
	C120.168427,85.915764 120.290985,86.099617 120.582726,86.569336 
	C120.963936,87.246674 121.165329,87.643555 121.509445,88.347969 
	C121.754654,88.859116 121.848129,89.067329 122.066246,89.597122 
	C122.781593,91.941383 123.575798,93.899925 124.166763,96.306961 
	C124.480103,98.435150 124.425926,100.199654 124.121567,102.342880 
	C121.371086,114.422523 114.149117,121.706841 102.222290,124.888474 
	C100.584373,125.311569 99.298294,125.397629 97.621918,125.339996 
	C95.284447,125.138344 93.412292,124.491234 91.119629,124.162239 
	C89.240601,123.641785 87.762062,123.044930 85.976059,122.327942 
	C85.480820,122.092545 85.288300,121.990364 84.821716,121.716240 
	C83.695015,120.928360 82.861710,120.284386 81.684273,119.583420 
	C80.257545,118.499924 79.128540,117.546944 77.708145,116.439301 
	C76.072258,114.524628 74.985703,112.612526 73.520920,110.560486 
	C73.245476,110.081841 73.146034,109.884956 72.923210,109.382706 
	C72.263817,107.451050 71.954292,105.759163 71.202957,103.894157 
	C70.020103,102.127907 68.983521,103.117638 67.624184,103.735733 
	C66.571716,104.037186 65.835480,104.063011 64.699898,103.965210 
	C56.343254,102.862579 48.343540,103.534233 40.363342,103.473473 
	C29.550377,103.391144 18.732878,103.647827 7.658631,102.067451 
	C7.174508,102.272072 7.024518,102.434090 6.662159,102.845955 
	C6.143529,103.397652 5.819665,103.679024 5.226126,104.124146 
	C4.286065,104.802963 3.907075,105.578896 3.025876,106.312988 
	C2.323309,106.583115 1.901024,106.562378 1.241254,106.216881 
z"/>
<path fill="#FDFDFD" opacity="1.000000" stroke="none" 
	d="
M189.428436,4.522993 
	C188.966080,3.299307 188.981689,2.532994 188.998657,1.383341 
	C196.000000,1.000000 196.000000,1.000000 196.000000,8.000000 
	C196.000000,69.333336 196.014801,130.666702 195.896240,191.999802 
	C195.893814,193.253403 197.962967,196.314819 193.500000,196.000000 
	C191.679565,194.550858 191.414169,192.820755 191.424637,190.916382 
	C191.571915,164.152527 191.492615,137.388412 191.493378,110.223190 
	C191.440948,108.423302 192.529144,106.700035 190.106201,105.716644 
	C189.413452,105.289062 189.064072,104.972137 188.534027,104.305458 
	C188.218307,103.754501 188.115280,103.517166 187.906677,102.895493 
	C187.762573,102.241570 187.724030,101.971977 187.649811,101.287437 
	C187.610489,99.408485 187.855606,98.001259 188.820862,96.329117 
	C191.688553,93.673820 191.249741,90.550758 191.255722,87.617546 
	C191.301788,65.066010 191.275513,42.514374 191.282440,19.962767 
	C191.283249,17.310274 191.224136,14.655893 191.481201,11.610929 
	C192.017181,8.868459 193.232834,6.336655 189.428436,4.522993 
z"/>
<path fill="#A7B2AB" opacity="1.000000" stroke="none" 
	d="
M192.761887,106.764771 
	C192.831100,136.408630 192.846466,165.739517 192.930923,195.535202 
	C163.979111,196.000000 134.958206,196.000000 105.468658,196.000000 
	C104.077049,194.876617 103.922630,193.642593 104.772888,191.924408 
	C107.361862,190.101715 109.924797,190.578842 112.382133,190.572266 
	C135.507492,190.510239 158.632965,190.477966 181.758514,190.536804 
	C188.178925,190.553146 188.534622,190.178619 188.540268,183.750351 
	C188.559433,161.948517 188.503448,140.146439 188.585724,118.344948 
	C188.603058,113.751648 186.641754,109.168434 188.871521,104.266861 
	C189.517441,104.103020 189.708359,104.317337 189.919479,104.799217 
	C190.746811,105.793831 192.147095,105.350182 192.761887,106.764771 
z"/>
<path fill="#94B09D" opacity="1.000000" stroke="none" 
	d="
M95.271568,195.649597 
	C66.312439,196.000000 37.624878,196.000000 8.468657,196.000000 
	C7.202708,195.158417 6.282213,194.418198 5.710253,192.961609 
	C5.689655,192.357834 5.754273,192.113510 6.105861,191.610229 
	C7.098665,190.953568 7.867951,190.752625 9.076448,190.577515 
	C9.775600,190.494095 10.057657,190.453415 10.771778,190.382477 
	C18.336269,190.319626 25.468781,190.358185 33.048927,190.333618 
	C34.084641,190.426361 34.675720,190.473328 35.711258,190.425049 
	C39.981915,190.327255 43.811481,190.448685 48.082809,190.344574 
	C48.818306,190.349808 49.111687,190.360916 49.845642,190.346710 
	C53.804943,190.381668 57.323738,190.424347 61.284912,190.367783 
	C62.308521,190.457108 62.893242,190.492294 63.917564,190.416046 
	C69.305618,190.338577 74.257111,190.376205 79.625809,190.374222 
	C80.840797,190.415817 81.630104,190.559708 82.799683,190.574615 
	C83.869392,190.547302 84.567024,190.605408 85.580887,190.644241 
	C86.485970,190.652710 87.076103,190.675507 87.922020,190.529480 
	C88.345024,190.410034 88.508995,190.354675 88.901031,190.189758 
	C89.421555,189.913681 89.676941,189.702377 90.027878,189.223907 
	C90.227547,188.834991 90.294609,188.668442 90.434593,188.233765 
	C90.629097,187.371948 90.658035,186.771881 90.606766,185.819977 
	C90.526329,184.455063 90.463669,183.438263 90.541504,181.984497 
	C90.557785,165.745529 90.537483,149.941559 90.558388,134.137650 
	C90.561020,132.147507 90.410233,130.139801 91.177193,127.742447 
	C92.053871,126.408226 92.980286,126.205818 94.486618,126.463783 
	C95.183334,126.861290 95.413055,127.095230 95.865570,127.764626 
	C96.843803,130.272964 96.761787,132.441513 96.709114,134.580887 
	C96.310699,150.764160 97.701385,166.980438 95.751434,183.586761 
	C95.414787,185.511917 95.362610,186.974182 96.046806,188.828171 
	C96.486366,191.324142 96.731911,193.385452 95.271568,195.649597 
z"/>
<path fill="#F3F9F6" opacity="1.000000" stroke="none" 
	d="
M94.568825,185.000122 
	C95.462173,166.152054 94.650894,147.586624 95.062187,128.572617 
	C95.756096,127.294250 96.560791,126.683464 97.926079,126.200836 
	C99.398636,125.855659 100.470741,125.901627 101.867172,126.569183 
	C102.364532,127.060043 102.508270,127.310524 102.752701,127.988266 
	C102.855362,128.711212 102.857330,129.006882 102.772385,129.739319 
	C102.177650,148.274078 102.522949,166.374924 102.550323,184.882584 
	C102.725098,185.788330 102.831741,186.290390 102.934654,187.142517 
	C102.954201,188.306595 102.687248,189.128235 103.151962,190.176239 
	C103.790154,190.790024 104.279083,191.142227 104.898056,191.804474 
	C105.105453,193.120712 105.144211,194.174652 105.091484,195.614288 
	C101.969406,196.000000 98.938812,196.000000 95.454109,196.000000 
	C94.987106,193.961166 94.974213,191.922318 94.947479,189.446228 
	C94.979523,187.762421 95.140625,186.507294 94.568825,185.000122 
z"/>
<path fill="#FFFFFB" opacity="1.000000" stroke="none" 
	d="
M1.000000,106.468658 
	C1.426927,106.004967 1.853855,106.009926 2.600899,106.022949 
	C4.159237,108.106148 4.417931,110.402939 4.423860,112.751259 
	C4.474234,132.704849 4.481654,152.658615 4.393393,172.611893 
	C4.383853,174.768509 5.061379,177.487961 1.445411,178.195892 
	C1.000000,154.312439 1.000000,130.624878 1.000000,106.468658 
z"/>
<path fill="#CEFFE8" opacity="1.000000" stroke="none" 
	d="
M1.000000,178.375000 
	C3.453439,177.616089 2.945281,175.677261 2.947139,174.118027 
	C2.971607,153.581360 2.919094,133.044403 3.030546,112.508301 
	C3.041201,110.544960 1.609621,108.708557 2.795149,106.376160 
	C3.109967,105.156647 3.298918,104.282303 3.763564,103.210907 
	C5.283357,104.331291 5.429214,105.983910 5.425277,107.665909 
	C5.361899,134.748688 5.688368,161.832306 5.132820,189.363113 
	C4.358465,191.136169 3.542061,191.683990 2.138454,190.028534 
	C0.628636,187.034836 2.983450,184.189453 1.242829,181.281586 
	C1.000000,180.250000 1.000000,179.500000 1.000000,178.375000 
z"/>
<path fill="#FFFDFF" opacity="1.000000" stroke="none" 
	d="
M164.258606,1.750787 
	C148.509460,2.003324 133.019501,2.018704 117.529648,1.989379 
	C115.887062,1.986269 114.244972,1.721032 112.301331,1.288700 
	C129.020889,1.000000 146.041794,1.000000 163.531342,1.000000 
	C164.172607,1.166912 164.345215,1.333824 164.258606,1.750787 
z"/>
<path fill="#FCFCFD" opacity="1.000000" stroke="none" 
	d="
M1.769204,189.084030 
	C2.464858,189.567200 2.927701,190.138687 3.611395,190.884247 
	C4.541379,191.200836 5.034360,191.645966 5.679190,192.452026 
	C7.140700,193.131943 8.025907,193.854889 8.041738,195.636871 
	C7.359944,196.000000 6.699187,195.895218 6.083170,196.016907 
	C1.896208,196.844055 0.100338,195.299744 1.000000,190.499481 
	C1.244622,189.766800 1.423420,189.490906 1.769204,189.084030 
z"/>
<path fill="#FFFEFD" opacity="1.000000" stroke="none" 
	d="
M164.468033,2.001705 
	C163.999557,1.834033 163.999710,1.667226 163.999939,1.250210 
	C171.020950,1.000000 178.041901,1.000000 185.531433,1.000000 
	C181.091187,3.213968 175.922714,1.491911 170.896042,1.972280 
	C168.926605,2.160486 166.924118,2.002752 164.468033,2.001705 
z"/>
<path fill="#FAFEF8" opacity="1.000000" stroke="none" 
	d="
M2.025745,188.600372 
	C1.890801,189.312759 1.700796,189.572021 1.215999,189.886765 
	C1.000000,187.299988 1.000000,184.599976 1.000000,181.449982 
	C5.308979,182.824982 1.767685,185.793427 2.025745,188.600372 
z"/>
<path fill="#FFFDFF" opacity="1.000000" stroke="none" 
	d="
M106.666672,1.000000 
	C106.572014,1.685405 106.048492,1.998811 105.150040,1.218292 
	C105.444443,1.000000 105.888893,1.000000 106.666672,1.000000 
z"/>
<path fill="#4473C4" opacity="1.000000" stroke="none" 
	d="
M87.163788,75.930283 
	C81.919334,78.963837 77.822395,82.802536 74.321014,87.758926 
	C73.484055,88.399467 73.508202,89.124733 73.230789,90.044510 
	C73.231667,90.620003 73.210426,90.862679 73.010696,91.251740 
	C71.850754,91.455139 70.997162,92.288445 69.514763,92.181900 
	C68.134911,92.120995 67.150681,91.862106 65.777252,92.090790 
	C63.913044,92.339050 62.422081,92.419418 60.626907,91.776970 
	C57.961678,89.682060 61.614285,87.005829 59.403080,84.671738 
	C59.303307,83.760986 59.393921,83.243340 59.807861,82.390472 
	C62.059460,80.413040 61.479485,78.119247 61.484032,76.030548 
	C61.519756,59.623035 61.419674,43.214661 61.566906,26.808395 
	C61.600426,23.073366 61.145256,19.969181 57.497147,18.093676 
	C56.616982,17.641178 56.111580,16.689114 55.306480,15.553783 
	C51.095352,13.719161 47.070335,14.397765 42.754440,15.027842 
	C42.297104,15.447295 42.140800,15.646591 41.807293,16.187754 
	C41.185719,32.984955 41.565258,49.443466 41.439922,65.900040 
	C41.401932,70.888138 41.551701,75.878708 41.291336,81.226151 
	C44.052502,84.390266 45.981121,88.334717 51.159760,88.009491 
	C52.289288,87.932419 53.046143,88.014328 54.172596,88.375999 
	C57.383080,90.685219 55.668694,91.843910 53.150070,93.047195 
	C38.744293,93.279770 24.815552,92.057762 10.848451,92.411209 
	C6.365018,92.524666 5.039022,90.885849 5.028782,86.229912 
	C4.973492,61.090439 4.975228,35.950779 5.027040,10.811296 
	C5.037294,5.836168 5.861987,4.997323 10.909946,5.035013 
	C22.386164,5.120701 33.886230,5.427217 45.334129,5.233014 
	C59.625740,4.990570 73.917519,4.454225 88.685501,4.703775 
	C91.130638,7.522406 91.420280,10.643735 91.427849,13.797887 
	C91.471611,32.042805 91.469078,50.287842 91.424553,68.532753 
	C91.419388,70.650917 91.725082,72.915955 89.438278,74.880379 
	C89.090660,75.227211 89.055290,75.132126 89.105919,75.129013 
	C88.584869,75.393196 87.955765,75.478889 87.163788,75.930283 
z"/>
<path fill="#04AE51" opacity="1.000000" stroke="none" 
	d="
M91.202866,188.770111 
	C91.254433,189.222641 91.248375,189.391251 91.191574,189.807831 
	C90.817818,190.208282 90.538803,190.419022 90.209694,190.935974 
	C90.115532,191.183868 89.689903,191.303772 89.469254,191.289734 
	C88.668312,191.371826 88.091530,191.490082 87.224060,191.637085 
	C86.219650,191.737305 85.497147,191.753616 84.415581,191.721252 
	C83.232758,191.450607 82.395729,191.474930 81.248344,191.601349 
	C75.622398,191.701965 70.304718,191.739319 64.526611,191.729889 
	C63.538296,191.546005 63.005539,191.473724 62.196426,191.621643 
	C58.282585,191.701614 54.632999,191.722183 50.531757,191.693176 
	C49.885933,191.620438 49.691757,191.597305 49.211063,191.636948 
	C44.941879,191.736404 40.959213,191.773071 36.521015,191.759842 
	C35.540951,191.544205 35.007587,191.474411 34.194252,191.620712 
	C26.288736,191.714264 18.648697,191.749161 10.548492,191.738098 
	C9.899735,191.653214 9.711143,191.614273 9.234632,191.598633 
	C8.198787,191.585190 7.450857,191.548431 6.338900,191.420959 
	C4.291211,190.220230 4.514057,188.481552 4.513735,186.832352 
	C4.508523,160.203156 4.506819,133.573959 4.517420,106.944771 
	C4.517876,105.800011 4.311687,104.591354 5.609659,103.349564 
	C6.010358,103.074890 6.048177,102.854797 5.961868,102.783951 
	C8.008710,101.234932 10.432097,101.937958 12.661033,102.064392 
	C29.761738,103.034378 46.873379,102.224739 64.460052,102.634216 
	C65.712395,102.792267 66.480431,102.850746 67.623871,102.812943 
	C68.677711,102.323311 69.396370,102.104370 70.544014,102.346031 
	C73.100182,103.878365 71.956192,106.733765 73.738960,108.694176 
	C73.991074,108.964302 74.235313,109.239792 74.260330,109.422165 
	C74.667877,110.918793 74.589165,112.143013 73.206009,113.472511 
	C70.325447,114.943146 67.641502,114.672569 65.007172,114.703110 
	C51.100414,114.864342 37.190369,114.435425 22.908539,115.006729 
	C19.292364,116.292084 20.506546,118.916985 20.754675,121.455032 
	C21.284019,122.252243 21.715334,122.716225 22.538006,123.259956 
	C23.441502,123.809853 24.017227,124.232277 24.847195,124.947258 
	C27.044506,127.461655 29.668304,127.460091 32.309795,127.513863 
	C35.238888,127.573479 38.248707,127.458565 40.712296,130.272873 
	C41.968292,133.349655 41.678265,136.185165 41.687138,138.979095 
	C41.722820,150.212082 41.661472,161.445419 41.730762,172.678162 
	C41.745697,175.099045 41.337032,177.718124 43.901161,179.879288 
	C45.224361,181.293961 46.018307,182.587204 47.121033,183.613159 
	C49.502853,185.829178 52.336227,185.556000 55.122932,184.839264 
	C57.605148,184.200851 57.554699,181.897400 57.752205,179.949905 
	C59.067451,166.981155 58.201630,153.972931 58.350845,140.983368 
	C58.504314,127.623405 58.386112,127.547913 71.508842,127.424805 
	C75.379303,127.388496 78.524055,126.950302 78.757805,122.121384 
	C78.805916,121.127457 79.410751,120.244225 80.729256,119.563194 
	C82.272301,119.659744 83.316078,120.122414 84.790123,120.640846 
	C85.200600,120.756462 85.147964,120.913338 85.180679,120.831474 
	C86.255875,122.973587 89.107452,122.774918 90.619278,124.987991 
	C90.887512,125.608269 90.956314,125.878029 91.028503,126.576088 
	C92.036209,138.408691 91.281128,149.836380 91.471558,161.251801 
	C91.587585,168.206314 91.459465,175.163956 91.585281,182.574951 
	C91.671135,184.042633 91.685699,185.055496 91.625259,186.442139 
	C91.345978,187.355881 91.107780,187.887619 91.202866,188.770111 
z"/>
<path fill="#05AD50" opacity="1.000000" stroke="none" 
	d="
M115.363930,81.233429 
	C114.701714,80.831848 114.434937,80.635071 114.068062,80.208916 
	C113.485764,79.369598 113.149376,78.615997 112.047623,78.284180 
	C111.754593,78.240631 111.853767,78.192947 111.847610,78.247620 
	C111.655937,77.560242 111.005531,77.514824 110.144608,77.238037 
	C109.860680,77.116669 109.959435,77.035713 109.931091,77.092926 
	C109.460030,76.647758 109.002502,75.992874 108.394684,75.875923 
	C102.640533,74.768776 102.338081,70.849365 102.406212,65.918503 
	C102.663925,47.266373 102.555931,28.608324 102.464127,9.953084 
	C102.448929,6.865405 102.810867,5.075824 106.643456,4.933714 
	C132.115326,3.989234 157.591553,4.786150 183.063065,4.512080 
	C184.245178,4.499360 185.360458,4.886465 186.984955,5.027265 
	C188.068848,5.142153 188.629456,5.362351 189.348663,6.125277 
	C189.625793,6.800657 189.682648,7.088617 189.750443,7.808375 
	C189.764175,8.823174 189.849045,9.394221 190.145844,10.388970 
	C190.763992,12.778318 190.753525,14.774920 190.740448,16.764303 
	C190.585663,40.323521 191.117599,63.885441 190.385498,87.923561 
	C189.878601,89.981110 189.353455,91.519333 188.164276,93.271072 
	C186.333984,94.503685 184.681290,94.692947 183.021835,94.692024 
	C165.476120,94.682327 147.929199,95.008064 129.933167,94.468491 
	C128.322800,94.247276 127.288132,93.669823 125.760620,93.325867 
	C123.442970,92.706963 122.393875,91.229660 121.155655,89.393906 
	C120.860672,89.150612 120.910057,89.096031 120.873276,89.094963 
	C120.596558,88.566399 120.524971,87.986977 120.083076,87.295746 
	C119.837891,87.145332 119.973656,87.047035 119.897614,87.082199 
	C119.264389,85.836006 118.999130,84.564316 120.231453,83.047783 
	C120.975296,82.472763 121.475014,82.300110 122.411613,82.264648 
	C123.581993,82.442955 124.274185,82.786407 125.207489,83.467529 
	C127.969131,88.499184 132.243546,86.469513 136.344025,86.369141 
	C139.147385,84.969597 138.438644,82.623474 138.547577,80.584747 
	C138.922333,73.571846 137.837082,66.513268 139.445892,59.164936 
	C141.194717,57.562424 142.972824,57.553219 145.208923,57.720757 
	C150.799591,59.213440 156.048737,58.456314 161.642899,58.299004 
	C162.494858,58.022339 162.981003,57.887066 163.826019,57.702782 
	C167.916565,55.242008 168.380859,52.604836 165.268829,49.314690 
	C164.160278,49.078205 163.464218,48.782982 162.571625,48.029942 
	C161.279892,44.656170 159.167130,43.543198 155.932312,43.547443 
	C151.176437,43.553677 146.375687,44.133873 141.278488,42.816162 
	C137.659348,39.702362 137.954483,36.040237 139.339188,32.546890 
	C140.593323,29.383003 143.808151,29.489246 146.644684,29.439358 
	C152.462128,29.337038 158.283173,29.497383 164.098694,29.359009 
	C166.459991,29.302824 169.471649,30.247990 170.765671,27.381130 
	C171.952179,24.752449 170.954132,22.173653 168.879395,19.694626 
	C168.181931,18.592396 167.896667,17.711786 167.363037,16.620209 
	C167.039368,16.246620 166.893738,16.115131 166.504913,15.827227 
	C165.896317,15.515714 165.516846,15.408587 164.808716,15.325577 
	C163.582230,15.303683 162.675934,15.346779 161.388031,15.465928 
	C160.738846,15.528879 160.473068,15.556995 159.795197,15.610235 
	C149.640030,15.716608 139.896774,15.657155 129.729599,15.676724 
	C129.031036,15.673251 128.756470,15.663589 128.083237,15.609001 
	C126.433723,15.600792 125.177719,15.389874 123.610809,15.763708 
	C122.887642,16.125820 122.556267,16.443588 122.143478,17.177914 
	C121.396034,21.994921 121.434563,26.492790 121.895210,30.929197 
	C123.304031,44.497177 122.558640,58.080044 122.452240,72.088974 
	C122.256783,73.623161 122.031418,74.721886 122.170944,76.266685 
	C122.317245,78.134720 122.261497,79.557320 121.212685,81.185135 
	C119.176491,82.690025 117.472420,81.718704 115.363930,81.233429 
z"/>
<path fill="#9BAEA2" opacity="1.000000" stroke="none" 
	d="
M127.550446,92.930458 
	C147.691910,93.034164 167.356842,93.044044 187.483170,92.989037 
	C188.982513,91.960846 188.275940,90.664345 188.791168,89.269379 
	C189.016571,62.635689 189.037460,36.294762 189.002686,9.489450 
	C188.849045,8.854562 188.751053,8.684056 188.755081,8.236767 
	C188.857117,7.959984 189.210312,7.799723 189.401245,7.833663 
	C190.791138,6.989823 191.808365,7.303260 192.827332,8.683319 
	C192.932373,36.271244 192.945160,63.519806 192.882172,90.768188 
	C192.876511,93.216507 193.899200,96.441948 189.384949,97.015518 
	C187.231277,98.643982 185.049728,98.517143 182.471985,98.652336 
	C181.708466,98.679626 181.402649,98.691177 180.636826,98.726120 
	C164.183548,98.668335 148.190018,98.789452 131.795197,98.689423 
	C130.487289,98.761513 129.504089,98.476059 128.642212,99.582672 
	C128.337921,100.565269 128.152161,101.237785 127.773766,102.244202 
	C127.454071,102.790009 127.292740,102.991730 126.805710,103.414825 
	C125.419846,104.056931 124.386688,104.017319 123.125351,103.140366 
	C122.842827,100.813507 122.819176,98.800880 122.802277,96.354691 
	C123.727386,95.268181 123.110550,93.902695 124.275871,93.070198 
	C124.847984,92.708641 125.206642,92.587685 125.856491,92.525757 
	C126.479256,92.509758 126.799118,92.607018 127.550446,92.930458 
z"/>
<path fill="#0F753B" opacity="1.000000" stroke="none" 
	d="
M82.260300,119.778450 
	C79.505943,120.271408 79.879082,122.274315 80.026398,123.811211 
	C80.445847,128.186905 78.239014,129.324448 74.339508,129.063339 
	C71.193352,128.852646 68.012833,129.172043 64.863678,128.984970 
	C61.160751,128.765015 59.879997,130.350113 59.916988,133.977829 
	C60.045876,146.617874 59.777416,159.264435 60.073055,171.898849 
	C60.166046,175.872681 58.411282,179.703903 59.577206,183.704727 
	C59.902054,184.819427 58.849182,185.422287 57.992344,185.971344 
	C53.672302,188.739594 46.579601,186.766357 44.069302,181.781769 
	C44.427547,180.141953 45.609741,179.627518 46.724499,179.645493 
	C51.969547,179.730057 52.368889,176.442795 52.339073,172.358627 
	C52.238174,158.537292 52.240730,144.714325 52.325993,130.892517 
	C52.370995,123.597054 53.533096,122.488220 60.715714,122.317261 
	C62.879951,122.265755 65.050629,122.203239 67.208855,122.294754 
	C70.450302,122.432190 72.658051,121.177132 73.942215,117.655136 
	C74.951630,116.194939 76.027641,115.660683 77.763977,115.436188 
	C79.377548,116.376213 80.531029,117.357597 81.889954,118.588928 
	C82.208740,119.048286 82.322083,119.257713 82.260300,119.778450 
z"/>
<path fill="#637D9F" opacity="1.000000" stroke="none" 
	d="
M67.683533,91.023956 
	C69.325577,91.074226 70.624634,91.118568 72.415489,91.283798 
	C72.770554,92.181763 72.633835,92.958832 72.322861,93.921417 
	C70.650772,95.390724 68.857887,95.506271 66.992149,95.505295 
	C49.047871,95.495888 31.103575,95.499321 13.159283,95.497353 
	C11.491235,95.497169 9.820389,95.533173 8.069063,94.098953 
	C4.619133,93.571762 3.870646,91.881332 3.883319,88.868820 
	C3.996156,62.046852 3.949609,35.224216 3.944350,8.401778 
	C3.943895,6.078684 3.442747,3.867231 7.264825,3.886985 
	C34.919048,4.029911 62.574295,3.973853 90.229202,3.996900 
	C90.538399,3.997157 90.847420,4.211571 91.280350,4.698156 
	C90.841568,5.612658 90.187439,5.703868 89.183548,5.253731 
	C74.288193,5.051815 59.707047,5.870491 45.122635,6.460485 
	C34.298161,6.898376 23.215561,6.501300 12.270770,5.922519 
	C7.571154,5.673995 5.842829,7.080636 5.889009,12.051076 
	C6.115042,36.379803 6.088699,60.712479 5.908545,85.041954 
	C5.874939,89.580322 7.163922,91.289825 11.866651,91.099228 
	C25.645103,90.540771 39.412483,91.466141 53.569454,91.959129 
	C55.684296,91.397224 57.334301,90.473145 59.637905,90.956619 
	C61.721027,91.043488 63.420162,91.039986 65.543945,91.035370 
	C66.425835,91.022682 66.883163,91.017288 67.683533,91.023956 
z"/>
<path fill="#637D9F" opacity="1.000000" stroke="none" 
	d="
M91.623856,8.987146 
	C94.658646,9.236908 94.061165,11.254375 94.064621,12.766895 
	C94.108589,31.989582 94.083076,51.212425 94.123520,70.435127 
	C94.127640,72.391747 93.978943,74.095848 91.372284,74.827316 
	C90.251953,73.848976 90.521301,72.652977 90.520439,71.515945 
	C90.505608,51.961437 90.501549,32.406906 90.528801,12.852424 
	C90.530579,11.573209 90.107544,10.180367 91.623856,8.987146 
z"/>
<path fill="#A4AAAF" opacity="1.000000" stroke="none" 
	d="
M7.659221,94.077972 
	C28.905376,93.811592 50.046925,93.914894 71.668541,94.062561 
	C72.338936,96.830727 70.511055,96.895828 68.552376,96.893517 
	C49.635674,96.871216 30.718910,96.880424 11.802288,96.832207 
	C10.034287,96.827698 7.996013,96.969131 7.659221,94.077972 
z"/>
<path fill="#0C7137" opacity="1.000000" stroke="none" 
	d="
M122.685837,103.142014 
	C123.972801,102.872498 125.079132,102.918861 126.859261,103.138138 
	C127.644661,103.517685 127.756264,103.724319 127.969971,104.268356 
	C128.249542,105.530968 128.244080,106.469086 128.272919,107.757141 
	C128.256271,108.580124 128.214905,109.049034 128.091461,109.865700 
	C127.764565,111.370384 127.369781,112.481049 126.680252,113.854370 
	C123.171356,116.685059 120.920723,120.233078 117.724548,123.352821 
	C116.317314,124.300194 115.066216,124.815628 113.562057,125.559509 
	C112.463387,126.025009 111.627541,126.244919 110.519089,126.640854 
	C109.825348,126.873238 109.425514,126.990585 108.728287,127.191399 
	C107.601074,127.463882 106.931877,127.958557 105.953087,128.570465 
	C105.017326,128.957443 104.353340,129.034836 103.335785,128.891586 
	C102.803444,128.685562 102.607231,128.563400 102.142181,128.222290 
	C101.873344,128.003342 101.579475,127.673920 101.475433,127.479248 
	C101.085678,126.383377 100.853477,125.477509 101.258652,124.075836 
	C112.299049,120.958694 119.838585,114.759880 122.685837,103.142014 
z"/>
<path fill="#25A05B" opacity="1.000000" stroke="none" 
	d="
M189.179352,5.713692 
	C164.072662,3.807995 139.126404,5.529252 114.208763,5.076891 
	C111.259575,5.023351 108.302567,5.760451 105.339226,6.015419 
	C102.900620,6.225238 102.998299,7.955205 102.997551,9.635056 
	C102.988625,29.768755 103.002090,49.902470 102.981041,70.036148 
	C102.978592,72.377563 103.791061,73.812614 106.326538,74.084595 
	C107.809448,74.243652 109.287697,74.708771 109.877365,76.777695 
	C101.737534,74.174515 101.710655,74.174545 101.701927,65.707108 
	C101.682190,46.562210 101.770218,27.416653 101.617836,8.272928 
	C101.589981,4.773611 102.616982,3.844893 106.118828,3.864846 
	C133.420181,4.020413 160.722763,3.957439 188.487732,4.013799 
	C188.950470,4.065619 188.977448,4.028053 188.956375,4.034307 
	C189.349289,4.404823 189.501709,4.857227 189.179352,5.713692 
z"/>
<path fill="#222222" opacity="1.000000" stroke="none" 
	d="
M99.699661,92.998749 
	C99.849953,89.652908 102.703949,88.878548 104.401970,87.265633 
	C105.455368,86.265022 107.292824,86.516693 107.495766,88.822922 
	C107.582191,89.805115 108.038139,90.757393 108.104736,91.738297 
	C108.500778,97.571129 106.880844,103.794296 111.893196,108.901512 
	C108.202469,109.166512 104.930443,109.323608 101.662338,108.427444 
	C100.593506,108.134354 99.780342,107.911057 99.840668,106.602768 
	C99.886101,105.617767 100.491875,105.418335 101.311081,105.025635 
	C103.151054,104.143646 104.150429,94.833656 102.617134,93.630302 
	C101.777252,92.971146 100.527046,95.222183 99.699661,92.998749 
z"/>
<path fill="#191919" opacity="1.000000" stroke="none" 
	d="
M91.151329,108.889786 
	C89.232826,108.668488 87.712494,108.615425 86.294785,108.206566 
	C84.319504,107.636917 84.720001,106.299271 85.861755,105.303291 
	C88.430634,103.062408 89.575760,97.393585 88.271706,94.454605 
	C87.406677,92.505058 85.707825,95.167351 85.142799,93.598999 
	C84.809669,92.674301 84.656143,91.368950 85.538612,90.814987 
	C87.564720,89.543129 88.623650,86.608711 91.585098,86.994286 
	C93.124115,87.194649 92.973198,88.739281 93.032372,89.808647 
	C93.206497,92.955315 93.129814,96.116142 93.314026,99.261894 
	C93.446007,101.515678 92.178802,104.333466 95.598152,105.512817 
	C95.959946,105.637619 96.243660,107.144531 95.971794,107.740105 
	C95.053825,109.751152 93.131874,108.745590 91.151329,108.889786 
z"/>
<path fill="#3A9C65" opacity="1.000000" stroke="none" 
	d="
M5.688381,102.983223 
	C4.919086,104.698929 5.011133,106.538475 5.011377,108.374573 
	C5.014808,134.173859 5.007970,159.973129 5.004766,185.772415 
	C5.004560,187.434647 4.903065,189.114594 5.879118,190.983398 
	C5.953282,191.557358 5.931691,191.784470 5.912685,192.353333 
	C4.947653,192.943039 4.326335,192.615356 3.972313,191.334412 
	C3.879516,162.021408 3.926786,132.984497 4.006658,103.480728 
	C4.481641,102.973099 4.924023,102.932327 5.688381,102.983223 
z"/>
<path fill="#486D9B" opacity="1.000000" stroke="none" 
	d="
M92.071175,8.538082 
	C90.263901,10.509516 91.031197,12.655075 91.025864,14.554152 
	C90.970238,34.360260 90.990044,54.166580 90.985992,74.433945 
	C90.568756,75.008575 90.154457,75.122101 89.415405,75.231415 
	C89.945267,73.194763 89.996246,71.064384 89.992538,68.895126 
	C89.964745,52.657063 89.958839,36.418873 89.996025,20.180838 
	C90.007011,15.385740 90.125557,10.594771 88.931519,5.466971 
	C89.528252,5.042158 90.155464,5.040332 91.093414,5.054403 
	C91.612160,6.095945 91.820152,7.121590 92.071175,8.538082 
z"/>
<path fill="#EFFAF3" opacity="1.000000" stroke="none" 
	d="
M64.606964,102.505775 
	C45.567841,102.785706 26.191330,102.837624 6.345190,102.801331 
	C5.447044,101.675629 4.493190,100.570602 5.639711,99.548271 
	C6.591743,98.699348 7.363441,99.851936 8.238810,100.085892 
	C12.849964,101.318283 17.593367,101.912155 22.356874,101.970940 
	C36.326908,102.143356 50.298561,102.184937 64.606964,102.505775 
z"/>
<path fill="#3A9C65" opacity="1.000000" stroke="none" 
	d="
M78.159164,115.085022 
	C77.724655,116.577309 76.749222,116.913193 75.156677,116.908569 
	C73.191345,116.151634 72.736053,114.854736 73.006508,112.853699 
	C73.381340,111.728806 73.739868,110.972641 74.191864,109.910507 
	C75.554977,111.328110 76.824623,113.051666 78.159164,115.085022 
z"/>
<path fill="#5DBB87" opacity="1.000000" stroke="none" 
	d="
M121.205414,82.550415 
	C120.386238,84.000038 119.505936,84.978485 119.837158,86.742157 
	C118.290451,85.288361 116.759323,83.459351 115.098343,81.329483 
	C116.542580,81.043312 118.116669,81.057991 120.079803,81.013565 
	C121.118851,81.098274 121.432755,81.502853 121.205414,82.550415 
z"/>
<path fill="#617568" opacity="1.000000" stroke="none" 
	d="
M94.897964,127.071129 
	C94.040894,126.890205 93.405304,126.947227 92.453079,127.047333 
	C91.416374,126.831642 91.045792,126.248375 90.580063,125.288635 
	C90.410858,124.980904 90.267494,124.769516 90.172150,124.684540 
	C89.655083,124.207069 89.510368,123.730453 89.931290,122.895767 
	C92.204712,123.076294 94.189453,123.530769 96.545937,124.059669 
	C97.294479,125.114861 96.506737,125.327446 95.925003,125.747726 
	C95.391541,126.133141 95.505417,126.517853 95.817146,125.928558 
	C96.128876,125.339264 96.380890,126.768631 96.199135,126.439232 
	C95.929512,127.132439 95.568909,127.306175 94.897964,127.071129 
z"/>
<path fill="#5DBB87" opacity="1.000000" stroke="none" 
	d="
M125.326035,93.074951 
	C124.464394,94.266273 123.907684,95.016357 123.080002,95.843781 
	C122.156906,93.906296 121.504791,91.891472 120.856674,89.513626 
	C122.513901,89.420464 122.914124,91.116783 124.334541,92.137505 
	C124.948616,92.419678 125.289787,92.526695 125.326035,93.074951 
z"/>
<path fill="#94B09D" opacity="1.000000" stroke="none" 
	d="
M95.757301,126.244141 
	C95.097778,124.920334 96.239136,124.977631 96.783600,124.308441 
	C98.157532,123.962379 99.397392,123.790680 101.011536,123.621696 
	C101.490227,124.552696 101.594635,125.480980 101.535217,126.846924 
	C100.482964,127.197876 99.594551,127.111160 98.372162,126.984940 
	C97.326561,126.959190 96.647682,126.834839 95.757301,126.244141 
z"/>
<path fill="#3A9C65" opacity="1.000000" stroke="none" 
	d="
M89.933273,122.443184 
	C90.186668,123.064575 90.153358,123.507339 90.098434,124.274834 
	C88.186882,123.952812 86.040306,123.702118 85.205887,121.093887 
	C86.691116,121.254593 88.168846,121.759575 89.933273,122.443184 
z"/>
<path fill="#3A9C65" opacity="1.000000" stroke="none" 
	d="
M73.999825,108.599274 
	C70.721519,108.456825 72.861649,105.164528 71.155960,103.439850 
	C71.132576,102.954407 71.269981,102.798355 71.703415,102.740448 
	C72.669159,104.637154 73.338867,106.435699 73.999825,108.599274 
z"/>
<path fill="#EFFAF3" opacity="1.000000" stroke="none" 
	d="
M71.925171,102.517792 
	C71.826485,102.863472 71.653511,102.888344 71.237862,103.011833 
	C70.242638,103.036026 69.490089,102.961586 68.368408,102.801910 
	C68.990425,100.373993 70.311150,100.473846 71.925171,102.517792 
z"/>
<path fill="#3A9C65" opacity="1.000000" stroke="none" 
	d="
M82.328140,120.316734 
	C82.075256,119.881195 82.065338,119.672623 82.075409,119.151459 
	C83.019341,119.300529 83.943283,119.762192 85.033913,120.490158 
	C84.324097,120.685539 83.447601,120.614624 82.328140,120.316734 
z"/>
<path fill="#25A05B" opacity="1.000000" stroke="none" 
	d="
M111.886604,78.500938 
	C112.742386,78.047707 113.538391,78.236031 113.927567,79.646477 
	C113.318184,79.573441 112.668396,79.167343 111.886604,78.500938 
z"/>
<path fill="#486D9B" opacity="1.000000" stroke="none" 
	d="
M87.276382,76.127342 
	C87.471413,75.816582 87.982109,75.464371 88.824677,75.119019 
	C88.635048,75.445892 88.113548,75.765892 87.276382,76.127342 
z"/>
<path fill="#25A05B" opacity="1.000000" stroke="none" 
	d="
M110.019058,77.375900 
	C110.452515,77.303703 111.044357,77.490746 111.738823,77.990036 
	C111.286781,78.079910 110.732109,77.857521 110.019058,77.375900 
z"/>
<path fill="#5DBB87" opacity="1.000000" stroke="none" 
	d="
M119.841431,87.438980 
	C120.182190,87.598160 120.526489,88.050995 120.853638,88.798859 
	C120.505981,88.640137 120.175476,88.186378 119.841431,87.438980 
z"/>
<path fill="#637D9F" opacity="1.000000" stroke="none" 
	d="
M73.455109,90.175674 
	C73.314163,89.717491 73.450500,89.064209 73.877472,88.230225 
	C74.022873,88.693207 73.877625,89.336891 73.455109,90.175674 
z"/>
<path fill="#1DA35A" opacity="1.000000" stroke="none" 
	d="
M101.769035,128.245300 
	C102.067093,128.008102 102.260849,128.012863 102.744850,128.034149 
	C105.043053,130.264664 104.696358,133.023911 104.705490,135.655029 
	C104.755234,149.984512 104.699356,164.314224 104.738335,178.643753 
	C104.763824,188.015793 105.032425,188.251038 114.160034,188.274246 
	C119.825027,188.288651 125.490280,188.217178 131.596008,188.361359 
	C135.387741,188.519836 138.761078,188.976273 142.384262,187.490021 
	C144.116867,186.587326 145.557068,186.291077 147.517670,186.520340 
	C156.148972,188.170486 164.428970,188.394409 172.727005,188.278275 
	C188.106476,188.063049 186.178650,190.297852 186.258133,174.718369 
	C186.360916,154.567810 186.313095,134.416245 186.267990,114.265221 
	C186.250031,106.246994 185.718735,105.747223 177.772232,105.724319 
	C166.947342,105.693115 156.122253,105.734703 145.297363,105.703011 
	C142.812057,105.695732 140.284912,105.912720 137.522980,104.572281 
	C137.004150,103.999481 136.877502,103.702637 137.006256,102.990089 
	C138.534973,101.587959 140.049637,101.585785 141.539902,101.580261 
	C155.809052,101.527382 170.078293,101.527321 184.347458,101.579109 
	C185.677673,101.583939 187.009262,101.654671 188.573334,102.710350 
	C188.958557,103.019638 189.142944,103.476929 189.193359,103.719681 
	C190.352768,131.046036 189.556686,158.143036 189.809982,185.232712 
	C189.873550,192.030075 189.836517,192.020203 182.886520,192.009521 
	C157.249222,191.970139 131.611923,191.938110 105.520660,191.985046 
	C104.143677,191.895508 103.220673,191.724228 102.074699,191.282547 
	C101.619064,190.602020 101.520302,190.160095 101.606323,189.350830 
	C101.670677,188.559799 101.666466,188.108521 101.660309,187.318756 
	C101.321533,167.984253 101.590469,148.986801 101.576660,129.501617 
	C101.641693,128.837814 101.653214,128.662521 101.769035,128.245300 
z"/>
<path fill="#FBFDFB" opacity="1.000000" stroke="none" 
	d="
M127.499313,102.208893 
	C127.020905,101.147217 126.913307,100.416534 126.832474,99.315964 
	C127.527954,98.527336 128.039383,97.932327 128.793854,97.173492 
	C146.014008,96.928993 163.040466,96.903648 180.535248,96.905060 
	C181.170609,97.062927 181.337662,97.194038 181.747406,97.118820 
	C184.038040,96.932068 186.085953,96.951637 188.567291,97.045815 
	C189.001205,98.470154 189.001724,99.819878 189.003143,101.576828 
	C186.112427,103.009041 183.120148,102.443169 180.181702,102.459030 
	C166.952301,102.530464 153.721817,102.554131 140.492813,102.452934 
	C136.282394,102.420731 132.086685,104.834000 127.499313,102.208893 
z"/>
<path fill="#C6FDDC" opacity="1.000000" stroke="none" 
	d="
M127.092606,102.119118 
	C147.441025,101.905815 167.753540,101.933731 188.535034,101.972855 
	C189.002716,102.157005 189.001404,102.329948 188.979340,102.761261 
	C171.946671,103.018967 154.934799,103.018295 137.458725,103.088791 
	C134.002045,105.012238 130.897614,104.761177 127.354439,103.371956 
	C126.961349,103.091858 127.070717,102.985123 127.038399,102.915268 
	C127.006081,102.845413 127.056717,102.360329 127.092606,102.119118 
z"/>
<path fill="#EEF6F3" opacity="1.000000" stroke="none" 
	d="
M189.068817,6.337193 
	C188.976913,5.589891 188.987762,5.150149 188.966949,4.375484 
	C192.112244,3.882848 194.380249,4.637722 193.211639,8.796522 
	C192.024811,8.629701 191.109619,8.236670 189.893311,7.855618 
	C189.451996,7.459983 189.311783,7.052367 189.068817,6.337193 
z"/>
<path fill="#F1F5F2" opacity="1.000000" stroke="none" 
	d="
M193.074249,106.880127 
	C191.945007,106.577919 191.074295,106.078102 190.113007,105.285683 
	C191.189148,105.432228 193.354980,103.913742 193.074249,106.880127 
z"/>
<path fill="#3A9C65" opacity="1.000000" stroke="none" 
	d="
M90.287483,125.395111 
	C91.313293,125.089439 91.806709,125.629021 92.067238,126.788689 
	C92.051796,145.430832 91.967148,163.771255 91.769539,182.570724 
	C90.455826,181.382080 90.961845,179.485016 90.956177,177.696518 
	C90.916054,165.031784 90.881340,152.366470 90.967148,139.702179 
	C90.998703,135.043930 90.798103,130.419266 90.287483,125.395111 
z"/>
<path fill="#C8C7C6" opacity="1.000000" stroke="none" 
	d="
M94.335663,185.070648 
	C96.152367,185.659393 96.157890,187.031662 95.187988,188.795776 
	C93.762230,188.012009 94.017242,186.718170 94.335663,185.070648 
z"/>
<path fill="#C8C7C6" opacity="1.000000" stroke="none" 
	d="
M95.405167,126.197464 
	C96.178886,126.154663 96.869476,126.289200 97.799133,126.684586 
	C97.510788,127.794830 96.632156,127.913719 95.430847,128.077179 
	C95.036171,127.898537 94.968590,127.684486 94.788742,127.151817 
	C94.920502,126.720955 95.135681,126.568153 95.405167,126.197464 
z"/>
<path fill="#3A9C65" opacity="1.000000" stroke="none" 
	d="
M91.463058,188.822784 
	C90.195648,188.476883 90.030251,187.811279 91.305725,186.921967 
	C91.588715,187.407806 91.627167,187.999695 91.463058,188.822784 
z"/>
<path fill="#3A9C65" opacity="1.000000" stroke="none" 
	d="
M81.321457,191.780289 
	C81.745041,190.908768 82.645340,190.843674 83.836731,191.483856 
	C83.271965,191.747055 82.487404,191.821518 81.321457,191.780289 
z"/>
<path fill="#3A9C65" opacity="1.000000" stroke="none" 
	d="
M87.242813,191.814163 
	C87.506134,191.510406 88.070107,191.299805 88.941345,191.182465 
	C88.680229,191.486237 88.111839,191.696793 87.242813,191.814163 
z"/>
<path fill="#3A9C65" opacity="1.000000" stroke="none" 
	d="
M34.278255,191.788818 
	C34.443348,191.131195 35.027939,190.968536 35.888908,191.532669 
	C35.586231,191.772720 35.106983,191.835510 34.278255,191.788818 
z"/>
<path fill="#3A9C65" opacity="1.000000" stroke="none" 
	d="
M62.282394,191.788361 
	C62.437943,191.119873 63.018414,190.951065 63.885948,191.513245 
	C63.588326,191.753952 63.110474,191.824814 62.282394,191.788361 
z"/>
<path fill="#3A9C65" opacity="1.000000" stroke="none" 
	d="
M49.216843,191.755859 
	C49.224258,191.601990 49.523979,191.504272 49.951900,191.525055 
	C49.889786,191.699722 49.699463,191.755859 49.216843,191.755859 
z"/>
<path fill="#3A9C65" opacity="1.000000" stroke="none" 
	d="
M9.227279,191.718201 
	C9.250348,191.560059 9.553979,191.498199 9.972969,191.564240 
	C9.894833,191.732925 9.701336,191.773697 9.227279,191.718201 
z"/>
<path fill="#3A9C65" opacity="1.000000" stroke="none" 
	d="
M90.371429,191.086945 
	C90.286942,190.874161 90.458344,190.564453 90.885284,190.155273 
	C90.969658,190.367203 90.798492,190.678604 90.371429,191.086945 
z"/>
<path fill="#94B09D" opacity="1.000000" stroke="none" 
	d="
M101.448898,129.368500 
	C102.456535,148.037552 101.890877,167.069153 101.790680,186.538971 
	C100.512093,183.575165 101.170692,180.064178 101.160576,176.613922 
	C101.114731,160.984146 101.218025,145.353943 101.448898,129.368500 
z"/>
<path fill="#94B09D" opacity="1.000000" stroke="none" 
	d="
M101.514717,189.185272 
	C101.772400,189.451889 101.869919,189.892685 101.909584,190.672806 
	C101.158020,190.620071 101.153648,190.020645 101.514717,189.185272 
z"/>
<path fill="#335087" opacity="1.000000" stroke="none" 
	d="
M54.351124,89.037666 
	C53.245937,88.982162 52.495518,88.991760 51.369919,89.008072 
	C49.020676,88.572937 46.639408,88.680656 46.689369,85.357559 
	C48.730057,82.849487 51.761700,84.400047 54.126625,82.590378 
	C54.624062,82.170158 54.830215,82.004814 55.355911,81.597672 
	C55.454948,62.951180 55.630295,44.545380 55.519402,26.140394 
	C55.512264,24.955973 55.247990,23.832865 54.434418,22.388672 
	C54.060837,20.995451 54.154369,20.071789 54.968582,18.863642 
	C59.972313,18.735420 61.431522,20.234150 61.468563,25.409805 
	C61.556786,37.736633 61.494930,50.064323 61.498581,62.391666 
	C61.500015,67.222656 61.518658,72.053757 61.488232,76.884567 
	C61.476810,78.698318 61.756645,80.573471 60.383453,82.633148 
	C60.087326,83.470459 60.070889,83.901459 60.062012,84.655960 
	C60.866081,89.715721 57.669014,89.257088 54.351124,89.037666 
z"/>
<path fill="#406BAE" opacity="1.000000" stroke="none" 
	d="
M60.483112,82.966003 
	C60.064556,63.796494 60.010990,44.553543 60.001114,25.310572 
	C59.999573,22.308722 59.822193,19.545359 55.624233,19.026299 
	C54.130650,18.441006 54.026760,17.400612 54.055931,15.933793 
	C54.328762,14.763205 54.753376,14.121608 55.680367,13.360485 
	C57.185390,15.579547 58.336880,18.118414 61.325607,19.010185 
	C63.279526,19.593191 62.983078,21.248981 62.983978,22.701777 
	C62.995590,41.426781 62.988312,60.151794 62.991901,78.876808 
	C62.992233,80.602730 62.863049,82.237999 60.483112,82.966003 
z"/>
<path fill="#5072B2" opacity="1.000000" stroke="none" 
	d="
M41.583878,82.285248 
	C39.992992,82.755775 37.674713,83.247231 39.027233,81.133621 
	C40.360279,79.050453 39.961590,76.977509 39.968327,74.898323 
	C40.024811,57.469585 39.914394,40.039680 40.097260,22.612679 
	C40.123386,20.122728 38.534702,17.562849 40.918533,15.334907 
	C42.648239,17.187107 42.707760,19.025814 42.714283,20.849268 
	C42.781330,39.590374 42.769234,58.331558 42.723598,77.072708 
	C42.719959,78.567093 42.638138,80.059036 41.583878,82.285248 
z"/>
<path fill="#406BAE" opacity="1.000000" stroke="none" 
	d="
M54.126350,89.196060 
	C55.889915,87.712303 59.142471,88.881844 60.001865,85.315483 
	C64.382370,86.724113 60.646042,88.551323 60.073242,90.696281 
	C58.496529,92.610237 56.545097,91.802399 54.365456,91.970230 
	C54.525654,91.161766 56.162106,90.499245 54.126350,89.196060 
z"/>
<path fill="#406BAE" opacity="1.000000" stroke="none" 
	d="
M46.673611,84.458534 
	C46.952354,87.457451 48.967804,87.762222 50.782932,88.755508 
	C45.783928,90.860764 44.414967,85.525215 41.081696,83.410812 
	C41.019371,83.076607 41.065948,82.993210 41.074146,82.946152 
	C42.024574,82.063248 43.101292,81.917374 44.584267,82.414833 
	C45.461681,82.912598 45.940166,83.374130 46.673611,84.458534 
z"/>
<path fill="#4167A4" opacity="1.000000" stroke="none" 
	d="
M55.504021,13.068662 
	C55.844265,13.596826 55.723633,14.098627 55.416969,14.787739 
	C51.565300,15.983634 47.838482,15.508855 43.698311,15.361549 
	C42.702110,15.130656 42.186981,14.869937 41.395340,14.220698 
	C45.620457,11.980680 50.389698,13.419407 55.504021,13.068662 
z"/>
<path fill="#406BAE" opacity="1.000000" stroke="none" 
	d="
M67.870850,90.807938 
	C67.577202,91.700760 67.036758,92.004951 66.127235,91.248383 
	C66.414284,90.352974 66.945312,90.004158 67.870850,90.807938 
z"/>
<path fill="#5072B2" opacity="1.000000" stroke="none" 
	d="
M41.028931,14.175701 
	C41.556126,13.962687 42.044746,13.991816 42.895485,14.086349 
	C43.109730,15.051683 42.532085,15.418270 41.346748,15.225801 
	C41.023888,15.020217 40.960369,14.960538 40.928352,14.929838 
	C40.896332,14.899137 40.990356,14.417844 41.028931,14.175701 
z"/>
<path fill="#F5FDF9" opacity="1.000000" stroke="none" 
	d="
M72.557671,112.560852 
	C74.668404,113.331627 74.187332,114.942444 74.569397,116.617828 
	C74.646637,118.085518 74.326271,119.274940 74.495750,120.389908 
	C74.995872,123.680000 73.425819,124.364952 70.518387,124.197952 
	C66.878708,123.988884 63.191910,124.408928 59.574333,124.056160 
	C55.340874,123.643333 53.866627,124.794289 53.967052,129.395706 
	C54.296513,144.491577 53.893200,159.603271 54.210674,174.699661 
	C54.315193,179.669739 53.236309,182.133255 47.867313,181.157562 
	C46.911034,180.983765 45.883137,181.204071 44.434357,181.347458 
	C40.607594,181.556534 40.116322,179.667633 40.138882,176.711212 
	C40.255379,161.441254 40.162487,146.169662 40.026756,130.441376 
	C39.143517,129.206406 38.875969,128.209946 38.596245,126.911522 
	C38.352585,126.309349 38.145916,126.012474 37.617409,125.649139 
	C36.348545,125.268440 35.323177,125.340126 33.948997,125.423157 
	C33.359070,125.460464 33.118332,125.477829 32.506683,125.509033 
	C30.052641,125.475174 27.963989,125.580162 25.499969,125.198059 
	C24.377752,124.760735 23.637943,124.448051 22.406605,124.414665 
	C21.365547,124.100174 20.724594,123.841454 19.906231,123.275009 
	C19.282352,120.286774 19.587458,117.588722 19.648911,114.462669 
	C21.326019,111.754951 23.716705,112.724297 25.715725,112.710655 
	C41.174107,112.605186 56.633465,112.643181 72.557671,112.560852 
z"/>
<path fill="#066F34" opacity="1.000000" stroke="none" 
	d="
M39.758930,124.783302 
	C40.027714,126.408493 40.074425,127.792213 40.016006,129.580017 
	C36.314507,128.654907 32.563805,128.954422 28.859892,129.063004 
	C26.430796,129.134216 24.749104,128.462982 24.141821,125.563301 
	C24.172970,124.946754 24.234974,124.704636 24.661518,124.375023 
	C27.371725,124.250534 29.717390,124.213554 32.500839,124.216919 
	C33.125736,124.312721 33.312847,124.368172 33.782219,124.346054 
	C35.419163,124.236534 36.773834,124.204582 38.531693,124.226753 
	C39.135536,124.367851 39.336197,124.454842 39.758930,124.783302 
z"/>
<path fill="#3A9C65" opacity="1.000000" stroke="none" 
	d="
M19.510977,114.324486 
	C19.819834,116.716171 19.882225,119.405891 19.836718,122.531448 
	C18.324953,120.255196 18.995216,117.427704 19.510977,114.324486 
z"/>
<path fill="#508568" opacity="1.000000" stroke="none" 
	d="
M24.656326,124.175507 
	C24.948299,124.593040 24.768026,124.815498 24.298105,125.071884 
	C23.546238,125.049400 22.981510,124.909920 22.211639,124.564667 
	C22.766529,124.260429 23.526560,124.161964 24.656326,124.175507 
z"/>
<path fill="#F6FDF9" opacity="1.000000" stroke="none" 
	d="
M121.322182,82.983269 
	C120.939171,82.474014 120.878052,82.015396 120.642899,81.255615 
	C120.492752,79.585442 120.516655,78.216431 120.478004,76.441902 
	C120.503517,75.580315 120.540375,75.120148 120.468987,74.313187 
	C120.492233,54.511749 120.572449,35.053001 120.824142,15.212030 
	C121.268341,14.651834 121.547569,14.484695 122.074066,14.369072 
	C123.530388,14.419750 124.745918,14.429749 126.324814,14.405920 
	C127.046974,14.371350 127.405701,14.375093 128.033356,14.390664 
	C138.804153,14.423004 149.306000,14.448009 160.255951,14.433157 
	C161.059998,14.385694 161.415939,14.379821 162.038910,14.379038 
	C163.212845,14.409517 164.119781,14.436641 165.365692,14.430047 
	C166.045441,14.253304 166.342743,14.316043 166.834503,14.621760 
	C167.072418,14.658975 167.174759,14.815562 167.266678,14.832850 
	C168.065857,16.024628 167.869217,17.441793 168.559845,19.038433 
	C169.503372,21.030241 169.408798,22.688484 168.778885,24.760145 
	C168.299759,25.644159 167.918564,26.066364 167.101120,26.636116 
	C158.986404,28.408606 151.145859,27.181168 143.360687,27.616693 
	C140.957123,27.751154 137.761307,26.571306 136.416626,29.038427 
	C134.723541,32.144760 135.341873,35.865921 136.124588,39.288815 
	C136.595459,41.347950 138.850800,40.823486 140.575806,41.802795 
	C146.651932,42.120747 152.401993,42.457047 158.128418,42.220695 
	C161.920197,42.064198 163.728241,43.107121 163.166992,47.497444 
	C164.940735,51.006210 164.868301,53.608452 160.754837,55.319969 
	C154.776825,55.475464 149.266678,55.417313 143.330353,55.466576 
	C141.312332,55.671486 139.711029,55.488525 137.768982,55.665371 
	C136.741013,55.925930 136.189209,56.275440 135.860291,57.354744 
	C135.563385,63.851913 135.795532,69.971466 135.685394,76.088707 
	C135.547226,83.763435 134.100800,85.029503 126.023712,84.063057 
	C125.037926,83.606827 124.445175,83.463730 123.379883,83.312744 
	C122.507614,83.126114 122.075844,83.080017 121.322182,82.983269 
z"/>
<path fill="#056E33" opacity="1.000000" stroke="none" 
	d="
M159.621033,54.295509 
	C164.584122,54.384544 162.638657,50.887535 163.179855,48.347336 
	C163.943680,47.929344 164.631699,47.944023 165.664032,47.969418 
	C169.167740,51.590900 167.855453,55.007866 165.270020,58.675461 
	C164.540726,58.974594 164.098923,58.980385 163.325790,58.980106 
	C157.613724,59.022781 152.232910,58.993343 146.427368,58.984230 
	C144.297791,58.990101 142.592987,59.002701 140.462173,59.015205 
	C138.312836,61.557789 139.095551,64.435234 139.031326,67.169838 
	C138.911835,72.257568 138.980774,77.350037 139.003372,82.440269 
	C139.012527,84.500702 138.837067,86.406334 136.340759,87.717117 
	C134.349487,88.053459 132.520279,87.655113 131.084854,88.233696 
	C127.318420,89.751854 125.927582,87.838036 124.999054,84.358597 
	C124.780380,83.818390 124.619965,83.643204 124.793274,83.343208 
	C134.280960,82.913101 134.276321,82.913101 134.282700,73.820587 
	C134.286850,67.898865 134.306870,61.977154 134.397552,55.603020 
	C134.682159,54.743416 135.004868,54.496811 135.753052,54.289974 
	C137.740891,54.106667 139.438705,54.071274 141.558563,54.085442 
	C147.714630,54.929142 153.474487,54.355198 159.621033,54.295509 
z"/>
<path fill="#12723C" opacity="1.000000" stroke="none" 
	d="
M140.771530,41.645332 
	C134.249908,42.770287 134.249908,42.770287 134.237823,36.405140 
	C134.218246,26.085299 134.218231,26.086557 144.632507,26.079197 
	C151.779907,26.074144 158.927322,26.064995 166.541290,26.004818 
	C167.255432,25.758661 167.469223,25.533306 167.677307,25.044073 
	C167.713043,23.200336 167.720703,21.588423 167.770416,19.575588 
	C167.452454,18.352688 167.477676,17.580435 168.516785,16.819023 
	C170.014481,19.861576 173.793411,21.382978 173.168503,25.756912 
	C172.646301,29.412045 171.925919,31.204756 167.907669,31.065323 
	C161.424515,30.840355 154.927795,31.008904 148.436798,31.008305 
	C139.361084,31.007465 138.595276,32.012329 140.771530,41.645332 
z"/>
<path fill="#01833A" opacity="1.000000" stroke="none" 
	d="
M136.404770,88.002731 
	C138.012329,85.377861 137.850006,82.310417 138.080124,79.207466 
	C138.569855,72.604202 136.465042,65.830353 139.683090,59.201488 
	C140.024200,66.981575 140.013855,74.948029 139.999161,82.914490 
	C139.994827,85.269485 140.238235,87.787628 136.404770,88.002731 
z"/>
<path fill="#01833A" opacity="1.000000" stroke="none" 
	d="
M146.300690,59.268517 
	C151.403625,57.025848 156.909912,58.098515 162.692032,58.690594 
	C157.593964,60.981991 152.082352,59.878029 146.300690,59.268517 
z"/>
<path fill="#01833A" opacity="1.000000" stroke="none" 
	d="
M165.351959,58.938881 
	C165.903687,55.624146 168.214691,52.430882 166.051697,48.367569 
	C167.226074,48.119133 168.744141,47.656097 168.634460,49.860119 
	C168.470154,53.162258 169.315033,56.730705 165.351959,58.938881 
z"/>
<path fill="#5DBB87" opacity="1.000000" stroke="none" 
	d="
M168.846680,16.500479 
	C168.661331,17.360554 168.396912,17.969332 167.972473,18.876389 
	C167.622543,17.978554 167.432632,16.782440 167.300659,15.218231 
	C168.197144,14.944980 168.528580,15.550558 168.846680,16.500479 
z"/>
<path fill="#25A05B" opacity="1.000000" stroke="none" 
	d="
M188.733521,89.213615 
	C189.199799,90.223015 189.420273,91.471077 188.285431,92.770172 
	C188.120148,91.766312 188.295746,90.608459 188.733521,89.213615 
z"/>
<path fill="#25A05B" opacity="1.000000" stroke="none" 
	d="
M125.334351,93.467911 
	C124.954666,93.314316 124.888229,93.112442 124.714622,92.611618 
	C125.598839,92.060463 126.586021,91.885071 127.779129,92.748734 
	C128.026962,93.024292 128.128448,93.157768 128.096161,93.235138 
	C127.872215,93.325439 127.680580,93.338379 127.200836,93.348801 
	C126.491020,93.370735 126.069313,93.395187 125.334351,93.467911 
z"/>
<path fill="#5DBB87" opacity="1.000000" stroke="none" 
	d="
M124.771111,83.096672 
	C125.126984,83.218391 125.090553,83.619354 125.015671,83.806458 
	C124.404671,83.852386 123.868553,83.711205 123.135910,83.371117 
	C123.431328,83.106461 123.923286,83.040703 124.771111,83.096672 
z"/>
<path fill="#5DBB87" opacity="1.000000" stroke="none" 
	d="
M120.253021,74.142761 
	C120.516739,74.437157 120.621460,74.903809 120.570816,75.703430 
	C120.308304,75.462593 120.201172,74.888809 120.253021,74.142761 
z"/>
<path fill="#25A05B" opacity="1.000000" stroke="none" 
	d="
M188.717285,8.075051 
	C188.910095,8.134204 188.963074,8.308424 188.981552,8.753855 
	C188.823837,8.746748 188.700638,8.468433 188.717285,8.075051 
z"/>
<path fill="#5DBB87" opacity="1.000000" stroke="none" 
	d="
M122.058670,14.299524 
	C122.128433,14.723953 121.852623,14.885617 121.241524,14.862274 
	C121.264565,14.616302 121.533524,14.402800 122.058670,14.299524 
z"/>
<path fill="#5DBB87" opacity="1.000000" stroke="none" 
	d="
M127.900452,14.287908 
	C127.878265,14.495774 127.454216,14.593549 126.859177,14.531710 
	C126.958328,14.307335 127.228455,14.242575 127.900452,14.287908 
z"/>
<path fill="#5DBB87" opacity="1.000000" stroke="none" 
	d="
M161.904694,14.276522 
	C161.887146,14.487844 161.468384,14.593296 160.876862,14.546024 
	C160.970551,14.319083 161.237030,14.244866 161.904694,14.276522 
z"/>
<path fill="#5DBB87" opacity="1.000000" stroke="none" 
	d="
M166.898773,14.449934 
	C166.744339,14.683923 166.416275,14.708871 165.896423,14.565075 
	C166.044815,14.344518 166.384964,14.292706 166.898773,14.449934 
z"/>
<path fill="#E8EAEB" opacity="1.000000" stroke="none" 
	d="
M128.641968,96.944901 
	C128.927719,97.919495 128.621582,98.700600 127.197037,98.922241 
	C126.846893,97.924629 127.170883,97.143585 128.641968,96.944901 
z"/>
<path fill="#E8EAEB" opacity="1.000000" stroke="none" 
	d="
M181.742706,96.878326 
	C181.834335,97.296257 181.667007,97.654701 181.086075,97.109459 
	C181.003540,96.931808 181.495300,96.844139 181.742706,96.878326 
z"/>
<path fill="#5DBB87" opacity="1.000000" stroke="none" 
	d="
M127.043198,93.452133 
	C127.103172,93.295471 127.293602,93.244659 127.773949,93.253174 
	C127.767128,93.394333 127.470398,93.476158 127.043198,93.452133 
z"/>
<path fill="#03AE51" opacity="1.000000" stroke="none" 
	d="
M136.581635,103.767807 
	C151.984894,103.981117 166.975342,104.170692 181.956909,103.888115 
	C186.526138,103.801933 187.974121,105.857002 187.980499,109.702812 
	C188.023056,135.347260 187.992325,160.991791 188.000092,186.636307 
	C188.000656,188.483780 187.694855,189.923172 185.373077,189.990692 
	C173.076202,190.348297 160.813248,189.799332 148.572845,188.659363 
	C148.156677,188.620605 147.786987,188.082840 147.170776,187.455048 
	C148.840118,184.863983 151.466690,185.680405 153.820877,185.614670 
	C156.280731,185.546021 158.704544,185.261520 161.499329,184.952896 
	C162.930450,184.892838 164.012924,185.211075 165.332458,184.669647 
	C165.772308,184.445282 165.945862,184.351410 166.378616,184.116943 
	C167.348282,183.624390 167.991867,183.181046 168.739914,182.364502 
	C170.745224,180.271042 172.366806,178.239349 174.540527,176.291351 
	C175.149872,175.531693 175.478699,174.977768 175.768616,174.023254 
	C178.920914,167.555801 176.777191,161.612717 175.099274,155.311005 
	C174.483429,153.630081 175.202454,151.769455 173.032959,150.882431 
	C172.501160,150.716110 172.288757,150.642624 171.774796,150.411865 
	C170.345001,149.453278 169.536179,148.316483 168.254852,147.163361 
	C166.769257,144.799896 164.614090,143.785477 162.690277,142.510727 
	C161.568527,141.767426 160.178925,141.147598 160.697876,139.510498 
	C161.170731,138.018784 162.651855,137.870163 163.991989,137.752686 
	C165.494949,137.620941 166.971008,137.838654 168.436157,138.187378 
	C169.902512,138.536362 171.394196,138.898468 172.725479,137.137360 
	C176.289032,131.591812 172.258759,127.913315 169.907425,123.610352 
	C169.489532,123.254532 169.322174,123.114838 168.931549,122.740829 
	C168.310349,122.011337 167.979233,121.469330 167.428650,120.699173 
	C167.116364,120.279610 166.992264,120.110107 166.691788,119.677460 
	C166.408249,119.231781 166.301071,119.049240 166.046417,118.586044 
	C165.559845,117.547836 165.227768,116.784645 164.107132,116.301407 
	C163.631683,116.094299 163.443726,116.007370 162.978577,115.782784 
	C162.339462,115.455963 161.981873,115.258949 161.364594,114.906403 
	C160.928619,114.654701 160.756805,114.550385 160.330475,114.289444 
	C159.377701,113.603134 158.570343,113.679848 157.441162,113.706085 
	C156.419556,113.587715 155.814468,113.282471 154.982239,112.645218 
	C148.255051,110.389816 141.669693,111.663460 134.810699,111.777473 
	C134.290283,112.042442 134.094940,112.169792 133.591736,112.457001 
	C132.066727,113.192863 130.657104,113.212013 129.198059,114.098007 
	C128.700302,114.356392 128.492966,114.445290 127.954102,114.608192 
	C127.164314,114.694229 126.724083,114.610901 126.067154,114.187103 
	C126.104477,112.819679 126.376511,111.697495 126.803047,110.260368 
	C127.492767,109.563408 127.513741,109.031700 127.191757,108.259430 
	C126.986389,106.984985 126.979797,105.909142 126.991913,104.430183 
	C130.014801,102.937500 133.114532,103.731537 136.581635,103.767807 
z"/>
<path fill="#05AE50" opacity="1.000000" stroke="none" 
	d="
M133.276230,189.752686 
	C125.187706,189.996109 117.374100,190.016937 109.560562,190.000336 
	C103.732880,189.987961 103.018852,189.271469 103.006401,182.840469 
	C102.971657,164.885941 103.006607,146.931274 103.024574,128.513672 
	C103.758202,127.999672 104.481308,127.948654 105.567444,127.893150 
	C106.461334,127.501022 106.942749,127.054665 107.678780,126.401657 
	C108.400215,126.138290 108.878288,126.094917 109.716446,126.044937 
	C110.913300,126.016457 111.698296,125.792747 112.700226,125.252708 
	C113.782379,123.898346 115.041588,123.432480 116.676094,122.985107 
	C119.697670,121.944038 119.675697,123.793518 119.607315,125.500092 
	C119.483200,128.596924 118.940987,131.702728 120.161240,135.069366 
	C120.393654,135.608994 120.483116,135.822525 120.685310,136.356964 
	C121.305023,138.037781 121.101418,139.687119 122.674805,140.916168 
	C123.053619,141.275253 123.197342,141.426590 123.532768,141.823425 
	C124.193192,142.730728 124.573181,143.471191 125.589699,144.053802 
	C126.016014,144.361008 126.181549,144.492905 126.571838,144.851593 
	C127.675194,146.298004 128.619232,147.445618 130.360245,148.194977 
	C132.283600,149.226028 133.926575,150.076431 135.689758,151.417816 
	C140.630814,154.802277 146.397659,154.522903 151.428360,156.582169 
	C152.954224,157.206757 154.530945,157.658859 156.222076,158.828400 
	C157.431870,159.669846 158.067871,160.508469 158.674271,161.869797 
	C158.966614,167.054825 155.916702,169.092468 151.493195,170.348755 
	C148.465134,170.382309 145.838501,170.438614 142.834717,170.277573 
	C142.211533,170.190994 141.967560,170.140793 141.373459,169.978378 
	C137.221237,168.605164 135.711761,164.862274 132.707245,162.250427 
	C132.264603,161.918762 132.097916,161.775787 131.716309,161.389236 
	C130.990341,160.509064 130.751572,159.648773 129.653320,159.138275 
	C128.397339,158.735123 127.425697,158.766449 126.434616,158.862335 
	C117.821434,159.695663 117.025520,161.206192 121.193245,168.973297 
	C122.444801,171.305740 124.225952,173.251923 126.173233,175.488342 
	C126.927505,176.451767 127.283981,177.279678 128.105835,178.186996 
	C128.457458,178.613251 128.594254,178.787781 128.923279,179.233948 
	C131.053772,182.796463 135.960754,181.982773 137.684784,186.006134 
	C137.709686,189.215134 135.099548,188.659286 133.276230,189.752686 
z"/>
<path fill="#1DA35A" opacity="1.000000" stroke="none" 
	d="
M120.502258,136.415771 
	C116.364296,133.980637 118.490891,129.952209 118.106010,126.471451 
	C117.982018,125.350182 119.569046,124.035553 117.359604,123.026390 
	C119.698814,119.940605 121.330620,115.974197 125.504761,113.990265 
	C126.373367,114.016182 126.914307,114.090508 127.846954,114.278625 
	C128.319809,115.670410 127.670738,116.666771 126.833878,117.478828 
	C122.085457,122.086472 119.895142,127.538086 121.108124,134.184601 
	C121.227715,134.839920 120.976921,135.500809 120.502258,136.415771 
z"/>
<path fill="#1C975A" opacity="1.000000" stroke="none" 
	d="
M136.997498,103.769745 
	C133.970703,103.987442 130.943558,104.001862 127.463516,104.021683 
	C127.010628,104.027069 126.972832,103.560143 126.967087,103.326004 
	C130.004959,103.072609 133.048553,103.053368 136.543350,103.097031 
	C136.994537,103.159943 136.997147,103.566475 136.997498,103.769745 
z"/>
<path fill="#1DA35A" opacity="1.000000" stroke="none" 
	d="
M112.624939,125.058693 
	C112.353592,126.000427 111.896858,127.185043 110.238571,126.257477 
	C110.552780,125.117867 111.401062,125.026794 112.624939,125.058693 
z"/>
<path fill="#1DA35A" opacity="1.000000" stroke="none" 
	d="
M107.622971,126.180214 
	C107.857689,127.065193 107.496048,127.707314 106.239273,127.880875 
	C106.086464,127.067360 106.382179,126.359909 107.622971,126.180214 
z"/>
<path fill="#1DA35A" opacity="1.000000" stroke="none" 
	d="
M126.981201,108.374802 
	C127.689018,108.460922 127.975166,108.965042 127.181511,109.815872 
	C126.961502,109.526535 126.965462,109.107651 126.981201,108.374802 
z"/>
<path fill="#05803A" opacity="1.000000" stroke="none" 
	d="
M137.274567,186.259308 
	C135.410187,184.288544 133.250534,183.636459 131.141098,182.878647 
	C129.422348,182.261200 127.720718,181.599396 128.457001,178.809952 
	C129.338516,178.340759 130.012466,178.576172 130.967804,179.108215 
	C138.221863,183.070602 145.889847,184.786057 153.395233,183.176727 
	C157.379669,182.322357 161.757507,181.536041 165.552338,179.708755 
	C172.664459,176.284210 176.089951,164.879089 172.500687,156.833557 
	C172.332092,156.226562 172.289062,155.974609 172.267090,155.334381 
	C172.374207,154.698776 172.460236,154.451462 172.810455,153.910339 
	C173.825546,153.237518 174.587173,153.214554 175.665466,153.800858 
	C178.053909,160.689468 180.866592,167.285156 177.022293,174.629379 
	C176.523651,175.428497 176.504776,176.015900 176.172516,176.768341 
	C173.278015,178.329651 172.066147,181.293961 169.282593,182.997375 
	C168.462784,183.536362 167.984512,184.010880 167.276062,184.731598 
	C166.860168,184.981354 166.678345,184.988800 166.224228,185.015656 
	C165.577789,185.453842 165.149612,185.792542 164.322571,185.977234 
	C158.728653,187.414902 153.287689,186.933762 147.415817,187.093124 
	C145.879150,187.416550 144.812347,187.700714 143.407806,187.992432 
	C140.994980,188.369080 139.158844,187.857666 137.274567,186.259308 
z"/>
<path fill="#03AE51" opacity="1.000000" stroke="none" 
	d="
M136.929764,186.357391 
	C139.020004,185.884186 140.779724,186.756577 142.824661,187.738342 
	C140.725937,191.931534 136.918091,189.160843 133.450272,189.997101 
	C132.929764,187.300980 136.345413,188.699478 136.929764,186.357391 
z"/>
<path fill="#F7FBFE" opacity="1.000000" stroke="none" 
	d="
M41.051125,15.486723 
	C41.596886,14.835755 42.169880,14.651293 43.000237,14.309293 
	C47.009274,14.282224 50.760952,14.412692 54.871780,14.759106 
	C55.181084,16.055443 55.131229,17.135836 55.165749,18.612473 
	C55.186333,19.767126 55.122543,20.525534 55.149597,21.654636 
	C56.338039,23.870161 55.967087,25.915043 55.984791,27.887600 
	C56.140190,45.202843 55.728031,62.520592 56.214432,79.834389 
	C56.238804,80.701828 56.000950,81.471298 55.279350,82.597809 
	C54.970325,82.986610 54.984417,83.004105 54.989548,82.995056 
	C52.853779,84.816383 50.117634,83.469124 47.384331,84.401642 
	C46.405941,84.508598 45.866436,84.405586 45.200314,83.771347 
	C43.945007,83.260315 42.843498,83.138016 41.412163,82.957405 
	C41.081017,60.583805 41.079689,38.268517 41.051125,15.486723 
z"/>
<path fill="#273C70" opacity="1.000000" stroke="none" 
	d="
M55.365173,82.976616 
	C55.012196,62.974285 55.054066,42.961960 55.168190,22.487484 
	C58.090054,22.922258 56.955540,25.327032 56.966034,27.091154 
	C57.055058,42.054058 57.006546,57.017727 57.028629,71.981125 
	C57.032528,74.623657 56.804237,77.269936 57.734879,79.873253 
	C58.307396,81.474770 57.899914,82.882812 55.365173,82.976616 
z"/>
<path fill="#1E3B66" opacity="1.000000" stroke="none" 
	d="
M46.568695,83.850052 
	C49.180046,83.314880 51.667301,83.216385 54.574615,83.051956 
	C53.490074,86.769485 50.217918,84.305923 47.405083,85.023422 
	C46.968189,85.037010 46.979115,85.022255 46.972126,85.026436 
	C46.791626,84.782646 46.618118,84.534683 46.568695,83.850052 
z"/>
<path fill="#335087" opacity="1.000000" stroke="none" 
	d="
M46.425697,83.321587 
	C46.760693,83.679039 46.828594,83.944710 46.930817,84.620499 
	C46.395363,84.702835 45.825584,84.375053 45.151165,83.714951 
	C45.417217,83.331680 45.787910,83.280739 46.425697,83.321587 
z"/>
<path fill="#508568" opacity="1.000000" stroke="none" 
	d="
M39.980606,124.732880 
	C39.656979,125.025826 39.378448,124.913788 39.040146,124.484772 
	C39.283318,124.334244 39.631760,124.387611 39.980606,124.732880 
z"/>
<path fill="#508568" opacity="1.000000" stroke="none" 
	d="
M33.784027,124.164864 
	C33.758198,124.368080 33.451908,124.467674 33.042122,124.412262 
	C33.126938,124.191917 33.315250,124.126579 33.784027,124.164864 
z"/>
<path fill="#458562" opacity="1.000000" stroke="none" 
	d="
M159.562500,54.020058 
	C154.267441,55.635323 148.449905,54.853050 142.314224,54.377220 
	C147.688568,54.059994 153.396515,53.984989 159.562500,54.020058 
z"/>
<path fill="#458562" opacity="1.000000" stroke="none" 
	d="
M135.741241,54.056213 
	C135.683136,54.461662 135.323181,54.781258 134.719284,55.125725 
	C134.222290,54.287994 134.825165,54.124542 135.741241,54.056213 
z"/>
<path fill="#5DBB87" opacity="1.000000" stroke="none" 
	d="
M167.522964,24.953156 
	C167.658493,25.156578 167.611603,25.500908 167.286285,25.898598 
	C167.086899,25.653646 167.197800,25.367680 167.522964,24.953156 
z"/>
<path fill="#F2FCF6" opacity="1.000000" stroke="none" 
	d="
M172.747772,155.442337 
	C172.659927,155.773911 172.518631,155.749451 172.500275,155.818756 
	C176.990021,164.959015 170.185043,177.373642 159.865494,181.025757 
	C149.832489,184.576477 140.372345,183.564926 130.372726,180.166016 
	C129.705414,179.498459 129.387756,179.089554 128.828400,178.553879 
	C128.586716,178.427109 128.470474,178.432236 128.436218,178.479248 
	C127.407509,178.810257 126.879768,178.187424 126.171165,177.270111 
	C121.685127,172.886703 118.777832,167.967117 117.391731,162.127823 
	C116.833321,159.775391 116.951279,158.088272 119.916618,158.171539 
	C123.379219,158.268784 126.777550,156.795609 130.604858,157.952499 
	C131.763275,158.769974 131.351517,159.752930 131.772217,160.834167 
	C131.932571,161.119034 131.952850,161.040283 131.912720,161.046783 
	C134.971085,163.429138 136.045670,168.084320 140.686096,169.155914 
	C140.763321,169.501205 140.903366,169.384109 140.837067,169.321381 
	C144.029251,169.747299 147.300003,169.483810 150.955444,169.287460 
	C155.119461,168.699371 157.278976,166.393280 158.406738,162.581436 
	C158.051987,160.729736 157.644669,159.291061 156.121796,158.084259 
	C155.717926,157.722824 155.558563,157.575333 155.165176,157.201324 
	C152.991425,154.992447 150.558594,154.268509 147.537827,154.171997 
	C146.993011,154.099304 146.776733,154.061218 146.241516,153.945801 
	C143.849854,153.305313 141.849976,152.520584 139.489624,151.836304 
	C138.955673,151.788925 138.742111,151.763016 138.211853,151.670074 
	C137.272278,151.420166 136.679062,151.160690 135.789169,150.771011 
	C133.769363,149.745041 132.046738,148.848404 129.948730,147.978485 
	C128.276718,147.445343 127.416420,146.397339 126.385300,145.065399 
	C126.227150,144.766037 126.146065,144.999680 126.176666,144.881317 
	C124.833893,144.493195 123.905685,143.687164 123.276871,142.100174 
	C123.183495,141.792374 123.067924,141.943100 123.143852,141.886063 
	C121.479767,140.873138 120.613846,139.361160 120.338501,137.091721 
	C120.259926,136.759949 120.256760,136.728668 120.269669,136.718750 
	C118.087212,127.799194 120.268303,120.420990 128.067780,114.670700 
	C128.238678,114.392418 128.210236,114.366959 128.228043,114.365234 
	C129.215744,112.698334 131.007385,112.850449 132.882751,112.341888 
	C133.228485,112.260658 133.083420,112.301674 133.158783,112.303360 
	C138.698471,108.928413 144.698700,110.940063 150.458603,110.702827 
	C151.995117,110.639534 153.748932,110.753502 155.578674,111.870255 
	C156.414322,112.436592 156.923355,112.688736 157.725510,112.917305 
	C159.005219,112.560127 159.764145,113.043777 160.714340,113.856476 
	C160.922150,114.126144 160.961853,114.024147 160.919769,114.059128 
	C161.413940,114.417801 162.049622,114.496696 162.659698,115.097168 
	C162.722198,115.401794 162.884659,115.148842 162.781738,115.258408 
	C164.746078,115.506630 165.864151,116.810501 166.702759,118.895340 
	C166.794998,119.219986 166.858994,119.112656 166.800415,119.134369 
	C167.352356,119.332306 167.453476,119.954338 167.989746,120.565620 
	C168.416855,121.059380 168.596573,121.382378 168.759583,122.010056 
	C168.790741,122.287575 168.807755,122.153259 168.743591,122.174820 
	C169.871719,122.918503 170.518265,124.067032 171.077484,125.279793 
	C173.449265,130.423477 171.883774,133.090729 166.214569,133.550446 
	C165.390381,133.617294 164.560547,133.593796 163.309784,133.596954 
	C159.960388,133.355667 156.925186,133.386261 154.861481,130.164886 
	C154.515594,129.674347 154.386322,129.478485 153.903595,128.719666 
	C153.431625,127.983795 153.313110,127.810913 152.821289,127.167740 
	C152.312271,126.559082 152.176559,126.420708 151.581436,125.940254 
	C150.607712,125.325226 150.072006,125.105843 149.209045,124.879440 
	C148.705292,124.746605 148.501526,124.689079 147.990509,124.530792 
	C144.425919,122.877861 141.223022,123.723160 138.156357,124.900406 
	C133.897430,126.535355 133.520203,128.819962 136.936035,132.807648 
	C137.871506,133.254959 138.472839,133.610413 139.491562,133.908249 
	C143.637207,135.736649 147.667282,136.717712 151.690689,137.739380 
	C157.533066,139.222961 162.928192,141.641937 167.773254,145.891602 
	C169.494064,147.973541 171.072937,149.710953 172.358475,152.096039 
	C172.547760,152.645996 172.598450,152.873306 172.621765,153.446289 
	C172.532120,154.257660 172.605118,154.698624 172.747772,155.442337 
z"/>
<path fill="#11A854" opacity="1.000000" stroke="none" 
	d="
M168.315369,147.217590 
	C162.238113,141.687164 154.931076,139.822830 147.585403,138.013504 
	C144.884781,137.348328 142.228607,136.502731 139.307938,135.476532 
	C137.380493,131.003082 137.836990,129.545837 141.747955,128.091309 
	C145.286041,126.775452 148.941696,125.842247 153.196075,127.185966 
	C153.926804,127.432373 154.219421,127.529480 154.916229,127.851273 
	C156.604996,130.317032 157.236328,133.474823 161.444672,132.216766 
	C161.887817,134.851227 163.827866,135.252335 165.759613,135.880890 
	C168.326431,136.716080 171.007889,135.631180 173.759293,136.804153 
	C173.519516,140.408783 171.108047,140.312408 168.776260,139.710144 
	C166.373840,139.089645 164.074432,138.593796 161.174728,139.622360 
	C163.686508,142.329041 167.709686,142.745209 168.991882,146.580627 
	C168.890030,147.102295 168.733536,147.280151 168.315369,147.217590 
z"/>
<path fill="#087838" opacity="1.000000" stroke="none" 
	d="
M174.304703,136.855942 
	C170.607452,137.915756 167.226852,137.885071 163.861404,136.997040 
	C161.613297,136.403839 159.842010,135.495834 161.668335,132.496918 
	C162.155533,132.220062 162.473892,132.136749 162.795654,132.120270 
	C171.693436,131.664795 171.693497,131.665909 168.746521,122.574142 
	C173.912888,124.029739 177.120392,131.837051 174.304703,136.855942 
z"/>
<path fill="#1DA35A" opacity="1.000000" stroke="none" 
	d="
M155.851471,111.776688 
	C148.616287,110.888184 141.330536,110.387550 133.644287,112.288940 
	C133.128036,110.902954 133.763611,110.064140 135.178696,110.063889 
	C141.587677,110.062714 147.997101,110.082764 154.404770,110.190132 
	C154.875519,110.198029 155.333649,110.958397 155.851471,111.776688 
z"/>
<path fill="#05A850" opacity="1.000000" stroke="none" 
	d="
M172.323425,154.199966 
	C172.076828,153.993073 171.861435,153.674347 171.887604,153.483795 
	C171.835876,153.101837 171.757965,152.910431 171.661850,152.409363 
	C171.818832,151.497986 172.072586,150.939438 172.750122,150.276093 
	C176.562042,148.731522 175.758621,151.498260 175.981613,153.676178 
	C175.237991,154.025314 174.504593,153.996643 173.403778,153.965515 
	C172.880936,154.111008 172.725479,154.258926 172.323425,154.199966 
z"/>
<path fill="#188F4F" opacity="1.000000" stroke="none" 
	d="
M172.269104,151.677246 
	C172.068848,152.226471 172.045181,152.440643 171.967651,152.974030 
	C170.701614,151.398392 169.489456,149.503540 168.165482,147.292938 
	C168.053680,146.977158 168.550446,146.967682 168.798492,146.946060 
	C170.579407,147.051682 171.111969,148.270950 171.870422,149.684265 
	C172.399307,150.353149 172.546585,150.807434 172.269104,151.677246 
z"/>
<path fill="#1DA35A" opacity="1.000000" stroke="none" 
	d="
M166.855774,118.821976 
	C165.519699,118.122696 164.244415,117.025398 162.823975,115.648033 
	C165.312103,114.693901 166.893265,115.478775 166.855774,118.821976 
z"/>
<path fill="#1DA35A" opacity="1.000000" stroke="none" 
	d="
M132.837189,112.173050 
	C131.795029,112.929146 130.361572,113.597626 128.586975,114.314804 
	C128.687698,111.837578 130.581528,111.988670 132.837189,112.173050 
z"/>
<path fill="#1DA35A" opacity="1.000000" stroke="none" 
	d="
M160.906311,113.800812 
	C160.122894,113.849274 159.323624,113.572411 158.271484,113.094635 
	C159.244308,111.762619 160.251602,111.709740 160.906311,113.800812 
z"/>
<path fill="#1DA35A" opacity="1.000000" stroke="none" 
	d="
M164.213531,186.219910 
	C164.492218,185.693375 164.937332,185.380630 165.667191,185.051453 
	C165.797150,185.916214 165.822052,186.999359 164.213531,186.219910 
z"/>
<path fill="#1DA35A" opacity="1.000000" stroke="none" 
	d="
M167.346344,184.931000 
	C167.109573,184.103851 167.385498,183.381912 168.647461,183.108780 
	C168.889420,183.944275 168.594376,184.648788 167.346344,184.931000 
z"/>
<path fill="#1DA35A" opacity="1.000000" stroke="none" 
	d="
M176.235565,176.820465 
	C176.167740,176.446854 176.335953,175.902664 176.738510,175.188141 
	C176.805786,175.561829 176.638718,176.105865 176.235565,176.820465 
z"/>
<path fill="#05803A" opacity="1.000000" stroke="none" 
	d="
M172.316498,151.839767 
	C172.062820,151.561050 172.033096,151.109818 172.003510,150.319000 
	C172.003662,149.979416 172.488434,150.021271 172.730652,150.041046 
	C172.828720,150.596313 172.684586,151.131775 172.316498,151.839767 
z"/>
<path fill="#1DA35A" opacity="1.000000" stroke="none" 
	d="
M162.661285,115.080612 
	C162.207687,115.136040 161.693176,114.870293 161.028168,114.349327 
	C161.451920,114.315887 162.026138,114.537659 162.661285,115.080612 
z"/>
<path fill="#1DA35A" opacity="1.000000" stroke="none" 
	d="
M168.222321,120.867798 
	C167.603516,120.634422 167.219208,120.193382 166.788361,119.454208 
	C167.093674,119.315697 167.445511,119.475327 167.960663,119.882187 
	C168.234894,120.306335 168.345856,120.483238 168.222321,120.867798 
z"/>
<path fill="#087838" opacity="1.000000" stroke="none" 
	d="
M168.030304,121.332626 
	C167.987823,121.075462 168.087112,120.605362 168.105530,120.367393 
	C168.373032,120.642990 168.622131,121.156555 168.830978,121.978851 
	C168.551422,122.054985 168.312088,121.822388 168.030304,121.332626 
z"/>
<path fill="#04873F" opacity="1.000000" stroke="none" 
	d="
M145.870468,152.771881 
	C146.210007,152.946045 146.593765,152.934875 146.778778,152.985992 
	C149.830780,154.310608 152.864655,155.134689 156.121857,156.235992 
	C156.474625,156.164688 156.704346,156.277542 156.774384,156.384644 
	C156.860092,157.375839 156.961456,158.267044 156.348465,159.468536 
	C150.992966,157.629776 145.654709,156.305099 140.300293,155.024231 
	C138.435669,154.578186 136.343567,154.584869 135.028397,152.339691 
	C135.050735,151.531128 135.268204,151.142654 135.926453,150.697876 
	C136.695953,150.526505 137.147247,150.543304 137.897430,150.784592 
	C138.199356,150.940720 138.583115,150.931747 138.768036,150.983215 
	C141.026413,152.057297 143.181061,152.738281 145.870468,152.771881 
z"/>
<path fill="#1A8147" opacity="1.000000" stroke="none" 
	d="
M140.691696,169.148560 
	C135.880432,169.141327 133.594177,165.791214 131.875092,161.419189 
	C136.865845,161.287109 136.709763,167.338593 140.691696,169.148560 
z"/>
<path fill="#1F844B" opacity="1.000000" stroke="none" 
	d="
M136.267639,150.637833 
	C135.856064,151.326508 135.655197,151.577576 135.161255,151.876282 
	C133.407990,151.144211 131.875290,150.306503 130.146271,149.207825 
	C129.627609,148.554550 129.493454,148.105957 129.776703,147.314270 
	C131.870224,147.696350 133.734451,148.365219 135.866760,149.220642 
	C136.273499,149.690872 136.412170,149.974533 136.267639,150.637833 
z"/>
<path fill="#136C3A" opacity="1.000000" stroke="none" 
	d="
M156.319397,160.042938 
	C156.172440,158.956375 156.273422,158.097504 156.609421,156.865204 
	C158.617935,157.790192 158.911484,159.623672 158.537598,161.925964 
	C157.769257,161.566208 157.168304,160.918442 156.319397,160.042938 
z"/>
<path fill="#1DA35A" opacity="1.000000" stroke="none" 
	d="
M129.772217,146.808258 
	C129.997940,147.454620 129.989914,147.881775 129.965912,148.627899 
	C127.804520,148.751801 126.554642,147.575241 126.186707,145.121216 
	C127.330917,145.373718 128.434692,145.981384 129.772217,146.808258 
z"/>
<path fill="#1A8147" opacity="1.000000" stroke="none" 
	d="
M150.861938,169.112579 
	C148.116898,170.758499 144.745224,170.228424 141.076813,169.546753 
	C143.973999,169.195312 147.177246,169.131958 150.861938,169.112579 
z"/>
<path fill="#1DA35A" opacity="1.000000" stroke="none" 
	d="
M120.172752,137.159256 
	C121.196205,138.234589 122.132484,139.709244 123.144272,141.506454 
	C120.131836,141.905106 119.929077,139.863663 120.172752,137.159256 
z"/>
<path fill="#1DA35A" opacity="1.000000" stroke="none" 
	d="
M123.135757,142.185623 
	C124.112785,142.592438 125.042076,143.392502 126.089310,144.477753 
	C124.393417,145.140457 123.031631,144.872375 123.135757,142.185623 
z"/>
<path fill="#05803A" opacity="1.000000" stroke="none" 
	d="
M126.033325,177.389771 
	C126.659325,177.381241 127.366341,177.713058 128.237656,178.285568 
	C127.416939,178.900146 126.560089,178.905731 126.033325,177.389771 
z"/>
<path fill="#1A8147" opacity="1.000000" stroke="none" 
	d="
M131.951523,160.774536 
	C131.009903,160.598892 131.088516,159.633774 130.918610,158.459244 
	C131.913925,158.614227 131.978943,159.505676 131.951523,160.774536 
z"/>
<path fill="#106737" opacity="1.000000" stroke="none" 
	d="
M130.222733,180.205048 
	C138.310623,181.704376 146.568436,183.070282 155.084991,181.057434 
	C167.720352,178.071136 173.818420,169.736877 172.476440,156.342560 
	C173.911545,156.385330 174.380188,157.698914 174.933884,158.887314 
	C178.203156,165.904160 173.954971,171.636780 170.958359,177.071869 
	C168.892151,180.819489 164.664352,183.733368 159.564636,182.009247 
	C156.684952,181.035675 157.399536,184.583801 155.547241,184.645203 
	C152.396866,184.749634 149.212570,185.225784 146.104996,184.916946 
	C140.657867,184.375595 135.283646,183.269272 130.222733,180.205048 
z"/>
<path fill="#106737" opacity="1.000000" stroke="none" 
	d="
M172.047714,154.326126 
	C172.076828,153.993073 172.555740,153.965012 172.796051,153.964050 
	C172.986298,154.266602 172.936218,154.570129 172.773041,155.323792 
	C172.446152,155.402328 172.232376,155.030746 172.047714,154.326126 
z"/>
<path fill="#08803C" opacity="1.000000" stroke="none" 
	d="
M154.163895,127.694878 
	C150.184143,127.736282 146.480835,128.282135 142.794952,129.196487 
	C140.018082,129.885345 138.406265,131.266708 139.042908,134.786072 
	C138.462357,135.084824 137.861008,134.956039 137.051117,134.598663 
	C132.706131,128.328644 136.698395,125.839561 143.932983,123.530128 
	C145.378738,123.068619 146.875656,123.574768 148.743439,123.736237 
	C149.137115,123.909172 149.043060,123.933784 149.040558,123.885239 
	C149.633972,124.806519 150.667236,124.383827 151.793152,124.779602 
	C152.089264,124.950249 152.020950,124.978096 152.019226,124.941254 
	C152.273895,125.256966 152.563538,125.579704 153.142426,125.670532 
	C153.398499,125.468376 153.412689,125.551430 153.449371,125.530716 
	C153.222031,125.983620 153.285141,126.392174 154.090256,126.672516 
	C154.452774,126.619766 154.304749,126.920715 154.400146,126.782806 
	C154.444351,126.886574 154.393173,127.128250 154.163895,127.694878 
z"/>
<path fill="#166639" opacity="1.000000" stroke="none" 
	d="
M148.950378,123.577972 
	C144.780182,123.644409 141.316833,126.129593 137.647461,127.822334 
	C134.795746,129.137878 137.810394,131.700867 136.882965,133.962173 
	C134.081573,133.630829 132.817627,131.738953 132.798950,128.974670 
	C132.778839,125.994835 134.866837,124.606667 137.238998,123.748352 
	C140.990250,122.391022 144.857773,121.914276 148.950378,123.577972 
z"/>
<path fill="#136C3A" opacity="1.000000" stroke="none" 
	d="
M156.268433,155.906326 
	C152.822311,157.513550 150.040726,155.684814 147.139069,153.345856 
	C150.441422,152.357330 153.267227,153.948975 156.268433,155.906326 
z"/>
<path fill="#136C3A" opacity="1.000000" stroke="none" 
	d="
M146.040497,152.610474 
	C143.852234,152.614197 141.202438,154.068695 139.057617,151.414276 
	C141.430923,150.488831 143.575714,151.801575 146.040497,152.610474 
z"/>
<path fill="#166639" opacity="1.000000" stroke="none" 
	d="
M151.926178,124.638550 
	C151.195984,124.776787 150.302719,124.603325 149.223740,124.133270 
	C149.946381,124.000069 150.854736,124.163452 151.926178,124.638550 
z"/>
<path fill="#136C3A" opacity="1.000000" stroke="none" 
	d="
M136.353867,151.012787 
	C136.007294,150.749100 136.030151,150.480759 136.093933,149.809784 
	C136.732941,149.708023 137.331055,150.008865 138.064270,150.625214 
	C137.707336,150.963181 137.215317,150.985641 136.353867,151.012787 
z"/>
<path fill="#166639" opacity="1.000000" stroke="none" 
	d="
M154.367981,126.376480 
	C154.112900,126.455360 153.773026,126.290962 153.459595,125.818283 
	C153.751770,125.717743 154.017471,125.925476 154.367981,126.376480 
z"/>
<path fill="#166639" opacity="1.000000" stroke="none" 
	d="
M153.214844,125.286667 
	C153.042694,125.437416 152.686874,125.406448 152.174286,125.139946 
	C152.355392,124.971260 152.693298,125.038109 153.214844,125.286667 
z"/>
<path fill="#166639" opacity="1.000000" stroke="none" 
	d="
M154.319519,128.032547 
	C154.051300,127.783936 154.116791,127.548042 154.338913,126.978523 
	C154.730209,126.935394 154.964859,127.225899 155.259979,127.796181 
	C155.098053,128.065720 154.875641,128.055496 154.319519,128.032547 
z"/>
</svg>