<svg version="1.1" id="Layer_1" xmlns="http://www.w3.org/2000/svg" xmlns:xlink="http://www.w3.org/1999/xlink" x="0px" y="0px"
	 width="100%" viewBox="0 0 465 126" enable-background="new 0 0 465 126" xml:space="preserve">
<path fill="#FEFEFE" opacity="1.000000" stroke="none" 
	d="
M332.000000,127.000000 
	C221.379929,127.000000 111.259857,127.000000 1.069893,127.000000 
	C1.069893,85.064461 1.069893,43.128769 1.069893,1.096539 
	C155.999969,1.096539 310.999969,1.096539 465.971619,1.096539 
	C465.971619,43.073364 465.971619,85.036697 465.971619,127.000000 
	C421.462189,127.000000 376.981079,127.000000 332.000000,127.000000 
M355.792389,75.734360 
	C355.856079,76.487885 355.919769,77.241402 355.753418,78.730164 
	C355.753418,81.668556 355.753418,84.606941 355.753418,87.560631 
	C359.824677,87.560631 363.278870,87.560631 366.934998,87.560631 
	C366.934998,83.248116 366.934998,79.139137 367.161530,74.290642 
	C367.089813,73.527649 367.018066,72.764656 367.177856,71.117035 
	C367.101471,68.077011 367.025085,65.036987 367.158508,61.253036 
	C367.085602,60.491325 367.012665,59.729614 367.188110,58.221138 
	C367.188110,54.472942 367.188110,50.724747 367.188110,46.095646 
	C362.982635,46.812054 359.494385,47.406284 355.790649,48.855064 
	C355.856598,50.902462 355.922546,52.949856 355.759003,55.358181 
	C355.831482,55.907913 355.903992,56.457642 355.770111,57.822422 
	C355.841492,59.215485 355.912872,60.608551 355.768524,62.880852 
	C355.843018,65.587059 355.917511,68.293274 355.794708,71.786087 
	C355.863342,72.857605 355.931946,73.929123 355.792389,75.734360 
M193.177002,76.005005 
	C191.818741,75.987762 190.460495,75.970520 188.989639,75.169495 
	C188.870468,74.124466 188.751297,73.079430 188.842651,71.139816 
	C188.774841,68.082382 188.707016,65.024940 188.822723,61.174252 
	C188.741226,60.101788 188.659744,59.029320 188.759186,57.171288 
	C188.686615,56.107655 188.614044,55.044025 188.763351,53.115620 
	C188.763351,51.174232 188.763351,49.232849 188.763351,47.091248 
	C184.705032,47.091248 181.154312,47.091248 177.391830,47.091248 
	C177.391830,50.662743 177.391830,53.939732 177.205032,58.018745 
	C177.259125,59.386189 177.313217,60.753628 177.148331,62.838799 
	C177.221603,65.851875 177.294891,68.864960 177.214752,72.725761 
	C177.273544,74.434319 177.332336,76.142876 177.208130,78.782875 
	C177.208130,81.663986 177.208130,84.545090 177.208130,87.496162 
	C184.239853,87.496162 190.465302,87.496162 196.952530,87.496162 
	C196.952530,83.844543 196.952530,80.426659 196.834274,76.279907 
	C195.881561,76.242218 194.928864,76.204521 193.177002,76.005005 
M263.381470,76.958549 
	C255.731812,72.508545 254.652985,66.751984 260.717896,58.741745 
	C265.080902,55.703003 269.134338,56.985233 273.173309,59.529133 
	C274.363342,60.278645 275.769165,60.685532 277.628937,61.018913 
	C278.109344,60.399292 278.589752,59.779675 279.794708,59.083424 
	C281.646729,57.908539 283.498718,56.733658 285.391144,55.533138 
	C276.963043,45.559258 264.615021,42.734592 255.616272,48.312569 
	C246.842468,53.751122 243.064423,64.387764 246.354004,74.389236 
	C249.636902,84.370384 259.109558,90.277336 270.187500,89.083427 
	C276.481659,88.405083 280.206818,86.767693 278.677124,78.196121 
	C280.303223,77.461441 281.929321,76.726761 283.772949,75.893791 
	C283.772949,73.527580 283.637604,71.049561 283.807770,68.592705 
	C284.013397,65.623291 282.827179,64.633484 279.279572,65.226311 
	C278.521698,65.291924 277.763794,65.357536 276.198914,65.219238 
	C274.817780,65.274017 273.436615,65.328789 271.210876,65.168762 
	C263.817841,64.656563 267.785553,70.039352 266.979309,73.821548 
	C266.895325,75.166138 266.811340,76.510719 266.174133,77.756195 
	C265.452026,77.604729 264.729950,77.453262 263.381470,76.958549 
M332.376617,46.948322 
	C332.249146,47.293743 332.121643,47.639164 331.769745,48.853062 
	C331.846008,51.235447 331.922241,53.617836 331.755859,56.724949 
	C331.824829,57.479393 331.893829,58.233833 331.691803,59.750454 
	C331.780090,66.167831 331.868378,72.585213 331.759155,79.907288 
	C331.759155,82.491302 331.759155,85.075317 331.759155,88.001770 
	C337.602020,88.001770 342.884125,88.225365 348.121307,87.839653 
	C349.381470,87.746841 351.230011,85.786568 351.514618,84.416428 
	C352.058441,81.798729 351.672546,78.987907 351.672546,76.142006 
	C348.581573,76.142006 346.281494,76.142006 343.571075,75.607956 
	C343.372314,74.740204 343.173584,73.872452 343.161713,72.098251 
	C343.101196,68.398064 343.040680,64.697876 343.171997,60.210270 
	C343.108917,59.138382 343.045837,58.066498 343.163544,56.254684 
	C343.096863,55.502243 343.030182,54.749802 343.155548,53.155308 
	C343.088287,51.435936 343.021027,49.716568 343.020660,47.394314 
	C342.681732,47.276684 342.342773,47.159054 341.122223,46.830547 
	C338.410431,46.898399 335.698639,46.966251 332.376617,46.948322 
M312.200104,81.691818 
	C315.614990,88.488777 317.715118,89.249168 327.485779,86.988060 
	C325.436737,83.209091 323.435944,79.519104 321.312714,75.179489 
	C320.629211,74.082207 319.945709,72.984924 319.130890,71.168205 
	C318.205109,69.529892 317.279327,67.891579 316.244873,65.591705 
	C314.544586,62.376366 312.844269,59.161030 310.931641,55.252090 
	C309.198700,51.775047 307.465759,48.298000 305.178894,43.709534 
	C302.839325,48.801285 300.951263,52.910381 298.597870,57.519512 
	C297.097809,60.681404 295.597717,63.843300 293.637604,67.484505 
	C293.057587,68.899048 292.477570,70.313591 291.339142,72.151604 
	C288.866882,77.130432 286.394623,82.109261 283.855011,87.223701 
	C295.758698,88.958855 295.953796,88.878967 300.002014,81.182045 
	C303.001251,81.093269 306.000458,81.004494 309.696625,81.087830 
	C310.413635,81.079575 311.130646,81.071320 312.200104,81.691818 
M120.805847,74.674965 
	C122.798637,71.113541 124.791420,67.552116 127.232582,63.495174 
	C127.791832,62.329632 128.351089,61.164093 129.127701,59.358173 
	C129.639496,58.673264 130.151276,57.988350 131.094635,56.864700 
	C131.739563,55.597546 132.384491,54.330395 133.577805,52.646622 
	C134.762527,50.445660 135.947266,48.244701 137.696518,45.681393 
	C140.557449,40.725082 143.418396,35.768776 146.738052,30.017786 
	C136.330994,30.017786 126.819061,30.939352 117.570145,29.773787 
	C107.093208,28.453459 101.577263,32.740314 98.081413,42.391376 
	C94.097282,49.303165 90.058479,56.184574 86.183609,63.157089 
	C85.548424,64.300049 84.968567,66.217682 85.489075,67.145859 
	C91.888847,78.557831 98.498306,89.852211 105.351227,101.691185 
	C108.099884,96.692924 110.490692,92.345398 113.340446,87.561600 
	C114.027260,86.277641 114.714081,84.993690 115.891083,83.292221 
	C116.316132,82.318260 116.741180,81.344292 117.720139,79.936981 
	C118.576393,78.319580 119.432655,76.702179 120.805847,74.674965 
M139.376480,51.221230 
	C139.600708,51.913612 139.623444,52.802826 140.079025,53.269218 
	C148.634827,62.028133 149.389755,69.707352 142.070740,80.625504 
	C139.046555,82.420410 136.022385,84.215317 132.106323,85.937569 
	C129.038895,85.694580 125.967873,85.247009 122.905670,85.300934 
	C121.519791,85.325348 120.151443,86.346153 118.188835,87.244423 
	C115.388161,92.230133 112.587479,97.215843 109.261726,103.136284 
	C123.143990,103.136284 136.013016,103.183846 148.880005,103.043831 
	C149.883362,103.032913 151.208191,101.918884 151.806732,100.958160 
	C153.795822,97.765388 155.521423,94.408470 157.887863,90.730850 
	C159.310059,88.284889 160.740677,85.843781 162.152695,83.391953 
	C165.140106,78.204628 170.465225,73.005768 170.452118,67.822701 
	C170.438507,62.430084 165.314880,57.022804 162.335373,51.672226 
	C158.647766,45.050022 154.867203,38.479584 150.754669,31.230871 
	C147.805344,36.662945 145.289337,41.296917 142.251511,46.305878 
	C141.463608,47.800804 140.675705,49.295727 139.376480,51.221230 
M218.939728,45.686153 
	C208.858078,46.812511 201.886932,52.911396 199.352341,62.822742 
	C197.332886,70.719566 201.015976,80.326813 207.954880,85.262352 
	C215.353058,90.524551 225.190628,90.644814 232.762772,85.565613 
	C240.346725,80.478493 243.940048,70.722260 241.483704,61.887341 
	C238.648849,51.691006 231.229004,46.131054 218.939728,45.686153 
z"/>
<path fill="#203555" opacity="1.000000" stroke="none" 
	d="
M219.345184,45.644089 
	C231.229004,46.131054 238.648849,51.691006 241.483704,61.887341 
	C243.940048,70.722260 240.346725,80.478493 232.762772,85.565613 
	C225.190628,90.644814 215.353058,90.524551 207.954880,85.262352 
	C201.015976,80.326813 197.332886,70.719566 199.352341,62.822742 
	C201.886932,52.911396 208.858078,46.812511 219.345184,45.644089 
M210.010880,56.492867 
	C203.426285,63.399548 203.309692,71.690056 209.705688,78.192307 
	C215.608719,84.193436 224.378540,84.619720 230.298904,79.193291 
	C236.865753,73.174339 237.895950,64.420883 232.759369,58.286770 
	C226.328308,50.606800 218.283844,49.768654 210.010880,56.492867 
z"/>
<path fill="#304565" opacity="1.000000" stroke="none" 
	d="
M112.881500,87.997871 
	C110.490692,92.345398 108.099884,96.692924 105.351227,101.691185 
	C98.498306,89.852211 91.888847,78.557831 85.489075,67.145859 
	C84.968567,66.217682 85.548424,64.300049 86.183609,63.157089 
	C90.058479,56.184574 94.097282,49.303165 98.766418,42.196289 
	C100.894547,41.700886 102.450500,41.651257 103.762970,41.060612 
	C114.261620,36.335915 123.995064,37.385147 133.106201,44.517612 
	C134.185165,45.362244 135.777588,45.550968 137.131989,46.043739 
	C135.947266,48.244701 134.762527,50.445660 133.159027,52.547333 
	C126.145798,43.486980 115.251900,42.359303 107.891266,45.557281 
	C99.064720,49.392155 93.280258,57.923229 94.055695,67.035561 
	C95.042343,78.629944 102.204384,84.961334 112.881500,87.997871 
z"/>
<path fill="#304565" opacity="1.000000" stroke="none" 
	d="
M142.773331,45.930885 
	C145.289337,41.296917 147.805344,36.662945 150.754669,31.230871 
	C154.867203,38.479584 158.647766,45.050022 162.335373,51.672226 
	C165.314880,57.022804 170.438507,62.430084 170.452118,67.822701 
	C170.465225,73.005768 165.140106,78.204628 162.152695,83.391953 
	C160.740677,85.843781 159.310059,88.284889 157.210724,90.895050 
	C155.580063,91.268715 154.549713,91.312263 153.684662,91.712791 
	C142.508926,96.887215 132.041977,96.492241 122.422836,88.070786 
	C121.543571,87.300995 120.006660,87.282364 118.775139,86.914925 
	C120.151443,86.346153 121.519791,85.325348 122.905670,85.300934 
	C125.967873,85.247009 129.038895,85.694580 132.621185,86.348701 
	C134.187866,87.476753 135.150024,88.585297 136.305389,88.849777 
	C147.396286,91.388618 160.175995,82.633423 161.928085,71.416374 
	C163.916565,58.685833 155.043320,46.879929 142.773331,45.930885 
z"/>
<path fill="#213655" opacity="1.000000" stroke="none" 
	d="
M278.374420,79.011673 
	C280.206818,86.767693 276.481659,88.405083 270.187500,89.083427 
	C259.109558,90.277336 249.636902,84.370384 246.354004,74.389236 
	C243.064423,64.387764 246.842468,53.751122 255.616272,48.312569 
	C264.615021,42.734592 276.963043,45.559258 285.391144,55.533138 
	C283.498718,56.733658 281.646729,57.908539 279.288177,58.805965 
	C272.608765,49.971672 262.986786,48.545906 255.031784,54.938477 
	C249.688461,59.232330 247.577530,67.736000 250.631439,74.205681 
	C253.974915,81.288826 261.505432,85.235275 268.557465,83.187241 
	C271.948029,82.202568 275.109314,80.428337 278.374420,79.011673 
z"/>
<path fill="#2E405C" opacity="1.000000" stroke="none" 
	d="
M137.414246,45.862564 
	C135.777588,45.550968 134.185165,45.362244 133.106201,44.517612 
	C123.995064,37.385147 114.261620,36.335915 103.762970,41.060612 
	C102.450500,41.651257 100.894547,41.700886 99.017578,41.998123 
	C101.577263,32.740314 107.093208,28.453459 117.570145,29.773787 
	C126.819061,30.939352 136.330994,30.017786 146.738052,30.017786 
	C143.418396,35.768776 140.557449,40.725082 137.414246,45.862564 
z"/>
<path fill="#2B3E5A" opacity="1.000000" stroke="none" 
	d="
M118.481987,87.079674 
	C120.006660,87.282364 121.543571,87.300995 122.422836,88.070786 
	C132.041977,96.492241 142.508926,96.887215 153.684662,91.712791 
	C154.549713,91.312263 155.580063,91.268715 156.940826,91.086868 
	C155.521423,94.408470 153.795822,97.765388 151.806732,100.958160 
	C151.208191,101.918884 149.883362,103.032913 148.880005,103.043831 
	C136.013016,103.183846 123.143990,103.136284 109.261726,103.136284 
	C112.587479,97.215843 115.388161,92.230133 118.481987,87.079674 
z"/>
<path fill="#2D466E" opacity="1.000000" stroke="none" 
	d="
M113.110977,87.779739 
	C102.204384,84.961334 95.042343,78.629944 94.055695,67.035561 
	C93.280258,57.923229 99.064720,49.392155 107.891266,45.557281 
	C115.251900,42.359303 126.145798,43.486980 132.884827,52.755642 
	C132.384491,54.330395 131.739563,55.597546 130.520874,56.931213 
	C129.055847,56.256042 128.120865,55.560547 127.280464,54.765121 
	C122.108849,49.870308 115.007126,48.458996 108.934868,51.151314 
	C102.998779,53.783253 99.780823,59.295250 100.001015,66.453987 
	C100.216240,73.451111 104.227440,78.622498 111.267036,81.250664 
	C112.745003,81.802452 114.028038,82.876396 115.400894,83.709732 
	C114.714081,84.993690 114.027260,86.277641 113.110977,87.779739 
z"/>
<path fill="#2E476E" opacity="1.000000" stroke="none" 
	d="
M142.512421,46.118382 
	C155.043320,46.879929 163.916565,58.685833 161.928085,71.416374 
	C160.175995,82.633423 147.396286,91.388618 136.305389,88.849777 
	C135.150024,88.585297 134.187866,87.476753 133.067139,86.385025 
	C136.022385,84.215317 139.046555,82.420410 142.530975,80.779617 
	C144.321320,80.955269 145.985580,81.504852 146.925598,80.909988 
	C151.869370,77.781456 155.557678,73.518768 155.793060,67.392746 
	C156.015808,61.595325 151.479492,55.723183 145.658401,53.356865 
	C143.709244,52.564518 141.809921,51.649563 139.887817,50.790649 
	C140.675705,49.295727 141.463608,47.800804 142.512421,46.118382 
z"/>
<path fill="#224172" opacity="1.000000" stroke="none" 
	d="
M294.097656,67.005203 
	C295.597717,63.843300 297.097809,60.681404 299.245392,57.252960 
	C303.643280,56.639507 307.393616,56.292603 311.143982,55.945698 
	C312.844269,59.161030 314.544586,62.376366 316.129364,66.300247 
	C315.784424,67.449104 315.488251,67.867584 315.335876,68.333122 
	C313.882507,72.773422 310.533569,75.526817 306.199341,75.500771 
	C302.067352,75.475937 298.226105,73.548004 296.724121,68.842430 
	C296.465759,68.033035 295.003693,67.607864 294.097656,67.005203 
M309.925903,66.428993 
	C309.178223,63.115463 307.979370,60.038506 303.792603,62.015610 
	C302.543579,62.605446 301.268463,65.005806 301.478516,66.345657 
	C301.738739,68.005600 303.832031,70.834076 304.603058,70.669708 
	C306.491486,70.267136 308.075165,68.435143 309.925903,66.428993 
z"/>
<path fill="#1C3459" opacity="1.000000" stroke="none" 
	d="
M278.525757,78.603897 
	C275.109314,80.428337 271.948029,82.202568 268.557465,83.187241 
	C261.505432,85.235275 253.974915,81.288826 250.631439,74.205681 
	C247.577530,67.736000 249.688461,59.232330 255.031784,54.938477 
	C262.986786,48.545906 272.608765,49.971672 278.925903,58.844280 
	C278.589752,59.779675 278.109344,60.399292 277.306519,60.769905 
	C272.707886,53.438728 266.787659,51.386066 259.879059,54.590221 
	C253.442413,57.575500 250.474945,65.087624 253.006287,72.353951 
	C253.674850,73.470451 254.338943,74.233002 255.133514,75.276413 
	C256.177612,76.370445 257.091248,77.183609 258.061951,78.354012 
	C261.221405,79.583702 264.416840,81.432098 267.408783,81.146736 
	C276.606049,80.269501 278.901093,73.169914 280.018433,65.430992 
	C282.827179,64.633484 284.013397,65.623291 283.807770,68.592705 
	C283.637604,71.049561 283.772949,73.527580 283.772949,75.893791 
	C281.929321,76.726761 280.303223,77.461441 278.525757,78.603897 
z"/>
<path fill="#2E4A76" opacity="1.000000" stroke="none" 
	d="
M115.645988,83.500977 
	C114.028038,82.876396 112.745003,81.802452 111.267036,81.250664 
	C104.227440,78.622498 100.216240,73.451111 100.001015,66.453987 
	C99.780823,59.295250 102.998779,53.783253 108.934868,51.151314 
	C115.007126,48.458996 122.108849,49.870308 127.280464,54.765121 
	C128.120865,55.560547 129.055847,56.256042 130.305084,57.150581 
	C130.151276,57.988350 129.639496,58.673264 128.660736,59.671089 
	C126.970734,59.001507 125.881165,57.726326 124.497757,57.095516 
	C121.309776,55.641842 117.925049,53.336216 114.717896,53.484867 
	C108.712936,53.763199 103.313225,60.074879 103.142021,65.353607 
	C102.958473,71.012886 106.962219,75.879280 113.248695,77.954201 
	C114.665962,78.421982 115.866127,79.547562 117.166229,80.370331 
	C116.741180,81.344292 116.316132,82.318260 115.645988,83.500977 
z"/>
<path fill="#324E7B" opacity="1.000000" stroke="none" 
	d="
M139.632141,51.005943 
	C141.809921,51.649563 143.709244,52.564518 145.658401,53.356865 
	C151.479492,55.723183 156.015808,61.595325 155.793060,67.392746 
	C155.557678,73.518768 151.869370,77.781456 146.925598,80.909988 
	C145.985580,81.504852 144.321320,80.955269 142.822845,80.575798 
	C149.389755,69.707352 148.634827,62.028133 140.079025,53.269218 
	C139.623444,52.802826 139.600708,51.913612 139.632141,51.005943 
z"/>
<path fill="#1A2F4E" opacity="1.000000" stroke="none" 
	d="
M343.981384,76.142006 
	C346.281494,76.142006 348.581573,76.142006 351.672546,76.142006 
	C351.672546,78.987907 352.058441,81.798729 351.514618,84.416428 
	C351.230011,85.786568 349.381470,87.746841 348.121307,87.839653 
	C342.884125,88.225365 337.602020,88.001770 331.759155,88.001770 
	C331.759155,85.075317 331.759155,82.491302 332.126068,79.252823 
	C333.229370,75.495926 334.925079,76.808189 336.920288,77.295135 
	C339.248566,77.863365 342.502747,81.501862 343.981384,76.142006 
z"/>
<path fill="#2F4D7B" opacity="1.000000" stroke="none" 
	d="
M117.443184,80.153656 
	C115.866127,79.547562 114.665962,78.421982 113.248695,77.954201 
	C106.962219,75.879280 102.958473,71.012886 103.142021,65.353607 
	C103.313225,60.074879 108.712936,53.763199 114.717896,53.484867 
	C117.925049,53.336216 121.309776,55.641842 124.497757,57.095516 
	C125.881165,57.726326 126.970734,59.001507 128.552063,59.991280 
	C128.351089,61.164093 127.791832,62.329632 126.676552,63.695183 
	C124.910973,62.597908 123.712585,61.289993 122.489799,60.005306 
	C118.622742,55.942455 112.972076,55.811325 109.303955,59.689247 
	C105.687126,63.512951 105.874969,69.730133 110.513481,72.688866 
	C113.191696,74.397202 116.993057,74.344734 120.288910,75.084778 
	C119.432655,76.702179 118.576393,78.319580 117.443184,80.153656 
z"/>
<path fill="#192D4C" opacity="1.000000" stroke="none" 
	d="
M196.952530,77.008766 
	C196.952530,80.426659 196.952530,83.844543 196.952530,87.496162 
	C190.465302,87.496162 184.239853,87.496162 177.208130,87.496162 
	C177.208130,84.545090 177.208130,81.663986 177.740067,78.365692 
	C179.802338,78.431152 181.303986,79.171547 182.868652,79.345711 
	C186.786606,79.781815 191.181763,82.094322 194.366638,77.036987 
	C195.474808,77.015953 196.213669,77.012360 196.952530,77.008766 
z"/>
<path fill="#315082" opacity="1.000000" stroke="none" 
	d="
M120.547379,74.879868 
	C116.993057,74.344734 113.191696,74.397202 110.513481,72.688866 
	C105.874969,69.730133 105.687126,63.512951 109.303955,59.689247 
	C112.972076,55.811325 118.622742,55.942455 122.489799,60.005306 
	C123.712585,61.289993 124.910973,62.597908 126.452362,63.942940 
	C124.791420,67.552116 122.798637,71.113541 120.547379,74.879868 
M113.389137,60.834480 
	C110.586067,62.660130 108.577202,65.270691 111.049446,68.150993 
	C112.461510,69.796120 115.800873,70.992012 117.817390,70.505203 
	C119.249466,70.159477 120.932060,66.547127 120.705963,64.601601 
	C120.324814,61.321892 117.582390,59.782528 113.389137,60.834480 
z"/>
<path fill="#27416A" opacity="1.000000" stroke="none" 
	d="
M343.776245,75.874985 
	C342.502747,81.501862 339.248566,77.863365 336.920288,77.295135 
	C334.925079,76.808189 333.229370,75.495926 332.224823,78.800476 
	C331.868378,72.585213 331.780090,66.167831 332.156219,59.510406 
	C334.079956,59.053337 335.559296,58.924213 336.993805,58.598122 
	C339.007538,58.140347 340.988037,57.536171 342.982727,56.994610 
	C343.045837,58.066498 343.108917,59.138382 342.703644,60.609871 
	C338.468842,61.886440 335.623535,63.884659 336.126678,68.087761 
	C336.568939,71.782356 339.313507,73.275887 342.974854,73.004700 
	C343.173584,73.872452 343.372314,74.740204 343.776245,75.874985 
z"/>
<path fill="#1E3963" opacity="1.000000" stroke="none" 
	d="
M293.867615,67.244858 
	C295.003693,67.607864 296.465759,68.033035 296.724121,68.842430 
	C298.226105,73.548004 302.067352,75.475937 306.199341,75.500771 
	C310.533569,75.526817 313.882507,72.773422 315.335876,68.333122 
	C315.488251,67.867584 315.784424,67.449104 316.183716,66.631027 
	C317.279327,67.891579 318.205109,69.529892 318.873688,71.670059 
	C315.410889,75.086510 312.205292,78.001114 308.999695,80.915726 
	C306.000458,81.004494 303.001251,81.093269 299.500427,80.859268 
	C296.631744,77.600380 294.264648,74.664261 291.897583,71.728134 
	C292.477570,70.313591 293.057587,68.899048 293.867615,67.244858 
z"/>
<path fill="#253957" opacity="1.000000" stroke="none" 
	d="
M291.618347,71.939873 
	C294.264648,74.664261 296.631744,77.600380 299.054382,80.898895 
	C295.953796,88.878967 295.758698,88.958855 283.855011,87.223701 
	C286.394623,82.109261 288.866882,77.130432 291.618347,71.939873 
z"/>
<path fill="#233653" opacity="1.000000" stroke="none" 
	d="
M366.934998,75.030159 
	C366.934998,79.139137 366.934998,83.248116 366.934998,87.560631 
	C363.278870,87.560631 359.824677,87.560631 355.753418,87.560631 
	C355.753418,84.606941 355.753418,81.668556 356.266541,78.412277 
	C360.099335,78.504654 363.988190,81.443344 366.095398,75.807022 
	C366.380890,75.325424 366.627167,75.137474 366.934998,75.030159 
z"/>
<path fill="#273A57" opacity="1.000000" stroke="none" 
	d="
M321.435150,75.829117 
	C323.435944,79.519104 325.436737,83.209091 327.485779,86.988060 
	C317.715118,89.249168 315.614990,88.488777 312.404846,81.356010 
	C315.551453,79.289841 318.493286,77.559479 321.435150,75.829117 
z"/>
<path fill="#334B71" opacity="1.000000" stroke="none" 
	d="
M188.632141,72.034401 
	C188.751297,73.079430 188.870468,74.124466 188.635803,75.587227 
	C184.644043,74.629318 181.006104,73.253677 177.368164,71.878036 
	C177.294891,68.864960 177.221603,65.851875 177.665375,62.435417 
	C181.647705,60.673645 185.112976,59.315250 188.578247,57.956856 
	C188.659744,59.029320 188.741226,60.101788 188.368866,61.580883 
	C184.213593,61.925117 182.230774,64.499008 182.335388,67.435059 
	C182.450119,70.655357 185.273407,72.191628 188.632141,72.034401 
z"/>
<path fill="#224275" opacity="1.000000" stroke="none" 
	d="
M355.992035,70.999481 
	C355.917511,68.293274 355.843018,65.587059 356.280029,62.433464 
	C360.177216,61.989704 363.562958,61.993336 366.948669,61.996967 
	C367.025085,65.036987 367.101471,68.077011 366.661285,71.562332 
	C362.760498,71.671585 359.376251,71.335533 355.992035,70.999481 
z"/>
<path fill="#213A62" opacity="1.000000" stroke="none" 
	d="
M253.001831,72.000000 
	C250.474945,65.087624 253.442413,57.575500 259.879059,54.590221 
	C266.787659,51.386066 272.707886,53.438728 277.030090,60.885162 
	C275.769165,60.685532 274.363342,60.278645 273.173309,59.529133 
	C269.134338,56.985233 265.080902,55.703003 259.988220,58.874439 
	C258.038086,59.948215 256.081573,60.677673 255.738480,61.871006 
	C254.798111,65.141617 254.536118,68.607277 253.754639,71.997192 
	C253.336411,71.999107 253.169113,71.999557 253.001831,72.000000 
z"/>
<path fill="#1A2F4E" opacity="1.000000" stroke="none" 
	d="
M177.391830,57.216721 
	C177.391830,53.939732 177.391830,50.662743 177.391830,47.091248 
	C181.154312,47.091248 184.705032,47.091248 188.763351,47.091248 
	C188.763351,49.232849 188.763351,51.174232 188.268555,53.550331 
	C184.313110,55.062267 180.852463,56.139492 177.391830,57.216721 
z"/>
<path fill="#192D4C" opacity="1.000000" stroke="none" 
	d="
M331.998474,56.000221 
	C331.922241,53.617836 331.846008,51.235447 332.104736,48.328659 
	C332.718628,47.616119 332.901001,47.359402 332.986847,47.034103 
	C335.698639,46.966251 338.410431,46.898399 341.663879,47.146187 
	C342.396362,47.722153 342.645752,47.900608 342.953766,47.997196 
	C343.021027,49.716568 343.088287,51.435936 342.649719,53.577225 
	C338.762115,54.666168 335.380310,55.333195 331.998474,56.000221 
z"/>
<path fill="#294168" opacity="1.000000" stroke="none" 
	d="
M311.037811,55.598896 
	C307.393616,56.292603 303.643280,56.639507 299.478088,57.002945 
	C300.951263,52.910381 302.839325,48.801285 305.178894,43.709534 
	C307.465759,48.298000 309.198700,51.775047 311.037811,55.598896 
z"/>
<path fill="#233F68" opacity="1.000000" stroke="none" 
	d="
M272.055481,65.383568 
	C273.436615,65.328789 274.817780,65.274017 276.603394,65.721146 
	C276.994293,67.535851 277.122864,68.868561 276.942078,70.157913 
	C276.244415,75.134094 271.037628,79.013481 266.727386,77.855309 
	C266.811340,76.510719 266.895325,75.166138 267.428223,73.408081 
	C272.658691,72.317955 271.863495,68.579796 272.055481,65.383568 
z"/>
<path fill="#203960" opacity="1.000000" stroke="none" 
	d="
M266.450745,77.805756 
	C271.037628,79.013481 276.244415,75.134094 276.942078,70.157913 
	C277.122864,68.868561 276.994293,67.535851 277.006897,65.823105 
	C277.763794,65.357536 278.521698,65.291924 279.648987,65.328651 
	C278.901093,73.169914 276.606049,80.269501 267.408783,81.146736 
	C264.416840,81.432098 261.221405,79.583702 258.430420,78.359100 
	C260.497131,77.771896 262.252502,77.536850 264.007843,77.301796 
	C264.729950,77.453262 265.452026,77.604729 266.450745,77.805756 
z"/>
<path fill="#233F68" opacity="1.000000" stroke="none" 
	d="
M263.694641,77.130173 
	C262.252502,77.536850 260.497131,77.771896 258.373352,78.001862 
	C257.091248,77.183609 256.177612,76.370445 255.131683,74.938766 
	C254.668091,73.545425 254.336838,72.770576 254.005585,71.995728 
	C254.536118,68.607277 254.798111,65.141617 255.738480,61.871006 
	C256.081573,60.677673 258.038086,59.948215 259.637756,59.006477 
	C254.652985,66.751984 255.731812,72.508545 263.694641,77.130173 
z"/>
<path fill="#224275" opacity="1.000000" stroke="none" 
	d="
M343.068298,72.551476 
	C339.313507,73.275887 336.568939,71.782356 336.126678,68.087761 
	C335.623535,63.884659 338.468842,61.886440 342.607727,61.003578 
	C343.040680,64.697876 343.101196,68.398064 343.068298,72.551476 
z"/>
<path fill="#1C3459" opacity="1.000000" stroke="none" 
	d="
M177.291458,72.301895 
	C181.006104,73.253677 184.644043,74.629318 188.692108,75.979126 
	C190.460495,75.970520 191.818741,75.987762 193.575439,76.307938 
	C193.973862,76.610878 193.997314,77.054436 193.997314,77.054436 
	C191.181763,82.094322 186.786606,79.781815 182.868652,79.345711 
	C181.303986,79.171547 179.802338,78.431152 177.831573,77.899979 
	C177.332336,76.142876 177.273544,74.434319 177.291458,72.301895 
z"/>
<path fill="#192E4D" opacity="1.000000" stroke="none" 
	d="
M355.988495,54.997253 
	C355.922546,52.949856 355.856598,50.902462 356.355255,48.428253 
	C358.084137,48.001587 359.248413,47.997803 360.412659,48.002533 
	C366.563019,48.027504 366.876862,48.459690 365.244598,54.384212 
	C362.105469,54.592117 359.046997,54.794682 355.988495,54.997253 
z"/>
<path fill="#233653" opacity="1.000000" stroke="none" 
	d="
M355.873749,55.177715 
	C359.046997,54.794682 362.105469,54.592117 365.244598,54.384212 
	C366.876862,48.459690 366.563019,48.027504 360.412659,48.002533 
	C359.248413,47.997803 358.084137,48.001587 356.463013,48.000977 
	C359.494385,47.406284 362.982635,46.812054 367.188110,46.095646 
	C367.188110,50.724747 367.188110,54.472942 366.787109,58.384304 
	C363.512909,54.001015 359.461426,57.418846 355.976471,57.007374 
	C355.903992,56.457642 355.831482,55.907913 355.873749,55.177715 
z"/>
<path fill="#3A5684" opacity="1.000000" stroke="none" 
	d="
M188.737396,71.587112 
	C185.273407,72.191628 182.450119,70.655357 182.335388,67.435059 
	C182.230774,64.499008 184.213593,61.925117 188.277115,61.977509 
	C188.707016,65.024940 188.774841,68.082382 188.737396,71.587112 
z"/>
<path fill="#203960" opacity="1.000000" stroke="none" 
	d="
M355.873291,57.414898 
	C359.461426,57.418846 363.512909,54.001015 366.662903,58.757683 
	C367.012665,59.729614 367.085602,60.491325 367.053589,61.625000 
	C363.562958,61.993336 360.177216,61.989704 356.387878,61.993843 
	C355.912872,60.608551 355.841492,59.215485 355.873291,57.414898 
z"/>
<path fill="#203960" opacity="1.000000" stroke="none" 
	d="
M321.373932,75.504303 
	C318.493286,77.559479 315.551453,79.289841 312.228638,81.041634 
	C311.130646,81.071320 310.413635,81.079575 309.348145,81.001778 
	C312.205292,78.001114 315.410889,75.086510 318.939362,72.029778 
	C319.945709,72.984924 320.629211,74.082207 321.373932,75.504303 
z"/>
<path fill="#1C3459" opacity="1.000000" stroke="none" 
	d="
M177.298431,57.617733 
	C180.852463,56.139492 184.313110,55.062267 188.157608,53.982719 
	C188.614044,55.044025 188.686615,56.107655 188.668716,57.564072 
	C185.112976,59.315250 181.647705,60.673645 177.774872,62.076553 
	C177.313217,60.753628 177.259125,59.386189 177.298431,57.617733 
z"/>
<path fill="#1E3963" opacity="1.000000" stroke="none" 
	d="
M355.893372,71.392776 
	C359.376251,71.335533 362.760498,71.671585 366.545532,72.004654 
	C367.018066,72.764656 367.089813,73.527649 367.048279,74.660400 
	C366.627167,75.137474 366.380890,75.325424 365.659302,75.799759 
	C362.081848,75.670555 359.041229,75.335602 356.000580,75.000641 
	C355.931946,73.929123 355.863342,72.857605 355.893372,71.392776 
z"/>
<path fill="#203555" opacity="1.000000" stroke="none" 
	d="
M331.877197,56.362583 
	C335.380310,55.333195 338.762115,54.666168 342.553711,53.998253 
	C343.030182,54.749802 343.096863,55.502243 343.073120,56.624649 
	C340.988037,57.536171 339.007538,58.140347 336.993805,58.598122 
	C335.559296,58.924213 334.079956,59.053337 332.291748,59.129318 
	C331.893829,58.233833 331.824829,57.479393 331.877197,56.362583 
z"/>
<path fill="#3C567E" opacity="1.000000" stroke="none" 
	d="
M271.633179,65.276169 
	C271.863495,68.579796 272.658691,72.317955 267.505676,73.009979 
	C267.785553,70.039352 263.817841,64.656563 271.633179,65.276169 
z"/>
<path fill="#1C3459" opacity="1.000000" stroke="none" 
	d="
M355.896484,75.367500 
	C359.041229,75.335602 362.081848,75.670555 365.558594,76.012772 
	C363.988190,81.443344 360.099335,78.504654 356.381561,78.044662 
	C355.919769,77.241402 355.856079,76.487885 355.896484,75.367500 
z"/>
<path fill="#334B71" opacity="1.000000" stroke="none" 
	d="
M194.366638,77.036987 
	C193.997314,77.054436 193.973862,76.610878 193.975006,76.388855 
	C194.928864,76.204521 195.881561,76.242218 196.893402,76.644333 
	C196.213669,77.012360 195.474808,77.015953 194.366638,77.036987 
z"/>
<path fill="#203555" opacity="1.000000" stroke="none" 
	d="
M342.987213,47.695755 
	C342.645752,47.900608 342.396362,47.722153 342.104675,47.251625 
	C342.342773,47.159054 342.681732,47.276684 342.987213,47.695755 
z"/>
<path fill="#27416A" opacity="1.000000" stroke="none" 
	d="
M332.681732,46.991215 
	C332.901001,47.359402 332.718628,47.616119 332.216949,47.894421 
	C332.121643,47.639164 332.249146,47.293743 332.681732,46.991215 
z"/>
<path fill="#213A62" opacity="1.000000" stroke="none" 
	d="
M210.272430,56.232010 
	C218.283844,49.768654 226.328308,50.606800 232.759369,58.286770 
	C237.895950,64.420883 236.865753,73.174339 230.298904,79.193291 
	C224.378540,84.619720 215.608719,84.193436 209.705688,78.192307 
	C203.309692,71.690056 203.426285,63.399548 210.272430,56.232010 
M226.254211,75.936028 
	C231.784897,70.704414 232.227463,64.488998 227.397263,59.882965 
	C223.030945,55.719276 216.804901,56.133003 212.900146,60.846344 
	C210.056213,64.279167 209.808197,69.874222 212.342484,73.426720 
	C215.283066,77.548775 219.942612,78.561539 226.254211,75.936028 
z"/>
<path fill="#315185" opacity="1.000000" stroke="none" 
	d="
M309.853699,66.803680 
	C308.075165,68.435143 306.491486,70.267136 304.603058,70.669708 
	C303.832031,70.834076 301.738739,68.005600 301.478516,66.345657 
	C301.268463,65.005806 302.543579,62.605446 303.792603,62.015610 
	C307.979370,60.038506 309.178223,63.115463 309.853699,66.803680 
z"/>
<path fill="#203960" opacity="1.000000" stroke="none" 
	d="
M253.754639,71.997192 
	C254.336838,72.770576 254.668091,73.545425 255.001205,74.657913 
	C254.338943,74.233002 253.674850,73.470451 253.006287,72.353951 
	C253.169113,71.999557 253.336411,71.999107 253.754639,71.997192 
z"/>
<path fill="#305287" opacity="1.000000" stroke="none" 
	d="
M113.725327,60.663597 
	C117.582390,59.782528 120.324814,61.321892 120.705963,64.601601 
	C120.932060,66.547127 119.249466,70.159477 117.817390,70.505203 
	C115.800873,70.992012 112.461510,69.796120 111.049446,68.150993 
	C108.577202,65.270691 110.586067,62.660130 113.725327,60.663597 
z"/>
<path fill="#F7F8FA" opacity="1.000000" stroke="none" 
	d="
M225.921082,76.120850 
	C219.942612,78.561539 215.283066,77.548775 212.342484,73.426720 
	C209.808197,69.874222 210.056213,64.279167 212.900146,60.846344 
	C216.804901,56.133003 223.030945,55.719276 227.397263,59.882965 
	C232.227463,64.488998 231.784897,70.704414 225.921082,76.120850 
z"/>
</svg>