<svg version="1.1" id="Layer_1" xmlns="http://www.w3.org/2000/svg" xmlns:xlink="http://www.w3.org/1999/xlink" x="0px" y="0px"
	 width="100%" viewBox="0 0 2020 737" enable-background="new 0 0 2020 737" xml:space="preserve">
<path fill="#FEFEFE" opacity="1.000000" stroke="none" 
	d="
M1314.000000,738.000000 
	C877.500000,738.000000 441.500000,737.994385 5.500021,738.092957 
	C1.750949,738.093811 0.905021,737.249207 0.906620,733.499939 
	C1.010114,490.833344 1.010114,248.166672 0.906620,5.500040 
	C0.905021,1.750818 1.751002,0.906745 5.500013,0.907284 
	C675.833313,1.003667 1346.166626,1.003667 2016.500000,0.907284 
	C2020.249023,0.906745 2021.094971,1.750817 2021.093384,5.500039 
	C2020.989868,248.166672 2020.989868,490.833344 2021.093384,733.499939 
	C2021.094971,737.249207 2020.249146,738.095093 2016.500000,738.093445 
	C1782.500000,737.989502 1548.500000,738.000000 1314.000000,738.000000 
z"/>
<path fill="#A71532" opacity="1.000000" stroke="none" 
	d="
M1634.676147,345.351135 
	C1653.177856,369.586273 1653.563721,405.832062 1635.556152,427.321014 
	C1623.699707,441.469666 1607.566284,447.712067 1589.980103,450.927429 
	C1581.279663,452.518158 1572.486328,453.100739 1563.633789,453.087677 
	C1529.642090,453.037537 1495.650024,453.013702 1461.658936,453.150238 
	C1457.914673,453.165283 1456.596924,452.466553 1456.604858,448.326935 
	C1456.746216,374.345154 1456.753296,300.362946 1456.597412,226.381241 
	C1456.588013,221.895905 1457.779663,220.937286 1462.113525,220.959900 
	C1497.770630,221.145905 1533.429077,221.015228 1569.087036,221.086121 
	C1582.839966,221.113480 1596.322021,222.850098 1608.906982,228.895081 
	C1627.292603,237.726440 1636.549072,252.744278 1638.015137,272.746613 
	C1639.853882,297.831970 1629.966797,316.360382 1606.864258,327.275391 
	C1606.449707,327.471252 1606.142090,327.893524 1605.387085,328.562317 
	C1616.801270,331.470703 1626.702148,336.436493 1634.676147,345.351135 
z"/>
<path fill="#A71532" opacity="1.000000" stroke="none" 
	d="
M1881.031250,426.000000 
	C1881.032104,434.166138 1880.848145,441.838806 1881.117676,449.495483 
	C1881.237915,452.912323 1880.054932,453.672272 1876.882690,453.622070 
	C1866.219482,453.453278 1855.547607,453.390839 1844.888062,453.650604 
	C1841.005981,453.745239 1840.175537,452.414825 1840.213135,448.775757 
	C1840.392212,431.445465 1840.177368,414.110962 1840.377686,396.781128 
	C1840.421997,392.949036 1839.525146,391.775665 1835.502441,391.797241 
	C1802.338989,391.975311 1769.173950,391.977234 1736.010498,391.808319 
	C1732.011841,391.787964 1731.032837,392.888428 1731.080200,396.784729 
	C1731.290894,414.114349 1731.080688,431.448822 1731.248291,448.779358 
	C1731.282471,452.317383 1730.636108,453.768860 1726.666382,453.658203 
	C1716.008911,453.361145 1705.337036,453.447113 1694.673706,453.590302 
	C1691.688965,453.630402 1690.635864,452.847382 1690.646606,449.691864 
	C1690.822266,398.364349 1690.334839,347.027039 1691.210938,295.712677 
	C1691.625366,271.437836 1700.975586,250.297531 1720.777832,234.900269 
	C1733.592285,224.936310 1748.434204,219.781052 1764.319336,217.559219 
	C1786.898560,214.401077 1809.192749,215.313492 1830.693359,223.725967 
	C1860.474121,235.378204 1875.763306,258.077606 1880.035034,289.062775 
	C1880.948486,295.688263 1881.041992,302.340271 1881.039185,309.008209 
	C1881.023071,347.838806 1881.031250,386.669403 1881.031250,426.000000 
z"/>
<path fill="#231A17" opacity="1.000000" stroke="none" 
	d="
M1276.224976,425.999878 
	C1276.170044,385.847534 1276.138794,346.195160 1276.039062,306.542938 
	C1276.020142,299.031128 1274.999878,291.628998 1273.131958,284.328979 
	C1268.841431,267.560852 1258.179932,257.223938 1241.484497,253.268372 
	C1229.183960,250.354034 1216.728516,250.173019 1204.328247,252.845306 
	C1183.737915,257.282593 1172.375610,269.430908 1169.022583,290.345367 
	C1167.248779,301.409210 1167.113281,312.559937 1167.114136,323.722443 
	C1167.117554,365.208160 1167.035522,406.694244 1167.230591,448.179047 
	C1167.251465,452.620911 1166.143433,453.791931 1161.769043,453.651947 
	C1151.283325,453.316467 1140.779297,453.450073 1130.284546,453.567474 
	C1127.561646,453.597961 1126.517090,452.944641 1126.528198,449.978851 
	C1126.719604,398.832245 1126.130371,347.672211 1127.121338,296.542419 
	C1127.936401,254.495056 1155.347290,224.633789 1196.894531,218.038300 
	C1219.919434,214.383148 1242.733032,214.869263 1264.847290,223.017288 
	C1295.779541,234.414413 1311.818115,257.484039 1316.062012,289.545990 
	C1317.005249,296.671936 1317.015625,303.826355 1317.013062,310.991150 
	C1316.996582,356.808685 1316.946289,402.626434 1317.100830,448.443451 
	C1317.114746,452.563416 1316.161133,453.773193 1311.943237,453.631622 
	C1301.791382,453.290894 1291.615845,453.342712 1281.459717,453.611908 
	C1277.463379,453.717834 1275.894531,452.824280 1276.117188,448.486603 
	C1276.492432,441.175110 1276.223145,433.830566 1276.224976,425.999878 
z"/>
<path fill="#221A17" opacity="1.000000" stroke="none" 
	d="
M751.575439,417.613831 
	C768.834656,425.010956 786.321655,425.189484 803.757019,420.686859 
	C822.067505,415.958160 832.582520,401.900818 835.045349,381.128723 
	C835.990112,373.160065 836.214417,365.185547 836.217468,357.189850 
	C836.233948,313.532593 836.281006,269.875122 836.130188,226.218353 
	C836.116089,222.145691 837.043152,220.828995 841.279541,220.954803 
	C851.934509,221.271225 862.608215,221.203064 873.267700,220.975281 
	C876.488892,220.906464 877.074341,221.942047 877.067871,224.907425 
	C876.960083,274.729706 877.347351,324.556549 876.786560,374.372955 
	C876.493347,400.416290 867.969910,423.435120 846.493774,439.985931 
	C832.946167,450.426514 817.189453,455.441803 800.422302,457.469086 
	C779.856201,459.955688 759.512634,459.044220 739.813904,452.037018 
	C709.849854,441.378265 693.195312,419.701385 687.994141,388.703308 
	C686.803223,381.605560 686.615173,374.443817 686.609009,367.283508 
	C686.568298,320.293671 686.662292,273.303436 686.471191,226.314331 
	C686.452698,221.765350 687.750793,220.812286 692.015503,220.959610 
	C701.668579,221.293106 711.352966,221.352966 721.000610,220.949936 
	C725.851379,220.747299 727.349487,221.750092 727.319092,227.013840 
	C727.063782,271.169525 727.114075,315.327515 727.218018,359.484436 
	C727.243896,370.469696 727.723328,381.456726 730.926697,392.115540 
	C734.290344,403.307587 740.632874,412.073273 751.575439,417.613831 
z"/>
<path fill="#261E1B" opacity="1.000000" stroke="none" 
	d="
M544.678650,474.696167 
	C505.831390,528.604553 454.268524,562.657043 389.256042,574.584412 
	C265.066864,597.368408 147.636475,522.809082 112.273651,405.342133 
	C73.529984,276.644806 146.348724,141.559143 274.793854,102.279404 
	C386.747314,68.042976 509.905487,119.734520 561.780579,224.897156 
	C604.078613,310.644989 597.289490,394.402100 544.678650,474.696167 
z"/>
<path fill="#221917" opacity="1.000000" stroke="none" 
	d="
M983.835083,404.999939 
	C983.835083,356.854431 983.773438,309.208710 983.938904,261.563782 
	C983.953979,257.229126 983.030884,255.992630 978.514404,256.050690 
	C957.194092,256.324890 935.867676,256.089661 914.545044,256.252686 
	C911.037292,256.279480 910.043640,255.334442 910.143311,251.829544 
	C910.394165,243.007492 910.322449,234.171280 910.154480,225.345047 
	C910.096985,222.327744 910.557312,220.974304 914.132996,220.981308 
	C974.272705,221.099152 1034.412720,221.086014 1094.552612,221.007980 
	C1097.395020,221.004288 1098.180908,221.791061 1098.126831,224.618439 
	C1097.951782,233.777008 1097.931396,242.944443 1098.149658,252.101364 
	C1098.226440,255.327087 1097.369141,256.272186 1094.058960,256.248566 
	C1072.569580,256.094940 1051.076538,256.333282 1029.589966,256.039673 
	C1024.942017,255.976151 1024.201538,257.427246 1024.210693,261.643311 
	C1024.344482,323.615479 1024.250366,385.588226 1024.411987,447.560272 
	C1024.423828,452.104797 1023.282593,453.351044 1018.752258,453.192047 
	C1008.436096,452.829987 998.095398,452.922882 987.771973,453.155670 
	C984.387390,453.231995 983.725403,452.129730 983.761597,448.979980 
	C983.928406,434.488281 983.835083,419.993591 983.835083,404.999939 
z"/>
<path fill="#231B18" opacity="1.000000" stroke="none" 
	d="
M1382.966919,407.850891 
	C1398.104370,405.649780 1411.513428,415.108459 1413.828979,429.272095 
	C1416.040894,442.802124 1406.935913,456.178284 1393.691650,458.855957 
	C1379.278198,461.770081 1365.862793,453.686798 1362.886475,440.294464 
	C1359.461060,424.882629 1367.390381,411.826843 1382.966919,407.850891 
z"/>
<path fill="#2C2521" opacity="1.000000" stroke="none" 
	d="
M1421.204590,633.326416 
	C1420.743652,642.273804 1416.176392,646.833435 1407.744141,646.970825 
	C1401.590332,647.071045 1395.432251,646.924255 1389.278931,647.040161 
	C1386.998047,647.083130 1386.065063,646.507568 1386.088135,643.991882 
	C1386.205688,631.183533 1386.209717,618.372803 1386.083496,605.564575 
	C1386.056519,602.837402 1387.082153,602.132263 1389.587769,602.201660 
	C1395.240112,602.358337 1400.901001,602.215942 1406.553101,602.379578 
	C1411.758545,602.530334 1416.739502,603.646667 1418.692017,609.258301 
	C1420.657471,614.907043 1419.022583,619.728943 1413.579346,623.337463 
	C1418.212524,625.228760 1421.040039,628.104065 1421.204590,633.326416 
z"/>
<path fill="#2E2724" opacity="1.000000" stroke="none" 
	d="
M1171.049072,631.441589 
	C1171.419800,628.371277 1169.634277,628.543152 1167.905518,628.558838 
	C1165.073364,628.584473 1162.239014,628.497009 1159.408569,628.572876 
	C1157.351562,628.627930 1156.948608,627.579651 1156.980835,625.778503 
	C1157.010498,624.128052 1157.517700,623.303589 1159.259644,623.316772 
	C1164.257812,623.354675 1169.257446,623.392578 1174.254517,623.309998 
	C1176.668335,623.270142 1176.863525,624.626831 1176.837158,626.523804 
	C1176.765381,631.687927 1176.966553,636.860535 1176.733643,642.015076 
	C1176.658813,643.671570 1178.297607,646.323242 1175.185425,646.952637 
	C1171.844604,647.628357 1172.536743,644.361145 1171.266235,642.335327 
	C1165.206543,647.573486 1158.326904,649.486511 1150.564209,647.054871 
	C1138.212524,643.185852 1132.384399,628.613220 1137.672607,614.826355 
	C1142.227295,602.951416 1155.133545,597.750305 1166.895508,603.147705 
	C1170.996826,605.029724 1173.939941,608.111328 1175.297974,612.521973 
	C1175.653809,613.678101 1177.011353,615.386597 1175.214111,615.860962 
	C1173.615112,616.283081 1171.404053,617.121277 1169.904663,614.878052 
	C1164.750488,607.167114 1160.133179,605.105164 1152.742310,607.038025 
	C1146.695435,608.619324 1142.447021,614.856934 1142.019287,622.874207 
	C1141.850342,626.038818 1141.929810,629.167236 1142.993774,632.241821 
	C1145.368286,639.104980 1150.724731,643.097229 1157.576294,642.934082 
	C1164.573608,642.767517 1168.769897,639.315491 1171.049072,631.441589 
z"/>
<path fill="#2C2521" opacity="1.000000" stroke="none" 
	d="
M1426.885498,573.129883 
	C1417.347534,573.220459 1410.582886,569.219360 1407.026367,560.908386 
	C1402.929199,551.334412 1403.916016,541.897156 1410.330200,533.586914 
	C1415.879150,526.397461 1423.855103,525.526062 1432.090942,527.158020 
	C1437.959106,528.320923 1442.388062,531.755554 1444.237915,537.776062 
	C1444.574951,538.873535 1446.079468,540.584717 1444.151367,541.083923 
	C1442.551514,541.498230 1440.374390,542.406250 1438.864746,540.083191 
	C1433.867065,532.392517 1428.860962,530.160522 1421.668335,532.187378 
	C1415.596069,533.898499 1411.443115,540.128784 1410.957764,548.078552 
	C1410.622925,553.562439 1411.371338,558.749329 1415.045166,563.079102 
	C1419.162109,567.931274 1424.557983,568.995300 1430.455688,567.510254 
	C1435.576294,566.220825 1438.668945,562.713379 1439.890747,557.572876 
	C1440.511108,554.963379 1439.979980,553.468872 1436.800171,553.753052 
	C1434.155396,553.989380 1431.465698,553.683228 1428.809204,553.841064 
	C1426.585938,553.973083 1425.938843,553.085754 1425.937500,550.958801 
	C1425.936157,548.679749 1427.235962,548.694580 1428.854980,548.711914 
	C1433.186768,548.758423 1437.529419,548.916138 1441.847900,548.675354 
	C1444.853027,548.507812 1445.996216,549.309998 1445.813965,552.506531 
	C1445.539551,557.322998 1445.902344,562.174622 1445.659424,566.994507 
	C1445.574707,568.676636 1447.196533,571.286499 1444.215210,572.020142 
	C1440.921631,572.830688 1441.411987,569.596680 1440.226196,567.581421 
	C1436.348389,570.511475 1432.381226,573.196960 1426.885498,573.129883 
z"/>
<path fill="#261E1B" opacity="1.000000" stroke="none" 
	d="
M1254.516479,639.851196 
	C1254.517578,641.662231 1254.434937,643.000427 1254.539307,644.323792 
	C1254.719360,646.606445 1253.581299,647.017090 1251.540283,647.060486 
	C1249.191162,647.110413 1248.835571,646.058777 1248.845215,644.065247 
	C1248.905396,631.582275 1248.837524,619.098694 1248.921997,606.616028 
	C1248.931885,605.161377 1247.836670,602.847229 1250.213379,602.418396 
	C1252.548950,601.996887 1254.960815,601.739258 1256.717285,604.556396 
	C1262.607544,614.004211 1268.765625,623.285278 1274.849609,632.611694 
	C1275.706421,633.925293 1276.271484,635.526855 1278.284180,636.611755 
	C1279.225952,630.531860 1278.585815,624.798584 1278.725830,619.107178 
	C1278.840576,614.449524 1278.843384,609.784363 1278.712769,605.127686 
	C1278.651978,602.960693 1279.369141,602.223206 1281.553467,602.218933 
	C1283.872070,602.214417 1284.268799,603.247070 1284.258301,605.270813 
	C1284.191406,618.252686 1284.231201,631.235168 1284.218628,644.217407 
	C1284.217407,645.458008 1284.707275,647.040833 1282.492554,646.979858 
	C1280.071655,646.913147 1277.787842,647.397034 1276.056763,644.586853 
	C1270.480347,635.533875 1264.576050,626.682739 1258.784058,617.762878 
	C1257.741455,616.157043 1256.632935,614.593994 1254.516846,613.254944 
	C1254.516846,621.960571 1254.516846,630.666138 1254.516479,639.851196 
z"/>
<path fill="#2F2825" opacity="1.000000" stroke="none" 
	d="
M1541.520020,635.743530 
	C1541.687622,625.701416 1541.758423,615.891541 1541.832886,606.081604 
	C1541.847656,604.142212 1541.292969,602.103210 1544.627563,602.159302 
	C1547.755615,602.211792 1547.591309,603.986145 1547.587524,606.077698 
	C1547.565308,618.225159 1547.624268,630.373169 1547.507935,642.519531 
	C1547.493408,644.037659 1548.860840,646.603455 1545.921021,646.914612 
	C1543.589966,647.161438 1541.153687,647.656189 1539.383179,644.809448 
	C1533.680054,635.639526 1527.695190,626.644836 1521.805176,617.591431 
	C1520.825073,616.084900 1519.776611,614.622803 1518.720581,613.083252 
	C1517.091553,614.074219 1517.826904,615.539490 1517.816772,616.691956 
	C1517.741943,625.344238 1517.808350,633.997681 1517.745972,642.650208 
	C1517.732056,644.593079 1518.655640,646.979370 1514.933594,647.107239 
	C1511.227417,647.234558 1511.967285,644.976990 1511.964355,642.950195 
	C1511.947266,630.802734 1511.918457,618.654907 1512.013550,606.508179 
	C1512.024780,605.080444 1510.879150,602.755310 1513.347900,602.373413 
	C1515.687866,602.011475 1518.110596,601.703491 1519.869019,604.497864 
	C1526.504761,615.043335 1533.379150,625.438599 1540.457764,636.068970 
	C1541.097900,636.459534 1541.316650,636.354797 1541.520020,635.743530 
z"/>
<path fill="#2D2522" opacity="1.000000" stroke="none" 
	d="
M1783.304688,552.733948 
	C1780.021240,547.698853 1776.952515,542.955811 1773.500977,537.621277 
	C1772.298828,540.792603 1772.875366,543.540771 1772.845947,546.181458 
	C1772.762573,553.676819 1772.734985,561.175049 1772.860107,568.669250 
	C1772.901611,571.156982 1772.299561,572.165894 1769.564087,572.204224 
	C1766.539673,572.246582 1766.965332,570.480530 1766.966797,568.657532 
	C1766.976318,556.663452 1766.903931,544.668579 1767.054321,532.676331 
	C1767.075317,531.007080 1765.570557,528.314148 1768.460449,527.681030 
	C1771.251587,527.069580 1773.669556,527.505249 1775.556030,530.609863 
	C1781.254517,539.988037 1787.397827,549.096130 1793.376831,558.303406 
	C1794.183716,559.546143 1795.043457,560.754333 1796.302124,562.598938 
	C1797.383545,558.152039 1796.806641,554.271179 1796.870361,550.457764 
	C1796.981567,543.796204 1796.958496,537.130798 1796.872192,530.468567 
	C1796.845947,528.436707 1797.276001,527.413574 1799.610718,527.511108 
	C1801.609375,527.594666 1802.711182,527.995422 1802.701172,530.282471 
	C1802.644287,543.274841 1802.680054,556.267578 1802.658325,569.260193 
	C1802.656128,570.545959 1802.864136,572.213867 1800.817749,572.056274 
	C1798.665649,571.890442 1796.316528,572.959656 1794.645996,570.180664 
	C1791.136597,564.342468 1787.250610,558.730713 1783.304688,552.733948 
z"/>
<path fill="#28211E" opacity="1.000000" stroke="none" 
	d="
M751.484497,548.466980 
	C754.563782,553.160095 757.425537,557.561890 760.287292,561.963684 
	C760.640747,561.888611 760.994202,561.813538 761.347656,561.738464 
	C761.347656,551.538208 761.396606,541.337524 761.311096,531.138000 
	C761.291260,528.771362 761.605774,527.365601 764.520874,527.545410 
	C766.445618,527.664062 767.131958,528.146423 767.122192,530.105286 
	C767.056824,543.269531 767.084717,556.434082 767.060852,569.598572 
	C767.058838,570.684326 767.426270,572.188477 765.557800,572.071655 
	C763.222290,571.925659 760.792664,572.832886 758.995911,569.934387 
	C753.388550,560.888977 747.460999,552.041748 741.640259,543.129028 
	C740.509827,541.398071 739.301086,539.718262 737.186768,538.331238 
	C737.186768,548.237549 737.225098,558.144165 737.149963,568.049866 
	C737.137024,569.752930 738.215271,572.083801 734.666199,572.188538 
	C731.110901,572.293518 731.577026,570.207397 731.579468,568.041016 
	C731.592834,556.042969 731.533203,544.044434 731.649414,532.047485 
	C731.664124,530.532288 730.294983,527.971863 733.279358,527.664490 
	C735.475586,527.438354 737.772583,527.038330 739.387024,529.706116 
	C743.175537,535.966431 747.286499,542.031555 751.484497,548.466980 
z"/>
<path fill="#2C2521" opacity="1.000000" stroke="none" 
	d="
M1608.742310,536.095520 
	C1608.746826,546.413330 1608.842773,556.246521 1608.680420,566.075439 
	C1608.647217,568.081604 1610.238403,571.115295 1607.074097,571.970154 
	C1604.080322,572.779114 1601.643066,571.962891 1599.668579,568.735840 
	C1593.332642,558.380249 1586.514160,548.319824 1579.567017,537.662476 
	C1578.269897,541.393005 1578.958008,544.803650 1578.907715,548.120178 
	C1578.803955,554.950867 1578.786255,561.785950 1578.921509,568.615540 
	C1578.969971,571.065186 1578.489014,572.178101 1575.692627,572.199097 
	C1572.836548,572.220459 1572.974121,570.728149 1572.980835,568.760742 
	C1573.023315,556.429443 1572.960205,544.097717 1573.055420,531.767029 
	C1573.066162,530.363342 1571.868530,528.012512 1574.422119,527.701477 
	C1576.735107,527.419800 1579.216064,526.840393 1580.998291,529.696045 
	C1586.900879,539.153870 1593.049927,548.458130 1599.123291,557.808899 
	C1600.063843,559.256836 1601.104492,560.639893 1602.940186,563.248535 
	C1602.940186,551.865784 1602.883667,541.949463 1602.992432,532.034912 
	C1603.011841,530.260010 1601.632935,527.604187 1605.571777,527.496948 
	C1609.574829,527.388000 1608.669312,529.925781 1608.735840,532.110107 
	C1608.771362,533.275513 1608.742310,534.442871 1608.742310,536.095520 
z"/>
<path fill="#29221F" opacity="1.000000" stroke="none" 
	d="
M1262.264648,544.001465 
	C1262.264648,539.170044 1262.397095,534.832092 1262.216187,530.507263 
	C1262.105835,527.868164 1263.390869,527.618286 1265.543945,527.530090 
	C1268.127930,527.424255 1268.075439,528.870605 1268.071167,530.672058 
	C1268.042236,543.002747 1268.112061,555.334106 1267.984375,567.663635 
	C1267.968994,569.144104 1269.432007,571.773743 1266.430054,572.014771 
	C1264.142700,572.198364 1261.724731,572.809143 1259.914429,569.904541 
	C1253.845703,560.167480 1247.435669,550.642822 1241.130127,541.054138 
	C1240.454468,540.026672 1240.195312,538.575439 1238.130615,538.135132 
	C1238.130615,548.221924 1238.169800,558.135742 1238.092651,568.048645 
	C1238.079468,569.730652 1239.256470,572.115417 1235.654175,572.184570 
	C1232.257446,572.249817 1232.439209,570.402954 1232.449097,568.087219 
	C1232.500366,556.090210 1232.422852,544.092285 1232.536499,532.096130 
	C1232.551025,530.563599 1231.253906,528.055298 1234.152344,527.662476 
	C1236.564697,527.335510 1238.820679,527.223572 1240.562256,530.026062 
	C1246.796143,540.057678 1253.362915,549.882324 1259.797729,559.789246 
	C1260.305542,560.571167 1260.612793,561.537170 1262.264893,561.847412 
	C1262.264893,555.981934 1262.264893,550.241150 1262.264648,544.001465 
z"/>
<path fill="#2A231F" opacity="1.000000" stroke="none" 
	d="
M1746.967285,642.017700 
	C1746.868896,640.083130 1746.894409,638.571106 1746.670044,637.097229 
	C1745.460449,629.153259 1744.104370,628.019531 1736.001465,627.990112 
	C1724.832275,627.949524 1724.831909,627.949524 1724.809326,639.359436 
	C1724.806030,641.024475 1724.692505,642.699890 1724.838623,644.352112 
	C1725.051025,646.755798 1723.738525,647.050537 1721.795532,647.034180 
	C1719.950195,647.018616 1718.673950,646.976379 1718.693359,644.474426 
	C1718.795776,631.320862 1718.783691,618.165771 1718.704102,605.011902 
	C1718.690430,602.758301 1719.571899,602.191345 1721.653442,602.227417 
	C1727.312866,602.325500 1732.976807,602.170410 1738.636230,602.269165 
	C1744.556030,602.372437 1750.028442,603.586853 1752.519531,609.882263 
	C1754.703003,615.400696 1752.808105,620.425964 1746.918579,625.479614 
	C1755.561157,630.419434 1750.032349,640.115356 1754.765869,646.730957 
	C1750.609619,647.023804 1746.674438,648.324402 1746.967285,642.017700 
z"/>
<path fill="#2D2522" opacity="1.000000" stroke="none" 
	d="
M1063.891357,527.551453 
	C1064.697632,527.551880 1065.029907,527.549683 1065.362305,527.552917 
	C1085.469849,527.746460 1094.629028,541.423706 1087.391968,560.427063 
	C1084.589478,567.786011 1078.931519,571.353394 1071.410522,571.928345 
	C1066.122070,572.332764 1060.779785,571.984497 1055.466797,572.143677 
	C1053.124634,572.213867 1052.290649,571.500854 1052.309570,569.048096 
	C1052.408691,556.253784 1052.394897,543.457825 1052.282349,530.663635 
	C1052.260986,528.228821 1053.110718,527.425476 1055.442993,527.539612 
	C1058.094971,527.669495 1060.758667,527.557983 1063.891357,527.551453 
z"/>
<path fill="#28211E" opacity="1.000000" stroke="none" 
	d="
M868.955322,559.987305 
	C868.954651,550.173523 869.050903,540.855225 868.895508,531.541016 
	C868.848328,528.711121 869.219849,527.318237 872.597046,527.492920 
	C878.736877,527.810425 884.909607,527.450928 891.056396,527.688904 
	C897.453247,527.936584 901.723755,530.975281 903.015991,535.682739 
	C904.629822,541.561584 902.699646,546.447632 896.991150,550.440063 
	C905.599182,555.460938 900.746094,564.932617 904.582886,571.678101 
	C897.389832,572.479614 897.395874,572.479309 897.090759,566.007446 
	C897.012512,564.347534 897.024719,562.666443 896.753113,561.035461 
	C895.691772,554.663452 893.906921,553.124084 887.506592,553.107727 
	C883.539246,553.097595 878.293762,551.744202 875.935181,553.734619 
	C873.140564,556.093079 875.633850,561.578308 874.879761,565.586792 
	C874.449890,567.872253 877.566406,572.106628 871.852905,572.132080 
	C869.846436,572.140991 868.770935,571.814636 868.912048,569.465698 
	C869.091431,566.481812 868.955627,563.479004 868.955322,559.987305 
z"/>
<path fill="#2C2521" opacity="1.000000" stroke="none" 
	d="
M1085.325684,639.024963 
	C1084.127808,628.869751 1083.193481,628.027649 1073.534180,627.997070 
	C1063.141724,627.964172 1063.142456,627.964172 1063.144775,638.187134 
	C1063.145264,640.016907 1063.058228,641.850647 1063.151123,643.675476 
	C1063.254395,645.708008 1063.168701,647.112488 1060.377808,647.099731 
	C1057.678223,647.087341 1057.056763,646.157593 1057.079224,643.618530 
	C1057.190918,630.977844 1057.170898,618.335327 1057.083862,605.694153 
	C1057.066650,603.203064 1057.711914,602.121338 1060.441772,602.207764 
	C1066.258179,602.391968 1072.087280,602.144592 1077.905884,602.289551 
	C1085.402588,602.476318 1089.526978,605.138123 1091.217163,610.552429 
	C1093.018555,616.322937 1091.182739,620.911316 1085.244263,625.459595 
	C1094.192627,630.112427 1088.736206,639.919800 1092.945312,646.301697 
	C1085.950562,647.838318 1085.950562,647.838318 1085.325684,639.024963 
z"/>
<path fill="#2B2420" opacity="1.000000" stroke="none" 
	d="
M1591.925049,640.865845 
	C1584.089722,648.585693 1573.704102,650.255249 1565.268677,645.412781 
	C1556.561768,640.414429 1552.416016,628.566406 1555.437378,617.316040 
	C1558.199951,607.029114 1566.402222,600.818298 1576.658813,601.246826 
	C1587.298950,601.691406 1595.413574,608.974243 1596.885010,619.779297 
	C1597.899658,627.230042 1597.019043,634.395569 1591.925049,640.865845 
z"/>
<path fill="#2A231F" opacity="1.000000" stroke="none" 
	d="
M1305.915405,571.150146 
	C1294.244507,575.470093 1283.861694,572.424622 1278.483154,563.360840 
	C1272.584106,553.419922 1274.370850,538.720825 1282.343872,531.601379 
	C1292.872803,522.199524 1310.198608,526.094177 1315.749268,539.110535 
	C1320.824707,551.012146 1316.816650,564.498230 1305.915405,571.150146 
z"/>
<path fill="#29221F" opacity="1.000000" stroke="none" 
	d="
M971.408936,527.566345 
	C977.186096,527.673584 982.523926,527.518738 987.814514,527.947266 
	C997.119934,528.700928 1002.566589,533.804138 1004.414124,543.013916 
	C1005.514893,548.501160 1005.147339,553.950439 1003.488220,559.258484 
	C1001.030029,567.122437 995.369568,571.276001 987.351379,571.909973 
	C981.895935,572.341431 976.382568,571.994080 970.898987,572.139832 
	C968.736023,572.197327 968.034973,571.447937 968.048767,569.278564 
	C968.131104,556.309265 968.135803,543.338867 968.052124,530.369629 
	C968.037781,528.148071 968.864014,527.347229 971.408936,527.566345 
z"/>
<path fill="#2D2522" opacity="1.000000" stroke="none" 
	d="
M1622.666260,647.962646 
	C1615.511353,648.244202 1609.224121,647.288879 1604.752075,641.542053 
	C1603.951904,640.513733 1603.221436,639.307800 1602.887695,638.068298 
	C1602.354980,636.090271 1600.317627,633.457214 1603.482056,632.255493 
	C1606.395996,631.148926 1607.549805,632.997192 1608.346069,635.987366 
	C1609.558716,640.540344 1613.674316,642.202820 1617.962158,642.742798 
	C1622.310425,643.290283 1626.771118,643.203247 1629.994507,639.559143 
	C1633.189697,635.947021 1631.946777,630.852234 1627.184448,629.014343 
	C1623.032227,627.411926 1618.576904,626.602478 1614.270508,625.389465 
	C1606.115112,623.092407 1602.756592,619.482300 1603.147095,613.509705 
	C1603.558594,607.216248 1608.098022,602.963013 1615.856567,601.601562 
	C1625.536987,599.903015 1633.455933,604.084717 1635.288086,611.911255 
	C1635.588989,613.196716 1636.942749,615.078369 1634.448364,615.453918 
	C1632.725952,615.713257 1630.334961,616.612732 1629.749268,613.466614 
	C1628.570923,607.137390 1620.915405,605.254883 1614.570068,607.078430 
	C1611.358398,608.001343 1609.422974,610.225464 1609.271362,613.552612 
	C1609.129639,616.662781 1611.197876,618.474304 1613.936646,619.286377 
	C1617.751343,620.417542 1621.661499,621.221985 1625.511719,622.238586 
	C1633.926270,624.460510 1637.740601,628.320007 1637.785034,634.570374 
	C1637.831177,641.058838 1633.777100,645.387939 1625.570801,647.566833 
	C1624.773560,647.778503 1623.930176,647.815918 1622.666260,647.962646 
z"/>
<path fill="#2C2521" opacity="1.000000" stroke="none" 
	d="
M1805.952881,646.285278 
	C1800.915649,644.163452 1798.208130,640.557556 1797.209106,635.696960 
	C1796.957520,634.472473 1795.986206,632.413330 1798.469482,632.208496 
	C1800.097412,632.074158 1801.909546,631.414978 1802.912231,634.048157 
	C1805.966919,642.069824 1814.555298,645.311829 1822.316895,641.673584 
	C1825.142578,640.349121 1826.710938,638.119690 1826.722168,634.991882 
	C1826.733154,631.971069 1825.059082,629.868958 1822.307373,628.997131 
	C1817.727783,627.546265 1813.026123,626.486084 1808.415894,625.125732 
	C1800.929077,622.916809 1797.825317,619.344360 1798.192261,613.584534 
	C1798.580078,607.498901 1802.859375,603.182373 1809.853027,601.822632 
	C1820.354370,599.780884 1828.303711,603.646301 1830.363892,611.843018 
	C1830.689209,613.137390 1831.977295,615.037842 1829.529785,615.395508 
	C1827.859497,615.639587 1825.906860,616.470093 1824.718018,613.525330 
	C1822.115112,607.077515 1815.056885,604.638367 1808.688721,607.402161 
	C1805.991821,608.572632 1804.441650,610.625793 1804.336426,613.547058 
	C1804.232300,616.435364 1805.923462,618.260620 1808.541382,619.049438 
	C1812.986328,620.388733 1817.514893,621.449768 1821.965088,622.772827 
	C1829.720093,625.078369 1833.061401,628.934387 1832.834106,635.090637 
	C1832.611450,641.119324 1828.694702,645.276001 1821.498169,647.229858 
	C1816.336548,648.631165 1811.290527,648.260620 1805.952881,646.285278 
z"/>
<path fill="#28211E" opacity="1.000000" stroke="none" 
	d="
M1011.690918,602.304443 
	C1030.970825,604.226196 1039.654541,623.100281 1029.034058,639.052002 
	C1025.393921,644.519226 1019.870667,646.571289 1013.656128,646.906250 
	C1008.844116,647.165649 1004.000366,646.819885 999.186035,647.055115 
	C996.420288,647.190247 995.904785,646.115601 995.926208,643.624512 
	C996.035095,630.978638 996.038025,618.330811 995.930298,605.684937 
	C995.908691,603.147705 996.543274,602.099365 999.251343,602.239685 
	C1003.234131,602.446106 1007.235352,602.297974 1011.690918,602.304443 
z"/>
<path fill="#2A231F" opacity="1.000000" stroke="none" 
	d="
M1720.224121,562.599243 
	C1717.500000,556.870300 1716.491943,551.258606 1717.559448,545.319641 
	C1719.692139,533.454529 1727.342896,526.546204 1738.460815,526.502686 
	C1749.576660,526.459167 1757.364990,533.309021 1759.607300,545.101013 
	C1763.084595,563.388550 1747.951782,577.729065 1731.197266,572.043640 
	C1726.390137,570.412415 1722.906616,567.265015 1720.224121,562.599243 
z"/>
<path fill="#2A231F" opacity="1.000000" stroke="none" 
	d="
M1240.324219,615.866211 
	C1241.736328,620.780945 1242.124146,625.315979 1241.206421,630.026367 
	C1239.075928,640.961487 1231.625366,647.743896 1221.135742,647.998169 
	C1210.063477,648.266602 1202.418457,642.216675 1199.746094,631.071350 
	C1195.353516,612.751892 1208.219849,598.210632 1225.581787,601.943359 
	C1233.077026,603.554810 1237.705566,608.400208 1240.324219,615.866211 
z"/>
<path fill="#2C2521" opacity="1.000000" stroke="none" 
	d="
M911.835327,544.957397 
	C908.668823,535.240662 912.797058,528.494812 922.481018,526.913330 
	C932.766968,525.233521 940.167114,528.776855 942.420898,536.540955 
	C942.837708,537.976807 944.187744,540.049561 941.766724,540.677185 
	C939.901794,541.160583 937.845886,541.487488 936.742249,538.332947 
	C934.514038,531.963806 925.262756,529.481018 919.585266,533.258057 
	C915.294189,536.112793 915.514771,541.971252 920.222473,544.041016 
	C923.228882,545.362915 926.558350,545.953247 929.747681,546.854919 
	C931.823425,547.441772 933.955444,547.865784 935.979065,548.593872 
	C942.207336,550.834778 944.938293,554.301941 944.969116,559.765320 
	C944.999939,565.211365 941.781372,569.713501 936.062256,571.753113 
	C930.394226,573.774475 924.570374,573.829468 918.912598,571.824768 
	C914.097473,570.118469 910.683289,566.812256 909.598083,561.594055 
	C909.296021,560.141785 907.860229,558.052429 910.408081,557.503113 
	C912.218018,557.112854 914.291016,556.477844 915.227356,559.901550 
	C917.412659,567.892761 929.939148,571.117371 936.349487,565.718384 
	C940.388855,562.316284 939.674561,556.618286 934.804321,554.275818 
	C931.026428,552.458618 926.832581,552.000671 922.811401,550.980652 
	C918.764465,549.954041 914.729309,548.875122 911.835327,544.957397 
z"/>
<path fill="#2A231F" opacity="1.000000" stroke="none" 
	d="
M1357.083374,551.762939 
	C1356.871826,546.592896 1357.677856,542.070374 1359.808350,537.817688 
	C1363.718140,530.013245 1370.250488,526.452759 1378.761963,526.539001 
	C1387.555054,526.628113 1394.014404,530.704651 1397.611328,538.815796 
	C1402.560425,549.975708 1399.233032,563.922363 1390.367798,569.799194 
	C1376.213867,579.181946 1360.279663,570.756348 1357.083374,551.762939 
z"/>
<path fill="#2E2724" opacity="1.000000" stroke="none" 
	d="
M1163.026855,567.029358 
	C1168.016846,567.027893 1172.508545,567.047241 1176.999756,567.015137 
	C1178.912842,567.001465 1180.624878,566.853699 1180.548218,569.722168 
	C1180.479248,572.309204 1178.954224,572.127991 1177.226807,572.123474 
	C1169.075562,572.102173 1160.921143,571.988892 1152.774536,572.185791 
	C1149.740845,572.259094 1149.246216,571.039490 1149.271973,568.382141 
	C1149.391113,556.073181 1149.428101,543.761230 1149.264526,531.453369 
	C1149.223755,528.389404 1150.096069,527.411865 1153.177612,527.486511 
	C1160.991577,527.675537 1168.813110,527.533081 1176.631714,527.550781 
	C1178.381958,527.554749 1180.300903,527.059692 1180.298462,530.081787 
	C1180.296143,532.909973 1178.728760,532.807129 1176.771484,532.787781 
	C1170.949829,532.730164 1165.120850,532.918457 1159.307373,532.690369 
	C1156.191406,532.568115 1155.417236,533.672974 1155.389038,536.667419 
	C1155.293823,546.789062 1155.175415,546.788269 1165.134033,546.786926 
	C1168.627441,546.786438 1172.121948,546.839111 1175.613647,546.760803 
	C1177.499634,546.718567 1178.822998,546.913330 1178.751953,549.358521 
	C1178.681519,551.776855 1177.307861,551.911987 1175.458618,551.891724 
	C1169.969727,551.831543 1164.475952,551.989502 1158.992065,551.812622 
	C1156.175415,551.721802 1155.059692,552.648682 1155.429443,555.489502 
	C1155.621094,556.961609 1155.470093,558.479492 1155.457764,559.976624 
	C1155.400024,567.033386 1155.397949,567.033386 1163.026855,567.029358 
z"/>
<path fill="#332C28" opacity="1.000000" stroke="none" 
	d="
M1767.378052,636.972534 
	C1766.850220,640.774963 1767.908447,642.200073 1771.583862,642.003418 
	C1777.391479,641.692688 1783.228882,641.975708 1789.052246,641.898987 
	C1791.107910,641.871887 1792.542358,641.967773 1792.448853,644.713623 
	C1792.357910,647.386841 1790.702881,647.006836 1789.067139,647.007263 
	C1780.912598,647.009521 1772.756714,646.931824 1764.604248,647.063477 
	C1762.043091,647.104858 1761.147827,646.358337 1761.174072,643.693481 
	C1761.298462,631.047668 1761.283569,618.399536 1761.188354,605.753174 
	C1761.169678,603.271667 1761.746094,602.148682 1764.487183,602.196411 
	C1772.639282,602.338501 1780.795288,602.266296 1788.949829,602.244019 
	C1790.714111,602.239197 1792.140381,602.159912 1792.229492,604.721008 
	C1792.328613,607.567810 1790.765747,607.509827 1788.781128,607.492249 
	C1782.790405,607.439148 1776.797729,607.543091 1770.808472,607.438354 
	C1768.272583,607.394043 1767.419189,608.277222 1767.311523,610.899536 
	C1766.880127,621.410400 1766.781494,621.406921 1777.153809,621.410095 
	C1780.482178,621.411133 1783.812012,621.463501 1787.138550,621.386353 
	C1789.174805,621.339172 1790.719971,621.453125 1790.632568,624.206482 
	C1790.552979,626.711243 1789.063965,626.707214 1787.294800,626.696716 
	C1782.302368,626.667114 1777.296631,626.898254 1772.321533,626.601379 
	C1768.521973,626.374756 1766.664917,627.352234 1767.335815,631.488403 
	C1767.598755,633.109924 1767.378296,634.809875 1767.378052,636.972534 
z"/>
<path fill="#2E2724" opacity="1.000000" stroke="none" 
	d="
M1428.818115,633.163330 
	C1428.758789,623.909912 1428.773315,615.086853 1428.701660,606.264465 
	C1428.683228,603.982483 1428.409790,602.067932 1431.857178,602.153320 
	C1435.425903,602.241760 1434.820190,604.487122 1434.825439,606.571045 
	C1434.845581,614.561829 1434.774536,622.553223 1434.849976,630.543274 
	C1434.926270,638.610840 1438.957764,642.802368 1446.569946,642.926697 
	C1454.197754,643.051270 1458.240112,639.092285 1458.460815,630.783875 
	C1458.677368,622.631775 1458.579102,614.470520 1458.557617,606.313477 
	C1458.551636,604.054016 1458.266602,602.052307 1461.716431,602.153503 
	C1464.784546,602.243347 1464.686401,603.925781 1464.672119,606.074585 
	C1464.617798,614.230957 1464.742065,622.389282 1464.618530,630.544128 
	C1464.517944,637.190369 1462.862061,643.289856 1456.090210,646.177551 
	C1448.787842,649.291260 1441.403931,649.018616 1434.610596,644.698914 
	C1430.718018,642.223633 1429.142090,638.145569 1428.818115,633.163330 
z"/>
<path fill="#2C2521" opacity="1.000000" stroke="none" 
	d="
M880.145264,636.664185 
	C882.146851,626.202026 880.758606,616.040649 881.061157,605.925964 
	C881.143921,603.159485 881.807068,602.003662 884.704285,602.188416 
	C886.669556,602.313721 887.249817,603.031799 887.227112,604.922424 
	C887.110901,614.577942 887.468506,624.254761 886.946594,633.885498 
	C886.378967,644.359741 876.861023,650.042847 864.764771,647.736023 
	C856.128967,646.089172 851.666626,641.051758 851.345886,631.748413 
	C851.047729,623.099365 851.313965,614.432129 851.210754,605.774353 
	C851.181702,603.336182 851.752686,602.138489 854.529419,602.170105 
	C857.245728,602.200989 857.377441,603.605774 857.369446,605.663086 
	C857.335876,614.321350 857.204468,622.986145 857.483826,631.636414 
	C857.685303,637.875671 860.481323,641.111328 865.900269,642.503967 
	C871.876709,644.039917 876.652527,642.194824 880.145264,636.664185 
z"/>
<path fill="#2D2522" opacity="1.000000" stroke="none" 
	d="
M1118.955688,626.666138 
	C1118.132935,626.665894 1117.800171,626.665833 1117.467529,626.665710 
	C1104.984131,626.660400 1105.062256,626.655029 1105.925293,639.258667 
	C1106.080811,641.529663 1106.838623,642.006836 1108.884155,641.972778 
	C1115.036499,641.870361 1121.191895,641.897888 1127.345337,641.960938 
	C1128.964722,641.977539 1131.014771,641.150085 1131.081787,644.331665 
	C1131.144531,647.309570 1129.491089,647.008911 1127.609131,647.003906 
	C1119.458618,646.982239 1111.305908,646.887207 1103.159058,647.061462 
	C1100.436768,647.119629 1099.864258,646.165466 1099.888184,643.637695 
	C1100.007935,630.996460 1100.002808,618.353088 1099.901733,605.711548 
	C1099.881836,603.222778 1100.431396,602.163025 1103.178467,602.215149 
	C1111.326050,602.369751 1119.478638,602.268555 1127.629272,602.247131 
	C1129.377563,602.242554 1130.854858,602.180115 1130.943970,604.723755 
	C1131.043823,607.571228 1129.424805,607.480896 1127.457275,607.467651 
	C1121.470215,607.427429 1115.475952,607.639404 1109.497803,607.409851 
	C1106.558472,607.297058 1105.960938,608.315308 1105.928955,611.056396 
	C1105.807617,621.443481 1105.705444,621.442200 1116.170654,621.439453 
	C1119.331177,621.438660 1122.492432,621.474670 1125.652100,621.424194 
	C1127.593872,621.393250 1129.180176,621.300354 1129.140137,624.155640 
	C1129.097534,627.186096 1127.190186,626.640686 1125.434204,626.661987 
	C1123.438354,626.686157 1121.442017,626.666809 1118.955688,626.666138 
z"/>
<path fill="#2D2522" opacity="1.000000" stroke="none" 
	d="
M1501.444702,621.490356 
	C1504.026123,625.959473 1503.714111,626.611206 1499.179688,626.662720 
	C1494.189697,626.719482 1489.191406,626.813782 1484.210205,626.590088 
	C1481.150269,626.452637 1479.896973,627.088745 1479.900024,630.578735 
	C1479.910034,641.934692 1479.746948,641.934753 1491.155151,641.935181 
	C1494.648682,641.935303 1498.142456,641.956482 1501.635742,641.927917 
	C1503.502197,641.912659 1505.205200,641.608887 1505.090576,644.590210 
	C1504.990112,647.204102 1503.559448,647.003113 1501.851562,647.000427 
	C1493.533569,646.987305 1485.213867,646.908508 1476.898804,647.065430 
	C1474.374756,647.113037 1473.886719,646.169312 1473.902344,643.894409 
	C1473.990112,631.085693 1474.019653,618.275208 1473.880737,605.467407 
	C1473.850464,602.673462 1474.947632,602.174133 1477.399536,602.212158 
	C1485.382812,602.335938 1493.369019,602.271606 1501.354126,602.267578 
	C1503.217896,602.266663 1504.957642,602.011536 1504.936768,604.936218 
	C1504.915039,607.983398 1502.958374,607.437012 1501.227295,607.446167 
	C1495.404907,607.476807 1489.574951,607.625854 1483.762573,607.379700 
	C1480.591797,607.245422 1479.924805,608.382507 1479.919678,611.363403 
	C1479.902466,621.434814 1479.778564,621.432495 1490.016113,621.439880 
	C1493.675781,621.442505 1497.335449,621.458252 1501.444702,621.490356 
z"/>
<path fill="#2C2521" opacity="1.000000" stroke="none" 
	d="
M692.362732,544.999756 
	C692.384033,549.494629 692.143066,553.513428 692.483459,557.482361 
	C693.116150,564.858521 697.590637,568.348572 705.481689,568.037842 
	C712.210693,567.772888 715.880676,564.039795 716.041565,556.775391 
	C716.229614,548.285156 716.150757,539.788025 716.108521,531.294250 
	C716.097778,529.135254 716.004883,527.542358 719.085022,527.476929 
	C722.167664,527.411560 722.185913,528.922424 722.168091,531.149658 
	C722.098816,539.810120 722.256470,548.473694 722.095093,557.131714 
	C721.912354,566.932861 716.270081,572.649109 706.665405,573.113281 
	C694.176453,573.716919 687.464478,569.342712 686.649597,558.841248 
	C685.904358,549.237793 686.380127,539.541992 686.236633,529.888062 
	C686.196472,527.182312 688.020508,527.663513 689.639526,527.565063 
	C691.415833,527.457092 692.443787,527.893066 692.395020,530.011475 
	C692.283813,534.839111 692.361694,539.671082 692.362732,544.999756 
z"/>
<path fill="#29221F" opacity="1.000000" stroke="none" 
	d="
M836.928162,561.927002 
	C836.330322,565.930664 837.383911,567.419556 841.354248,567.147156 
	C847.158691,566.749023 853.010925,567.067200 858.842346,567.028259 
	C860.635010,567.016296 862.030884,567.008728 862.032104,569.545105 
	C862.033386,572.013367 860.772095,572.126282 858.911438,572.115601 
	C850.580688,572.067627 842.247925,572.010132 833.919373,572.155212 
	C831.466187,572.197998 830.846741,571.377197 830.864075,569.036438 
	C830.959167,556.207458 830.975708,543.376648 830.850159,530.548157 
	C830.825073,527.985535 831.834106,527.506470 834.070435,527.532837 
	C842.233765,527.629028 850.398743,527.595459 858.563110,527.578308 
	C860.353027,527.574585 861.831970,527.588440 861.788818,530.118774 
	C861.747864,532.520142 860.445374,532.779663 858.562866,532.766113 
	C852.564758,532.723022 846.562256,532.878784 840.569580,532.692566 
	C837.840942,532.607727 836.888306,533.289734 836.834167,536.216431 
	C836.638489,546.808899 836.515259,546.806152 847.019165,546.806458 
	C850.518250,546.806519 854.020142,546.895935 857.515198,546.778503 
	C859.454285,546.713379 860.115356,547.354614 860.074524,549.329834 
	C860.033875,551.295593 859.318542,551.917786 857.408081,551.885254 
	C852.077759,551.794250 846.727478,552.116577 841.418762,551.765747 
	C837.609680,551.514099 836.312256,552.755249 836.870239,556.448669 
	C837.116577,558.079041 836.929443,559.774841 836.928162,561.927002 
z"/>
<path fill="#2B2420" opacity="1.000000" stroke="none" 
	d="
M1502.169434,556.015381 
	C1508.568237,554.790955 1508.926392,555.174683 1507.010986,560.837585 
	C1504.584717,568.011414 1499.561279,572.155762 1492.076172,572.975708 
	C1483.975952,573.862915 1476.532349,572.222290 1472.131958,564.657593 
	C1466.509521,554.991821 1466.574829,544.938171 1472.299927,535.300293 
	C1476.588379,528.080750 1485.556519,525.029236 1494.686279,527.060120 
	C1501.751099,528.631653 1506.146851,533.324646 1507.378418,540.700317 
	C1504.331787,541.355957 1502.131592,541.531128 1500.309692,537.762512 
	C1496.226929,529.317688 1482.774170,529.561096 1477.350708,537.842957 
	C1473.135132,544.280212 1473.165283,555.719421 1477.473999,562.117737 
	C1480.957275,567.289978 1486.116699,568.848083 1491.893433,567.864624 
	C1498.107422,566.806702 1501.039795,562.336731 1502.169434,556.015381 
z"/>
<path fill="#2B2420" opacity="1.000000" stroke="none" 
	d="
M825.885254,648.008911 
	C813.326050,647.653442 806.402100,641.326843 804.818787,629.328064 
	C804.083740,623.757996 804.464111,618.341858 806.781250,613.200928 
	C810.279419,605.439575 816.531189,601.534668 824.896973,601.289978 
	C832.149353,601.077759 838.410400,603.417480 842.066284,610.187256 
	C842.938782,611.802917 845.322083,614.283081 842.841614,615.667114 
	C840.681580,616.872314 838.069519,616.351379 836.741760,612.819885 
	C834.973938,608.117920 830.534546,606.488953 825.785034,606.435425 
	C820.472107,606.375671 815.840149,608.255127 813.275757,613.195801 
	C809.331482,620.795288 809.359863,628.656494 813.342224,636.180969 
	C816.222412,641.622925 821.382446,643.512451 827.312012,642.814697 
	C833.093994,642.134399 836.850098,638.588684 837.778870,632.966370 
	C838.396484,629.227112 840.724548,629.755249 842.802307,630.158203 
	C845.373108,630.656860 843.974243,632.842041 843.659607,634.186523 
	C841.727112,642.443726 835.915100,647.004395 825.885254,648.008911 
z"/>
<path fill="#2C2521" opacity="1.000000" stroke="none" 
	d="
M1195.418579,536.522095 
	C1190.564209,543.754150 1190.361572,551.195801 1193.023315,558.775757 
	C1195.299805,565.259033 1200.366943,568.349731 1207.360107,568.029785 
	C1213.123779,567.766113 1217.164429,564.644287 1218.716309,558.022949 
	C1219.480835,554.761414 1221.285278,554.932190 1223.356812,555.274475 
	C1226.394287,555.776428 1224.897827,557.999756 1224.504395,559.521545 
	C1222.562988,567.028931 1217.726318,571.751770 1210.075684,572.875549 
	C1201.882568,574.079102 1194.401367,572.449402 1189.385620,565.034180 
	C1183.864746,556.871887 1183.949585,543.366272 1189.410034,535.178528 
	C1194.039185,528.237427 1202.190918,525.201477 1211.417725,526.982178 
	C1218.581787,528.364746 1223.118652,533.080933 1224.552856,540.640076 
	C1221.038696,541.885925 1219.103271,540.846069 1217.244629,537.319336 
	C1213.447144,530.114319 1202.819458,529.802063 1195.418579,536.522095 
z"/>
<path fill="#2C2521" opacity="1.000000" stroke="none" 
	d="
M1661.914185,567.060364 
	C1655.285034,558.074280 1654.763428,548.546570 1658.539795,538.849731 
	C1663.024292,527.334656 1677.771240,522.753052 1688.310547,529.258362 
	C1692.503296,531.846375 1694.988892,535.631714 1695.729614,540.615112 
	C1692.344604,541.604980 1690.264771,541.301392 1688.345215,537.463013 
	C1684.220703,529.215271 1670.220093,529.697815 1665.378418,538.149414 
	C1661.010010,545.774780 1661.214233,553.870850 1665.331421,561.526184 
	C1668.243774,566.941467 1673.456421,568.632690 1679.400269,567.946045 
	C1685.060181,567.292175 1688.543091,563.763855 1689.624023,558.489563 
	C1690.292603,555.226868 1691.944092,554.676331 1694.389404,555.268372 
	C1697.634155,556.054016 1695.810913,558.434631 1695.331543,560.049805 
	C1691.137695,574.177490 1674.248901,577.857361 1661.914185,567.060364 
z"/>
<path fill="#2E2724" opacity="1.000000" stroke="none" 
	d="
M771.279419,620.209839 
	C773.430481,614.759399 775.514709,609.695374 777.387695,604.554382 
	C778.196655,602.333984 779.681091,602.157104 781.665161,602.190979 
	C783.626831,602.224487 785.125427,602.410339 785.961914,604.593811 
	C791.295837,618.517334 796.728027,632.403198 802.178650,646.432251 
	C797.557007,648.041992 795.233093,646.796448 793.810425,642.072083 
	C791.252380,633.577698 790.954285,633.667480 781.953796,633.670166 
	C772.129761,633.673096 771.909302,633.600891 768.964844,642.595337 
	C767.552246,646.910645 765.250122,647.955994 761.095032,646.526611 
	C764.444641,637.858215 767.785889,629.211609 771.279419,620.209839 
z"/>
<path fill="#2D2522" opacity="1.000000" stroke="none" 
	d="
M977.818970,611.081787 
	C982.457275,623.042847 986.967529,634.640869 991.534363,646.384155 
	C986.859131,648.172119 984.612854,646.681946 983.160645,642.103088 
	C980.456726,633.577393 980.210022,633.655640 971.347595,633.659790 
	C961.425842,633.664429 961.430969,633.666321 958.028137,642.974670 
	C957.576538,644.210144 957.375305,645.933044 956.469299,646.517517 
	C954.957153,647.493103 952.695312,647.560303 951.231445,646.617493 
	C949.988953,645.817322 951.372559,644.260376 951.818176,643.109192 
	C956.554688,630.873718 961.319580,618.649414 966.079224,606.422974 
	C966.984741,604.097046 967.648865,602.070129 971.126770,602.083191 
	C974.681580,602.096497 975.119080,604.286560 976.006531,606.571594 
	C976.546692,607.962280 977.128113,609.336914 977.818970,611.081787 
z"/>
<path fill="#2D2522" opacity="1.000000" stroke="none" 
	d="
M1689.195679,623.673340 
	C1692.215210,631.439392 1695.121948,638.836792 1698.095459,646.404297 
	C1693.573364,647.978699 1691.215698,646.938110 1689.755493,642.165344 
	C1687.125732,633.570984 1686.808228,633.668091 1677.978271,633.663757 
	C1668.003174,633.658875 1667.723389,633.567688 1664.668823,642.941711 
	C1663.234253,647.344543 1660.816650,647.624390 1656.979248,646.563110 
	C1662.393433,632.604675 1667.833984,618.727783 1673.125488,604.794128 
	C1674.045898,602.370605 1675.658081,602.282959 1677.757568,602.197815 
	C1679.864868,602.112305 1681.132690,602.633728 1681.911255,604.739441 
	C1684.211426,610.961243 1686.680054,617.120789 1689.195679,623.673340 
z"/>
<path fill="#2D2522" opacity="1.000000" stroke="none" 
	d="
M1292.289795,637.220398 
	C1296.497070,626.522217 1300.624023,616.209717 1304.525146,605.812500 
	C1305.465820,603.305359 1306.543579,602.077393 1309.443237,602.108582 
	C1312.205444,602.138306 1313.113037,603.510437 1313.957642,605.705261 
	C1319.190063,619.303162 1324.513062,632.866150 1329.804688,646.437195 
	C1324.642212,648.521790 1322.696533,646.014771 1321.247192,641.589478 
	C1318.630737,633.600281 1318.427002,633.667053 1310.111938,633.663635 
	C1299.811157,633.659363 1299.566406,633.575134 1296.336670,642.958191 
	C1294.981812,646.894409 1292.903809,647.691467 1289.097656,646.674744 
	C1289.293945,643.392639 1291.287109,640.656372 1292.289795,637.220398 
z"/>
<path fill="#2A231F" opacity="1.000000" stroke="none" 
	d="
M1535.717529,558.871826 
	C1534.087158,558.871887 1532.922241,558.872192 1531.757202,558.871765 
	C1521.510376,558.867981 1521.320435,558.800964 1517.893555,568.521973 
	C1516.411133,572.726746 1513.812622,572.455261 1510.232422,571.701233 
	C1515.758789,557.612671 1521.265991,543.747986 1526.588257,529.812683 
	C1527.374878,527.753296 1528.578247,527.423157 1530.337036,527.586914 
	C1532.040771,527.745605 1534.012939,526.987793 1534.953491,529.432739 
	C1540.361328,543.489319 1545.848511,557.515442 1551.316528,571.572021 
	C1546.698364,573.056213 1543.919312,572.004883 1543.019287,567.261353 
	C1542.684326,565.495728 1541.506226,563.880615 1541.228027,562.115662 
	C1540.727905,558.943420 1538.739990,558.583801 1535.717529,558.871826 
z"/>
<path fill="#2B2420" opacity="1.000000" stroke="none" 
	d="
M1045.582275,565.357544 
	C1046.482666,567.697388 1047.200439,569.688049 1047.914551,571.668213 
	C1043.213135,573.096191 1040.923218,571.675781 1039.523438,566.926392 
	C1037.117798,558.763794 1036.757202,558.870117 1028.022827,558.873535 
	C1027.690063,558.873657 1027.357422,558.873352 1027.024658,558.873596 
	C1017.994202,558.881653 1017.804932,558.817688 1014.851746,567.555481 
	C1013.453857,571.691345 1011.310059,573.159790 1006.971252,571.584412 
	C1012.371094,557.694153 1017.837158,543.833801 1023.107727,529.899475 
	C1024.104126,527.265198 1025.942139,527.746399 1027.884399,527.544556 
	C1030.106201,527.313538 1031.141724,528.247253 1031.902344,530.234253 
	C1036.346802,541.846497 1040.889893,553.421021 1045.582275,565.357544 
z"/>
<path fill="#2A231F" opacity="1.000000" stroke="none" 
	d="
M1847.026611,569.036133 
	C1847.062500,570.313599 1849.102905,571.849426 1846.777344,571.947449 
	C1844.779419,572.031555 1841.998657,573.517456 1840.850220,570.189026 
	C1839.877563,567.369873 1838.725952,564.608032 1837.858765,561.758423 
	C1837.171509,559.500549 1835.902222,558.526672 1833.541748,558.829956 
	C1832.395630,558.977234 1831.182861,559.048950 1830.057251,558.843018 
	C1821.344727,557.248840 1815.441528,559.638489 1813.968994,569.343750 
	C1813.311768,573.675781 1809.814209,571.803955 1806.856689,571.920044 
	C1812.381714,557.696472 1817.843384,543.833130 1823.112183,529.896851 
	C1824.105591,527.268860 1825.944458,527.759949 1827.881836,527.541687 
	C1830.416016,527.256226 1831.269409,528.568542 1832.078979,530.675232 
	C1836.953735,543.361023 1841.966187,555.993896 1847.026611,569.036133 
z"/>
<path fill="#2A231F" opacity="1.000000" stroke="none" 
	d="
M1615.124878,566.088074 
	C1619.809204,554.150513 1624.441162,542.608521 1628.882446,530.993530 
	C1629.747681,528.730713 1630.557739,527.369568 1633.327637,527.499329 
	C1635.719238,527.611328 1637.149902,528.009094 1638.119751,530.567200 
	C1643.287476,544.196655 1648.691650,557.736511 1654.106934,571.544922 
	C1649.653198,572.968567 1647.217651,572.108398 1645.748169,567.320557 
	C1643.125000,558.773438 1642.808105,558.870728 1633.968750,558.872803 
	C1624.130371,558.875122 1623.896118,558.795837 1620.740723,568.120972 
	C1619.378052,572.147400 1617.103271,572.700317 1613.172974,571.770325 
	C1613.787476,569.989136 1614.396606,568.223633 1615.124878,566.088074 
z"/>
<path fill="#2B2420" opacity="1.000000" stroke="none" 
	d="
M820.094849,528.034058 
	C822.145752,527.625305 823.946960,527.202087 826.041748,528.157043 
	C821.075500,542.061218 816.022339,555.895203 811.251282,569.825867 
	C810.274902,572.676941 808.399719,571.862122 806.557251,572.112061 
	C804.095886,572.445862 803.163757,571.289551 802.395691,569.066956 
	C798.057983,556.515259 793.482605,544.045349 789.208313,531.472778 
	C788.889771,530.535828 786.345764,528.267395 789.550720,527.717041 
	C791.553772,527.372986 794.146240,526.540344 795.180359,530.018677 
	C797.259460,537.012390 799.722351,543.892151 802.028076,550.818542 
	C803.535095,555.345398 805.044250,559.871643 807.045288,565.877380 
	C811.615723,552.444824 815.722107,540.376160 820.094849,528.034058 
z"/>
<path fill="#2F2825" opacity="1.000000" stroke="none" 
	d="
M760.246582,623.237305 
	C760.628601,626.055908 759.604553,626.806213 757.193420,626.712036 
	C752.701599,626.536743 748.182800,626.897705 743.703613,626.603699 
	C740.456543,626.390564 739.753296,627.629089 739.907776,630.574463 
	C740.134399,634.895081 739.857300,639.240356 740.014465,643.567078 
	C740.103333,646.014465 739.560974,647.140869 736.779846,647.105408 
	C734.187012,647.072144 733.841309,645.980896 733.854309,643.790344 
	C733.928894,631.126831 733.969604,618.461670 733.820251,605.799377 
	C733.785950,602.888611 734.786011,602.123657 737.535278,602.179382 
	C745.030640,602.331543 752.531311,602.276428 760.029114,602.215454 
	C761.930603,602.200012 763.189575,602.377258 763.217102,604.803467 
	C763.243774,607.161133 762.162781,607.530334 760.165710,607.495056 
	C754.668457,607.398071 749.164917,607.570435 743.671143,607.400574 
	C741.031433,607.319092 739.935669,607.854614 739.882202,610.868652 
	C739.694641,621.433044 739.565186,621.232727 750.046143,621.542236 
	C753.416565,621.641785 757.217163,619.690063 760.246582,623.237305 
z"/>
<path fill="#2F2825" opacity="1.000000" stroke="none" 
	d="
M941.808350,624.001343 
	C941.822449,630.827637 941.760132,637.156006 941.890076,643.480408 
	C941.938782,645.850525 941.592896,647.061218 938.715942,647.105713 
	C935.671204,647.152893 935.668030,645.652161 935.681641,643.445496 
	C935.747253,632.790283 935.629089,622.133301 935.776978,611.479736 
	C935.818237,608.506409 934.988647,607.201416 931.862793,607.427979 
	C929.047852,607.631958 926.202576,607.374939 923.376099,607.475586 
	C921.409607,607.545532 920.782898,606.747437 920.802490,604.838562 
	C920.822205,602.923828 921.497559,602.210876 923.440186,602.222534 
	C933.596130,602.283691 943.752686,602.275513 953.908752,602.221924 
	C955.834106,602.211731 956.574829,602.971558 956.599426,604.867188 
	C956.624512,606.798279 955.847412,607.415222 953.936951,607.509094 
	C950.020752,607.701477 944.415222,605.639709 942.618896,608.383179 
	C940.609802,611.451660 941.930603,616.702820 941.811707,621.004395 
	C941.788696,621.836304 941.808411,622.669312 941.808350,624.001343 
z"/>
<path fill="#2D2522" opacity="1.000000" stroke="none" 
	d="
M1123.862793,551.000854 
	C1123.858765,546.001465 1123.593018,541.481873 1123.931885,537.008118 
	C1124.212036,533.309387 1122.747192,532.404419 1119.410522,532.709778 
	C1116.766357,532.951843 1114.077759,532.663574 1111.416748,532.784180 
	C1109.362549,532.877380 1108.932007,531.903687 1108.895142,530.084717 
	C1108.855225,528.112915 1109.598633,527.513000 1111.516113,527.525757 
	C1121.681396,527.593506 1131.847656,527.580200 1142.013184,527.535034 
	C1143.811768,527.527100 1144.830078,527.950562 1144.796021,530.023926 
	C1144.765869,531.855713 1144.246094,532.918640 1142.235352,532.755676 
	C1141.904419,532.728821 1141.565796,532.726135 1141.236206,532.762817 
	C1137.507324,533.176758 1132.516113,530.980835 1130.371704,533.799377 
	C1128.592407,536.138000 1129.890137,540.842041 1129.880859,544.498230 
	C1129.860840,552.497803 1129.826660,560.497986 1129.908691,568.496826 
	C1129.932007,570.775330 1129.764648,572.152405 1126.795410,572.203247 
	C1123.660522,572.256897 1123.806885,570.642334 1123.834473,568.499451 
	C1123.907471,562.833984 1123.861450,557.166931 1123.862793,551.000854 
z"/>
<path fill="#2F2825" opacity="1.000000" stroke="none" 
	d="
M1858.548828,548.999756 
	C1858.554321,554.317017 1858.676025,559.138367 1858.516235,563.950378 
	C1858.437012,566.338745 1859.176270,567.139343 1861.598877,567.076050 
	C1867.409546,566.924316 1873.227417,567.071899 1879.041382,567.002869 
	C1880.917358,566.980652 1882.116333,567.101013 1882.124634,569.570312 
	C1882.132812,572.010498 1880.991089,572.158569 1879.100220,572.142700 
	C1871.292480,572.077271 1863.481567,572.015015 1855.676392,572.172607 
	C1852.944214,572.227722 1852.358765,571.168884 1852.378296,568.671753 
	C1852.477295,556.046204 1852.455322,543.419312 1852.383911,530.793335 
	C1852.371460,528.593506 1852.783813,527.520447 1855.360107,527.470764 
	C1858.206421,527.415955 1858.640137,528.650208 1858.588745,531.056580 
	C1858.465088,536.868713 1858.548706,542.685242 1858.548828,548.999756 
z"/>
<path fill="#2B2420" opacity="1.000000" stroke="none" 
	d="
M902.755798,635.931152 
	C901.904785,640.977661 903.777283,642.424927 908.313354,642.032837 
	C913.097107,641.619385 917.944702,641.958679 922.764221,641.937256 
	C924.606262,641.929077 926.311523,641.571533 926.234741,644.557495 
	C926.155457,647.641113 924.237244,646.973694 922.530212,646.979370 
	C915.051636,647.004272 907.571289,646.908386 900.095337,647.052368 
	C897.604614,647.100342 896.559937,646.530762 896.586670,643.792786 
	C896.711853,630.997009 896.694153,618.198975 896.611450,605.402527 
	C896.596252,603.050720 897.312500,602.191528 899.730286,602.185974 
	C902.258362,602.180237 902.786682,603.311768 902.772705,605.525391 
	C902.709656,615.496643 902.751648,625.468628 902.755798,635.931152 
z"/>
<path fill="#29221F" opacity="1.000000" stroke="none" 
	d="
M1356.890869,646.985962 
	C1350.092651,646.990845 1343.777588,646.883484 1337.470215,647.054565 
	C1334.861450,647.125305 1334.064941,646.340271 1334.091553,643.692261 
	C1334.218750,631.069214 1334.179688,618.443909 1334.105591,605.819946 
	C1334.091675,603.452881 1334.488037,602.226440 1337.336792,602.182373 
	C1340.616089,602.131592 1340.192017,604.090027 1340.192383,606.072571 
	C1340.194336,616.537537 1340.396606,627.008179 1340.099365,637.464600 
	C1339.988525,641.358337 1341.225952,642.257874 1344.856079,642.024048 
	C1349.818970,641.704346 1354.819458,641.867859 1359.800049,641.984985 
	C1361.490723,642.024658 1363.940674,640.882446 1363.970215,644.427063 
	C1363.999390,647.939087 1361.622803,646.805481 1359.867554,646.973328 
	C1359.044556,647.052063 1358.207764,646.986267 1356.890869,646.985962 
z"/>
<path fill="#231B18" opacity="1.000000" stroke="none" 
	d="
M1330.973511,538.039307 
	C1330.973633,546.863708 1331.091919,555.196777 1330.908081,563.523071 
	C1330.845703,566.346985 1331.656982,567.218872 1334.485840,567.110352 
	C1339.975586,566.899963 1345.479614,567.087891 1350.977173,567.039673 
	C1352.927002,567.022583 1354.585327,566.918152 1354.572144,569.728271 
	C1354.559692,572.389771 1352.896240,572.090332 1351.232178,572.089539 
	C1343.401489,572.085632 1335.569824,572.011169 1327.740967,572.128784 
	C1325.562378,572.161438 1324.902710,571.527283 1324.918579,569.328735 
	C1325.012695,556.333801 1325.010620,543.337463 1324.922729,530.342468 
	C1324.907593,528.100647 1325.707886,527.538452 1327.822754,527.535706 
	C1330.063965,527.532776 1331.247559,527.978882 1331.016968,530.551514 
	C1330.809448,532.865479 1330.973389,535.212708 1330.973511,538.039307 
z"/>
<path fill="#403A36" opacity="1.000000" stroke="none" 
	d="
M1460.645752,549.000122 
	C1460.646362,555.982727 1460.561768,562.467163 1460.694214,568.947083 
	C1460.739746,571.176514 1460.386230,572.297546 1457.783325,572.244019 
	C1455.367065,572.194275 1454.256470,571.757446 1454.286743,568.963562 
	C1454.424927,556.166016 1454.387573,543.365723 1454.291992,530.567322 
	C1454.273926,528.143616 1455.152466,527.383667 1457.488159,527.405762 
	C1459.766846,527.427307 1460.756348,528.076477 1460.695068,530.549438 
	C1460.546753,536.529785 1460.646362,542.516235 1460.645752,549.000122 
z"/>
<path fill="#332C28" opacity="1.000000" stroke="none" 
	d="
M1191.706543,622.000488 
	C1191.701782,629.635803 1191.622925,636.772461 1191.735229,643.906067 
	C1191.771606,646.224854 1191.122925,647.130188 1188.668213,647.103333 
	C1186.346313,647.077881 1185.485962,646.438843 1185.502197,644.005554 
	C1185.588501,631.063354 1185.547241,618.119934 1185.489990,605.177307 
	C1185.481079,603.150146 1186.033447,602.100403 1188.302979,602.178040 
	C1190.343384,602.247803 1191.788208,602.359253 1191.710449,605.075317 
	C1191.553955,610.545959 1191.690796,616.025085 1191.706543,622.000488 
z"/>
<path fill="#2D2522" opacity="1.000000" stroke="none" 
	d="
M952.189941,559.979675 
	C952.189148,550.193359 952.216125,540.902710 952.167297,531.612427 
	C952.155334,529.332458 951.953918,527.458069 955.334534,527.453064 
	C958.528015,527.448303 958.217773,529.215393 958.213379,531.269592 
	C958.186584,543.712280 958.175354,556.155090 958.227844,568.597534 
	C958.237122,570.790771 958.263306,572.281189 955.183044,572.215210 
	C952.117432,572.149536 952.102295,570.613770 952.170715,568.438171 
	C952.254150,565.786377 952.190002,563.129883 952.189941,559.979675 
z"/>
<path fill="#261E1B" opacity="1.000000" stroke="none" 
	d="
M1708.790771,571.987610 
	C1705.165771,572.577148 1703.676880,571.889465 1703.766846,568.038452 
	C1704.054077,555.751953 1703.902710,543.454346 1703.847290,531.161377 
	C1703.837280,528.936462 1703.850708,527.350037 1706.925171,527.507324 
	C1709.374146,527.632690 1709.964722,528.432312 1709.948486,530.748413 
	C1709.856567,543.871460 1709.917480,556.995483 1709.884399,570.119141 
	C1709.882812,570.714417 1709.475830,571.308716 1708.790771,571.987610 
z"/>
<path fill="#2C2521" opacity="1.000000" stroke="none" 
	d="
M1702.795410,614.019531 
	C1702.798706,610.859375 1702.883545,608.191772 1702.779663,605.531433 
	C1702.695557,603.377441 1703.074097,602.101562 1705.730835,602.194092 
	C1708.042725,602.274597 1708.933838,602.891052 1708.914185,605.351440 
	C1708.811768,618.173584 1708.828979,630.997192 1708.910156,643.819641 
	C1708.924438,646.076294 1708.409546,647.000671 1705.898682,647.090088 
	C1702.944214,647.195312 1702.741943,645.791870 1702.760864,643.491394 
	C1702.840210,633.833191 1702.795044,624.173950 1702.795410,614.019531 
z"/>
<path fill="#261E1B" opacity="1.000000" stroke="none" 
	d="
M776.915710,545.001343 
	C776.915771,540.351929 776.894165,536.201904 776.924622,532.052246 
	C776.940552,529.877625 776.065002,527.409363 780.050964,527.476135 
	C783.739319,527.537903 782.930603,529.794922 782.934692,531.801880 
	C782.959167,543.919495 782.915222,556.037354 782.976013,568.154663 
	C782.987671,570.479004 783.172058,572.203064 779.789185,572.204163 
	C776.049438,572.205383 776.949951,569.860718 776.936890,567.910156 
	C776.886902,560.440674 776.916077,552.970703 776.915710,545.001343 
z"/>
<path fill="#332C28" opacity="1.000000" stroke="none" 
	d="
M1385.250366,515.497375 
	C1384.752075,519.534546 1381.222290,521.395569 1378.768555,524.076904 
	C1378.062256,524.848816 1376.405396,524.927368 1375.542969,524.110168 
	C1374.640259,523.254883 1375.815430,522.317505 1376.252808,521.588867 
	C1378.220947,518.309204 1379.599487,514.084106 1385.250366,515.497375 
z"/>
<path fill="#FEFDFD" opacity="1.000000" stroke="none" 
	d="
M1530.000000,419.971283 
	C1520.013672,419.969604 1510.524902,419.849152 1501.042236,420.034546 
	C1497.970459,420.094574 1497.128296,419.209412 1497.147827,416.118866 
	C1497.284302,394.650452 1497.296997,373.180145 1497.135620,351.712036 
	C1497.109863,348.285797 1498.263184,347.563416 1501.415771,347.579773 
	C1524.049316,347.697388 1546.683716,347.628021 1569.317749,347.685425 
	C1572.471680,347.693420 1575.681030,347.761261 1578.769165,348.324951 
	C1606.286133,353.347931 1618.082397,385.654388 1600.327026,407.545258 
	C1592.822144,416.798218 1582.245117,419.619751 1570.940430,419.867340 
	C1557.466064,420.162415 1543.980591,419.958832 1530.000000,419.971283 
z"/>
<path fill="#FEFCFD" opacity="1.000000" stroke="none" 
	d="
M1583.853027,312.968689 
	C1578.089966,316.262421 1572.258667,318.064087 1565.971680,318.081451 
	C1544.333496,318.141174 1522.694824,318.086884 1501.057251,318.221436 
	C1498.016724,318.240356 1497.133911,317.375916 1497.157104,314.292053 
	C1497.297485,295.650696 1497.297363,277.007111 1497.145142,258.365845 
	C1497.118408,255.079514 1498.054443,254.131149 1501.344727,254.153229 
	C1522.316406,254.294052 1543.289673,254.191360 1564.262085,254.271347 
	C1567.575928,254.283981 1570.915039,254.636765 1574.195557,255.139175 
	C1587.908081,257.239319 1595.609497,265.574219 1597.155273,279.414459 
	C1598.657593,292.865326 1596.044922,304.602417 1583.853027,312.968689 
z"/>
<path fill="#FEFDFE" opacity="1.000000" stroke="none" 
	d="
M1766.371216,253.142212 
	C1780.350098,250.347229 1793.897583,250.097641 1807.322876,253.817688 
	C1825.807495,258.939606 1836.580078,272.257935 1838.958862,293.021118 
	C1841.431152,314.599945 1839.839111,336.278381 1840.328369,357.906952 
	C1840.385742,360.443695 1839.297729,360.922363 1837.056519,360.919098 
	C1802.914429,360.869263 1768.772339,360.878601 1734.630249,360.901733 
	C1732.644653,360.903076 1731.070068,360.919891 1731.137329,358.129791 
	C1731.667114,336.176147 1729.898804,314.161957 1732.864136,292.273224 
	C1735.580322,272.222107 1745.637817,258.362457 1766.371216,253.142212 
z"/>
<path fill="#FCFCFC" opacity="1.000000" stroke="none" 
	d="
M510.646454,172.363159 
	C547.156494,210.047165 569.701416,254.483139 575.581848,306.253204 
	C584.400757,383.892944 560.328918,450.473755 503.810028,504.602234 
	C467.466248,539.408875 423.740936,560.593201 373.762939,565.555054 
	C278.479248,575.015076 202.177734,539.927490 149.813339,459.788940 
	C68.464066,335.291962 126.567627,165.758224 267.236328,117.071762 
	C358.614227,85.445190 440.198303,105.802979 510.646454,172.363159 
z"/>
<path fill="#F9F9F8" opacity="1.000000" stroke="none" 
	d="
M1396.139648,626.647400 
	C1400.612305,626.730347 1404.622314,626.597778 1408.587280,626.958557 
	C1412.448120,627.309814 1415.089355,629.243164 1415.194336,633.620056 
	C1415.303833,638.180481 1413.094238,641.171021 1408.750122,641.672913 
	C1403.984497,642.223694 1399.116699,641.893188 1394.293457,641.937805 
	C1393.964111,641.940857 1393.442383,641.990662 1393.332520,641.815857 
	C1390.756348,637.720032 1392.766968,633.208069 1392.232666,628.909668 
	C1391.906738,626.287842 1394.049561,626.713318 1396.139648,626.647400 
z"/>
<path fill="#F2F1F0" opacity="1.000000" stroke="none" 
	d="
M1394.496094,607.387695 
	C1399.268677,607.525513 1403.594482,607.565186 1407.902588,607.860657 
	C1411.782104,608.126770 1413.365112,610.706299 1413.411255,614.293518 
	C1413.457397,617.880432 1411.823242,620.593994 1408.105957,620.984802 
	C1403.655518,621.452698 1399.146484,621.397339 1394.661255,621.469421 
	C1393.912964,621.481506 1392.908325,621.207458 1392.451172,620.687988 
	C1391.184082,619.248474 1392.536255,608.894531 1394.496094,607.387695 
z"/>
<path fill="#FEFEFE" opacity="1.000000" stroke="none" 
	d="
M1541.392456,635.687134 
	C1541.636719,636.050720 1542.457642,636.998169 1540.862549,636.508606 
	C1540.890625,636.119446 1541.030029,635.991150 1541.392456,635.687134 
z"/>
<path fill="#F9F9F8" opacity="1.000000" stroke="none" 
	d="
M1731.073364,607.394531 
	C1734.845459,607.521301 1738.166382,607.484680 1741.449951,607.817444 
	C1745.178589,608.195312 1746.829712,610.689453 1747.090942,614.249573 
	C1747.359741,617.911011 1746.302124,620.807495 1742.484619,622.055054 
	C1737.300659,623.749329 1731.954102,622.656799 1726.688354,622.951599 
	C1725.097046,623.040710 1724.784058,622.049194 1724.797852,620.721375 
	C1724.823608,618.235535 1725.072754,615.710388 1724.731689,613.271057 
	C1724.065552,608.507080 1725.731934,606.441833 1731.073364,607.394531 
z"/>
<path fill="#F9F9F8" opacity="1.000000" stroke="none" 
	d="
M1082.945190,553.500549 
	C1080.140137,564.950623 1071.265869,569.970398 1060.064819,567.067200 
	C1058.031128,566.540100 1058.456787,565.258606 1058.450195,564.059448 
	C1058.397583,554.566406 1058.450806,545.072449 1058.349854,535.580139 
	C1058.326660,533.397461 1059.105469,532.509705 1061.242676,532.712524 
	C1061.902832,532.775208 1062.574097,532.721008 1063.240356,532.716431 
	C1079.714600,532.602173 1083.530518,536.536255 1082.945190,553.500549 
z"/>
<path fill="#FCFCFC" opacity="1.000000" stroke="none" 
	d="
M874.980103,539.027344 
	C874.102905,533.842773 875.815735,531.958130 880.737366,532.632812 
	C884.158813,533.101807 887.685669,532.742920 891.156067,532.929016 
	C894.854370,533.127319 896.870178,535.300781 897.264404,538.903625 
	C897.676697,542.672119 896.868591,545.938354 892.747131,547.218445 
	C887.402283,548.878296 881.888184,547.755188 876.455322,548.003174 
	C875.073608,548.066284 874.978516,547.029846 874.983276,545.979065 
	C874.992981,543.824585 874.982361,541.670044 874.980103,539.027344 
z"/>
<path fill="#F6F5F5" opacity="1.000000" stroke="none" 
	d="
M1077.305786,607.431274 
	C1083.745483,608.404724 1086.034302,610.655518 1085.824585,615.403442 
	C1085.621338,620.003357 1082.782349,622.435059 1077.022217,622.921753 
	C1076.362671,622.977478 1075.696045,622.950195 1075.032715,622.960571 
	C1062.546265,623.156372 1062.624146,623.159180 1063.057495,610.819763 
	C1063.146240,608.289673 1063.774658,607.223572 1066.425903,607.357117 
	C1069.900635,607.532166 1073.390259,607.407166 1077.305786,607.431274 
z"/>
<path fill="#FBFBFB" opacity="1.000000" stroke="none" 
	d="
M1560.922119,628.531250 
	C1560.468750,625.260986 1560.581787,622.429504 1561.079224,619.636536 
	C1562.463745,611.862854 1567.876587,606.813049 1575.142456,606.406616 
	C1582.522217,605.993774 1588.191284,610.255615 1590.290527,618.168152 
	C1591.967407,624.488342 1591.638184,630.712952 1588.018799,636.410156 
	C1584.597656,641.795105 1579.414917,643.737549 1573.387451,642.733154 
	C1565.812134,641.470886 1562.270020,636.125000 1560.922119,628.531250 
z"/>
<path fill="#FBFBFB" opacity="1.000000" stroke="none" 
	d="
M1298.601929,531.862671 
	C1307.981445,534.044983 1313.115234,542.488831 1311.636719,552.652649 
	C1310.104370,563.186340 1304.171021,568.634338 1294.964966,568.026062 
	C1291.090698,567.770081 1287.952148,566.129883 1285.446533,563.225098 
	C1279.502930,556.334534 1279.559204,543.173889 1285.574585,536.329834 
	C1288.930664,532.511414 1293.257690,531.314087 1298.601929,531.862671 
z"/>
<path fill="#FBFBFB" opacity="1.000000" stroke="none" 
	d="
M988.311157,533.037598 
	C997.297363,536.402161 1000.559265,543.448730 998.519775,554.207153 
	C996.787537,563.345215 992.287170,566.978333 982.614502,567.047058 
	C974.121948,567.107483 974.121460,567.107422 974.122131,558.476196 
	C974.122681,551.011536 974.228394,543.544739 974.069519,536.083496 
	C974.013672,533.462341 974.854553,532.533936 977.442444,532.701233 
	C980.913696,532.925720 984.400818,532.906616 988.311157,533.037598 
z"/>
<path fill="#FAFAFA" opacity="1.000000" stroke="none" 
	d="
M1002.009521,611.046021 
	C1001.856689,608.726074 1002.004700,607.196838 1004.490479,607.381836 
	C1005.977478,607.492493 1007.478577,607.426880 1008.973267,607.417236 
	C1015.084229,607.377808 1021.472778,607.432983 1024.539062,613.861755 
	C1028.081421,621.288818 1027.978027,629.097473 1023.618469,636.256470 
	C1020.492737,641.389465 1015.061646,641.994080 1009.552979,641.976929 
	C1002.009521,641.953491 1002.009338,642.002563 1002.009338,634.476013 
	C1002.009277,626.832458 1002.009277,619.188965 1002.009521,611.046021 
z"/>
<path fill="#FBFBFB" opacity="1.000000" stroke="none" 
	d="
M1733.245361,567.204956 
	C1722.346924,563.542603 1719.742798,544.408813 1728.350952,535.663635 
	C1734.209961,529.711365 1744.886597,530.451050 1750.021240,537.114868 
	C1755.076660,543.675964 1755.338013,555.342407 1750.451782,562.044006 
	C1746.180176,567.902588 1740.358887,569.172729 1733.245361,567.204956 
z"/>
<path fill="#FAFAFA" opacity="1.000000" stroke="none" 
	d="
M1211.444580,609.265198 
	C1222.656006,602.972290 1232.858276,607.840759 1235.193726,620.101379 
	C1236.196655,625.365662 1235.649048,630.362732 1233.245239,635.081482 
	C1230.504395,640.462280 1225.944092,643.077759 1219.912964,642.938354 
	C1214.062378,642.803162 1209.826050,639.941040 1207.218262,634.783325 
	C1203.016113,626.472595 1204.630737,616.398071 1211.444580,609.265198 
z"/>
<path fill="#FBFBFB" opacity="1.000000" stroke="none" 
	d="
M1384.505371,566.935303 
	C1373.925049,570.155457 1366.387207,565.776367 1363.792114,555.451355 
	C1362.428711,550.026978 1362.943970,544.828003 1365.279053,539.879883 
	C1367.758179,534.626587 1372.007324,531.824097 1377.956177,531.715332 
	C1384.035645,531.604187 1388.542480,534.051025 1391.381958,539.492981 
	C1396.373779,549.059998 1393.429321,563.033447 1384.505371,566.935303 
z"/>
<path fill="#F6F5F5" opacity="1.000000" stroke="none" 
	d="
M776.177734,622.475708 
	C777.970703,617.594299 779.637024,613.113586 781.562012,607.937378 
	C783.833130,614.194153 785.861450,619.792603 787.898438,625.387939 
	C788.610291,627.343262 788.398987,628.594788 785.861877,628.466797 
	C783.870483,628.366211 781.869568,628.463623 779.872986,628.456726 
	C774.058411,628.436646 774.058411,628.433411 776.177734,622.475708 
z"/>
<path fill="#F2F1F0" opacity="1.000000" stroke="none" 
	d="
M971.626099,628.485107 
	C963.395752,628.483276 963.379211,628.477295 966.051331,621.066650 
	C967.490479,617.075378 968.997681,613.108582 970.897949,607.989075 
	C973.400269,614.795410 975.528809,620.605103 977.674438,626.408569 
	C978.267883,628.013794 977.549438,628.528870 976.052185,628.500854 
	C974.724609,628.476013 973.396301,628.488892 971.626099,628.485107 
z"/>
<path fill="#EDECEC" opacity="1.000000" stroke="none" 
	d="
M1683.548584,624.765015 
	C1684.484497,627.091736 1684.767456,628.369507 1681.759155,628.604614 
	C1669.392822,629.570923 1669.402954,629.675659 1673.644531,618.247986 
	C1674.843506,615.017517 1676.027344,611.781494 1677.479980,607.836731 
	C1679.614502,613.852295 1681.484619,619.122681 1683.548584,624.765015 
z"/>
<path fill="#EDECEC" opacity="1.000000" stroke="none" 
	d="
M1314.471191,622.584229 
	C1316.535889,628.533203 1316.535889,628.533264 1310.421265,628.534058 
	C1301.619385,628.535156 1301.616577,628.534058 1304.720825,620.025024 
	C1306.060059,616.354492 1307.412720,612.688965 1309.188843,607.850830 
	C1311.171753,613.444153 1312.729248,617.837524 1314.471191,622.584229 
z"/>
<path fill="#F2F1F0" opacity="1.000000" stroke="none" 
	d="
M1537.098389,553.699524 
	C1533.689087,553.778870 1530.688721,553.654663 1527.706543,553.833862 
	C1524.477905,554.027954 1523.000122,553.476746 1524.558105,549.768616 
	C1526.707153,544.653931 1528.419312,539.355652 1530.750122,532.949829 
	C1533.237793,540.596802 1536.402344,546.748169 1537.098389,553.699524 
z"/>
<path fill="#F2F1F0" opacity="1.000000" stroke="none" 
	d="
M1027.755859,534.392944 
	C1029.816040,539.825317 1031.596680,544.965088 1033.552124,550.037598 
	C1034.553345,552.635132 1034.489868,554.042419 1031.093506,553.832825 
	C1027.637817,553.619507 1024.158813,553.785706 1019.768494,553.785706 
	C1022.580505,546.975220 1024.040894,540.164978 1027.755859,534.392944 
z"/>
<path fill="#F2F1F0" opacity="1.000000" stroke="none" 
	d="
M1829.833252,553.788696 
	C1826.408813,553.788635 1823.442505,553.788635 1819.837769,553.788635 
	C1822.351074,546.867432 1824.697388,540.406067 1827.395264,532.976929 
	C1829.656006,539.302917 1831.349854,544.666748 1833.496704,549.842651 
	C1835.077881,553.654419 1833.391602,554.127686 1829.833252,553.788696 
z"/>
<path fill="#F2F1F0" opacity="1.000000" stroke="none" 
	d="
M1630.071045,542.082153 
	C1631.194946,539.117981 1632.221191,536.531860 1633.543579,533.199646 
	C1635.814941,539.504089 1637.792236,545.076965 1639.836670,550.625061 
	C1640.682007,552.919617 1640.234741,553.953369 1637.545288,553.831299 
	C1633.911865,553.666504 1630.265503,553.790405 1626.366699,553.790405 
	C1626.856445,549.639954 1628.868286,546.186035 1630.071045,542.082153 
z"/>
<path fill="#261E1B" opacity="1.000000" stroke="none" 
	d="
M164.102859,432.908447 
	C101.652245,314.814453 163.568283,171.635513 291.987457,136.491608 
	C404.011444,105.834511 521.886658,177.194824 546.087524,290.320923 
	C569.436096,399.463135 506.153412,505.752441 398.370148,533.703369 
	C316.511444,554.931396 246.300568,531.678833 189.235107,469.273804 
	C179.316406,458.427002 171.385300,446.084961 164.102859,432.908447 
z"/>
<path fill="#FEFEFE" opacity="1.000000" stroke="none" 
	d="
M166.208405,411.702759 
	C118.864601,299.390106 183.794205,172.702454 302.430328,145.276230 
	C408.033813,120.862900 515.342773,190.485779 536.139771,296.908783 
	C557.080139,404.065460 487.283478,507.332062 380.735962,526.834045 
	C291.532318,543.161438 204.217987,496.681976 166.795792,412.950470 
	C166.660416,412.647614 166.500702,412.355591 166.208405,411.702759 
z"/>
<path fill="#221A17" opacity="1.000000" stroke="none" 
	d="
M429.997681,354.228821 
	C409.503784,354.228821 389.509735,354.228821 369.253387,354.228821 
	C371.201538,356.227448 373.750366,356.298309 375.962616,357.045258 
	C415.640686,370.442200 444.810699,409.076172 445.104004,448.356598 
	C445.135864,452.627197 444.269318,454.090271 439.687744,453.900177 
	C429.873657,453.493042 420.026672,453.613434 410.202087,453.865204 
	C406.714813,453.954590 405.954773,452.909424 405.667542,449.504303 
	C403.452545,423.244446 389.750031,405.394348 365.396637,395.594147 
	C364.184296,395.106293 362.897095,394.804443 361.600647,394.402344 
	C360.601257,396.109680 361.056274,397.772675 361.052826,399.344299 
	C361.016266,416.006958 360.949005,432.670532 361.108215,449.331787 
	C361.137665,452.414032 360.348816,453.275055 357.245789,453.194397 
	C348.587006,452.969482 339.913483,452.943756 331.256348,453.198914 
	C327.667847,453.304626 326.441589,452.539978 326.497650,448.631012 
	C326.736481,431.971985 326.475464,415.306213 326.656647,398.645691 
	C326.700500,394.613342 325.568512,394.293060 322.102142,395.531128 
	C299.255859,403.691284 282.828674,425.604218 282.041748,449.589813 
	C281.938507,452.737213 281.330139,453.928711 277.921783,453.858398 
	C267.595581,453.645355 257.258118,453.641388 246.933121,453.890015 
	C243.409592,453.974854 242.849411,452.589325 242.906586,449.547211 
	C243.489395,418.539124 256.948181,393.946960 280.336090,374.345306 
	C290.400391,365.910339 301.929504,360.071747 314.434052,356.137146 
	C315.644531,355.756317 317.029175,355.760223 317.969238,354.213501 
	C294.326416,354.213501 270.902435,354.102051 247.481537,354.320312 
	C243.451401,354.357849 242.552124,353.185852 242.678055,349.391602 
	C242.959778,340.902954 242.980255,332.390625 242.668839,323.904053 
	C242.528656,320.084351 243.698502,319.180817 247.391037,319.208160 
	C269.383850,319.371094 291.378540,319.282440 313.372620,319.269043 
	C314.354828,319.268463 315.337006,319.178894 317.293488,319.083008 
	C310.993408,316.514099 305.337097,314.734680 300.174286,312.017517 
	C265.068237,293.541382 244.753357,265.269440 242.895721,224.848114 
	C242.713135,220.875000 243.949356,219.863495 247.826019,219.970474 
	C257.982605,220.250763 268.153259,220.156540 278.315460,220.012100 
	C281.096283,219.972565 281.893463,220.774231 282.029297,223.613007 
	C283.230927,248.718887 298.827423,269.789093 321.955902,278.260254 
	C325.820068,279.675568 326.726074,279.029083 326.679932,274.930420 
	C326.490479,258.103180 326.696716,241.271561 326.525543,224.443924 
	C326.490509,221.001373 327.356812,219.876343 330.913727,219.985840 
	C339.403687,220.247131 347.913361,220.259033 356.402283,219.981277 
	C360.031189,219.862534 361.191772,220.673737 361.135590,224.544495 
	C360.896118,241.037140 361.035400,257.535309 361.036438,274.031433 
	C361.036560,275.684906 361.036469,277.338409 361.036469,279.445282 
	C367.497711,278.143494 372.965332,275.392761 378.048218,271.975586 
	C394.852753,260.678101 404.333038,244.911209 405.605011,224.649963 
	C405.868530,220.452148 407.320190,219.931595 410.844574,220.000336 
	C420.671844,220.192001 430.509735,220.233795 440.334076,219.977036 
	C443.980377,219.881744 445.183228,220.737579 445.082886,224.587372 
	C444.295532,254.799454 431.210785,278.889069 408.688629,298.288879 
	C397.751984,307.709351 385.106140,314.132599 371.354553,319.037262 
	C372.535065,319.115662 373.715485,319.261475 374.896027,319.262451 
	C396.557037,319.280396 418.218964,319.384125 439.878235,319.192078 
	C443.861176,319.156738 445.415466,319.889984 445.223022,324.266937 
	C444.850067,332.748566 444.876343,341.267822 445.220215,349.751892 
	C445.378937,353.667694 444.087219,354.620636 440.485352,354.290039 
	C437.182037,353.986877 433.828796,354.227722 429.997681,354.228821 
z"/>
</svg>